<svg xmlns="http://www.w3.org/2000/svg" width="107" height="23" viewBox="0 0 107 23">
    <path fill="#273048" fill-rule="evenodd" d="M5.353 7.825l-.775 2.5h4.925l-.775-2.5c-.3-.917-.583-1.83-.85-2.738-.267-.908-.533-1.837-.8-2.787h-.1c-.25.95-.508 1.88-.775 2.787-.267.909-.55 1.821-.85 2.738zM.353 17L5.903.6h2.35l5.55 16.4h-2.225l-1.55-5H4.053l-1.575 5H.353zm16.227 5.125V4.85h1.7l.175 1.4h.075a9.244 9.244 0 0 1 1.813-1.2 4.509 4.509 0 0 1 2.062-.5c.783 0 1.475.146 2.075.438.6.291 1.1.708 1.5 1.25.4.541.704 1.191.913 1.95.208.758.312 1.612.312 2.562 0 1.033-.142 1.954-.425 2.762-.283.809-.667 1.496-1.15 2.063a4.864 4.864 0 0 1-1.675 1.288c-.633.291-1.3.437-2 .437-.567 0-1.13-.125-1.687-.375A8.544 8.544 0 0 1 18.58 15.9l.05 2.125v4.1h-2.05zm5.025-6.55c.5 0 .963-.112 1.388-.337a3.315 3.315 0 0 0 1.1-.95c.308-.409.55-.913.725-1.513.175-.6.262-1.275.262-2.025 0-.667-.058-1.275-.175-1.825-.117-.55-.304-1.02-.562-1.413a2.695 2.695 0 0 0-1-.912c-.409-.217-.896-.325-1.463-.325-.517 0-1.037.142-1.562.425-.525.283-1.088.692-1.688 1.225V14.3c.55.467 1.083.796 1.6.988.517.191.975.287 1.375.287zm9.502 6.55V4.85h1.7l.175 1.4h.075a9.244 9.244 0 0 1 1.813-1.2 4.509 4.509 0 0 1 2.062-.5c.784 0 1.475.146 2.075.438.6.291 1.1.708 1.5 1.25.4.541.704 1.191.913 1.95.208.758.312 1.612.312 2.562 0 1.033-.141 1.954-.425 2.762-.283.809-.666 1.496-1.15 2.063a4.864 4.864 0 0 1-1.675 1.288c-.633.291-1.3.437-2 .437-.566 0-1.129-.125-1.687-.375a8.544 8.544 0 0 1-1.688-1.025l.05 2.125v4.1h-2.05zm5.025-6.55c.5 0 .963-.112 1.388-.337a3.315 3.315 0 0 0 1.1-.95c.308-.409.55-.913.725-1.513.175-.6.262-1.275.262-2.025 0-.667-.058-1.275-.175-1.825-.116-.55-.304-1.02-.562-1.413a2.695 2.695 0 0 0-1-.912c-.409-.217-.896-.325-1.463-.325-.516 0-1.037.142-1.562.425-.525.283-1.088.692-1.688 1.225V14.3c.55.467 1.084.796 1.6.988.517.191.975.287 1.375.287zM56.036 17.3c-1.15 0-2.216-.217-3.2-.65a7.882 7.882 0 0 1-2.55-1.775l1.25-1.45a6.84 6.84 0 0 0 2.063 1.488 5.688 5.688 0 0 0 2.462.562c1.084 0 1.925-.246 2.525-.737.6-.492.9-1.138.9-1.938 0-.417-.07-.77-.212-1.063a2.313 2.313 0 0 0-.575-.75 4.169 4.169 0 0 0-.863-.562 68.42 68.42 0 0 0-1.075-.525l-2.35-1.025a11.204 11.204 0 0 1-1.175-.6 4.835 4.835 0 0 1-1.075-.85 4.067 4.067 0 0 1-.775-1.187c-.2-.459-.3-.988-.3-1.588 0-.617.13-1.192.388-1.725a4.24 4.24 0 0 1 1.075-1.388c.458-.391 1-.695 1.625-.912A6.261 6.261 0 0 1 56.236.3c.984 0 1.892.187 2.725.563a6.84 6.84 0 0 1 2.125 1.462l-1.125 1.35A5.845 5.845 0 0 0 58.3 2.538c-.608-.276-1.296-.413-2.063-.413-.916 0-1.654.212-2.212.637-.558.426-.838 1.013-.838 1.763 0 .4.08.737.238 1.013a2.5 2.5 0 0 0 .637.724c.267.209.559.392.875.55.317.159.642.305.975.438l2.325 1c.467.2.909.43 1.325.688.417.258.775.558 1.075.9.3.341.538.741.713 1.2.175.458.262.987.262 1.587 0 .65-.129 1.258-.387 1.825a4.389 4.389 0 0 1-1.113 1.488 5.284 5.284 0 0 1-1.75 1c-.683.241-1.458.362-2.325.362zm12.478 0c-.65 0-1.196-.1-1.638-.3-.442-.2-.8-.475-1.075-.825a3.214 3.214 0 0 1-.587-1.275 7.264 7.264 0 0 1-.175-1.65V6.525h-1.8v-1.55l1.9-.125.25-3.4h1.725v3.4h3.275v1.675h-3.275v6.75c0 .75.137 1.33.412 1.737.275.409.763.613 1.463.613.216 0 .45-.033.7-.1.25-.067.475-.142.675-.225l.4 1.55c-.334.117-.696.22-1.088.313-.392.091-.78.137-1.162.137zm9.652 0c-.75 0-1.463-.142-2.138-.425a5.264 5.264 0 0 1-1.787-1.238c-.517-.541-.93-1.208-1.238-2-.308-.791-.462-1.687-.462-2.687 0-1.017.154-1.92.462-2.712.309-.792.721-1.463 1.238-2.013a5.185 5.185 0 0 1 1.787-1.25 5.467 5.467 0 0 1 2.138-.425c.75 0 1.462.142 2.137.425.675.283 1.271.7 1.788 1.25.516.55.929 1.22 1.237 2.013.309.791.463 1.695.463 2.712 0 1-.154 1.896-.463 2.688-.308.791-.72 1.458-1.237 2a5.264 5.264 0 0 1-1.788 1.237 5.467 5.467 0 0 1-2.137.425zm0-1.7c.516 0 .991-.112 1.425-.338a3.275 3.275 0 0 0 1.112-.95c.309-.408.546-.895.713-1.462.166-.567.25-1.2.25-1.9s-.084-1.337-.25-1.912a4.653 4.653 0 0 0-.713-1.488 3.223 3.223 0 0 0-1.112-.963 3.046 3.046 0 0 0-1.425-.337c-.517 0-.992.112-1.425.337a3.223 3.223 0 0 0-1.113.963 4.653 4.653 0 0 0-.712 1.488 6.857 6.857 0 0 0-.25 1.912c0 .7.083 1.333.25 1.9.166.567.404 1.054.712 1.463.309.408.68.724 1.113.95.433.225.908.337 1.425.337zm9.477 1.4V4.85h1.7l.175 2.2h.075c.416-.767.92-1.375 1.512-1.825.592-.45 1.238-.675 1.938-.675.483 0 .916.083 1.3.25l-.4 1.8a4.623 4.623 0 0 0-.55-.15 3.264 3.264 0 0 0-.625-.05c-.517 0-1.054.208-1.613.625-.558.417-1.046 1.142-1.462 2.175V17h-2.05zm14.002.3c-.817 0-1.58-.146-2.288-.438a5.422 5.422 0 0 1-1.85-1.25c-.525-.541-.937-1.204-1.237-1.987-.3-.783-.45-1.675-.45-2.675 0-1 .154-1.896.462-2.688.309-.791.717-1.462 1.225-2.012a5.315 5.315 0 0 1 1.738-1.262 4.894 4.894 0 0 1 2.025-.438c.767 0 1.454.133 2.062.4.609.267 1.117.65 1.525 1.15.409.5.721 1.1.938 1.8.217.7.325 1.483.325 2.35 0 .217-.004.43-.013.637a3.08 3.08 0 0 1-.062.538h-8.2c.083 1.3.487 2.33 1.212 3.087.725.759 1.671 1.138 2.838 1.138.583 0 1.12-.087 1.612-.263a7.135 7.135 0 0 0 1.413-.687l.725 1.35a10.35 10.35 0 0 1-1.775.875c-.65.25-1.392.375-2.225.375zM97.82 9.95h6.5c0-1.233-.263-2.17-.788-2.813-.525-.641-1.262-.962-2.212-.962-.433 0-.846.083-1.238.25a3.258 3.258 0 0 0-1.062.738c-.317.325-.58.72-.788 1.187-.208.467-.345 1-.412 1.6z"/>
</svg>
