<?xml version="1.0" encoding="UTF-8"?>
<svg width="87px" height="20px" viewBox="0 0 87 20" version="1.1" xmlns="http://www.w3.org/2000/svg" xmlns:xlink="http://www.w3.org/1999/xlink">
    <!-- Generator: Sketch 50.2 (55047) - http://www.bohemiancoding.com/sketch -->
    <title>appstore</title>
    <desc>Created with Sketch.</desc>
    <defs></defs>
    <g id="Page-1" stroke="none" stroke-width="1" fill="none" fill-rule="evenodd">
        <g id="Landing.-Arabic" transform="translate(-1193.000000, -694.000000)" fill="#273048">
            <g id="Group-5" transform="translate(860.000000, 663.000000)">
                <g id="app-store" transform="translate(280.000000, 0.000000)">
                    <path d="M139.968151,43.64 C139.968151,45.2 139.536151,46.472 138.672151,47.48 C137.760151,48.56 136.536151,49.088 135.000151,49.088 C133.152151,49.088 131.760151,48.392 130.848151,47 L126.216151,47 L126.216151,45.32 L130.152151,45.32 C130.008151,44.816 129.936151,44.264 129.936151,43.664 C129.936151,42.08 130.392151,40.784 131.304151,39.752 C132.216151,38.72 133.464151,38.216 135.024151,38.216 C136.584151,38.216 137.832151,38.744 138.720151,39.776 C139.560151,40.76 139.968151,42.056 139.968151,43.64 Z M138.024151,43.472 C138.024151,42.392 137.808151,41.528 137.400151,40.88 C136.872151,40.088 136.104151,39.704 135.096151,39.704 C133.992151,39.704 133.176151,40.136 132.624151,40.976 C132.168151,41.672 131.928151,42.584 131.928151,43.76 C131.928151,44.84 132.168151,45.728 132.624151,46.4 C133.176151,47.192 133.968151,47.576 135.000151,47.576 C137.016151,47.576 138.024151,46.208 138.024151,43.472 Z M124.128151,34.376 L122.424151,34.376 L122.424151,32.336 L124.128151,32.336 L124.128151,34.376 Z M120.984151,34.376 L119.280151,34.376 L119.280151,32.336 L120.984151,32.336 L120.984151,34.376 Z M126.816151,47 L118.536151,47 L118.536151,45.344 L120.072151,45.344 C121.104151,45.344 121.776151,45.008 122.112151,44.36 C122.352151,43.904 122.472151,43.136 122.472151,42.032 L122.472151,36.104 L124.152151,36.104 L124.152151,42.776 C124.152151,43.808 124.008151,44.672 123.696151,45.32 L126.816151,45.32 L126.816151,47 Z M119.064151,47 L99.7921512,47 L99.7921512,45.32 L114.384151,45.32 C114.408151,45.008 114.432151,44.72 114.432151,44.456 C114.432151,40.4 112.296151,38.072 108.528151,38.072 C106.488151,38.072 104.976151,38.864 104.016151,40.448 C103.776151,40.184 103.296151,39.704 102.552151,38.96 C103.920151,37.256 105.888151,36.416 108.504151,36.416 C113.280151,36.416 116.424151,39.584 116.424151,44.576 L116.424151,45.32 L119.064151,45.32 L119.064151,47 Z M109.824151,50.648 L108.120151,50.648 L108.120151,48.608 L109.824151,48.608 L109.824151,50.648 Z M102.592,47 L97.528,47 L97.528,45.32 L102.592,45.32 L102.592,47 Z M97.984,47 L93.856,47 C93.4,49.472 91.768,50.768 88.984,50.936 L88.984,49.328 C91.216,49.328 92.344,48.104 92.344,45.272 L92.344,36.104 L94.024,36.104 L94.024,45.32 L97.984,45.32 L97.984,47 Z M82.0219622,47 L80.3419622,47 L80.3419622,31.472 L82.0219622,31.472 L82.0219622,47 Z M78.0619622,36.104 L78.0619622,42.776 C78.0619622,45.584 76.8859622,47 74.5339622,47 L72.4219622,47 L72.4219622,45.344 L73.9819622,45.344 C75.0139622,45.344 75.6859622,45.008 76.0219622,44.336 C76.2619622,43.904 76.3819622,43.136 76.3819622,42.032 L76.3819622,36.104 L78.0619622,36.104 Z M78.0619622,50.648 L76.3579622,50.648 L76.3579622,48.608 L78.0619622,48.608 L78.0619622,50.648 Z M75.5598488,47 L70.4958488,47 L70.4958488,45.32 L75.5598488,45.32 L75.5598488,47 Z M71.0958488,47 L66.4398488,47 C65.2638488,49.496 63.0558488,50.984 60.5598488,50.984 C56.6238488,50.984 53.7678488,47.48 53.7678488,42.728 L53.7678488,40.424 L55.4478488,40.424 L55.4478488,42.392 C55.4478488,46.52 57.4398488,49.352 60.5598488,49.352 C63.7038488,49.352 65.6478488,46.64 65.6478488,42.392 L65.6478488,31.472 L67.3278488,31.472 L67.3278488,42.728 C67.3278488,43.64 67.2318488,44.504 67.0158488,45.32 L71.0958488,45.32 L71.0958488,47 Z" id="appstore"></path>
                </g>
            </g>
        </g>
    </g>
</svg>