<?xml version="1.0" encoding="UTF-8"?>
<svg width="125px" height="20px" viewBox="0 0 125 20" version="1.1" xmlns="http://www.w3.org/2000/svg" xmlns:xlink="http://www.w3.org/1999/xlink">
    <!-- Generator: Sketch 50.2 (55047) - http://www.bohemiancoding.com/sketch -->
    <title>googleplay</title>
    <desc>Created with Sketch.</desc>
    <defs></defs>
    <g id="Page-1" stroke="none" stroke-width="1" fill="none" fill-rule="evenodd">
        <g id="Landing.-Arabic" transform="translate(-881.000000, -694.000000)" fill="#273048">
            <g id="Group-5" transform="translate(860.000000, 663.000000)">
                <g id="google-play">
                    <path d="M145.968,43.64 C145.968,45.2 145.536,46.472 144.672,47.48 C143.76,48.56 142.536,49.088 141,49.088 C139.152,49.088 137.76,48.392 136.848,47 L132.216,47 L132.216,45.32 L136.152,45.32 C136.008,44.816 135.936,44.264 135.936,43.664 C135.936,42.08 136.392,40.784 137.304,39.752 C138.216,38.72 139.464,38.216 141.024,38.216 C142.584,38.216 143.832,38.744 144.72,39.776 C145.56,40.76 145.968,42.056 145.968,43.64 Z M144.024,43.472 C144.024,42.392 143.808,41.528 143.4,40.88 C142.872,40.088 142.104,39.704 141.096,39.704 C139.992,39.704 139.176,40.136 138.624,40.976 C138.168,41.672 137.928,42.584 137.928,43.76 C137.928,44.84 138.168,45.728 138.624,46.4 C139.176,47.192 139.968,47.576 141,47.576 C143.016,47.576 144.024,46.208 144.024,43.472 Z M130.128,34.376 L128.424,34.376 L128.424,32.336 L130.128,32.336 L130.128,34.376 Z M126.984,34.376 L125.28,34.376 L125.28,32.336 L126.984,32.336 L126.984,34.376 Z M132.816,47 L124.536,47 L124.536,45.344 L126.072,45.344 C127.104,45.344 127.776,45.008 128.112,44.36 C128.352,43.904 128.472,43.136 128.472,42.032 L128.472,36.104 L130.152,36.104 L130.152,42.776 C130.152,43.808 130.008,44.672 129.696,45.32 L132.816,45.32 L132.816,47 Z M125.064,47 L105.792,47 L105.792,45.32 L120.384,45.32 C120.408,45.008 120.432,44.72 120.432,44.456 C120.432,40.4 118.296,38.072 114.528,38.072 C112.488,38.072 110.976,38.864 110.016,40.448 C109.776,40.184 109.296,39.704 108.552,38.96 C109.92,37.256 111.888,36.416 114.504,36.416 C119.28,36.416 122.424,39.584 122.424,44.576 L122.424,45.32 L125.064,45.32 L125.064,47 Z M115.824,50.648 L114.12,50.648 L114.12,48.608 L115.824,48.608 L115.824,50.648 Z M108.591849,47 L103.527849,47 L103.527849,45.32 L108.591849,45.32 L108.591849,47 Z M103.983849,47 L99.8558488,47 C99.3998488,49.472 97.7678488,50.768 94.9838488,50.936 L94.9838488,49.328 C97.2158488,49.328 98.3438488,48.104 98.3438488,45.272 L98.3438488,36.104 L100.023849,36.104 L100.023849,45.32 L103.983849,45.32 L103.983849,47 Z M88.285811,44.576 L88.285811,47 L71.653811,47 L71.653811,45.32 L86.245811,45.32 C86.269811,45.008 86.293811,44.72 86.293811,44.456 C86.293811,40.4 84.157811,38.072 80.389811,38.072 C78.349811,38.072 76.837811,38.864 75.877811,40.448 C75.637811,40.184 75.157811,39.704 74.413811,38.96 C75.781811,37.256 77.749811,36.416 80.365811,36.416 C85.141811,36.416 88.285811,39.584 88.285811,44.576 Z M81.661811,50.648 L79.933811,50.648 L79.933811,48.608 L81.661811,48.608 L81.661811,50.648 Z M75.7057354,47 L70.6417354,47 L70.6417354,45.32 L75.7057354,45.32 L75.7057354,47 Z M71.0497354,47 L67.7377354,47 C67.2577354,49.472 65.6257354,50.768 62.8657354,50.936 L62.8657354,49.328 L63.0817354,49.328 C64.6177354,49.328 65.6017354,48.536 66.0097354,47 L63.3937354,47 C62.0497354,47 60.9457354,46.496 60.0817354,45.464 C59.2177354,44.432 58.7857354,43.136 58.7857354,41.576 C58.7857354,40.016 59.2417354,38.72 60.1537354,37.664 C61.0897354,36.608 62.2417354,36.08 63.6097354,36.08 C66.2737354,36.08 67.9297354,37.712 67.9297354,40.88 L67.9297354,45.344 L71.0497354,45.344 L71.0497354,47 Z M66.2017354,45.32 L66.2017354,40.256 C66.2017354,39.56 65.9857354,38.96 65.5537354,38.48 C65.0737354,37.928 64.4017354,37.64 63.5137354,37.64 C62.6017354,37.64 61.8577354,38.072 61.2817354,38.912 C60.7777354,39.656 60.5137354,40.496 60.5137354,41.408 C60.5137354,42.368 60.7297354,43.232 61.1857354,43.976 C61.7377354,44.888 62.4817354,45.344 63.4177354,45.344 L66.2017354,45.32 Z M56.2657354,44.576 L56.2657354,47 L39.6337354,47 L39.6337354,45.32 L54.2257354,45.32 C54.2497354,45.008 54.2737354,44.72 54.2737354,44.456 C54.2737354,40.4 52.1377354,38.072 48.3697354,38.072 C46.3297354,38.072 44.8177354,38.864 43.8577354,40.448 C43.6177354,40.184 43.1377354,39.704 42.3937354,38.96 C43.7617354,37.256 45.7297354,36.416 48.3457354,36.416 C53.1217354,36.416 56.2657354,39.584 56.2657354,44.576 Z M49.6417354,50.648 L47.9137354,50.648 L47.9137354,48.608 L49.6417354,48.608 L49.6417354,50.648 Z M43.6856598,47 L38.6216598,47 L38.6216598,45.32 L43.6856598,45.32 L43.6856598,47 Z M39.2216598,47 L34.5656598,47 C33.3896598,49.496 31.1816598,50.984 28.6856598,50.984 C24.7496598,50.984 21.8936598,47.48 21.8936598,42.728 L21.8936598,40.424 L23.5736598,40.424 L23.5736598,42.392 C23.5736598,46.52 25.5656598,49.352 28.6856598,49.352 C31.8296598,49.352 33.7736598,46.64 33.7736598,42.392 L33.7736598,31.472 L35.4536598,31.472 L35.4536598,42.728 C35.4536598,43.64 35.3576598,44.504 35.1416598,45.32 L39.2216598,45.32 L39.2216598,47 Z" id="googleplay"></path>
                </g>
            </g>
        </g>
    </g>
</svg>