<svg xmlns="http://www.w3.org/2000/svg" width="130" height="24" viewBox="0 0 130 24">
    <path fill="#273048" fill-rule="evenodd" d="M8.263 18.3c-1.083 0-2.079-.192-2.987-.575a6.486 6.486 0 0 1-2.338-1.663c-.65-.725-1.158-1.616-1.525-2.675-.366-1.058-.55-2.254-.55-3.587 0-1.317.188-2.5.563-3.55.375-1.05.896-1.942 1.562-2.675a6.736 6.736 0 0 1 2.388-1.688C6.3 1.496 7.305 1.3 8.388 1.3c.567 0 1.088.058 1.563.175.475.117.908.27 1.3.462.391.192.741.409 1.05.65.308.242.579.488.812.738l-1.15 1.35c-.416-.433-.9-.8-1.45-1.1-.55-.3-1.241-.45-2.075-.45-.833 0-1.583.154-2.25.463a4.709 4.709 0 0 0-1.7 1.324C4.022 5.488 3.66 6.183 3.401 7c-.259.817-.388 1.733-.388 2.75 0 1.033.121 1.962.363 2.788.241.825.591 1.529 1.05 2.112a4.636 4.636 0 0 0 1.7 1.35c.675.317 1.454.475 2.337.475.584 0 1.138-.087 1.663-.263.525-.175.954-.412 1.287-.712v-4.275H7.938V9.5h5.375v6.9c-.533.55-1.233 1.004-2.1 1.363-.866.358-1.85.537-2.95.537zm14.152 0c-.75 0-1.462-.142-2.137-.425a5.264 5.264 0 0 1-1.788-1.238c-.516-.541-.929-1.208-1.237-2-.308-.791-.463-1.687-.463-2.687 0-1.017.155-1.92.463-2.712.308-.792.72-1.463 1.237-2.013a5.185 5.185 0 0 1 1.788-1.25 5.467 5.467 0 0 1 2.137-.425c.75 0 1.463.142 2.138.425.675.283 1.27.7 1.787 1.25.517.55.93 1.22 1.238 2.013.308.791.462 1.695.462 2.712 0 1-.154 1.896-.462 2.688-.308.791-.72 1.458-1.238 2a5.264 5.264 0 0 1-1.787 1.237 5.467 5.467 0 0 1-2.138.425zm0-1.7c.517 0 .992-.112 1.425-.338a3.275 3.275 0 0 0 1.113-.95c.308-.408.546-.895.712-1.462.167-.567.25-1.2.25-1.9s-.083-1.337-.25-1.912a4.653 4.653 0 0 0-.712-1.488 3.223 3.223 0 0 0-1.113-.963 3.046 3.046 0 0 0-1.425-.337c-.516 0-.991.112-1.425.338a3.223 3.223 0 0 0-1.112.962 4.653 4.653 0 0 0-.713 1.488 6.857 6.857 0 0 0-.25 1.912c0 .7.084 1.333.25 1.9.167.567.405 1.054.713 1.463.308.408.68.724 1.112.95.434.225.909.337 1.425.337zm14.203 1.7c-.75 0-1.463-.142-2.138-.425a5.264 5.264 0 0 1-1.787-1.238c-.517-.541-.93-1.208-1.238-2-.308-.791-.462-1.687-.462-2.687 0-1.017.154-1.92.462-2.712.308-.792.72-1.463 1.238-2.013a5.185 5.185 0 0 1 1.787-1.25 5.467 5.467 0 0 1 2.138-.425c.75 0 1.462.142 2.137.425.675.283 1.27.7 1.788 1.25.516.55.929 1.22 1.237 2.013.308.791.463 1.695.463 2.712 0 1-.155 1.896-.463 2.688-.308.791-.72 1.458-1.237 2a5.264 5.264 0 0 1-1.788 1.237 5.467 5.467 0 0 1-2.137.425zm0-1.7c.516 0 .991-.112 1.425-.338a3.275 3.275 0 0 0 1.112-.95c.308-.408.546-.895.713-1.462.166-.567.25-1.2.25-1.9s-.084-1.337-.25-1.912a4.653 4.653 0 0 0-.713-1.488 3.223 3.223 0 0 0-1.112-.963 3.046 3.046 0 0 0-1.425-.337c-.517 0-.992.112-1.425.338a3.223 3.223 0 0 0-1.113.962 4.653 4.653 0 0 0-.712 1.488 6.857 6.857 0 0 0-.25 1.912c0 .7.083 1.333.25 1.9.166.567.404 1.054.712 1.463.308.408.68.724 1.113.95.433.225.908.337 1.425.337zm13.577 7c-.75 0-1.434-.07-2.05-.213-.617-.141-1.146-.354-1.588-.637a3.167 3.167 0 0 1-1.025-1.025c-.241-.4-.362-.867-.362-1.4 0-.517.158-1.008.475-1.475.316-.467.75-.892 1.3-1.275v-.1a2.379 2.379 0 0 1-.763-.763c-.208-.325-.312-.729-.312-1.212 0-.517.141-.967.425-1.35.283-.383.583-.683.9-.9v-.1c-.4-.333-.763-.78-1.088-1.338-.325-.558-.487-1.204-.487-1.937 0-.667.12-1.267.362-1.8.242-.533.571-.987.988-1.362a4.356 4.356 0 0 1 1.462-.863c.559-.2 1.146-.3 1.763-.3.333 0 .646.03.937.087.292.059.554.13.788.213h4.225v1.575h-2.5c.283.283.52.642.712 1.075.192.433.288.908.288 1.425 0 .65-.117 1.237-.35 1.762-.234.526-.55.967-.95 1.325-.4.359-.871.638-1.413.838-.541.2-1.12.3-1.737.3-.3 0-.609-.037-.925-.112a4.593 4.593 0 0 1-.9-.313 2.93 2.93 0 0 0-.55.612c-.15.226-.225.505-.225.838 0 .383.15.7.45.95.3.25.866.375 1.7.375h2.35c1.416 0 2.479.23 3.187.688.709.458 1.063 1.195 1.063 2.212 0 .567-.142 1.104-.425 1.613-.284.508-.692.954-1.225 1.337-.534.383-1.18.687-1.938.912-.758.226-1.612.338-2.562.338zm0-10.825c.35 0 .679-.067.987-.2a2.544 2.544 0 0 0 1.388-1.488c.133-.358.2-.762.2-1.212 0-.9-.25-1.596-.75-2.088a2.505 2.505 0 0 0-1.825-.737c-.717 0-1.325.246-1.825.737-.5.492-.75 1.188-.75 2.088 0 .45.066.854.2 1.212a2.544 2.544 0 0 0 1.387 1.488c.309.133.638.2.988.2zm.3 9.4c.583 0 1.112-.07 1.587-.213.475-.141.88-.324 1.213-.55.333-.225.591-.487.775-.787.183-.3.275-.608.275-.925 0-.567-.209-.958-.625-1.175-.417-.217-1.025-.325-1.825-.325h-2.1c-.234 0-.488-.012-.763-.037A3.9 3.9 0 0 1 48.22 18c-.434.317-.75.65-.95 1-.2.35-.3.7-.3 1.05 0 .65.312 1.167.937 1.55s1.488.575 2.588.575zM61.522 18.3c-.784 0-1.342-.233-1.675-.7-.334-.467-.5-1.15-.5-2.05V.2h2.05v15.5c0 .333.058.567.175.7.116.133.25.2.4.2h.187c.059 0 .146-.017.263-.05l.275 1.55a1.769 1.769 0 0 1-.475.15 4.03 4.03 0 0 1-.7.05zm9.777 0c-.817 0-1.58-.146-2.288-.438a5.422 5.422 0 0 1-1.85-1.25c-.525-.541-.937-1.204-1.237-1.987-.3-.783-.45-1.675-.45-2.675 0-1 .154-1.896.462-2.688.309-.791.717-1.462 1.225-2.012A5.315 5.315 0 0 1 68.9 5.988a4.894 4.894 0 0 1 2.025-.438c.767 0 1.454.133 2.062.4.609.267 1.117.65 1.525 1.15.409.5.721 1.1.938 1.8.217.7.325 1.483.325 2.35 0 .217-.004.43-.013.637a3.08 3.08 0 0 1-.062.538h-8.2c.083 1.3.487 2.33 1.212 3.087.725.759 1.671 1.138 2.838 1.138.583 0 1.12-.087 1.612-.262a7.135 7.135 0 0 0 1.413-.688l.725 1.35a10.35 10.35 0 0 1-1.775.875c-.65.25-1.392.375-2.225.375zm-3.825-7.35h6.5c0-1.233-.263-2.17-.788-2.813-.525-.641-1.262-.962-2.212-.962-.433 0-.846.083-1.238.25a3.258 3.258 0 0 0-1.062.738c-.317.325-.58.72-.788 1.187a5.36 5.36 0 0 0-.412 1.6zM85.278 18V1.6h4.675c.917 0 1.754.083 2.513.25.758.167 1.404.437 1.937.812.534.376.95.871 1.25 1.488.3.617.45 1.375.45 2.275 0 .867-.146 1.617-.437 2.25a4.19 4.19 0 0 1-1.238 1.575c-.533.417-1.17.73-1.912.938-.742.208-1.563.312-2.463.312h-2.7V18h-2.075zm2.075-8.2h2.45c1.434 0 2.496-.27 3.188-.813.691-.541 1.037-1.395 1.037-2.562 0-1.183-.362-2.004-1.087-2.462-.725-.459-1.804-.688-3.238-.688h-2.35V9.8zm14.702 8.5c-.783 0-1.341-.233-1.675-.7-.333-.467-.5-1.15-.5-2.05V.2h2.05v15.5c0 .333.059.567.175.7.117.133.25.2.4.2h.188c.058 0 .146-.017.262-.05l.275 1.55a1.769 1.769 0 0 1-.475.15 4.03 4.03 0 0 1-.7.05zm7.652 0c-1.016 0-1.862-.3-2.537-.9-.675-.6-1.013-1.45-1.013-2.55 0-1.333.592-2.354 1.775-3.062 1.184-.709 3.075-1.205 5.675-1.488a5.6 5.6 0 0 0-.112-1.125 2.814 2.814 0 0 0-.388-.975 2.036 2.036 0 0 0-.762-.688c-.325-.175-.738-.262-1.238-.262-.7 0-1.358.133-1.975.4a9.634 9.634 0 0 0-1.65.9l-.8-1.425c.567-.367 1.259-.72 2.075-1.063.817-.341 1.717-.512 2.7-.512 1.484 0 2.559.454 3.225 1.362.667.909 1 2.121 1 3.638V18h-1.7l-.175-1.45h-.075a10.28 10.28 0 0 1-1.875 1.238 4.646 4.646 0 0 1-2.15.512zm.6-1.65a3.46 3.46 0 0 0 1.65-.412c.517-.276 1.067-.68 1.65-1.213V11.65c-1.016.133-1.87.292-2.562.475-.692.183-1.25.4-1.675.65-.425.25-.733.537-.925.862-.192.326-.288.68-.288 1.063 0 .7.209 1.2.625 1.5.417.3.925.45 1.525.45zm10.053 6.575c-.284 0-.542-.02-.775-.063a3.104 3.104 0 0 1-.65-.187l.4-1.625.45.112c.166.042.325.063.475.063.7 0 1.27-.246 1.712-.737.442-.492.788-1.113 1.038-1.863l.275-.9L118.41 5.85h2.125l2.475 6.725c.183.533.379 1.096.587 1.688.208.591.404 1.17.588 1.737h.1c.183-.55.358-1.125.525-1.725a55.6 55.6 0 0 1 .5-1.7l2.175-6.725h2L124.91 19c-.217.6-.459 1.158-.725 1.675a5.512 5.512 0 0 1-.95 1.337c-.367.376-.784.671-1.25.888-.467.217-1.009.325-1.625.325z"/>
</svg>
