<svg xmlns="http://www.w3.org/2000/svg" width="400" height="400"><g fill-rule="evenodd"><path fill="#085b98" d="M223.7 77.03c-3.83.26-11.45 1.26-13 1.7-.48.14-.64.9-.81 3.78a34.44 34.44 0 0 1-.44 4.37c-.24.76-.2.76 2.47.3 10.78-1.84 23.3-1.51 31.89.85 1.17.33 2.2.52 2.29.44.41-.41 2.4-8.63 2.16-8.86-1.77-1.65-16.02-3.15-24.56-2.58m-6.23 18.56c-4.4.32-13.4 1.7-13.82 2.13-.43.42-6.22 9.46-6.13 9.55.04.05 1.25-.16 2.67-.46 13.38-2.82 26.55-3.06 37.09-.68 2.18.5 3.99.86 4.02.81.03-.05.57-2.06 1.2-4.46l1.15-4.37-.91-.35c-1.95-.74-8.33-1.82-12.89-2.19-5.24-.42-6.21-.42-12.38.02m-5.77 18.5c-4.5.4-9.16 1.13-15.94 2.5l-5.17 1.05-3.06 4.7c-3.64 5.6-4.24 5.28 6.14 3.23 16.29-3.2 28.92-3.46 39.67-.78 1.52.38 2.82.65 2.88.59.21-.2 2.28-7.79 2.29-8.4.03-1.9-17.19-3.76-26.8-2.9m-62.6 20.27c-3.42 12.72-2.8 11.55-4.97 9.38-5.08-5.08-16.3-8.32-28.77-8.3-22.65.03-36.85 10-36.85 25.9 0 13.13 8.94 20.24 34.15 27.16 14.83 4.07 19.43 6.55 20.67 11.17 2.3 8.51-11.46 17.13-24.93 15.62l-2.51-.28-.08-3.9c-.53-25.92-48.62-25.23-65.88.94-17.61 26.71-3.48 57.03 28.08 60.23 17.84 1.81 42.58-12.22 35.45-20.1-.99-1.1-1.83-.82-3.22 1.07-10.53 14.33-31.78 17.91-44.32 7.47-14.92-12.41-13.66-39.6 2.5-54.43 15.28-14 41.92-11.62 38.07 3.4a15 15 0 0 1-.78 2.5c-.21.21-6.8-3.03-9.3-4.57l-1.55-.95-.77.98c-5.61 7.14 4.47 13.37 22.57 13.94l2.77.09.31 2.59c.19 1.54.13 6.36-.13 11.88-.33 7.04-.34 9.78-.01 11.34 2.07 10 12.94 9.14 20.25-1.6 1.54-2.24 1.82-2.5 1.92-1.76 1.77 13.84 14.76 12.57 24.54-2.4l2.38-3.65.46 4.3c1.15 10.84 4.06 16.4 10.1 19.27 8.6 4.07 17.99-.96 22.48-12.03l1.04-2.55 2.01-.42c2.68-.56 6.02-2 8.68-3.74 1.2-.78 2.21-1.42 2.26-1.42.05 0 .19 1.28.3 2.83.79 10.4 10.01 14.13 19.02 7.7 2.25-1.6 5.58-5.37 6.47-7.31.56-1.25 1.07-1.28 1.07-.08 0 .5.35 1.63.78 2.5 3.14 6.44 12.4 3 20.65-7.68l1.72-2.22.2 5.56c.29 8.1 1.37 9.86 6.2 10.1 3.1.14 3.1.15 4.1-3.38 2.92-10.16 11.79-25.06 14.93-25.06 1.45 0 1.62 1.47.94 8.28-1.27 12.79-1.15 17.56.52 21.34 3.6 8.15 16.19 5.16 28.25-6.73 3.46-3.4 3.04-3.24 3.35-1.33 1.94 12.13 17.03 12.03 24.56-.16l1.36-2.2.6 1.85c2.36 7.22 9.02 6.6 17.22-1.6 4.5-4.5 10.34-12.86 9.54-13.66-.73-.74-1.73.12-4.4 3.75-12.23 16.73-19.49 15.5-16.23-2.77 1.59-8.87-10.2-13.9-20.4-8.69-5.09 2.6-10.52 9.43-11.53 14.5-.38 1.91-7.83 9.23-12.54 12.32-9.83 6.46-10.74 5.57-10.75-10.45 0-13.71-.5-15.84-4.01-17.43-5.98-2.72-12.88 2.39-19.89 14.74a27.13 27.13 0 0 1-2.12 3.43c-.1 0-.06-4.31.09-9.58.24-8.54.2-9.71-.35-10.77-1.19-2.3-4.4-2.75-7.67-1.1-1.8.92-1.76.78-1.32 4.6.22 1.88.26 4.74.11 6.58l-.27 3.25-2.51 3.23c-11.23 14.46-17.85 12.72-14.98-3.95.71-4.18.58-4.8-1.59-7.11-7.91-8.46-22.52-4.31-28.52 8.1-2.34 4.84-5.41 7.41-11.12 9.31-3.62 1.21-3.57 1.25-3.3-2.1.59-7.11-2.36-11.19-8.1-11.19-9.95 0-10.81 13.61-1.09 17.22 1 .37 1.89.72 1.96.77.36.27-2.88 5.62-4.27 7.05-6.04 6.21-11.53 1.04-13.47-12.69l-.42-3 1.72-2.26c11.77-15.48 17.05-35.52 9.96-37.86-9.54-3.15-19.07 9.84-20.87 28.43-.5 5.12-.96 6.24-5.23 12.7-10.33 15.6-15.13 13.82-13.28-4.91 1.02-10.36-.1-12.82-6-13.17l-2.95-.17.25 3.48c.14 1.92.05 6.04-.19 9.21l-.44 5.74-1.5 1.94c-4.84 6.3-9.94 7.88-11.46 3.53-.55-1.59-.54-6.86.03-14.32.41-5.41.15-7.61-1.06-8.9l-.8-.86 1.76-.26c23.7-3.56 33.4-25.03 15.77-34.9-3.67-2.06-8.25-3.8-17.73-6.78-21.92-6.87-28.1-11.55-28.1-21.3 0-21.02 42.02-23.04 52.7-2.54 1.48 2.83 1.51 2.28-.47 9.6-2.1 7.75-2.1 7.57-.05 7.57 1.79 0 2.17-.3 2.75-2.22 3.94-12.8 12.67-41.87 12.67-42.15 0-.32-4.04-3.04-4.5-3.03-.07 0-1.29 4.3-2.7 9.53m66.95 3.78c-8.27 2-17.15 19.87-17.16 34.53v2.85l-2.16 2.7c-10.85 13.61-16.88 11.13-13.9-5.7l.58-3.24-.96-1.64c-6.84-11.67-25.88-5.82-31.2 9.6-6.46 18.77 12.79 26.76 23.53 9.76l1.44-2.26.27 1.24c1.91 8.88 11.28 6.97 20.57-4.18l1.75-2.1.44 2.98c3.44 23.55 19.83 21.42 39.27-5.1.54-.73.65-.66 3.77 2.48l3.21 3.23-1.97 1.5c-9.65 7.28-9.74 14.58-.18 15.14 12.35.73 20.92-10.01 14.6-18.3-.5-.66-.91-1.3-.91-1.43 0-.53 12.44-5.64 12.82-5.27.07.07-.2 1.05-.59 2.18-6.73 19.15 13.57 27 23.96 9.27l1-1.7.3 1.42c2.23 10.76 15.44 5.03 25.3-10.98 3.74-6.06 1.41-5.6-3.19.63-11.87 16.08-19.72 14.14-15.74-3.89 1.36-6.18-7.18-11.73-15.42-10.02-4.55.94-10.61 5.04-12.88 8.71a2.67 2.67 0 0 1-2.18 1.45c-2.26.36-6.92 2.01-11.59 4.11l-4.32 1.94-2.7-2.26c-5.94-4.98-6.95-9.1-2.23-9.12 3.27-.01 6.35-1.9 6.35-3.88 0-.65-2.87-1.3-5.7-1.3-7.8 0-12.5 3.62-12.63 9.76l-.06 2.54-3.11 4.13c-12.98 17.2-21.98 20.17-24.93 8.2-1.3-5.25-1.24-6.05.68-9.44 10.05-17.7 14.4-30.5 12.13-35.64-1.06-2.39-3.57-3.55-6.26-2.9m2.3 3.61c2.13 2.13-1.24 14.51-7.04 25.8-3.26 6.37-3.38 6.18-2.21-3.4 1.88-15.42 6.08-25.58 9.25-22.4m-43.83 24.2c2.38 2.38-1.52 13.8-7.04 20.63-5.57 6.9-9.95 1.12-6.6-8.7 3.42-9.96 9.92-15.65 13.64-11.92m117.11-.71c2.52 1.14 2.4 3.7-.54 11.25-5.23 13.41-13.73 17.94-13.22 7.03.47-10.1 8.45-20.7 13.76-18.28m-43.3 21.78c2.3 4.46-3.53 12.1-6.91 9.03-1.72-1.56-.55-4.37 3.29-7.89 2.81-2.58 2.86-2.6 3.61-1.14M179.01 206c1.66 3.4-1.86 14.19-7.9 24.19-2.65 4.37-2.75 4.35-2.44-.42 1.12-17.23 6.96-30.67 10.34-23.77m51.05 18.19c2.86 1.78.46 10.76-5.13 19.22-6.99 10.58-12.48 2.96-6.92-9.6 3.47-7.85 8.48-11.85 12.05-9.62m107.13-.35c2.77 1.16 2.98 2.62 1.14 8.21-4.03 12.31-11.4 20-13.9 14.5-3.43-7.55 6.54-25.3 12.76-22.71m-149.28 8.37c1.38 1.64 1.8 7.04.78 9.73-.95 2.48-6.47-2.9-6.47-6.3 0-4.02 3.44-6.1 5.69-3.43m39.68 48.2c-14.13 7.4-31.96 7.63-47.22.61-5.37-2.47-5.28-2.49-2.4.45 14.53 14.86 37.75 14.82 51.03-.1 2.75-3.08 2.7-3.11-1.4-.96"/><path fill="#df2028" d="M181.52 64.87c-6.6.79-14.2 6.08-18.19 12.64-1.45 2.4-1.13 2.38-5.4.48-15.69-6.94-30.66-.3-32.79 14.54-1.18 8.3 2.42 13.73 13.22 19.93l22 12.69 16.09 9.29.61-1.02c.34-.56 2.91-5.01 5.72-9.9 2.81-4.89 8.2-14.22 11.98-20.74 3.77-6.52 7.16-12.63 7.52-13.59 4.9-12.86-6.34-26.04-20.76-24.32m-14.8 26.43c1.85 2.88 2.9 4.2 3.24 4.06 1.57-.6 9.02-2.43 9.19-2.26.1.1-1.22 1.93-2.95 4.05l-3.14 3.84 2.78 4.33c1.53 2.38 2.72 4.38 2.64 4.45-.08.07-2.21-.69-4.74-1.69-5.47-2.15-4.5-2.41-8.17 2.2a40.12 40.12 0 0 1-3.23 3.8c-.12 0-.1-2.32.05-5.15l.27-5.15-2.16-.81-4.67-1.75c-3.3-1.24-3.26-1.29 2.28-2.72l4.77-1.23.23-1.65c.12-.9.22-2.95.22-4.53 0-2.53.21-4.05.56-4.05.07 0 1.34 1.91 2.84 4.26M126 276.77c-.32.38-.28.7.17 1.35.73 1.04.83.93-7.28 7.94l-5.74 4.96-1.02-.72c-1.02-.72-1.77-.64-1.75.19.03 1 4.36 5.27 4.86 4.78.38-.38.35-.66-.17-1.54l-.64-1.09 5.99-5.22c6.67-5.81 6.62-5.8 5.56-2.54-2.39 7.3-4.77 18.32-4.12 19.11.62.77.71.7 8.07-5.68 8.19-7.1 7.66-6.76 8.79-5.7 1.41 1.32 2.03-.02.72-1.58-2.96-3.54-3.55-4.06-4.1-3.6-.46.38-.43.6.2 1.6l.72 1.18-5.38 4.62c-6.38 5.47-6.21 5.38-5.32 2.85 1.78-5.08 4.5-17.07 4.04-17.91-.9-1.68-3.15-3.55-3.6-3m148.86 4.29c-1.25 1.4-2.27 2.73-2.27 2.95 0 .73.72.84 1.63.25.5-.33.97-.46 1.07-.3.27.46.73 8.63.48 8.63-.12 0-2.73-2.2-5.81-4.9-6.54-5.73-6.43-5.69-8.02-3.25-1.67 2.57-1.48 3.69.4 2.22l.93-.74 7.6 6.58c7.26 6.28 7.57 6.6 7.08 7.37-1.27 1.98.5 1.92 2.28-.07 3.06-3.42 3.63-5.33 1.09-3.67-.99.64-2.2.01-3.62-1.87-.83-1.1-.31-3.89.73-3.87 3.64.09 6.2.9 6.2 2 0 .58.18 1.12.4 1.2.45.15 4.6-4.38 4.6-5.01 0-.7-.7-.84-1.56-.3-.81.5-9.92-.38-10.57-1.03-.56-.55-.53-5.68.04-6.77 1.31-2.54-.2-2.21-2.68.58m-13.56 14.52c-8.25 4.4-5.72 12.6 2.96 9.6 2.69-.92 4.33-.94 5.13-.06 2.09 2.31-1.9 6.2-4.77 4.66-2.24-1.2-3.05.11-1.21 1.95l1.35 1.35 2.05-1c4.96-2.43 6.78-6.94 3.9-9.7-1.41-1.36-3.82-1.4-7.65-.15l-2.69.88-1.02-.76c-2.67-1.99.64-5.8 3.64-4.19 1.69.9 2.35-.45.99-2l-1.2-1.37-1.48.79m-124.45 4.75c-4.66 2.17-7.01 8.44-4.56 12.15 3.53 5.33 11.08 4.1 14.23-2.34 3.18-6.5-3.09-12.86-9.67-9.8m6.88 2.22c1.63 1.63 1.36 3.62-1 7.34-4.33 6.83-11.3 4.19-7.7-2.92 2.49-4.91 6.28-6.84 8.7-4.42m106.08 1.63c-.7.7-1.41 1.93-1.66 2.86-.47 1.72-.5 1.72-1.71-.26-.4-.64-.52-.61-2.04.49-2.03 1.46-2.16 2.49-.33 2.65 1.25.1 1.41.3 4.21 5.17l2.91 5.05-.94.81c-.76.66-.86.92-.5 1.38.67.86 8.5-3.68 7.99-4.64-.33-.6-.45-.6-2 .16-2 .97-1.71 1.21-4.76-4.13-1.92-3.37-2.34-4.38-2.05-4.92.36-.68 2.93-2.7 3.78-2.98.49-.17-.78-2.87-1.35-2.87-.18 0-.88.56-1.55 1.23m-17.88 1.2c-2.01 1.41-.1 4.7 1.96 3.35 1.52-1 .83-3.93-.93-3.93-.11 0-.57.26-1.03.58m-80.68 1.83c-.12.31-.02.81.24 1.12.44.54.3 9.17-.25 14.13-.2 1.86-.18 1.93.98 2.53l1.2.62 3.56-3.46c7.06-6.84 7.86-7.53 8.55-7.42.56.09 1.4-.9 1.04-1.25-.9-.9-5.12-2.26-5.41-1.74-.25.44-.13.78.44 1.24.78.63.77.65-2.17 3.88a821.13 821.13 0 0 0-4.14 4.57l-1.19 1.34-.01-1.3c-.02-1.44.67-8.98.94-10.28.14-.68.39-.81 1.35-.74 2.02.16 1.72-.91-.53-1.9l-3.17-1.38c-1.07-.47-1.24-.46-1.43.04m61.34 3.5c-2.11.85-2.45 1.87-.63 1.87h1.28l.83 3.61 2.38 10.28 1.55 6.67 2.87-.05c7.2-.11 10.9-5.39 8.6-12.28-1.7-5.12-6.58-6.71-10.38-3.38l-1.27 1.12-.39-1.41c-.21-.78-.67-2.7-1.01-4.28-.7-3.25-.87-3.35-3.83-2.15m21.2 1.59c-2.18 1.2-2.26 2.5-.14 2.5.98 0 1.13.26 3.13 5.29 2.43 6.08 2.4 5.94 1.18 6.5-.97.44-1.1.71-.64 1.42.28.44 7-1.99 7.09-2.56.13-.97-.04-1.08-1.22-.86l-1.25.23-2.6-6.54c-2.94-7.45-2.92-7.42-5.54-5.98m-29.65-.38c-.25.24-.45.96-.45 1.59 0 1.98 1.81 2.77 3.1 1.36 1.28-1.42.55-3.4-1.24-3.4-.53 0-1.17.2-1.41.45m-33.46 4.37c-5.83 3.08-6.4 12.72-.9 15.22 5.8 2.63 11.31-1.54 11.32-8.56 0-5.86-5.4-9.31-10.42-6.66m5.79 1.57c3.2 2.76.57 12.87-3.34 12.87-3.34 0-4.63-3.25-3.31-8.33 1.25-4.78 4.1-6.74 6.65-4.54m48.3 1.4c3.06 3.08 2.98 10.15-.14 11.63-3.35 1.58-3.86 1.06-5.36-5.53l-1.18-5.18 1.14-1.02a3.93 3.93 0 0 1 5.54.1m-35.82-.15c-3.98 2.03-2.9 6.14 2.38 9 2.76 1.5 3.72 2.69 3.35 4.16-.66 2.65-6.05 1.8-6.54-1.02-.38-2.18-2.22-1.71-2.22.56 0 2.58 1.07 3.17 5.82 3.18 6.93 0 8.34-5.45 2.31-8.95-4.2-2.44-4.24-2.47-4.37-3.82-.15-1.57.62-2.23 2.6-2.23 1.5 0 2.9 1 2.9 2.05 0 .57 1.43 1.33 1.94 1.03.82-.48.26-3.34-.74-3.81-1.7-.8-6-.88-7.43-.15m16.04-.42c-.2.07-.83.23-1.39.35-1.45.32-1.4 1.63.07 1.93 1.3.26 1.5 1.27 1.62 8.26.07 4.23.07 4.23-.85 4.46-1.4.33-1.46 1.49-.09 1.49 3.9 0 6.75-.5 6.75-1.17 0-.51-.28-.69-1.09-.69-1.28 0-1.26.1-1.89-8.68-.47-6.52-.61-6.79-3.13-5.95"/><path fill="#99c0de" d="M224.35 76.94c.66.08 1.75.08 2.4 0 .67-.09.13-.16-1.2-.16-1.32 0-1.86.07-1.2.16m7.97 0c.56.08 1.47.08 2.03 0 .56-.1.1-.16-1.02-.16s-1.58.07-1.02.15m-8.51 9.27c1.57.07 4.16.07 5.74 0s.28-.13-2.87-.13c-3.16 0-4.45.06-2.87.13m-6.3.35c.36.1.94.1 1.3 0 .35-.1.06-.17-.65-.17-.72 0-1 .08-.65.17m.93 8.9c.67.09 1.67.08 2.22 0 .56-.09.02-.15-1.2-.15-1.23 0-1.68.07-1.02.15m9.44 0c.57.09 1.4.08 1.86 0 .45-.1 0-.16-1.03-.16-1.01 0-1.39.08-.82.16m-11.5 9.26c.77.08 2.02.08 2.79 0 .76-.08.14-.14-1.4-.14-1.52 0-2.15.06-1.38.14m7.04 0c.76.08 2.01.08 2.77 0 .77-.08.14-.14-1.38-.14-1.53 0-2.16.06-1.4.14m-10.73 9.26c.56.09 1.4.08 1.85 0 .46-.1 0-.16-1.02-.16s-1.4.07-.83.16m10.74 0c.56.09 1.4.08 1.85 0 .46-.1 0-.16-1.02-.16s-1.4.07-.83.16m-12.78 9.26c.66.08 1.74.08 2.4 0 .67-.08.13-.15-1.2-.15-1.32 0-1.86.07-1.2.15m9.44 0c.56.08 1.48.08 2.04 0 .56-.09.1-.16-1.02-.16s-1.58.07-1.02.16m-109.81 12.22c.46.09 1.2.09 1.66 0 .46-.1.09-.16-.83-.16-.92 0-1.3.07-.83.16m8.89 0c.45.09 1.2.09 1.66 0 .46-.1.09-.16-.83-.16-.92 0-1.3.07-.83.16m90.81 6.3l-1.28 1.4 1.4-1.28c1.28-1.19 1.55-1.5 1.27-1.5-.06 0-.69.63-1.39 1.39m-93.22-.76c.36.09.94.09 1.3 0 .35-.1.06-.17-.65-.17-.72 0-1 .07-.65.17m106.3 3.44c0 .92.08 1.3.16.84.1-.46.1-1.21 0-1.67-.08-.46-.16-.08-.16.83M92.4 147.87l-1.46 1.57 1.57-1.46c1.46-1.36 1.74-1.68 1.46-1.68-.06 0-.77.7-1.57 1.57m-14.12 13.61c0 1.53.07 2.15.15 1.39.08-.76.08-2.01 0-2.78-.08-.76-.15-.14-.15 1.4m92.2-.12c.35.09.93.09 1.29 0 .36-.1.06-.17-.65-.17s-1 .07-.65.17m78.52.01c.77.08 2.02.08 2.78 0 .76-.08.14-.14-1.39-.14-1.53 0-2.15.06-1.39.14m39.08 0c.45.08 1.2.08 1.66 0 .46-.1.09-.17-.83-.17-.92 0-1.3.07-.83.16m-70.6 1.05c-.61 1.37-.5 1.66.18.42.31-.58.5-1.12.41-1.2-.08-.1-.35.26-.58.78m81.42 3.32a8.1 8.1 0 0 0 1.44 1.3c.1 0-.38-.59-1.07-1.3a8.1 8.1 0 0 0-1.44-1.3c-.1 0 .38.59 1.07 1.3m-132.06 1.76l-1.46 1.57 1.57-1.46c1.47-1.36 1.75-1.68 1.47-1.68-.06 0-.77.7-1.58 1.57m107.98.1c-.9.9-1.55 1.66-1.45 1.66.1 0 .93-.75 1.82-1.67.9-.91 1.56-1.66 1.46-1.66-.1 0-.93.75-1.82 1.66m-182.04.19c.8.81 1.53 1.48 1.63 1.48.1 0-.47-.67-1.26-1.48-.8-.82-1.53-1.48-1.63-1.48-.1 0 .46.66 1.26 1.48m154.33-.67c-.24.25-.42.95-.4 1.57.05 1.13.06 1.13.28-.16.23-1.26.29-1.3 2.27-1.52l2.04-.21-1.87-.06c-1.05-.04-2.07.13-2.32.38m-38.5 1.22c0 .82.08 1.1.17.65.09-.46.09-1.13 0-1.48-.1-.36-.17.02-.17.83m5.28 1.3c-.32.61-.5 1.11-.4 1.11.11 0 .45-.5.77-1.11.31-.61.5-1.11.39-1.11-.1 0-.44.5-.76 1.11m-15.25 3.52c0 1.42.07 1.96.15 1.2.08-.78.08-1.94 0-2.6-.09-.66-.15-.03-.15 1.4m-99.75-1.12c0 .26 2.27 1.38 2.44 1.21.08-.08-.44-.42-1.15-.76s-1.3-.54-1.3-.45m41.58.45c.36.1.94.1 1.3 0 .36-.1.06-.17-.65-.17s-1 .07-.65.17m-56.76 2.89a8.1 8.1 0 0 0 1.44 1.3c.1 0-.38-.59-1.07-1.3a8.06 8.06 0 0 0-1.44-1.3c-.1 0 .38.59 1.07 1.3m216.4 2.22c0 .82.07 1.1.16.65.1-.46.09-1.13 0-1.49-.1-.35-.17.03-.17.84M181.96 180c0 1.12.07 1.58.16 1.02.08-.56.08-1.48 0-2.04-.09-.56-.16-.1-.16 1.02m107.73-.91c-.62 1.36-.5 1.65.17.41.31-.57.5-1.12.41-1.2-.08-.09-.34.27-.58.79m-49.32-.46c0 .07.54.61 1.2 1.2l1.2 1.1-1.08-1.2c-1.01-1.13-1.32-1.38-1.32-1.1M171 180.56c-.34.71-.54 1.3-.45 1.3.25 0 1.38-2.28 1.21-2.45-.08-.08-.42.44-.76 1.15m37.61 0c0 .81.08 1.1.17.64.09-.46.09-1.13 0-1.48-.1-.36-.17.02-.17.84m102.12 1.94l-2.03 2.13 2.13-2.03a31.35 31.35 0 0 0 2.13-2.12c0-.28-.35.04-2.23 2.02m-218.5-1.2c0 .25 2.26 1.37 2.43 1.2.08-.08-.44-.42-1.15-.76-.7-.34-1.29-.54-1.29-.45m152.31 1.14c.5.6.54.87.2 1.2-.24.25-.34.44-.22.44.84 0 .97-1.06.21-1.7-.83-.7-.83-.7-.19.06m23.33.53c0 .72.08 1 .17.65.1-.36.1-.94 0-1.3-.09-.35-.17-.06-.17.65m-108.12 1.3c0 1.22.08 1.68.16 1.01.08-.67.08-1.67 0-2.22-.09-.56-.16-.01-.16 1.2m34.14 1.03l-2.58 2.68 2.68-2.58a50.52 50.52 0 0 0 2.69-2.69c0-.27-.4.1-2.8 2.59m-44.13-.65c0 1.02.07 1.4.16.83.08-.56.08-1.4-.01-1.85-.09-.46-.16 0-.15 1.02m78.94-.1l-1.09 1.21 1.2-1.09c.67-.6 1.21-1.14 1.21-1.2 0-.29-.3-.03-1.32 1.09m83.17.83c-.9.92-1.55 1.67-1.45 1.67.1 0 .92-.75 1.82-1.67.9-.92 1.55-1.67 1.45-1.67-.1 0-.92.75-1.82 1.67m-80.2 1.02l-1.1 1.2 1.2-1.09c.67-.6 1.21-1.13 1.21-1.2 0-.29-.3-.03-1.32 1.09m28.47 1.57c0 1.02.07 1.4.16.83.08-.56.08-1.4 0-1.85-.1-.46-.17 0-.16 1.02m-74.83-1.04c.35.1.94.1 1.3 0 .35-.1.06-.17-.65-.17-.72 0-1 .08-.65.17m117.97 0c.46.1 1.12.1 1.48 0 .35-.1-.03-.16-.84-.16-.82 0-1.1.08-.64.17m-163.62 2.51a8.1 8.1 0 0 0 1.44 1.3c.1 0-.38-.58-1.07-1.3a8.06 8.06 0 0 0-1.44-1.3c-.1 0 .38.6 1.07 1.3m149.8 1.76l-1.47 1.58 1.58-1.47c1.46-1.36 1.74-1.68 1.46-1.68-.06 0-.77.7-1.57 1.57m-62.97.37l-1.09 1.2 1.2-1.08c.67-.6 1.2-1.14 1.2-1.2 0-.29-.3-.04-1.31 1.08m-44.89.18c.56.08 1.48.08 2.04 0 .56-.09.1-.16-1.02-.16s-1.58.07-1.02.16m118.16 0c.56.08 1.4.08 1.85 0 .46-.1 0-.16-1.02-.16s-1.4.07-.83.16m-225 .36c.45.1 1.2.1 1.66 0 .46-.09.08-.16-.83-.16-.92 0-1.3.08-.84.16m7.41 0c.47.1 1.13.09 1.48 0 .36-.1-.02-.17-.83-.17-.82 0-1.1.09-.65.17m70.83 1.4a8.1 8.1 0 0 0 1.44 1.3c.1 0-.38-.58-1.07-1.3a8.1 8.1 0 0 0-1.44-1.29c-.1 0 .38.59 1.07 1.3m83.06 1.11c0 .81.08 1.1.17.64.09-.46.08-1.12-.01-1.48-.1-.35-.17.03-.16.84m20.81.65l-1.46 1.57 1.57-1.46c1.47-1.36 1.75-1.69 1.47-1.69-.06 0-.77.71-1.58 1.58M80.28 197.3c1.07.07 2.82.07 3.89 0 1.07-.07.2-.14-1.95-.14-2.14 0-3.01.07-1.94.14m96.85.36c.57.09 1.4.09 1.86 0 .45-.09 0-.16-1.03-.16-1.02 0-1.39.08-.83.16m-76.2 1.96c.8.81 1.53 1.48 1.63 1.48.1 0-.47-.67-1.26-1.48-.8-.81-1.53-1.48-1.64-1.48-.1 0 .47.66 1.27 1.48m142.32.64c.66.08 1.66.08 2.22 0 .56-.09.01-.16-1.21-.16s-1.68.08-1.01.16m-109.82 1.4c0 .81.08 1.1.16.64.1-.46.1-1.13 0-1.48-.1-.36-.17.02-.16.84m35.26.27l-1.47 1.58 1.58-1.47c1.46-1.36 1.74-1.68 1.46-1.68-.06 0-.77.7-1.57 1.57m-123.5 3.43a25.9 25.9 0 0 0-2.58 2.78c.1 0 1.43-1.25 2.95-2.78a25.98 25.98 0 0 0 2.57-2.78c-.1 0-1.43 1.25-2.95 2.78m138.64-.37c0 1.43.07 1.96.15 1.2.08-.77.08-1.94 0-2.6-.08-.66-.15-.03-.15 1.4m-126.6 2.5L55 209.81l2.31-2.2a37.14 37.14 0 0 0 2.32-2.32c0-.27-.37.06-2.42 2.21m39.54-.46c0 .71.08 1 .17.65.1-.36.1-.94 0-1.3-.1-.36-.17-.07-.17.65m67.3 1.51c-.42.84-.7 1.58-.63 1.66.08.08.5-.6.95-1.51 1-2.08.74-2.2-.31-.15m-58.02 2.75c0 1.22.07 1.67.15 1 .09-.66.09-1.66 0-2.21-.08-.56-.15-.02-.15 1.2m4.42 4.16c.56.09 1.48.09 2.04 0 .56-.08.1-.15-1.02-.15s-1.58.07-1.02.15m115.38 4.82c.67.08 1.67.08 2.22 0 .56-.09.01-.16-1.2-.16-1.23 0-1.69.08-1.02.16m108.15 0c.66.08 1.66.08 2.22 0 .56-.09.01-.16-1.21-.16s-1.68.08-1.01.16m-67.94 3.06c0 1.73.07 2.44.15 1.58.07-.87.07-2.28 0-3.15-.08-.87-.14-.16-.14 1.57m17.74-2.7c.35.09.94.09 1.3 0 .35-.1.06-.17-.66-.17-.7 0-1 .07-.64.17m-166.2.85c.74.82 1.25 1.03.6.25-.23-.28-.3-.61-.17-.75.13-.13-.06-.24-.43-.24-.65 0-.65.03 0 .74m16.38-.48c.46.09 1.21.09 1.67 0 .46-.09.08-.16-.84-.16-.91 0-1.29.07-.83.16m-33.89.37c.36.09.94.09 1.3 0 .36-.1.06-.17-.65-.17s-1 .07-.65.17m6.46.38c2.29.11 2.69.24 2.83.86.13.58.15.56.11-.1-.04-.8-.2-.84-2.82-.87l-2.78-.03 2.66.14m130.3 2.7c.8.8 1.53 1.48 1.63 1.48.1 0-.46-.67-1.26-1.49a10.3 10.3 0 0 0-1.63-1.48c-.1 0 .47.67 1.26 1.48m19.58 2.04c0 1.84.06 2.63.14 1.77.07-.86.08-2.36 0-3.33-.08-.97-.14-.27-.14 1.56m18.93-1.2l-1.84 1.94 1.94-1.84a26.06 26.06 0 0 0 1.95-1.94c0-.28-.35.03-2.05 1.84m-143 2.31c0 2.04.06 2.83.14 1.75.07-1.08.07-2.74 0-3.7-.08-.96-.14-.08-.14 1.95m90.77-1.57l-1.46 1.57 1.57-1.46c1.47-1.36 1.75-1.69 1.47-1.69-.07 0-.77.71-1.58 1.58m55.55 0l-1.09 1.2 1.2-1.09c.67-.6 1.21-1.14 1.21-1.2 0-.28-.3-.03-1.32 1.09m42.23.37l-1.47 1.57 1.58-1.46c.86-.8 1.57-1.51 1.57-1.57 0-.28-.32 0-1.68 1.46m-211.14 2.68c0 2.25.06 3.11.13 1.94.08-1.18.08-3.02 0-4.08-.07-1.06-.13-.1-.13 2.14m172.57-1.3c0 1.33.07 1.87.15 1.21.08-.66.08-1.74 0-2.4-.08-.67-.15-.13-.15 1.2m-140.75 1.48c0 1.12.07 1.58.16 1.02.08-.56.08-1.48 0-2.04-.09-.56-.16-.1-.16 1.02m-22.6 0c0 .92.07 1.3.16.83.09-.46.09-1.2 0-1.66-.09-.46-.16-.09-.16.83m66.47-.48c.46.09 1.21.09 1.67 0 .46-.09.08-.16-.83-.16-.92 0-1.3.07-.84.16m-26.49 1.59c0 .71.08 1 .17.65.1-.36.1-.94 0-1.3-.09-.35-.16-.06-.16.65m9.6 1.02c-.07 2.52-.03 2.62.73 1.69.3-.38.33-.52.06-.36-.31.19-.48-.3-.58-1.7l-.13-1.95-.07 2.32m97.1 1.02c0 1.83.06 2.63.14 1.77.07-.86.07-2.36 0-3.34-.08-.97-.14-.27-.14 1.57m-233.38.55c0 .72.07 1 .17.65.1-.36.1-.94 0-1.3-.1-.35-.17-.06-.17.65m108.89.74c0 .72.07 1 .17.65.09-.35.09-.94 0-1.3-.1-.35-.17-.06-.17.65m-22.58.74c0 .92.07 1.3.16.84a5.3 5.3 0 0 0 0-1.67c-.09-.46-.16-.08-.16.83m13.33.38c0 .91.08 1.29.16.83.1-.46.1-1.21 0-1.67-.09-.46-.16-.08-.16.84m57.06 2.59c0 1.53.07 2.15.15 1.39.08-.77.08-2.02 0-2.78-.08-.77-.15-.14-.15 1.39m92.56-1.48c0 .7.07 1 .17.64.09-.35.09-.94 0-1.3-.1-.35-.17-.06-.17.66m-103.7.74c0 .91.08 1.29.17.83a5.3 5.3 0 0 0 0-1.67c-.09-.46-.16-.08-.16.84m-68.51 1.48c0 1.12.07 1.58.16 1.02.08-.56.08-1.48 0-2.04-.09-.56-.16-.1-.16 1.02m31.46-.74c0 .71.07 1 .17.65.09-.36.09-.94 0-1.3-.1-.36-.17-.07-.17.65m205.21 1.1c0 1.33.07 1.87.15 1.21.09-.66.09-1.74 0-2.4-.08-.67-.15-.13-.15 1.2m-75.32-.34c-.42.84-.7 1.58-.63 1.66.08.08.5-.6.95-1.52 1-2.07.73-2.2-.32-.14m-101.39-.7c-.24.25-.42.95-.39 1.58l.06 1.13.16-1.12c.1-.6.34-1.31.55-1.57.49-.6.2-.6-.38-.02m96.28.76c-.06 1.58.1 1.73.71.6.25-.47.27-.69.04-.55-.21.13-.45-.14-.54-.6-.1-.53-.18-.32-.21.55m26 1.76c0 1.73.06 2.44.14 1.57.08-.86.08-2.28 0-3.14-.07-.87-.14-.16-.14 1.57m-36.65-1.77c-.54.64-.56.72-.07.34.6-.45.65-.22.77 3.16l.12 3.64.03-3.98c.02-2.2 0-3.98-.06-3.98-.04 0-.4.37-.78.82m-222.65 1.59c0 .81.08 1.1.16.64.1-.46.09-1.13 0-1.48-.1-.36-.17.02-.16.84m248.9.18c0 .92.06 1.3.15.83.1-.46.1-1.2 0-1.66-.09-.46-.16-.09-.16.83m75.45 1.39l-2.4 2.5 2.5-2.4a43.63 43.63 0 0 0 2.5-2.5c0-.27-.38.08-2.6 2.4m-238.41-.65c0 .92.07 1.3.16.83a5.3 5.3 0 0 0 0-1.66c-.09-.46-.16-.09-.16.83m75.91 0c0 .71.08 1 .17.65.1-.36.1-.94 0-1.3-.1-.35-.17-.06-.17.65m115.65 2.32l-2.96 3.05 3.06-2.95c2.83-2.75 3.22-3.16 2.95-3.16-.05 0-1.43 1.38-3.05 3.06m-58.35-.56l-1.28 1.39 1.4-1.28c1.29-1.19 1.55-1.5 1.27-1.5-.06 0-.69.63-1.39 1.39m-92.48.28c0 .81.08 1.1.17.64.09-.46.09-1.13 0-1.48-.1-.35-.17.02-.17.84m56.67.37c0 .81.08 1.1.17.64.09-.46.08-1.13-.01-1.48-.1-.35-.16.02-.16.84m-87.87.74c-.9.92-1.56 1.67-1.45 1.67.1 0 .92-.75 1.82-1.67.9-.92 1.55-1.67 1.45-1.67-.1 0-.92.75-1.82 1.67m52.96-.37c.7.71 1.34 1.3 1.44 1.3.1 0-.38-.59-1.07-1.3a8.13 8.13 0 0 0-1.44-1.3c-.1 0 .38.59 1.07 1.3m177.04.74c-.9.92-1.55 1.67-1.45 1.67.1 0 .92-.75 1.82-1.67.9-.92 1.55-1.67 1.45-1.67-.1 0-.92.75-1.82 1.67m-248.8-.19c0 .72.07 1 .16.65.1-.35.1-.94 0-1.3-.09-.35-.17-.06-.17.65m139.53 1.4l-1.28 1.38 1.4-1.28c1.28-1.18 1.55-1.5 1.27-1.5-.06 0-.69.63-1.4 1.4m-100.36 1.47l-2.02 2.13 2.13-2.02c1.98-1.88 2.3-2.24 2.02-2.24-.05 0-1.01.96-2.13 2.13m74.25-.55l-1.08 1.2 1.2-1.09c.66-.6 1.2-1.13 1.2-1.2 0-.29-.3-.03-1.32 1.09m69.19 1.39c0 .71.07 1 .17.65.09-.36.09-.94 0-1.3-.1-.36-.17-.06-.17.65m-170.18-.48c.46.09 1.13.08 1.48 0 .36-.1-.02-.17-.83-.17-.82 0-1.1.08-.65.17m159.8 1.22c0 .71.08 1 .18.65.09-.36.09-.94 0-1.3-.1-.36-.17-.06-.17.65m54.15 1.57l-1.46 1.58 1.57-1.47c1.47-1.36 1.75-1.68 1.47-1.68-.06 0-.77.7-1.58 1.57m-209.26.37l-1.46 1.58 1.57-1.47c1.47-1.36 1.75-1.68 1.47-1.68-.06 0-.77.7-1.58 1.57m111.78.17c.36.09.94.09 1.3 0 .35-.1.06-.17-.65-.17s-1 .07-.65.17m108.15 0c.36.09.94.09 1.3 0 .35-.1.06-.17-.65-.17-.72 0-1 .07-.65.17m-52.57 1.69c.39.35 1.15.63 1.68.6.9-.03.88-.06-.22-.32a6.78 6.78 0 0 1-1.68-.6c-.27-.19-.17-.04.22.31m-31.7.91c.47.1 1.22.1 1.68 0 .45-.08.08-.16-.84-.16-.91 0-1.29.08-.83.16m-121.66.75c.56.09 1.4.08 1.85 0 .46-.1 0-.16-1.02-.16s-1.4.07-.83.16m-23.53.74c.46.08 1.21.08 1.67 0 .46-.1.08-.17-.83-.17-.92 0-1.3.08-.84.17m99.08.74c.56.09 1.47.09 2.03 0 .56-.08.1-.15-1.01-.15-1.12 0-1.58.07-1.02.15m108.15 0c.56.09 1.4.08 1.85 0 .46-.1 0-.16-1.02-.16s-1.4.08-.83.16m-146.85 1.1c.46.1 1.13.1 1.48 0 .35-.1-.02-.16-.84-.16-.81 0-1.1.08-.64.17m-123.06 2.33c1 1.02 1.9 1.85 2 1.85.11 0-.63-.83-1.63-1.85-1-1.02-1.9-1.85-2.01-1.85-.1 0 .64.83 1.64 1.85m234.53-.1c.65.08 1.82.08 2.59 0 .77-.08.23-.15-1.2-.15-1.42 0-2.05.06-1.4.15m-113.5 4.44c.56.08 1.47.08 2.03 0 .56-.09.1-.16-1.01-.16-1.12 0-1.58.07-1.02.16m-107.6 9.25c.47.1 1.14.09 1.5 0 .34-.1-.03-.17-.85-.16-.81 0-1.1.08-.64.16m109.9 8.6a30.06 30.06 0 0 0 2.76 2.62c.1 0-.81-1-2.03-2.23-1.21-1.23-2.16-2.35-2.1-2.5.06-.15-.19-.32-.55-.4-.38-.06.44 1.01 1.91 2.5m25.12 5.13c1.18.07 3.01.07 4.07 0 1.06-.08.1-.14-2.14-.14s-3.11.07-1.93.14m-.02 6.67c.97.07 2.56.07 3.52 0 .97-.08.18-.14-1.76-.14-1.93 0-2.72.06-1.75.13"/><path fill="#f49c9f" d="M181.39 64.7c.46.1 1.2.1 1.67 0 .45-.08.08-.16-.84-.16-.91 0-1.29.08-.83.17m3.7 0c.47.09 1.13.08 1.49-.01.35-.1-.02-.17-.84-.16-.81 0-1.1.08-.64.17m12.86 5.66c1 1.02 1.91 1.85 2.01 1.85.1 0-.63-.83-1.64-1.85-1-1.02-1.9-1.85-2-1.85-.1 0 .63.83 1.63 1.85m-30.38 1.57l-1.84 1.95 1.94-1.84a25.97 25.97 0 0 0 1.95-1.94c0-.28-.34.03-2.05 1.83M143.8 75.1c.96.07 2.55.07 3.51 0 .97-.08.18-.14-1.75-.14-1.94 0-2.73.06-1.76.14m59.62 9.72c0 .72.08 1 .17.65.1-.35.1-.94 0-1.3-.1-.35-.17-.06-.17.66M163.45 90c0 1.32.07 1.87.15 1.2.08-.66.08-1.74 0-2.4-.08-.67-.15-.12-.15 1.2m15 3.21c.38.16.38.3 0 .8-.44.55-.42.56.16.11.36-.28.65-.65.65-.83 0-.18-.3-.31-.65-.3-.41.02-.47.1-.17.22m-15.4 3.09c0 .7.09 1 .18.64.1-.35.1-.94 0-1.3-.1-.35-.17-.06-.17.66m34.54 1.48c-.31.6-.49 1.1-.39 1.1.1 0 .45-.5.76-1.1.32-.61.5-1.11.4-1.11-.1 0-.45.5-.77 1.1m-35.5 5.82c.25.17.52.89.61 1.6.17 1.24.17 1.23.13-.16-.04-.95-.25-1.5-.6-1.6-.39-.1-.43-.06-.13.16m-32.47 3.26c.7.72 1.34 1.3 1.44 1.3.1 0-.38-.59-1.07-1.3a8.06 8.06 0 0 0-1.44-1.3c-.1 0 .38.59 1.07 1.3m32.71 4.55c0 2.6.01 2.67.68 2.07.8-.73.93-1.17.15-.52-.46.38-.56.1-.68-1.9l-.14-2.35v2.7m27.1.45c-.32.61-.5 1.11-.4 1.11.1 0 .45-.5.76-1.1.32-.62.5-1.12.4-1.12-.1 0-.45.5-.77 1.11m-31.66 12.02c0 .1.5.44 1.1.76.62.32 1.12.5 1.12.39 0-.1-.5-.44-1.11-.76-.61-.32-1.11-.5-1.11-.39m20.55 7.24c-.31.61-.49 1.11-.39 1.11.1 0 .45-.5.76-1.1.32-.62.5-1.12.4-1.12-.1 0-.45.5-.77 1.11m-52.56 145.52c-.5.56-.53.76-.15.99.27.15.37.14.22-.03-1.02-1.12.69-1.22 1.9-.1l1.33 1.21-1.27-1.38c-1.5-1.64-1.24-1.55-2.03-.69m-1.53 4.57l-1.1 1.2 1.21-1.08c1.12-1.01 1.38-1.32 1.09-1.32-.06 0-.6.54-1.2 1.2m-2.6 2.23l-1.08 1.2 1.2-1.09c1.12-1.01 1.37-1.32 1.09-1.32-.07 0-.6.54-1.2 1.2m155.5.65c0 1.12.07 1.58.15 1.02.09-.56.09-1.47 0-2.03-.08-.56-.15-.1-.15 1.01m-1.98 1.22c.18 1.52.19 1.53.31.31.07-.69-.01-1.4-.18-1.56-.18-.18-.24.39-.13 1.25m-153.53 1.1l-1.08 1.2 1.2-1.08c1.12-1.02 1.37-1.32 1.09-1.32-.07 0-.6.54-1.2 1.2m-5.56 1.85l-1.09 1.2 1.2-1.08c1.13-1.02 1.38-1.32 1.1-1.32-.07 0-.61.54-1.21 1.2m172.01-.18c-.47.6-.45.6.18.1.62-.48.75-.46 1.2.17.29.38.52.54.52.33 0-1.11-1.2-1.5-1.9-.6M275.64 290c0 .71.08 1 .17.65.1-.36.1-.94 0-1.3-.1-.36-.17-.06-.17.65m-136.04 1.2c.76.86.81 1.09.38 1.66-.47.63-.46.63.22 0 .69-.63.68-.66-.39-1.66l-1.09-1.01.88 1m134.74.3c.66.69 1.26 1.18 1.33 1.08.08-.09-.46-.65-1.2-1.25l-1.32-1.08 1.19 1.25m3.18.73c0 1.12.07 1.58.15 1.02.09-.56.09-1.48 0-2.04-.08-.56-.15-.1-.15 1.02m-144.02.1l-1.1 1.2 1.21-1.09c1.12-1.01 1.38-1.32 1.09-1.32-.06 0-.6.54-1.2 1.2m136.87.1c.7.71 1.34 1.3 1.44 1.3.1 0-.38-.59-1.07-1.3a8.06 8.06 0 0 0-1.44-1.3c-.1 0 .38.58 1.07 1.3m15.62.65c-.83.81-.86.82-1.38.11-.3-.4-.54-.54-.54-.32 0 1.15 1.16 1.35 2.15.36.54-.54.9-.99.8-.99-.1 0-.57.38-1.03.84m-152.5 2.22l-1.08 1.2 1.2-1.09c1.12-1.01 1.38-1.32 1.09-1.32-.06 0-.6.55-1.2 1.2m-19.54-.1c.82.89 1.97.61 1.97-.47 0-.22-.24-.08-.53.32-.51.7-.53.7-1.39-.01l-.86-.72.81.88m13.98 1.96l-1.09 1.2 1.2-1.08c1.13-1.02 1.38-1.32 1.1-1.32-.07 0-.61.54-1.21 1.2m130.19.56l-1.28 1.38 1.4-1.27c1.28-1.19 1.55-1.5 1.27-1.5-.06 0-.69.62-1.4 1.38m-132.62.1l-.1.83c-.01.26-.2.59-.4.74-.24.17-.22.27.05.27.23 0 .64-.27.92-.62.42-.52.42-.57 0-.32-.38.23-.44.12-.24-.49.13-.43.15-.78.04-.78-.12 0-.24.16-.27.37m155.4 1.2l-1.08 1.2 1.2-1.08c.66-.6 1.2-1.14 1.2-1.2 0-.3-.3-.04-1.32 1.08m-21.98.14c-.8 1.03-1 2.17-.44 2.52.19.12.25-.13.14-.56-.12-.46.11-1.19.6-1.85 1-1.35.74-1.44-.3-.1m-130.98.96l-1.09 1.2 1.2-1.08c1.13-1.02 1.38-1.32 1.1-1.32-.07 0-.61.54-1.21 1.2m11.42-.56c.56.08 1.4.08 1.85-.01.45-.09 0-.16-1.03-.15-1.01 0-1.39.07-.82.15m-5.3 2.61l-1.28 1.39 1.39-1.28c1.29-1.19 1.56-1.5 1.27-1.5-.06 0-.68.63-1.39 1.39m121.96-.28c0 .71.08 1 .17.65.1-.36.1-.94 0-1.3-.1-.35-.17-.06-.17.65m21.86-.55c.64.7.66.7 1.3 0 .61-.67.61-.68 0-.22-.54.4-.76.4-1.3 0-.62-.46-.62-.45 0 .22m-152.9 1.38l-1.08 1.2 1.2-1.08c1.13-1.01 1.38-1.32 1.09-1.32-.06 0-.6.54-1.2 1.2m12.59.75l-1.09 1.2 1.2-1.09c1.13-1.01 1.38-1.32 1.1-1.32-.07 0-.61.54-1.21 1.2m118.73.16c0 .2.45.77 1.01 1.26l1.02.9-.92-1.11c-.51-.61-.97-1.18-1.02-1.27-.05-.08-.1.01-.1.22m-111.76 1.24c0 .7.08 1 .17.64.1-.35.1-.94 0-1.3-.1-.35-.17-.06-.17.65m122.78-.1c1.08.1 1.74.4 2.13.95.3.44.56.62.56.4 0-.85-1.38-1.62-2.8-1.55l-1.46.06 1.57.14m-119.8 1.77c0 1.02.08 1.4.16.83.09-.56.09-1.4 0-1.85-.09-.46-.16 0-.16 1.02m83.81-.96a2 2 0 0 0-.47 1.58c.15.8.16.78.21-.14.03-.56.4-1.24.87-1.57.46-.32.65-.57.43-.57-.22 0-.68.31-1.04.7m21.46.07c-.2.2-.7.62-1.11.93-.62.46-.54.46.46-.03.66-.32 1.2-.75 1.2-.94 0-.44-.07-.44-.55.04m7.13.6c.46.09 1.13.08 1.48-.01.36-.1-.02-.17-.83-.16-.82 0-1.1.08-.65.17m-108.75.58c-.6.6-.52 1.21.23 1.8.59.46.6.44.14-.14-.62-.8-.29-1.83.5-1.53.3.12.56.13.56.03 0-.43-1.05-.54-1.43-.16m98.59 1.1a9.36 9.36 0 0 0-1.05 1.39c-.3.59-.22.5 1.28-1.2.49-.56.8-1.02.7-1.02-.1 0-.52.37-.93.83m20.64 1.49c-1.05 1.3-1.1 1.4-.24.64.89-.8 1.94-2.24 1.62-2.22-.06 0-.68.72-1.38 1.58m-118.78 2.86c0 1.53.06 2.15.14 1.4.08-.77.08-2.02 0-2.79-.08-.76-.14-.14-.14 1.4m-10.7-.29l-1.1 1.2 1.2-1.08c1.13-1.01 1.38-1.32 1.1-1.32-.07 0-.6.54-1.2 1.2m3.56 1.13c-1.56 1.83-1.57 1.86-.25.63 1.17-1.08 2.37-2.63 2-2.57-.06 0-.85.88-1.75 1.94m10.43-.85c0 .71.08 1 .17.65.1-.36.1-.94 0-1.3-.1-.35-.17-.06-.17.65m55.6-.53c-.3.77.36 1.39 1.22 1.17.54-.14.5-.2-.19-.22-.69-.04-.83-.2-.68-.79.23-.87-.03-1-.35-.16m23.85 0c-1.38.75-1.3 1.07.1.35.6-.32 1.1-.66 1.1-.75 0-.24-.03-.23-1.2.4m-72.89 1.37c.42.56.4.78-.2 1.48l-.68.83.9-.83c.89-.82.9-.85.2-1.48-.68-.62-.7-.62-.22 0m-24.7.9c.36.1.94.1 1.3 0 .35-.1.06-.17-.65-.17-.72 0-1 .08-.65.17m17.77 1.97c0 .7.08 1 .17.64.1-.35.1-.94 0-1.3-.1-.35-.17-.06-.17.66m18.71-.48c.46.09 1.2.09 1.67 0 .46-.1.08-.16-.84-.16-.91 0-1.29.07-.83.16m79.17.85c.31.6.66 1.1.76 1.1.1 0-.08-.5-.4-1.1-.3-.62-.65-1.12-.75-1.12-.1 0 .07.5.39 1.12m-32.22-.06a9.03 9.03 0 0 0-1.85 1.58c-.63.75-.57.73.37-.11.6-.55 1.69-1.25 2.4-1.56.71-.31 1.05-.57.74-.58-.3 0-1.05.3-1.66.68m-62.41 2.08c-.9.92-1.56 1.67-1.45 1.67.1 0 .92-.75 1.82-1.67.9-.91 1.55-1.66 1.45-1.66-.1 0-.92.75-1.82 1.66m16.02-1.04c.35.1.94.1 1.3 0 .35-.1.06-.17-.66-.17-.7 0-1 .08-.64.17M151.23 320c0 1.32.07 1.87.15 1.2.08-.66.08-1.74 0-2.4-.08-.67-.15-.12-.15 1.2m29-1.3c.86 1.47.88 1.49.88 1.03 0-.21-.34-.78-.76-1.26l-.76-.88.65 1.11m11.15-.29c.46.09 1.2.09 1.67 0 .45-.09.08-.16-.84-.16-.91 0-1.29.07-.83.16m15.28.07c.76.2.96.55 1.15 1.9l.22 1.66.05-1.5c.06-1.66-.44-2.41-1.59-2.36-.63.04-.6.08.17.3m-52.5 1.33c0 .82.08 1.1.17.65.09-.46.08-1.13-.01-1.48-.1-.36-.17.02-.16.83m64.74-.4c-.46.5-.75 1.13-.65 1.4.16.38.2.37.23-.05.01-.29.4-.91.83-1.38.45-.48.73-.86.62-.86-.1 0-.56.4-1.03.9m-62.25 3.08l-3.51 3.61 3.6-3.51c3.36-3.26 3.79-3.71 3.52-3.71-.05 0-1.68 1.62-3.61 3.61m39.91-3.16c.52.25.86.77.89 1.37l.05.96.17-.9c.17-.9-.68-1.91-1.55-1.86-.21.02-.01.21.44.43m-15.34 3.62c0 1.33.07 1.87.15 1.2.08-.66.08-1.74 0-2.4-.08-.66-.15-.12-.15 1.2m23.69 1.48c0 .92.07 1.3.16.84a5.3 5.3 0 0 0 0-1.67c-.1-.46-.16-.08-.16.83m3.33.93c0 1.02.08 1.4.16.83.09-.56.09-1.4 0-1.85-.09-.46-.16 0-.16 1.02m-38.88.56c0 1.12.07 1.57.16 1.01.08-.56.08-1.47 0-2.03-.09-.56-.16-.1-.16 1.02m25.95.78a8.75 8.75 0 0 1 1.76 1.96c.38.63.7.95.7.71 0-.62-1.79-2.66-2.73-3.11-.5-.24-.4-.08.27.44m33.69 2.2c-.44.81-.65 1.37-.46 1.26.41-.26 1.56-2.4 1.38-2.59-.07-.06-.49.54-.93 1.34m-23.7.9c0 1.01.07 1.39.15.82.09-.56.08-1.4 0-1.85-.1-.45-.16 0-.16 1.02m3.33.56c0 .92.07 1.3.16.83a5.3 5.3 0 0 0 0-1.66c-.09-.46-.16-.09-.16.83m-36.3.26c.35.09.94.09 1.3 0 .35-.1.06-.17-.66-.17-.71 0-1 .07-.65.17m13.3 1.61c-.05 1.28.45 2.2 1.2 2.2.2 0 .1-.2-.24-.46-.33-.25-.67-1.05-.75-1.76l-.15-1.3-.05 1.32m2.56-.72c-.02.32.34.9.8 1.3.83.7.83.7.24-.04-.34-.41-.7-1-.8-1.3-.18-.47-.22-.47-.24.04m33.58-.15c.46.1 1.13.09 1.49 0 .35-.1-.03-.17-.84-.17-.82 0-1.1.08-.65.17m-49.44 1.12c.56.08 1.4.08 1.85 0 .46-.1 0-.17-1.02-.16-1.02 0-1.4.07-.83.16m37.66.68c.67.13 1.15.48 1.25.93.13.57.15.54.12-.11-.04-.67-.3-.86-1.26-.93-1.14-.1-1.15-.09-.11.11m-1.92 1.9c.46.1 1.13.1 1.48 0 .36-.1-.02-.17-.84-.16-.81 0-1.1.08-.64.17m-17.41.37c.66.09 1.74.09 2.4 0 .67-.08.13-.15-1.2-.15-1.32 0-1.86.07-1.2.15m13.15-.01c.35.1.94.1 1.3 0 .35-.1.06-.17-.66-.17-.7 0-1 .08-.64.17"/></g></svg>