<svg xmlns="http://www.w3.org/2000/svg" width="400" height="400"><g fill-rule="evenodd"><path fill="#085b98" d="M223.698 77.033c-3.827.255-11.447 1.253-13.001 1.702-.479.138-.64.893-.807 3.774-.114 1.981-.315 3.948-.445 4.37-.235.757-.199.762 2.473.304 10.784-1.847 23.306-1.514 31.888.85 1.177.324 2.21.519 2.294.434.413-.412 2.409-8.622 2.155-8.86-1.762-1.649-16.019-3.144-24.557-2.574m-6.228 18.56c-4.406.317-13.408 1.699-13.825 2.122-.42.427-6.218 9.465-6.129 9.554.047.047 1.25-.16 2.673-.46 13.378-2.817 26.552-3.058 37.089-.677 2.181.493 3.99.856 4.019.808.03-.048.57-2.056 1.201-4.46l1.147-4.373-.909-.345c-1.942-.738-8.325-1.824-12.882-2.192-5.244-.422-6.218-.421-12.384.023m-5.769 18.49c-4.496.403-9.16 1.138-15.942 2.511l-5.167 1.047-3.061 4.698c-3.644 5.592-4.24 5.277 6.135 3.233 16.293-3.21 28.922-3.458 39.671-.778 1.526.38 2.824.643 2.885.584.212-.203 2.275-7.788 2.286-8.403.033-1.898-17.183-3.756-26.807-2.892m-62.596 20.272c-3.415 12.712-2.797 11.547-4.968 9.376-5.078-5.078-16.303-8.318-28.767-8.303-22.652.027-36.851 10.01-36.851 25.908 0 13.128 8.937 20.235 34.15 27.154 14.834 4.071 19.43 6.554 20.673 11.173 2.292 8.51-11.46 17.125-24.929 15.618L105.9 215l-.08-3.909c-.527-25.908-48.622-25.218-65.876.946-17.618 26.714-3.485 57.038 28.074 60.238 17.84 1.809 42.586-12.223 35.454-20.104-.992-1.097-1.834-.817-3.22 1.07-10.531 14.329-31.781 17.911-44.325 7.471-14.915-12.412-13.662-39.604 2.508-54.428 15.272-14.002 41.911-11.627 38.064 3.392-.327 1.277-.68 2.406-.784 2.511-.206.206-6.8-3.04-9.297-4.577l-1.544-.95-.771.979c-5.616 7.141 4.465 13.369 22.564 13.94l2.777.088.309 2.592c.184 1.541.13 6.361-.133 11.878-.334 7.039-.338 9.782-.014 11.342 2.075 9.994 12.941 9.14 20.256-1.59 1.535-2.252 1.821-2.516 1.917-1.768 1.769 13.835 14.762 12.565 24.54-2.4l2.385-3.65.455 4.298c1.148 10.844 4.063 16.407 10.099 19.267 8.596 4.074 17.991-.952 22.486-12.029l1.034-2.548 2.014-.422c2.678-.561 6.015-1.999 8.676-3.737 1.195-.78 2.212-1.419 2.261-1.419.05 0 .186 1.275.304 2.832.786 10.389 10.012 14.128 19.013 7.705 2.252-1.607 5.587-5.378 6.471-7.318.568-1.246 1.076-1.284 1.076-.08 0 .504.348 1.629.774 2.5 3.146 6.437 12.405 2.997 20.656-7.676l1.718-2.222.197 5.556c.287 8.1 1.371 9.864 6.203 10.096 3.097.149 3.091.154 4.102-3.373 2.914-10.162 11.786-25.057 14.926-25.057 1.45 0 1.617 1.463.942 8.273-1.269 12.792-1.153 17.563.517 21.338 3.609 8.158 16.192 5.165 28.257-6.723 3.456-3.405 3.038-3.239 3.344-1.329 1.938 12.122 17.036 12.023 24.557-.162l1.361-2.206.606 1.857c2.352 7.217 9.017 6.598 17.213-1.6 4.508-4.509 10.347-12.863 9.549-13.661-.739-.739-1.739.114-4.4 3.75-12.237 16.73-19.494 15.49-16.231-2.771 1.586-8.874-10.203-13.892-20.403-8.685-5.089 2.599-10.518 9.422-11.533 14.493-.382 1.913-7.83 9.234-12.541 12.327-9.826 6.453-10.739 5.565-10.744-10.456-.005-13.711-.494-15.835-4.013-17.433-5.985-2.718-12.876 2.393-19.887 14.748-1.07 1.884-2.026 3.426-2.126 3.426-.1 0-.06-4.312.088-9.582.241-8.54.203-9.71-.345-10.77-1.187-2.295-4.394-2.751-7.67-1.091-1.803.914-1.762.77-1.321 4.591.217 1.887.266 4.742.112 6.581l-.272 3.248-2.512 3.234c-11.232 14.46-17.843 12.716-14.98-3.952.717-4.178.579-4.797-1.584-7.109-7.916-8.464-22.523-4.313-28.526 8.105-2.336 4.832-5.407 7.405-11.115 9.309-3.624 1.21-3.573 1.243-3.297-2.101.585-7.117-2.364-11.188-8.104-11.188-9.951 0-10.812 13.607-1.089 17.214 1.006.374 1.887.721 1.957.771.364.265-2.878 5.618-4.27 7.05-6.036 6.21-11.529 1.036-13.466-12.686l-.425-3.005 1.721-2.262c11.771-15.478 17.046-35.519 9.964-37.856-9.544-3.15-19.076 9.835-20.873 28.433-.494 5.113-.958 6.24-5.228 12.688-10.334 15.604-15.136 13.831-13.287-4.906 1.023-10.358-.098-12.821-5.987-13.162l-2.958-.171.251 3.475c.139 1.921.053 6.041-.191 9.216l-.442 5.74-1.489 1.937c-4.846 6.305-9.948 7.874-11.468 3.525-.554-1.584-.545-6.858.026-14.319.413-5.407.152-7.61-1.055-8.895l-.809-.861 1.765-.264c23.693-3.553 33.398-25.023 15.775-34.897-3.677-2.06-8.25-3.808-17.731-6.779-21.925-6.871-28.098-11.552-28.098-21.304 0-21.019 42.013-23.04 52.703-2.535 1.477 2.833 1.505 2.283-.481 9.598-2.104 7.749-2.103 7.572-.045 7.572 1.787 0 2.165-.305 2.754-2.222 3.933-12.807 12.661-41.867 12.661-42.154 0-.317-4.039-3.039-4.493-3.028-.075.002-1.289 4.293-2.698 9.537m66.944 3.774c-8.267 1.995-17.151 19.874-17.159 34.532l-.001 2.846-2.161 2.709c-10.853 13.607-16.881 11.129-13.893-5.712l.574-3.236-.959-1.636c-6.842-11.675-25.883-5.818-31.193 9.594-6.468 18.775 12.78 26.766 23.528 9.768l1.433-2.267.27 1.247c1.916 8.874 11.281 6.967 20.572-4.188l1.752-2.102.436 2.986c3.443 23.545 19.832 21.417 39.271-5.098.538-.734.655-.658 3.77 2.477l3.215 3.234-1.977 1.493c-9.65 7.286-9.737 14.585-.181 15.146 12.351.726 20.927-10.015 14.61-18.298-.506-.662-.919-1.308-.919-1.435 0-.53 12.447-5.643 12.823-5.267.072.072-.193 1.05-.588 2.174-6.731 19.152 13.568 27.009 23.961 9.274l1-1.707.296 1.423c2.235 10.76 15.436 5.035 25.307-10.976 3.736-6.059 1.408-5.599-3.193.631-11.871 16.077-19.727 14.137-15.746-3.889 1.364-6.181-7.176-11.734-15.416-10.023-4.551.945-10.614 5.046-12.88 8.713-.572.925-1.092 1.27-2.176 1.443-2.267.363-6.923 2.016-11.594 4.117l-4.318 1.942-2.705-2.267c-5.939-4.978-6.945-9.1-2.226-9.118 3.265-.013 6.344-1.897 6.344-3.882 0-.643-2.863-1.296-5.69-1.296-7.811 0-12.501 3.622-12.637 9.759l-.057 2.537-3.114 4.13c-12.975 17.21-21.978 20.175-24.931 8.211-1.298-5.259-1.24-6.053.686-9.448 10.044-17.701 14.397-30.5 12.122-35.644-1.056-2.386-3.562-3.546-6.256-2.897m2.305 3.611c2.13 2.13-1.248 14.515-7.04 25.806-3.263 6.36-3.382 6.177-2.214-3.406 1.879-15.417 6.076-25.577 9.254-22.4m-43.832 24.207c2.374 2.374-1.526 13.801-7.038 20.622-5.57 6.892-9.95 1.116-6.595-8.697 3.408-9.966 9.907-15.651 13.633-11.925m117.109-.71c2.52 1.147 2.396 3.707-.544 11.251-5.229 13.417-13.732 17.939-13.221 7.031.472-10.093 8.459-20.7 13.765-18.282m-43.307 21.782c2.307 4.461-3.526 12.093-6.906 9.035-1.723-1.56-.55-4.377 3.288-7.894 2.814-2.578 2.866-2.595 3.618-1.141m-69.316 18.991c1.662 3.401-1.863 14.185-7.905 24.189-2.638 4.368-2.741 4.35-2.431-.421 1.117-17.23 6.962-30.671 10.336-23.768m51.05 18.186c2.858 1.785.463 10.765-5.125 19.222-6.989 10.579-12.479 2.964-6.922-9.602 3.47-7.846 8.48-11.847 12.047-9.62m107.128-.346c2.776 1.16 2.98 2.618 1.148 8.211-4.033 12.312-11.408 20.002-13.905 14.5-3.43-7.554 6.542-25.308 12.757-22.711m-149.278 8.374c1.377 1.637 1.809 7.038.778 9.725-.95 2.476-6.464-2.898-6.464-6.299 0-4.022 3.44-6.095 5.686-3.426m39.685 48.198c-14.13 7.393-31.962 7.623-47.223.608-5.371-2.469-5.277-2.487-2.407.447 14.538 14.86 37.753 14.819 51.036-.091 2.751-3.088 2.709-3.117-1.406-.964"/><path fill="#fbfbfb" d="M0 200v200h400V0H0v200M188.223 64.851c10.771 2.229 17.805 13.193 14.745 22.98-.742 2.372-1.626 3.98-13.305 24.206-3.529 6.111-7.839 13.585-9.578 16.608-1.739 3.023-3.353 5.569-3.585 5.659-.365.14-7.971-4.088-20.019-11.127-1.833-1.071-8.08-4.682-13.881-8.025-15.56-8.966-18.309-12.327-17.678-21.619 1.081-15.916 18.034-23.396 34.387-15.173l2.457 1.236 1.661-2.483c6.438-9.622 15.619-14.162 24.796-12.262m54.37 13.05c2.342.499 4.703 1.083 5.246 1.297l.988.39-1.178 4.44c-1.427 5.375-1.001 4.966-4.276 4.106-7.571-1.988-21.406-2.41-30.556-.931-4.344.701-3.966.93-3.329-2.018.286-1.324.486-3.319.444-4.433l-.075-2.027 1.275-.274c1.298-.28 8.214-1.264 10.905-1.552 4.423-.473 16.366.109 20.556 1.002m-79.079 14.472c-.149 2.769-.33 5.034-.404 5.034-.218 0-8.428 2.224-9.036 2.447-.312.115 1.424.964 3.953 1.934 2.479.952 4.595 1.818 4.701 1.926.106.107.077 2.399-.064 5.092-.141 2.694-.223 4.898-.182 4.898.058 0 5.956-7.279 6.236-7.696.038-.057 2.175.718 4.75 1.721 2.574 1.004 4.68 1.763 4.68 1.687 0-.076-1.1-1.839-2.444-3.918-1.345-2.078-2.519-3.973-2.61-4.209-.091-.237 1.171-2.073 2.805-4.08 1.634-2.006 2.907-3.711 2.83-3.788-.076-.077-2.097.372-4.489.997-2.392.626-4.494 1.138-4.671 1.138-.177 0-1.42-1.709-2.762-3.797-1.343-2.088-2.572-3.936-2.732-4.108-.161-.172-.413 1.953-.561 4.722m68.708 3.177c3.569.407 10.38 1.776 11.125 2.236.403.249-1.421 8.982-1.981 9.483-.038.034-1.285-.248-2.769-.627-10.199-2.605-23.787-2.541-37.14.177-2.329.473-4.285.819-4.347.767-.085-.071 5.934-9.565 6.401-10.097.192-.219 6.484-1.3 10.193-1.751 4.753-.578 14.255-.674 18.518-.188m-3.333 18.696c4.122.559 8.805 1.541 9.552 2.002.338.209.161 1.389-.72 4.792-1.299 5.021-1.101 4.842-4.388 3.96-9.869-2.649-23.542-2.401-39.308.71-3.538.699-7.259 1.391-8.269 1.538l-1.838.267.582-.887c.319-.488 1.714-2.637 3.1-4.776 1.385-2.139 2.619-4.008 2.741-4.153.347-.41 12.863-2.846 17.519-3.41 5.606-.679 16.183-.701 21.029-.043m-72.954 12.799c.739.556.656.875-5.928 22.593-6.856 22.616-6.987 22.955-8.896 22.955-2.439 0-2.453-.275-.405-7.942l1.867-6.988-1.377-2.619c-11.236-21.384-56.409-17.249-52.335 4.79 1.521 8.226 7.285 12.142 27.516 18.694 21.613 6.998 26.93 10.862 27.267 19.812.376 10-7.696 18.168-21.357 21.612-2.292.577-4.169 1.116-4.172 1.197-.004.081.273.814.616 1.629.544 1.296.581 2.199.297 7.222-.82 14.506-.454 16.728 2.79 16.967 2.095.154 4.135-1.074 7.031-4.235 2.967-3.238 3.097-3.798 3.147-13.555l.041-8.046 1.561-.235c6.73-1.015 8.85 2.879 7.677 14.104-1.699 16.261 1.958 18.889 10.569 7.593 5.003-6.564 6.93-10.463 7.406-14.982 1.924-18.281 9.164-29.967 18.592-30.008 10.223-.044 7.228 18.119-6.098 36.979l-2.583 3.656.237 2.455c1.559 16.157 10.216 20.656 16.372 8.508 1.13-2.23 1.229-1.958-1.092-3.02-8.832-4.043-9.163-15.171-.516-17.313 6.152-1.525 10.097 2.282 10.097 9.743 0 4.621-.021 4.603 3.769 3.185 5.469-2.046 8.22-4.357 10.269-8.625 5.974-12.444 19.818-16.964 28.35-9.256 2.748 2.483 3.12 3.655 2.371 7.48-3.327 17.011 3.738 18.751 15.071 3.711l2.291-3.04-.169-5.94c-.092-3.268-.236-6.191-.319-6.496-.228-.838 3.487-2.593 5.489-2.593 4.51 0 5.068 1.42 4.635 11.781-.397 9.501-.251 10.689 1.009 8.219 6.763-13.259 16.394-19.73 22.016-14.794 2.495 2.19 2.622 2.926 2.657 15.35.038 13.64.373 15.01 3.662 14.994 4.261-.019 18.023-11.444 19.599-16.27 4.444-13.605 18.719-20.337 28.409-13.398 3.998 2.863 4.467 4.123 3.516 9.444-3.015 16.867 4.439 17.439 16.264 1.249 3.575-4.894 6.001-5.507 3.612-.912-8.064 15.51-23.004 23.073-26.05 13.187l-.587-1.903-1.043 1.78c-4.264 7.275-13.549 11.575-18.938 8.769-3.186-1.659-6.068-5.57-6.068-8.234 0-1.75-.425-1.543-4.041 1.964-10.768 10.443-22.475 13.711-26.789 7.478-2.103-3.037-2.699-10.858-1.581-20.741 1.217-10.759.512-12.537-3.298-8.319-3.612 3.998-9.422 14.871-11.372 21.282-1.624 5.336-2.066 5.749-5.59 5.221-4.452-.668-6.088-4.145-5.782-12.287l.12-3.192-1.295 1.61c-9.544 11.878-19.166 14.89-21.716 6.798l-.623-1.975-1.357 2.097c-8.492 13.129-24.824 11.544-24.824-2.407v-2.384l-1.204.913c-1.982 1.503-6.476 3.592-9.126 4.243l-2.485.61-1.887 3.908c-4.244 8.792-10.548 13.029-17.726 11.913-8.704-1.353-13.716-8.542-14.542-20.857l-.252-3.757-1.915 2.921c-7.616 11.623-15.908 15.613-21.753 10.468-1.672-1.471-3.184-4.506-3.184-6.388 0-1.518-.467-1.376-1.752.532-5.382 7.992-13.085 11.009-17.719 6.94-2.832-2.486-3.591-5.732-3.105-13.275.376-5.837.449-14.969.133-16.554l-.221-1.105-4.316-.25c-17.133-.993-25.45-6.251-21.302-13.465 1.081-1.879 1.068-1.878 3.514-.436 7.231 4.264 8.532 4.557 9.16 2.063 3.781-15.017-22.587-17.387-37.659-3.387-18.119 16.832-16.951 47.793 2.156 57.157 13.26 6.5 31.04 1.624 39.636-10.869 1.207-1.755 1.471-1.884 2.606-1.277 4.462 2.388.612 9.716-7.554 14.379-16.189 9.244-34.798 8.912-48.577-.867-26.102-18.525-15.362-61.486 17.778-71.112 22.084-6.414 43.169 3.111 41.533 18.764l-.221 2.116 1.725.258c11.858 1.779 25.666-5.387 25.666-13.319 0-5.519-4.139-8.391-17.407-12.078-17.526-4.87-24.43-7.729-30.168-12.492-12.577-10.439-9.196-29.305 6.673-37.235 14.969-7.48 42.112-5.676 51.61 3.43l1.867 1.79.384-1.359c.212-.748 1.491-5.397 2.844-10.331l2.458-8.971 1.796 1.008c.988.555 2.133 1.262 2.545 1.572m64.154 11.334c5.944 3.074 3.215 14.775-8.365 35.858-3.134 5.706-3.24 6.2-2.294 10.662 2.84 13.4 11.037 11.002 24.968-7.306l2.818-3.704.214-2.847c.55-7.353 10.36-12.503 17.477-9.177 2.961 1.384-.355 4.632-5.22 5.113-2.439.242-2.466.257-2.579 1.421-.232 2.396 3.288 6.858 7.202 9.126.231.135 1.848-.425 3.594-1.243 3.644-1.708 9.206-3.759 11.92-4.397 1.598-.376 2.079-.719 3.404-2.431 7.584-9.802 21.553-10.838 27.382-2.031l.978 1.478-.662 3.975c-2.878 17.295 3.587 18.583 15.305 3.05 3.598-4.77 3.63-4.801 4.788-4.809 1.208-.008 1.049.627-1.012 4.056-9.734 16.196-22.51 21.634-25.747 10.959-.191-.63-.313-.561-.986.555-10.36 17.201-30.581 9.847-24.456-8.893.43-1.316.733-2.44.674-2.5-.2-.2-5.25 1.639-8.837 3.219l-3.563 1.569 1.093 1.509c6.654 9.186-4.547 21.244-17.074 18.38-7.767-1.776-6.665-8.205 2.695-15.712l1.385-1.111-3.104-3.001-3.104-3.001-2.357 3.339c-5.714 8.097-13.896 15.262-20.158 17.654-8.872 3.388-16.002-2.985-17.427-15.578-.293-2.594-.377-2.624-1.819-.657-7.534 10.279-18.558 13.065-20.574 5.199l-.473-1.845-1.359 2.093c-8.732 13.455-25.012 11.679-24.95-2.721.076-17.905 19.889-30.176 31.013-19.209 2.52 2.484 2.881 3.519 2.247 6.431-1.884 8.658-.776 14.815 2.666 14.815 3.903 0 12.727-8.888 12.727-12.82 0-18.96 12.798-40.004 21.57-35.468m-4.576 3.886c-2.802 2.802-5.498 13.595-6.836 27.365-.302 3.116-.047 2.841 2.925-3.149 6.55-13.202 9.207-25 5.629-25-.514 0-1.287.353-1.718.784m-46.086 23.22c-8.214 5.161-13.183 25.245-5.905 23.866 3.861-.731 12.91-17.397 11.815-21.759-.57-2.271-3.81-3.426-5.91-2.107m118.721-.406c-7.066 2.614-13.741 22.59-8.142 24.367 3.738 1.187 11.984-11.504 13.19-20.3.408-2.977-2.236-5.107-5.048-4.067m-42.592 22.47c-5.577 4.448-6.48 10.321-1.314 8.545 3.67-1.261 5.546-5.391 3.989-8.78l-.638-1.39-2.037 1.625m-69.528 17.38c-1.173.651-2.577 2.677-3.422 4.936-2.644 7.065-5.084 25.081-3.037 22.42 4.253-5.528 9.69-19.108 9.69-24.201 0-2.69-1.476-4.131-3.231-3.155m49.713 19.204c-8.914 4.901-13.932 28.132-5.074 23.491 4.149-2.174 11.555-17.112 10.612-21.406-.431-1.962-3.595-3.153-5.538-2.085m108.333-.161c-5.837 2.204-12.272 17.797-9.389 22.752 2.892 4.969 10.327-3.787 13.995-16.485 1.437-4.971-.621-7.771-4.606-6.267m-150.126 7.9c-2.403 1.89-2.102 5.549.685 8.336 3.095 3.095 3.958 2.788 4.183-1.487.333-6.355-1.757-9.296-4.868-6.849m-55.033 46.678l1.486 1.774-2.277 8.82c-1.252 4.85-2.452 9.152-2.668 9.56-.365.688-.342.701.317.186.643-.504 8.561-7.301 9.708-8.334.392-.353.358-.648-.185-1.593-.607-1.058-.614-1.211-.079-1.746.823-.823 5.897 4.665 5.148 5.568-.606.73-1.089.691-2.008-.16-.761-.706-.795-.682-8.171 5.74-8.197 7.137-7.592 6.733-8.528 5.699-.661-.729-.655-.853.189-4.352.731-3.027 3.655-14.116 4.365-16.551.182-.622-3.583 2.46-10.061 8.239l-1.441 1.285.651 1.102c.608 1.03.61 1.141.03 1.713-.655.645-1.419-.021-4.554-3.968-1.322-1.665-.335-2.805 1.309-1.512.795.625 1.018.658 1.522.229 12.667-10.78 12.924-11.039 12.134-12.245-.508-.775-.505-.92.033-1.458.708-.708.932-.562 3.08 2.004m101.801 1.111c-13.593 17.162-37.602 17.656-53.853 1.109-2.488-2.534-2.38-2.705.757-1.193 16.918 8.156 34.312 8.511 49.105 1 5.532-2.809 5.481-2.798 3.991-.916m47.04-.614c.34.411.325.764-.069 1.575-.359.739-.447 1.857-.301 3.819l.207 2.773 4.927.691c4.735.664 4.957.665 5.66.029.676-.612.778-.616 1.335-.059.563.563-2.447 5.079-4.044 6.066-.684.423-1.507-.821-1.076-1.627.369-.69.217-.763-2.464-1.178-1.571-.244-3.149-.527-3.505-.629-1.404-.404-.876 3.676.623 4.819 1.481 1.129 1.617 1.153 2.429.418.523-.473.711-.479 1.311-.041.757.554.887.346-3.231 5.166-1.238 1.448-2.816.652-1.832-.924.57-.912.903-.533-4.578-5.213a932.87 932.87 0 0 1-6.763-5.839l-3.059-2.677-.965.632c-1.858 1.217-2.234-.016-.699-2.294 2.035-3.022 1.178-3.347 8.878 3.362 2.776 2.419 5.106 4.336 5.177 4.259.169-.181-.535-7.857-.74-8.062-.087-.087-.462.118-.834.454-1.009.914-2.36-.052-1.54-1.101 3.462-4.426 4.446-5.27 5.153-4.419m-13.504 17.087c1.418 1.86.546 3.088-1.501 2.112-2.087-.995-4.622.894-4.082 3.042.34 1.356 1.685 1.527 4.782.609 10.008-2.966 12.637 6.053 3.076 10.556l-1.897.893-1.204-1.364c-1.793-2.033-.944-3.991 1.107-2.554 2.382 1.668 6.434-1.416 4.912-3.739-.729-1.111-2.388-1.097-6.485.055-7.54 2.119-9.605-5.186-2.749-9.725 2.3-1.524 2.802-1.509 4.041.115m-121.104 3.829c5.338 2.477 6.052 8.6 1.552 13.31-6.47 6.771-16.761.069-12.685-8.261 2.298-4.697 7.15-6.897 11.133-5.049m-3.719 2.208c-3.878 2.365-6.331 8.093-4.432 10.35 2.158 2.566 5.711.867 8.284-3.961 2.5-4.689.043-8.764-3.852-6.389m113.05 1.945c1.112 1.679 1.135 1.626-1.308 2.978-2.864 1.585-2.657 2.502 2.395 10.584l.516.827 1.663-.808c1.722-.836 2.74-.592 2.301.553-.201.525-7.283 4.713-7.969 4.713-.793 0-.86-1.292-.1-1.908 1.019-.825 1.135-.481-2.048-6.078-2.71-4.768-2.848-4.938-3.854-4.736-1.962.392-2.26-1.19-.507-2.691 1.761-1.508 2.73-1.572 3.559-.235.479.773.633.859.641.355.022-1.462 2.485-4.914 3.616-5.066.048-.006.541.674 1.095 1.512m-17.676 1.903c.509.914.509 1.122 0 2.037-1.131 2.031-4.062 1.191-4.062-1.165 0-2.132 3.002-2.777 4.062-.872m-76.717 3.43c.529.506-.777 1.519-1.77 1.374-.913-.134-1.133-.033-1.143.524-.006.379-.24 2.94-.52 5.69-.28 2.75-.475 5.036-.433 5.08.089.094 6.018-6.3 7.025-7.576.635-.805.642-.925.092-1.533-1.682-1.858-.138-2.256 3.051-.786 2.756 1.27 3.379 2.593 1.221 2.593-.755 0-2.206 1.225-6.531 5.512l-5.559 5.513-1.204-.514-1.204-.513.039-2.87c.021-1.578.153-5.119.294-7.869.196-3.85.145-5.134-.224-5.585-.585-.714-.606-1.177-.075-1.708.33-.33 6.141 1.904 6.941 2.668m57.782.829c.186.356.707 2.277 1.157 4.269l.818 3.621 1.27-1.116c4.582-4.022 10.742-.211 11.196 6.927.369 5.796-3.363 9.301-10.07 9.458-2.643.062-2.184 1.03-4.72-9.976-1.213-5.265-2.29-9.846-2.393-10.181-.129-.416-.565-.592-1.379-.555-2.086.093-1.586-1.221.846-2.222 2.489-1.025 2.844-1.049 3.275-.225m-8.831 1.574c.913.912.944 1.904.093 2.89-1.011 1.168-2.157 1.342-3.037.462-1.411-1.411-.453-4.093 1.463-4.093.407 0 1.074.333 1.481.741m32.387 6.054l2.581 6.611 1.191-.194c1.125-.182 1.619.188 1.619 1.214 0 .417-7.008 3.043-7.428 2.784-.673-.416-.342-1.539.576-1.957l.926-.422-.628-1.582c-3.74-9.417-3.713-9.364-4.734-9.288-.869.065-2.18-1.426-1.643-1.868 3.983-3.277 4.567-2.913 7.54 4.702m-63.009-2.324c8.458 2.349 5.603 16.986-3.317 17.007-4.504.011-7.279-3.192-7.078-8.17.265-6.576 4.764-10.4 10.395-8.837m-4.546 2.918c-2.611 2.795-2.989 10.707-.556 11.64 3.555 1.364 6.237-2.13 6.267-8.165.021-4.373-3.099-6.271-5.711-3.475m22.887.04c2.779.597 3.138.984 2.828 3.054-.347 2.312-1.66 2.497-2.674.377-1.061-2.22-4.085-2.633-4.975-.68-.608 1.334.284 2.421 3.219 3.921 8.613 4.405 4.421 12.823-4.847 9.736-2.804-.935-3.198-1.578-2.518-4.115.359-1.339 2.228-1.163 2.536.24.686 3.122 6.119 3.689 6.119.638 0-1.431-.478-1.918-3.518-3.58-7.809-4.27-4.934-11.47 3.83-9.591m12.923.071c.289.369 1.236 11.038 1.215 13.68-.004.436.36.66 1.199.741.909.088 1.231.313 1.318.923.125.88-.077.932-5.578 1.432l-2.5.228v-.965c0-.781.217-1.008 1.139-1.193 1.113-.222 1.134-.266.936-1.935-.111-.939-.312-3.521-.445-5.739-.242-4.012-.249-4.033-1.307-4.433-1.894-.715-1.495-2.291.696-2.748 2.48-.517 2.916-.515 3.327.009m13.062-.201c-2.432.889-2.501 1.385-1.055 7.609l1.182 5.092h1.805c3.16 0 4.782-2.758 4.026-6.846-.831-4.497-3.229-6.853-5.958-5.855"/><path fill="#df2028" d="M181.521 64.869c-6.594.787-14.203 6.077-18.188 12.644-1.457 2.402-1.13 2.373-5.404.48-15.689-6.947-30.66-.309-32.784 14.536-1.187 8.292 2.42 13.732 13.214 19.935 3.245 1.865 13.143 7.572 21.994 12.683l16.094 9.292.614-1.016c.337-.559 2.912-5.016 5.723-9.904 2.81-4.889 8.198-14.223 11.972-20.741 3.774-6.519 7.16-12.632 7.523-13.586 4.907-12.865-6.34-26.043-20.758-24.323m-14.796 26.428c1.842 2.886 2.887 4.197 3.239 4.064 1.568-.592 9.019-2.427 9.185-2.262.107.108-1.22 1.928-2.949 4.046l-3.143 3.85 2.784 4.325c1.532 2.379 2.719 4.382 2.639 4.451-.081.07-2.214-.689-4.742-1.686-5.472-2.158-4.494-2.42-8.169 2.193-1.663 2.088-3.118 3.796-3.233 3.796-.115 0-.089-2.316.056-5.146l.266-5.147-2.163-.815c-1.189-.449-3.287-1.235-4.662-1.748-3.306-1.234-3.263-1.285 2.274-2.717l4.775-1.235.225-1.647c.125-.907.226-2.945.226-4.529 0-2.535.21-4.053.561-4.053.062 0 1.336 1.917 2.831 4.26m-40.729 185.47c-.318.383-.276.711.173 1.352.729 1.04.826.933-7.28 7.939l-5.741 4.961-1.016-.718c-1.019-.72-1.772-.641-1.749.184.028 1.001 4.359 5.275 4.853 4.789.386-.379.355-.669-.165-1.549l-.639-1.083 5.985-5.218c6.672-5.818 6.626-5.797 5.561-2.54-2.388 7.3-4.763 18.312-4.12 19.106.623.77.712.707 8.074-5.68 8.184-7.1 7.662-6.76 8.785-5.705 1.416 1.33 2.028-.013.719-1.579-2.96-3.54-3.542-4.053-4.09-3.598-.461.382-.435.603.188 1.611l.721 1.167-5.379 4.619c-6.373 5.473-6.209 5.385-5.321 2.858 1.786-5.082 4.498-17.077 4.05-17.914-.897-1.677-3.152-3.552-3.609-3.002m148.864 4.293c-1.247 1.407-2.267 2.734-2.267 2.949 0 .731.716.839 1.622.246.496-.326.98-.457 1.075-.294.269.462.726 8.632.483 8.632-.119 0-2.735-2.209-5.815-4.908-6.535-5.727-6.43-5.684-8.014-3.249-1.673 2.574-1.479 3.692.387 2.225l.936-.736 7.598 6.574c7.264 6.285 7.577 6.61 7.085 7.374-1.271 1.973.502 1.914 2.282-.076 3.058-3.417 3.626-5.33 1.087-3.667-.984.645-2.208.013-3.622-1.871-.832-1.108-.307-3.889.729-3.866 3.648.082 6.204.902 6.204 1.99 0 .587.183 1.13.407 1.206.44.151 4.593-4.382 4.593-5.013 0-.701-.709-.836-1.564-.299-.811.509-9.917-.375-10.568-1.026-.555-.555-.525-5.682.04-6.776 1.313-2.539-.202-2.208-2.678.585m-13.564 14.518c-8.244 4.407-5.719 12.594 2.963 9.607 2.689-.925 4.33-.945 5.128-.063 2.09 2.309-1.897 6.207-4.768 4.661-2.234-1.203-3.05.107-1.212 1.945l1.35 1.35 2.053-1.004c4.961-2.428 6.778-6.939 3.902-9.694-1.417-1.358-3.826-1.406-7.656-.151l-2.685.879-1.019-.758c-2.669-1.985.642-5.791 3.642-4.185 1.681.9 2.347-.457.985-2.009l-1.201-1.369-1.482.791m-124.444 4.755c-4.658 2.162-7.016 8.44-4.562 12.149 3.529 5.332 11.083 4.091 14.228-2.339 3.181-6.502-3.087-12.863-9.666-9.81m6.88 2.231c1.628 1.628 1.357 3.611-1.002 7.333-4.333 6.836-11.303 4.192-7.699-2.921 2.487-4.909 6.281-6.832 8.701-4.412m106.079 1.625c-.699.699-1.415 1.929-1.666 2.861-.464 1.721-.502 1.716-1.709-.259-.391-.64-.512-.611-2.037.487-2.031 1.461-2.157 2.49-.325 2.65 1.246.109 1.409.309 4.209 5.168l2.912 5.055-.944.812c-.766.659-.861.919-.505 1.376.673.863 8.502-3.682 7.99-4.639-.324-.605-.449-.595-2.004.161-1.987.965-1.705 1.21-4.752-4.133-1.923-3.372-2.34-4.374-2.048-4.919.361-.674 2.924-2.699 3.776-2.983.492-.164-.779-2.863-1.348-2.863-.178 0-.875.552-1.549 1.226m-17.877 1.202c-2.015 1.412-.098 4.692 1.955 3.347 1.524-.999.834-3.923-.926-3.923-.113 0-.576.259-1.029.576m-80.688 1.827c-.12.313-.012.817.239 1.12.45.541.302 9.169-.242 14.132-.204 1.864-.178 1.932.98 2.53l1.19.616 3.571-3.46c7.057-6.836 7.853-7.528 8.541-7.418.57.09 1.4-.899 1.049-1.25-.905-.905-5.123-2.257-5.414-1.736-.246.439-.125.775.445 1.236.778.631.767.651-2.171 3.878a821.13 821.13 0 0 0-4.141 4.578l-1.188 1.334-.017-1.297c-.018-1.446.67-8.981.939-10.278.141-.681.389-.816 1.355-.74 2.019.158 1.715-.918-.537-1.898-1.076-.469-2.502-1.091-3.168-1.384-1.071-.469-1.238-.465-1.431.037m61.347 3.498c-2.115.856-2.457 1.877-.629 1.877h1.278l.828 3.611c.455 1.986 1.525 6.611 2.378 10.277l1.549 6.667 2.876-.046c7.192-.114 10.889-5.392 8.6-12.277-1.704-5.125-6.586-6.716-10.383-3.382l-1.267 1.113-.392-1.408c-.215-.774-.67-2.699-1.011-4.278-.703-3.254-.873-3.35-3.827-2.154m21.203 1.594c-2.186 1.204-2.262 2.505-.146 2.505.982 0 1.133.254 3.135 5.283 2.423 6.084 2.398 5.945 1.178 6.501-.97.442-1.094.715-.643 1.417.283.44 7.008-1.983 7.086-2.553.133-.969-.033-1.088-1.215-.866l-1.254.235-2.592-6.543c-2.95-7.45-2.926-7.423-5.549-5.979m-29.648-.384c-.244.244-.444.961-.444 1.593 0 1.979 1.809 2.775 3.09 1.359 1.282-1.416.56-3.397-1.238-3.397-.53 0-1.163.2-1.408.445m-33.455 4.373c-5.829 3.08-6.404 12.724-.907 15.221 5.796 2.632 11.314-1.539 11.32-8.557.005-5.864-5.392-9.318-10.413-6.664m5.787 1.571c3.196 2.757.569 12.871-3.343 12.871-3.338 0-4.63-3.252-3.308-8.327 1.247-4.788 4.105-6.74 6.651-4.544m48.298 1.409c3.066 3.066 2.98 10.138-.14 11.618-3.344 1.587-3.858 1.058-5.36-5.524l-1.182-5.182 1.143-1.021c1.665-1.489 3.987-1.443 5.539.109m-35.816-.164c-3.984 2.04-2.897 6.15 2.381 9.006 2.758 1.492 3.721 2.686 3.352 4.156-.665 2.65-6.055 1.811-6.549-1.02-.379-2.177-2.22-1.712-2.22.561 0 2.586 1.07 3.17 5.825 3.177 6.933.01 8.343-5.45 2.311-8.946-4.201-2.435-4.24-2.47-4.369-3.815-.15-1.573.619-2.234 2.6-2.234 1.488 0 2.892.995 2.892 2.049 0 .574 1.432 1.335 1.945 1.034.819-.483.264-3.341-.741-3.813-1.69-.795-6.002-.885-7.427-.155m16.038-.414c-.204.067-.829.224-1.389.348-1.451.32-1.402 1.634.071 1.928 1.292.259 1.49 1.272 1.614 8.26.074 4.235.074 4.236-.85 4.46-1.387.337-1.453 1.488-.085 1.488 3.899 0 6.75-.492 6.75-1.165 0-.513-.276-.687-1.088-.687-1.281 0-1.262.088-1.893-8.684-.47-6.518-.612-6.788-3.13-5.948"/><path fill="#99c0de" d="M224.352 76.935c.662.082 1.745.082 2.407 0 .662-.083.121-.15-1.203-.15-1.325 0-1.866.067-1.204.15m7.963-.003c.56.085 1.477.085 2.037 0 .56-.085.102-.154-1.019-.154-1.12 0-1.578.069-1.018.154m-8.519 9.269a78.5 78.5 0 0 0 5.741 0c1.579-.069.287-.126-2.87-.126-3.158 0-4.449.057-2.871.126m-6.296.351c.356.093.94.093 1.296 0 .357-.094.065-.17-.648-.17-.713 0-1.004.076-.648.17m.933 8.902c.665.082 1.665.08 2.222-.004.556-.085.012-.152-1.211-.15-1.222.002-1.677.071-1.011.154m9.442-.003c.563.085 1.397.083 1.852-.005.456-.088-.005-.158-1.023-.155-1.019.003-1.392.075-.829.16m-11.486 9.263c.764.08 2.014.08 2.778 0 .764-.08.139-.145-1.389-.145s-2.153.065-1.389.145m7.037 0c.764.08 2.014.08 2.778 0 .764-.08.139-.145-1.389-.145s-2.153.065-1.389.145m-10.736 9.255c.563.086 1.397.083 1.852-.005.456-.087-.005-.157-1.023-.154-1.019.002-1.392.074-.829.159m10.741 0c.563.086 1.396.083 1.852-.005.455-.087-.005-.157-1.024-.154-1.018.002-1.391.074-.828.159m-12.783 9.262c.662.082 1.746.082 2.408 0 .662-.082.12-.149-1.204-.149-1.324 0-1.866.067-1.204.149m9.445-.003c.56.085 1.476.085 2.037 0 .56-.085.101-.154-1.019-.154-1.12 0-1.579.069-1.018.154m-109.815 12.219a5.29 5.29 0 0 0 1.666 0c.459-.089.084-.161-.833-.161-.917 0-1.292.072-.833.161m8.889 0a5.29 5.29 0 0 0 1.666 0c.459-.089.084-.161-.833-.161-.917 0-1.292.072-.833.161m90.813 6.312l-1.276 1.389 1.389-1.276c1.292-1.188 1.559-1.502 1.276-1.502-.062 0-.687.625-1.389 1.389m-93.221-.763c.357.093.94.093 1.297 0 .356-.093.064-.169-.649-.169-.713 0-1.004.076-.648.169m106.305 3.448c0 .917.072 1.292.16.834a5.237 5.237 0 0 0 0-1.667c-.088-.458-.16-.083-.16.833M92.39 147.87l-1.464 1.574 1.574-1.464c1.464-1.361 1.744-1.684 1.464-1.684-.06 0-.769.709-1.574 1.574m-14.117 13.611c0 1.528.065 2.153.145 1.389.08-.764.08-2.014 0-2.777-.08-.764-.145-.139-.145 1.388m92.19-.115c.356.094.94.094 1.296 0 .357-.093.065-.169-.648-.169-.713 0-1.005.076-.648.169m78.518.015c.764.08 2.014.08 2.778 0 .764-.08.139-.145-1.389-.145-1.527 0-2.152.065-1.389.145m39.075-.009a5.231 5.231 0 0 0 1.666 0c.459-.088.084-.16-.833-.16-.917 0-1.292.072-.833.16m-70.588 1.051c-.621 1.362-.503 1.653.168.415.314-.579.501-1.121.416-1.206-.085-.084-.348.272-.584.791m81.421 3.318c.691.713 1.34 1.296 1.441 1.296.102 0-.38-.583-1.071-1.296-.691-.713-1.339-1.297-1.441-1.297-.102 0 .38.584 1.071 1.297M166.834 167.5l-1.464 1.574 1.574-1.464c1.464-1.362 1.745-1.684 1.464-1.684-.06 0-.768.708-1.574 1.574m107.981.093c-.9.916-1.553 1.666-1.451 1.666.102 0 .922-.75 1.821-1.666.9-.917 1.553-1.667 1.451-1.667-.102 0-.922.75-1.821 1.667m-182.037.185c.795.815 1.53 1.481 1.632 1.481.101 0-.466-.666-1.262-1.481-.795-.815-1.53-1.482-1.632-1.482-.102 0 .466.667 1.262 1.482m154.333-.667c-.244.245-.422.953-.396 1.574.049 1.121.051 1.12.278-.166.223-1.262.284-1.303 2.266-1.514l2.037-.218-1.87-.06c-1.041-.034-2.067.137-2.315.384m-38.499 1.222c.004.815.08 1.105.168.644.089-.461.086-1.127-.007-1.481-.093-.354-.165.023-.161.837m5.277 1.297c-.316.611-.491 1.111-.39 1.111.102 0 .444-.5.76-1.111s.492-1.111.39-1.111c-.102 0-.444.5-.76 1.111m-15.249 3.518c.002 1.426.069 1.964.149 1.196.08-.769.079-1.936-.003-2.593s-.148-.029-.146 1.397m-99.751-1.114c0 .253 2.268 1.377 2.437 1.208.08-.081-.435-.423-1.145-.762-.711-.339-1.292-.54-1.292-.446m41.574.444c.356.093.94.093 1.296 0 .357-.094.065-.17-.648-.17-.713 0-1.005.076-.648.17m-56.759 2.892c.691.713 1.339 1.297 1.441 1.297.102 0-.38-.584-1.071-1.297s-1.34-1.296-1.442-1.296c-.101 0 .381.583 1.072 1.296m216.389 2.223c.005.814.08 1.104.169.643.089-.46.085-1.127-.008-1.481-.092-.354-.165.023-.161.838M181.963 180c0 1.12.069 1.579.154 1.019a8.176 8.176 0 0 0 0-2.038c-.085-.56-.154-.101-.154 1.019m107.727-.91c-.621 1.362-.502 1.652.169.414.313-.578.5-1.12.415-1.205-.084-.085-.347.271-.584.791m-49.32-.456c0 .064.542.606 1.204 1.204l1.204 1.088-1.088-1.204c-1.014-1.122-1.32-1.374-1.32-1.088m-69.372 1.926c-.338.711-.539 1.292-.446 1.292.253 0 1.378-2.268 1.208-2.437-.08-.081-.423.435-.762 1.145m37.614-.004c.004.814.08 1.104.168.643.089-.46.086-1.127-.007-1.481-.093-.354-.165.023-.161.838m102.116 1.944l-2.024 2.13 2.129-2.025c1.172-1.113 2.13-2.072 2.13-2.129 0-.275-.354.046-2.235 2.024m-218.506-1.207c0 .253 2.268 1.378 2.437 1.208.081-.08-.435-.423-1.145-.762-.711-.339-1.292-.54-1.292-.446m152.31 1.138c.496.59.543.865.204 1.204-.242.241-.343.439-.226.439.839 0 .97-1.06.211-1.703-.83-.703-.83-.702-.189.06m23.332.532c0 .713.076 1.005.169.648.093-.356.093-.94 0-1.296-.093-.357-.169-.065-.169.648m-108.12 1.296c.002 1.222.072 1.678.154 1.012.082-.666.081-1.666-.004-2.222-.084-.557-.152-.012-.15 1.21m34.135 1.019l-2.583 2.685 2.685-2.583c1.477-1.42 2.686-2.628 2.686-2.685 0-.272-.389.089-2.788 2.583m-44.143-.648c.002 1.018.074 1.391.159.828.086-.563.083-1.396-.005-1.852-.088-.456-.157.005-.154 1.024m78.944-.093l-1.087 1.204 1.203-1.088c.662-.598 1.204-1.14 1.204-1.204 0-.286-.306-.034-1.32 1.088m83.172.833c-.9.917-1.553 1.667-1.451 1.667.102 0 .922-.75 1.821-1.667.9-.916 1.553-1.666 1.451-1.666-.102 0-.922.75-1.821 1.666m-80.209 1.019l-1.087 1.204 1.203-1.088c.662-.599 1.204-1.14 1.204-1.204 0-.286-.306-.034-1.32 1.088m28.463 1.574c.003 1.018.075 1.391.16.828.085-.563.083-1.396-.005-1.852-.088-.455-.158.005-.155 1.024m-74.828-1.041c.356.093.94.093 1.296 0 .357-.093.065-.169-.648-.169-.713 0-1.005.076-.648.169m117.967.007c.461.088 1.127.085 1.482-.008.354-.093-.023-.165-.838-.161-.815.004-1.105.08-.644.169m-163.615 2.515c.691.713 1.339 1.297 1.441 1.297.102 0-.38-.584-1.071-1.297s-1.34-1.296-1.442-1.296c-.101 0 .381.583 1.072 1.296m149.797 1.76l-1.464 1.574 1.574-1.464c1.464-1.362 1.744-1.684 1.464-1.684-.06 0-.769.708-1.574 1.574m-62.969.37l-1.088 1.204 1.204-1.088c.662-.598 1.204-1.14 1.204-1.204 0-.286-.306-.034-1.32 1.088m-44.884.173c.56.085 1.477.085 2.037 0 .56-.085.102-.155-1.018-.155-1.121 0-1.579.07-1.019.155m118.153 0c.563.085 1.397.083 1.852-.005.456-.088-.005-.157-1.023-.155-1.019.003-1.392.075-.829.16m-225.005.366a5.237 5.237 0 0 0 1.667 0c.458-.088.083-.16-.833-.16-.917 0-1.292.072-.834.16m7.412.001c.461.088 1.127.085 1.481-.008.355-.092-.022-.165-.837-.161-.815.004-1.105.08-.644.169m70.829 1.405c.691.712 1.34 1.296 1.442 1.296.101 0-.381-.584-1.072-1.296-.691-.713-1.339-1.297-1.441-1.297-.102 0 .38.584 1.071 1.297m83.056 1.111c.004.814.08 1.104.169.643.088-.46.085-1.127-.008-1.481-.092-.354-.165.023-.161.838m20.815.648l-1.464 1.574 1.574-1.464c1.464-1.362 1.745-1.684 1.464-1.684-.06 0-.768.708-1.574 1.574M80.278 197.31c1.069.075 2.819.075 3.889 0 1.069-.075.194-.136-1.945-.136-2.139 0-3.014.061-1.944.136m96.857.363c.563.085 1.396.083 1.852-.005.455-.088-.006-.157-1.024-.155-1.019.003-1.391.075-.828.16m-76.209 1.957c.796.814 1.53 1.481 1.632 1.481.102 0-.466-.667-1.262-1.481-.795-.815-1.53-1.482-1.632-1.482-.101 0 .466.667 1.262 1.482m142.321.638c.666.083 1.666.081 2.223-.003.556-.085.011-.152-1.211-.15-1.222.002-1.677.071-1.012.153m-109.82 1.399c.004.814.08 1.104.168.643.089-.46.086-1.127-.007-1.481-.093-.354-.165.023-.161.838m35.259.277l-1.464 1.575 1.574-1.465c1.464-1.361 1.745-1.684 1.464-1.684-.06 0-.768.709-1.574 1.574M45.185 205.37c-1.517 1.528-2.676 2.778-2.574 2.778.102 0 1.427-1.25 2.945-2.778 1.517-1.527 2.675-2.777 2.574-2.777-.102 0-1.427 1.25-2.945 2.777m138.64-.37c.002 1.426.069 1.964.149 1.195.08-.768.079-1.935-.003-2.592-.082-.658-.147-.029-.146 1.397m-126.614 2.5L55 209.815l2.315-2.211c1.273-1.216 2.315-2.257 2.315-2.315 0-.273-.366.061-2.419 2.211m39.542-.463c0 .713.076 1.005.169.648.093-.356.093-.94 0-1.296-.093-.357-.169-.065-.169.648m67.303 1.517c-.426.835-.711 1.581-.633 1.659.077.078.504-.605.947-1.517 1.009-2.078.736-2.201-.314-.142m-58.015 2.742c.002 1.223.071 1.678.153 1.012.083-.666.081-1.666-.003-2.222-.085-.557-.152-.012-.15 1.21m4.422 4.154c.56.085 1.477.085 2.037 0 .56-.084.102-.154-1.019-.154-1.12 0-1.578.07-1.018.154m115.377 4.818c.666.083 1.666.081 2.222-.003.557-.085.012-.152-1.21-.15-1.222.002-1.678.071-1.012.153m108.148 0c.666.083 1.666.081 2.222-.003.557-.085.012-.152-1.21-.15-1.222.002-1.678.071-1.012.153m-67.933 3.065c0 1.732.064 2.44.142 1.574.078-.865.078-2.282 0-3.148-.078-.865-.142-.157-.142 1.574m17.741-2.707c.357.093.94.093 1.297 0 .356-.093.064-.17-.649-.17-.713 0-1.004.077-.648.17m-166.203.855c.744.823 1.255 1.029.604.244-.227-.273-.303-.607-.169-.741.134-.134-.06-.243-.431-.243-.651 0-.651.025-.004.74m16.388-.479a5.296 5.296 0 0 0 1.667 0c.458-.088.083-.16-.833-.16-.917 0-1.292.072-.834.16m-33.888.364c.356.094.939.094 1.296 0 .356-.093.065-.169-.648-.169-.713 0-1.005.076-.648.169m6.457.381c2.286.117 2.685.24 2.827.867.132.58.156.558.117-.108-.047-.79-.211-.841-2.827-.867l-2.778-.028 2.661.136m130.302 2.697c.795.815 1.53 1.482 1.632 1.482.102 0-.466-.667-1.262-1.482-.795-.814-1.53-1.481-1.632-1.481-.101 0 .466.667 1.262 1.481m19.576 2.037c-.001 1.834.061 2.631.139 1.771.078-.86.079-2.36.002-3.333-.077-.974-.14-.271-.141 1.562m18.928-1.203l-1.837 1.944 1.944-1.838c1.069-1.011 1.944-1.886 1.944-1.944 0-.277-.343.031-2.051 1.838m-142.999 2.315c.001 2.037.064 2.823.139 1.746.075-1.076.074-2.743-.002-3.703-.076-.961-.137-.08-.137 1.957m90.774-1.574l-1.464 1.574 1.574-1.464c1.464-1.362 1.744-1.685 1.464-1.685-.061 0-.769.709-1.574 1.575m55.549 0l-1.087 1.203 1.203-1.088c.662-.598 1.204-1.14 1.204-1.203 0-.286-.306-.035-1.32 1.088m42.228.37l-1.464 1.574 1.575-1.464c.865-.805 1.574-1.514 1.574-1.574 0-.28-.323 0-1.685 1.464m-211.14 2.685c.001 2.241.062 3.11.136 1.931.073-1.179.073-3.012-.002-4.074-.074-1.062-.135-.098-.134 2.143m172.573-1.296c0 1.324.067 1.866.149 1.203.082-.662.082-1.745 0-2.407-.082-.662-.149-.12-.149 1.204m-140.749 1.481c0 1.121.07 1.579.155 1.019a8.168 8.168 0 0 0 0-2.037c-.085-.56-.155-.102-.155 1.018m-22.602 0c0 .917.072 1.292.16.834a5.237 5.237 0 0 0 0-1.667c-.088-.458-.16-.083-.16.833m66.473-.479a5.296 5.296 0 0 0 1.667 0c.458-.088.083-.161-.834-.161-.916 0-1.291.073-.833.161m-26.488 1.59c0 .713.076 1.005.169.649a3.05 3.05 0 0 0 0-1.297c-.093-.356-.169-.065-.169.648m9.612 1.019c-.075 2.522-.034 2.617.72 1.688.303-.373.329-.519.065-.361-.316.19-.483-.295-.58-1.688l-.136-1.954-.069 2.315m97.1 1.018c-.001 1.834.062 2.63.139 1.771.078-.86.079-2.36.002-3.333-.076-.974-.14-.271-.141 1.562m-233.379.556c0 .713.076 1.005.17.648.093-.356.093-.94 0-1.296-.094-.357-.17-.065-.17.648m108.889.741c0 .713.076 1.004.169.648.094-.357.094-.94 0-1.296-.093-.357-.169-.065-.169.648m-22.578.74c0 .917.073 1.292.161.834a5.296 5.296 0 0 0 0-1.667c-.088-.458-.161-.083-.161.833m13.334.371c0 .916.072 1.291.16.833a5.237 5.237 0 0 0 0-1.667c-.088-.458-.16-.083-.16.834m57.06 2.592c0 1.528.066 2.153.146 1.389.08-.764.08-2.014 0-2.777-.08-.764-.146-.139-.146 1.388m92.554-1.481c0 .713.077 1.005.17.648.093-.356.093-.94 0-1.296-.093-.357-.17-.065-.17.648m-103.688.741c0 .916.072 1.291.16.833a5.296 5.296 0 0 0 0-1.667c-.088-.458-.16-.083-.16.834m-68.509 1.481c0 1.121.07 1.579.155 1.019a8.264 8.264 0 0 0 0-2.037c-.085-.561-.155-.102-.155 1.018m31.457-.741c0 .713.076 1.005.169.649a3.05 3.05 0 0 0 0-1.297c-.093-.356-.169-.065-.169.648m205.217 1.112c0 1.324.068 1.865.15 1.203.082-.662.082-1.745 0-2.407-.082-.662-.15-.121-.15 1.204m-75.322-.335c-.425.835-.71 1.581-.633 1.659.078.077.504-.606.947-1.518 1.01-2.077.737-2.2-.314-.141m-101.389-.703c-.244.245-.419.953-.389 1.575l.056 1.129.162-1.111c.09-.611.335-1.319.546-1.574.488-.591.211-.605-.375-.019m96.273.76c-.057 1.582.113 1.726.714.603.255-.476.271-.693.04-.55-.21.13-.454-.142-.542-.603-.101-.526-.18-.321-.212.55M291.611 240c0 1.731.064 2.44.142 1.574.078-.866.078-2.282 0-3.148-.078-.866-.142-.157-.142 1.574m-36.646-1.766c-.544.638-.56.715-.071.336.588-.454.644-.222.762 3.155l.128 3.645.028-3.981c.015-2.19-.01-3.982-.057-3.982-.046 0-.402.373-.79.827m-222.649 1.581c.004.815.08 1.104.168.644.089-.461.085-1.128-.007-1.482-.093-.354-.165.023-.161.838m248.896.185c0 .917.072 1.292.16.833a5.231 5.231 0 0 0 0-1.666c-.088-.459-.16-.084-.16.833m75.444 1.389l-2.397 2.5 2.5-2.397c1.375-1.318 2.5-2.443 2.5-2.5 0-.272-.377.075-2.603 2.397m-238.407-.648c0 .916.072 1.291.161.833a5.296 5.296 0 0 0 0-1.667c-.089-.458-.161-.083-.161.834m75.911 0c0 .713.076 1.004.169.648.094-.357.094-.94 0-1.296-.093-.357-.169-.065-.169.648m115.646 2.315l-2.954 3.055 3.055-2.954c2.838-2.744 3.225-3.157 2.955-3.157-.056 0-1.431 1.375-3.056 3.056m-58.344-.556l-1.277 1.389 1.389-1.276c1.293-1.188 1.559-1.502 1.276-1.502-.061 0-.686.625-1.388 1.389m-92.48.278c.004.815.08 1.104.169.644.088-.461.085-1.128-.008-1.482-.092-.354-.165.023-.161.838m56.667.37c.004.815.08 1.105.169.644.088-.461.085-1.127-.008-1.482-.093-.354-.165.023-.161.838m-87.871.741c-.9.917-1.553 1.667-1.451 1.667.102 0 .922-.75 1.821-1.667.9-.917 1.553-1.667 1.451-1.667-.102 0-.922.75-1.821 1.667m52.963-.37c.691.712 1.339 1.296 1.441 1.296.102 0-.38-.584-1.071-1.296-.691-.713-1.34-1.297-1.441-1.297-.102 0 .38.584 1.071 1.297m177.037.74c-.9.917-1.553 1.667-1.451 1.667.102 0 .922-.75 1.821-1.667.9-.916 1.553-1.666 1.451-1.666-.102 0-.922.75-1.821 1.666m-248.803-.185c0 .713.076 1.005.169.648.093-.356.093-.94 0-1.296-.093-.357-.169-.065-.169.648m139.524 1.389l-1.277 1.389 1.389-1.277c1.293-1.188 1.559-1.501 1.276-1.501-.061 0-.686.625-1.388 1.389m-100.364 1.481l-2.024 2.13 2.13-2.024c1.978-1.881 2.299-2.235 2.024-2.235-.058 0-1.016.958-2.13 2.129m74.249-.555l-1.088 1.204 1.204-1.088c.662-.599 1.204-1.14 1.204-1.204 0-.286-.306-.034-1.32 1.088m69.183 1.389c0 .713.077 1.004.17.648.093-.357.093-.94 0-1.296-.093-.357-.17-.065-.17.648m-170.174-.479c.461.089 1.128.085 1.482-.007.354-.093-.023-.166-.838-.162-.815.005-1.105.08-.644.169m159.804 1.22c0 .712.076 1.004.169.648.094-.357.094-.94 0-1.297-.093-.356-.169-.064-.169.649m54.156 1.574l-1.464 1.574 1.574-1.464c1.464-1.362 1.744-1.684 1.464-1.684-.06 0-.769.708-1.574 1.574m-209.259.37l-1.464 1.574 1.574-1.464c1.464-1.362 1.744-1.684 1.464-1.684-.061 0-.769.708-1.574 1.574m111.776.163c.357.093.94.093 1.297 0 .356-.093.064-.17-.648-.17-.713 0-1.005.077-.649.17m108.149 0c.356.093.939.093 1.296 0 .356-.093.065-.17-.648-.17-.713 0-1.005.077-.648.17m-52.569 1.689c.388.356 1.146.631 1.684.61.896-.035.877-.062-.224-.323-.661-.157-1.419-.432-1.684-.61-.266-.179-.165-.034.224.323m-31.691.909a5.237 5.237 0 0 0 1.667 0c.458-.088.083-.16-.833-.16-.917 0-1.292.072-.834.16m-121.661.745c.563.086 1.396.083 1.852-.005.455-.087-.006-.157-1.024-.154-1.019.002-1.391.074-.828.159m-23.524.737a5.296 5.296 0 0 0 1.667 0c.458-.088.083-.161-.834-.161-.916 0-1.291.073-.833.161m99.074.744c.56.085 1.477.085 2.037 0 .56-.084.102-.154-1.018-.154-1.121 0-1.579.07-1.019.154m108.153.001c.563.085 1.397.083 1.852-.005.456-.088-.005-.158-1.023-.155-1.019.003-1.392.075-.829.16m-146.852 1.107c.46.089 1.127.085 1.481-.007.354-.093-.023-.165-.837-.161-.815.004-1.105.08-.644.168m-123.06 2.331c1.003 1.018 1.907 1.852 2.009 1.852.102 0-.636-.834-1.639-1.852-1.003-1.019-1.907-1.852-2.009-1.852-.102 0 .636.833 1.639 1.852m234.529-.103c.657.082 1.824.083 2.592.003.769-.08.231-.147-1.195-.149-1.426-.002-2.055.064-1.397.146m-113.511 4.442a8.168 8.168 0 0 0 2.037 0c.561-.085.102-.154-1.018-.154s-1.579.069-1.019.154m-107.588 9.256c.461.089 1.128.085 1.482-.007.354-.093-.023-.165-.838-.161-.815.004-1.105.08-.644.168m109.893 8.594c1.421 1.444 2.666 2.626 2.766 2.626.101 0-.811-1.006-2.027-2.234-1.215-1.229-2.16-2.354-2.098-2.5.062-.147-.188-.323-.556-.392-.38-.072.443 1.003 1.915 2.5m25.116 5.122c1.179.074 3.012.073 4.074-.001 1.062-.075.098-.135-2.143-.135-2.24.001-3.109.062-1.931.136m-.013 6.665a27.17 27.17 0 0 0 3.518 0c.968-.076.176-.139-1.759-.139-1.935 0-2.727.063-1.759.139"/><path fill="#f49c9f" d="M181.389 64.706a5.296 5.296 0 0 0 1.667 0c.458-.088.083-.161-.834-.161-.916 0-1.291.073-.833.161m3.708 0c.461.089 1.127.086 1.481-.007.354-.093-.022-.165-.837-.161-.815.004-1.105.08-.644.168m12.866 5.664c1.003 1.019 1.907 1.852 2.009 1.852.102 0-.635-.833-1.639-1.852-1.003-1.018-1.907-1.851-2.009-1.851-.102 0 .636.833 1.639 1.851m-30.384 1.574l-1.838 1.945 1.944-1.838c1.07-1.011 1.945-1.886 1.945-1.944 0-.277-.343.031-2.051 1.837m-23.783 3.143c.968.076 2.551.076 3.519 0 .967-.076.176-.139-1.759-.139-1.936 0-2.727.063-1.76.139m59.623 9.728c0 .713.076 1.004.17.648.093-.357.093-.94 0-1.296-.094-.357-.17-.065-.17.648M163.452 90c0 1.324.067 1.866.149 1.204.082-.662.082-1.746 0-2.408-.082-.662-.149-.12-.149 1.204m14.989 3.213c.391.157.391.304 0 .804-.427.547-.409.558.17.104.357-.279.648-.654.648-.833 0-.179-.291-.312-.648-.296-.412.019-.474.099-.17.221m-15.392 3.083c0 .713.076 1.005.169.648a3.045 3.045 0 0 0 0-1.296c-.093-.356-.169-.065-.169.648m34.544 1.482c-.316.611-.492 1.111-.39 1.111.102 0 .444-.5.76-1.111s.491-1.111.389-1.111c-.101 0-.443.5-.759 1.111m-35.494 5.808c.239.17.51.891.603 1.602.163 1.239.168 1.232.123-.159-.031-.949-.24-1.505-.603-1.603-.379-.102-.418-.051-.123.16m-32.469 3.266c.691.713 1.339 1.296 1.441 1.296.102 0-.38-.583-1.071-1.296-.691-.713-1.34-1.296-1.442-1.296-.101 0 .381.583 1.072 1.296m32.713 4.545c-.012 2.599.012 2.672.674 2.072.808-.73.934-1.172.149-.521-.459.381-.558.102-.675-1.899l-.136-2.345-.012 2.693m27.101.455c-.316.611-.491 1.111-.389 1.111.102 0 .444-.5.76-1.111s.491-1.111.389-1.111c-.102 0-.444.5-.76 1.111m-31.666 12.018c0 .102.5.444 1.111.76s1.111.491 1.111.389c0-.102-.5-.444-1.111-.76s-1.111-.491-1.111-.389m20.555 7.241c-.316.611-.491 1.111-.389 1.111.102 0 .444-.5.76-1.111s.491-1.111.389-1.111c-.102 0-.444.5-.76 1.111M125.774 276.63c-.507.561-.538.761-.15.985.268.155.364.145.213-.022-1.02-1.125.692-1.223 1.907-.109l1.33 1.22-1.276-1.389c-1.503-1.636-1.243-1.548-2.024-.685m-1.538 4.574l-1.088 1.203 1.204-1.087c1.122-1.014 1.374-1.32 1.088-1.32-.064 0-.606.542-1.204 1.204m-2.593 2.222l-1.087 1.204 1.203-1.088c1.122-1.014 1.374-1.32 1.088-1.32-.064 0-.605.542-1.204 1.204m155.505.648c0 1.12.069 1.579.154 1.019a8.168 8.168 0 0 0 0-2.037c-.085-.561-.154-.102-.154 1.018m-1.981 1.213c.18 1.526.188 1.534.314.314.071-.688-.013-1.392-.185-1.564-.173-.173-.231.39-.129 1.25m-153.524 1.102l-1.087 1.204 1.203-1.088c1.122-1.014 1.374-1.32 1.088-1.32-.064 0-.605.542-1.204 1.204m-5.555 1.852L115 289.444l1.204-1.087c1.122-1.014 1.374-1.32 1.088-1.32-.064 0-.606.542-1.204 1.204m172.013-.185c-.467.595-.453.604.18.106.614-.483.744-.465 1.204.164.283.387.515.539.515.337 0-1.115-1.2-1.499-1.899-.607M275.641 290c0 .713.077 1.005.17.648.093-.356.093-.94 0-1.296-.093-.357-.17-.065-.17.648m-136.039 1.193c.759.871.81 1.097.38 1.667-.475.629-.465.629.213.008.695-.638.687-.671-.381-1.667l-1.089-1.016.877 1.008m134.738.296c.655.688 1.255 1.176 1.331 1.085.077-.092-.459-.654-1.192-1.251l-1.331-1.084 1.192 1.25m3.178.733c0 1.121.07 1.579.155 1.019a8.168 8.168 0 0 0 0-2.037c-.085-.56-.155-.102-.155 1.018m-144.023.093l-1.088 1.204 1.204-1.088c1.122-1.014 1.374-1.32 1.088-1.32-.064 0-.605.542-1.204 1.204m136.875.092c.691.713 1.34 1.297 1.442 1.297.102 0-.38-.584-1.071-1.297s-1.34-1.296-1.442-1.296c-.102 0 .38.583 1.071 1.296m15.617.649c-.83.819-.854.821-1.379.114-.294-.395-.534-.541-.534-.323 0 1.154 1.156 1.351 2.143.364.543-.544.904-.989.801-.989-.103 0-.567.375-1.031.834m-152.492 2.222l-1.088 1.203 1.204-1.087c1.122-1.014 1.374-1.32 1.088-1.32-.064 0-.605.542-1.204 1.204m-19.534-.11c.819.888 1.965.615 1.965-.469 0-.218-.235-.075-.522.318-.515.705-.534.705-1.389-.008l-.867-.722.813.881m13.979 1.962l-1.088 1.203 1.204-1.087c1.122-1.014 1.374-1.32 1.087-1.32-.063 0-.605.542-1.203 1.204m130.188.555l-1.276 1.389 1.389-1.276c1.292-1.188 1.559-1.502 1.276-1.502-.062 0-.687.625-1.389 1.389m-132.628.093a14.88 14.88 0 0 0-.093.833c-.02.255-.203.586-.407.735-.237.174-.22.274.047.278.23.003.647-.276.926-.621.421-.519.422-.575.006-.324-.384.231-.444.117-.253-.484.137-.433.155-.788.04-.788-.116 0-.235.167-.266.371m155.403 1.203l-1.088 1.204 1.204-1.088c.662-.598 1.203-1.14 1.203-1.203 0-.286-.305-.035-1.319 1.087m-21.987.143c-.805 1.023-1.001 2.169-.432 2.521.185.114.245-.138.135-.56-.122-.465.115-1.194.601-1.852.998-1.349.743-1.441-.304-.109m-130.976.969l-1.088 1.203 1.204-1.088c1.122-1.014 1.374-1.319 1.087-1.319-.063 0-.605.542-1.203 1.204m11.417-.568c.563.085 1.396.083 1.852-.005.455-.088-.005-.158-1.024-.155-1.018.003-1.391.075-.828.16m-5.303 2.605l-1.276 1.389 1.389-1.277c1.292-1.188 1.559-1.501 1.276-1.501-.062 0-.687.625-1.389 1.389m121.958-.278c0 .713.076 1.004.169.648.093-.356.093-.94 0-1.296-.093-.357-.169-.065-.169.648m21.858-.549c.638.696.659.696 1.297 0 .617-.673.617-.684 0-.219-.537.404-.76.404-1.297 0-.617-.465-.617-.454 0 .219m-152.893 1.382l-1.088 1.204 1.204-1.088c1.122-1.014 1.374-1.32 1.087-1.32-.063 0-.605.542-1.203 1.204m12.592.741l-1.088 1.204 1.204-1.088c1.122-1.014 1.374-1.32 1.088-1.32-.064 0-.605.542-1.204 1.204m118.727.151c0 .203.459.772 1.019 1.266l1.018.898-.926-1.111c-.509-.611-.967-1.181-1.018-1.266-.051-.085-.093.011-.093.213m-111.766 1.238c0 .713.077 1.004.17.648.093-.357.093-.94 0-1.296-.093-.357-.17-.065-.17.648m122.779-.1c1.08.098 1.742.391 2.129.944.309.441.562.624.562.407 0-.858-1.376-1.621-2.807-1.557l-1.452.065 1.568.141m-119.796 1.766c.003 1.019.075 1.392.16.829s.083-1.397-.005-1.852c-.088-.456-.157.005-.155 1.023m83.811-.956c-.372.411-.574 1.074-.478 1.574.151.794.168.783.215-.134.028-.568.404-1.245.873-1.574.453-.317.645-.576.428-.576-.217 0-.685.319-1.038.71m21.454.064c-.204.202-.704.618-1.111.926-.617.464-.539.46.463-.025.662-.321 1.203-.745 1.203-.944 0-.437-.077-.431-.555.043m7.134.599c.46.088 1.127.085 1.481-.008.354-.092-.023-.165-.837-.161-.815.004-1.105.08-.644.169m-108.756.582c-.594.594-.514 1.21.233 1.796.586.46.6.447.144-.135-.624-.795-.292-1.833.49-1.533.313.12.57.135.57.033 0-.426-1.054-.545-1.437-.161m98.593 1.1c-.412.459-.882 1.084-1.045 1.389-.312.59-.227.509 1.274-1.203.49-.561.809-1.019.707-1.019-.102 0-.523.375-.936.833m20.646 1.489c-1.055 1.3-1.097 1.409-.244.641.886-.798 1.938-2.236 1.621-2.216-.058.004-.678.712-1.377 1.575m-118.789 2.863c0 1.528.065 2.153.145 1.389.08-.764.08-2.014 0-2.778-.08-.764-.145-.139-.145 1.389m-10.703-.278l-1.088 1.204 1.204-1.088c1.122-1.014 1.373-1.319 1.087-1.319-.063 0-.605.541-1.203 1.203m3.564 1.128c-1.556 1.825-1.57 1.859-.247.632 1.171-1.088 2.371-2.635 1.997-2.576-.058.009-.846.884-1.75 1.944m10.434-.85c0 .713.076 1.005.169.648a3.045 3.045 0 0 0 0-1.296c-.093-.356-.169-.065-.169.648m55.594-.53c-.293.764.361 1.386 1.225 1.163.541-.139.5-.186-.189-.219-.686-.034-.835-.204-.683-.784.229-.876-.033-.995-.353-.16m23.857.001c-1.385.751-1.3 1.064.092.344.612-.316 1.112-.654 1.112-.75 0-.239-.04-.225-1.204.406m-72.892 1.37c.421.557.392.777-.191 1.481l-.686.826.9-.831c.884-.817.888-.844.192-1.482-.676-.62-.686-.62-.215.006m-24.701.896c.357.093.94.093 1.297 0 .356-.093.064-.169-.649-.169-.713 0-1.004.076-.648.169m17.771 1.967c0 .713.077 1.005.17.648.093-.356.093-.94 0-1.296-.093-.357-.17-.065-.17.648m18.711-.479a5.29 5.29 0 0 0 1.666 0c.459-.089.084-.161-.833-.161-.917 0-1.292.072-.833.161m79.166.849c.316.611.658 1.111.76 1.111.102 0-.073-.5-.389-1.111s-.658-1.111-.76-1.111c-.102 0 .073.5.389 1.111m-32.222-.051c-.611.377-1.442 1.085-1.846 1.572-.624.754-.569.737.37-.111.608-.549 1.689-1.251 2.402-1.56.713-.309 1.046-.567.741-.575-.306-.007-1.056.296-1.667.674m-62.407 2.088c-.9.917-1.553 1.667-1.451 1.667.102 0 .922-.75 1.821-1.667.9-.916 1.553-1.666 1.451-1.666-.102 0-.922.75-1.821 1.666m16.018-1.041c.357.094.94.094 1.297 0 .356-.093.064-.169-.649-.169-.713 0-1.004.076-.648.169M151.23 320c0 1.324.067 1.866.149 1.204.082-.662.082-1.746 0-2.408-.082-.662-.149-.12-.149 1.204m29.006-1.296c.857 1.462.875 1.484.875 1.028 0-.215-.343-.784-.763-1.265l-.762-.874.65 1.111m11.153-.294a5.296 5.296 0 0 0 1.667 0c.458-.089.083-.161-.834-.161-.916 0-1.291.072-.833.161m15.278.068c.76.21.965.551 1.148 1.907l.222 1.652.056-1.5c.061-1.661-.444-2.408-1.593-2.352-.635.031-.608.079.167.293m-52.5 1.337c.005.815.08 1.104.169.644.089-.461.085-1.128-.007-1.482-.093-.354-.166.023-.162.838m64.747-.397c-.465.495-.757 1.12-.65 1.389.152.38.203.37.225-.042.016-.293.392-.918.835-1.389.443-.472.722-.857.62-.857-.102 0-.565.404-1.03.899m-62.255 3.082l-3.511 3.611 3.611-3.511c3.354-3.261 3.78-3.711 3.511-3.711-.054 0-1.679 1.625-3.611 3.611m39.915-3.159c.519.25.852.764.884 1.364l.05.962.17-.906c.168-.894-.675-1.903-1.545-1.847-.216.014-.017.206.441.427m-15.344 3.622c0 1.324.067 1.866.149 1.204.082-.662.082-1.746 0-2.408-.082-.662-.149-.12-.149 1.204m23.686 1.481c0 .917.072 1.292.16.834a5.296 5.296 0 0 0 0-1.667c-.088-.458-.16-.083-.16.833m3.338.926c.003 1.019.075 1.392.16.829s.083-1.397-.005-1.852c-.088-.456-.158.005-.155 1.023m-38.884.556c0 1.12.07 1.579.155 1.018a8.264 8.264 0 0 0 0-2.037c-.085-.56-.155-.101-.155 1.019m25.951.783c.584.453 1.375 1.337 1.758 1.965.383.627.697.945.697.706.002-.619-1.783-2.659-2.723-3.112-.496-.239-.395-.074.268.441m33.684 2.21c-.44.803-.645 1.364-.455 1.247.41-.254 1.559-2.403 1.38-2.582-.069-.069-.485.532-.925 1.335m-23.714.896c.003 1.018.075 1.391.16.828.085-.563.083-1.396-.005-1.852-.088-.455-.158.005-.155 1.024m3.328.555c0 .917.073 1.292.161.834a5.296 5.296 0 0 0 0-1.667c-.088-.458-.161-.083-.161.833m-36.304.256c.356.093.94.093 1.296 0 .357-.093.065-.17-.648-.17-.713 0-1.005.077-.648.17m13.3 1.615c-.058 1.276.446 2.203 1.197 2.203.201 0 .094-.208-.239-.463-.333-.254-.672-1.046-.752-1.759l-.147-1.296-.059 1.315m2.562-.724c-.016.325.346.908.804 1.296.827.7.829.699.234-.035-.33-.408-.692-.991-.804-1.297-.173-.471-.209-.466-.234.036m33.587-.144c.46.089 1.127.085 1.481-.007.354-.093-.023-.166-.838-.161-.814.004-1.104.079-.643.168m-49.444 1.115c.563.085 1.396.083 1.852-.005.455-.088-.005-.158-1.024-.155-1.018.003-1.391.075-.828.16m37.657.682c.673.128 1.151.483 1.253.932.129.565.154.539.116-.115-.04-.668-.294-.858-1.253-.931-1.145-.088-1.151-.083-.116.114m-1.917 1.907c.461.088 1.127.085 1.481-.008.354-.092-.022-.165-.837-.161-.815.004-1.105.08-.644.169m-17.412.376c.662.082 1.746.082 2.408 0 .662-.082.12-.149-1.204-.149-1.324 0-1.866.067-1.204.149m13.148-.013c.357.094.94.094 1.297 0 .356-.093.064-.169-.649-.169-.713 0-1.004.076-.648.169"/></g></svg>