<svg xmlns="http://www.w3.org/2000/svg" width="1440" height="1440" version="1" viewBox="0 0 1080 1080"><path d="M485.2 175.5c-16.3 3.7-32.2 15.7-44.1 33.2-2.4 3.5-4.4 6.3-4.5 6.3-.1 0-3.4-1.6-7.2-3.5-17.9-8.7-38.2-11.4-52.9-6.8-34.9 10.9-50.6 51.3-30.4 78.6 6.6 8.9 3.9 7.2 103.3 64.4 14.8 8.5 27.2 15.1 27.6 14.6.4-.4 10.3-17.5 22-37.8 11.8-20.4 26.8-46.5 33.5-58.1 13.4-23.1 16.1-29.2 17.1-38.6 2.2-22-13.9-44.2-37.3-51.3-7.3-2.2-19.8-2.7-27.1-1zm-28 82c.3.3 6.3-1 13.4-2.9 7-1.9 13-3.4 13.1-3.2.2.1-3.5 5-8.2 10.8l-8.6 10.6 7.6 11.7c8.6 13.1 9.1 12.6-6.9 6.4-5.5-2.2-10.5-3.9-11.1-3.9-.6 0-4.9 4.7-9.5 10.4-4.7 5.8-8.6 10.4-8.7 10.2-.1-.1.1-6.4.5-13.9l.7-13.6-13-5c-7.2-2.7-12.3-5.2-11.5-5.5.8-.3 6.6-1.9 12.9-3.6 6.3-1.7 11.8-3.3 12.3-3.6.4-.3.8-4.2.8-8.7 0-4.5.3-10.6.7-13.6l.6-5.3 7.2 11.1c3.9 6.1 7.4 11.3 7.7 11.6zM598.8 207.9c-4.2.5-13.1 1.7-19.8 2.6l-12 1.8v6.6c0 3.6-.6 9.2-1.4 12.4-1.4 5.8-1.4 5.9.8 5.3 8.3-2 29.5-3.9 45.1-3.9 19.3 0 29.6 1.1 44.2 4.8l9.3 2.3 1.1-4.2c.6-2.2 1.9-7.2 3-11.1 1-3.8 1.9-7.7 1.9-8.6 0-1.7-10.3-4.6-24-6.9-8.6-1.4-38.5-2.1-48.2-1.1zM586.5 257.7c-6.1.5-32.8 4.3-34.8 4.9-2.3.7-20 27.4-18.2 27.4.7 0 5.5-.9 10.8-1.9 5.2-1.1 14.8-2.7 21.3-3.5 31.4-4 51.2-3 83.5 4 2.5.6 2.6.4 5.8-11.6 1.9-6.6 3.1-12.3 2.9-12.6-1.1-1-22.8-5.4-32-6.3-9-1-30-1.2-39.3-.4zM572.5 307.7c-10.9.9-22.7 2.7-39.6 5.9l-18.5 3.6-8.2 12.7c-4.5 7-8.2 13-8.2 13.4 0 .8 4.5.1 24.5-3.8 48.6-9.6 72.8-9.8 113.5-.9 2.4.5 2.6.2 5.7-11.8 1.8-6.7 3.1-12.4 2.9-12.5-.9-.9-18-4.5-27.9-5.8-10.6-1.3-33-1.8-44.2-.8zM409 337.6c0 .6-13.8 51.1-14.5 53.2-.4 1-2.4-.3-6.2-3.8-15.9-14.5-49.5-23.2-84.3-21.6-53.1 2.3-86.3 24.7-92 62-3.5 22.9 5.8 42 27.2 56.2 14.3 9.5 32.2 16.6 65.7 25.8 29.9 8.3 40.5 12.5 47.6 18.8 5.1 4.4 7.5 9.6 7.5 16-.1 14-11.9 25.8-33.1 32.9-8.1 2.8-11.1 3.3-22.6 3.7-18.9.7-17.9 1.2-18-10 0-11-2.3-17.9-8.3-26-13.8-18.3-39.9-28.1-70.3-26.5-59.4 3.3-102.5 37.6-117.5 93.7-2.2 8.2-2.5 11.7-2.6 25.5 0 13.6.3 17.3 2.2 24.5 10.5 39.2 43.5 66.7 87.7 73 10.2 1.4 24 1.2 34.1-.5 34.9-6.1 68.7-27 71-43.8.8-5.5-1.4-10.1-5.4-11.5-2.7-.9-3-.6-9 6.9-11.3 14.4-29.5 26.4-46.9 31-11.2 3-27.7 3.6-38.4 1.5-22.2-4.5-40.3-18.4-50.5-39.1-7.3-14.7-8.8-22.1-8.8-42 .1-15.2.3-18 2.7-27 10-37.2 37.5-66.1 71.3-75 27.8-7.3 54.3-1.7 61.3 12.8 3.5 7.2 2 24.8-2 23.9-2.8-.6-13.6-6-20.3-10-3.7-2.3-7.1-4.2-7.5-4.2-1.8 0-5.5 7.6-5.9 12.3-.5 6.5 2 10.6 9.8 15.8 10.2 6.9 24.5 10.5 46.9 11.8 10.1.7 14.6 1.3 15.3 2.3.6.8.7 14 .3 33.8-.7 37.9-.3 40.2 6.9 47.5 12.4 12.4 31.6 5.6 48.2-17l4.9-6.7.6 4.4c.9 6.1 4.5 14 7.7 17.1 6.9 6.6 19.1 7.9 28.9 3.2 7.8-3.8 22.2-18.3 30-30.2l6-9.2.6 10.2c1.3 20.3 7 36 16.4 45.5 11.9 12 30.6 15.2 45.3 7.7 10.3-5.2 20.5-17.2 26.6-31.3l3.3-7.7 6.5-1.6c7.5-1.9 17.7-6.5 24-10.8l4.3-3 .5 7.7c.8 12.7 6.2 21.8 16.2 27 4.1 2 6.5 2.6 12.2 2.6 6.3 0 8-.4 14.8-3.7 9-4.5 18-12.5 23.5-20.9l4-6.1 1 3.9c2.6 9.5 7.8 13.7 16.8 13.6 12.3-.1 29.5-12.9 44-32.7l2.2-3v13c-.1 7.1.3 14.3.7 16 1.1 4.7 4 9.9 6.3 11.2 3.3 2 11 3.4 14.8 2.7 3.8-.7 3.5-.2 8.3-14.9 4-12.5 10.1-25.6 18.2-39.2 7.5-12.6 17.1-23.5 20.1-23.1 3.4.5 3.7 5.7 1.6 25.8-3.1 29.9-2.3 45.3 2.7 55.7 4.7 9.7 13.2 12.8 27.2 10.1 14.9-2.9 30.4-12.3 47.3-28.5l9.6-9.3.5 4.4c1.4 12.5 11.7 23.1 24.4 25.2 13.2 2.1 31.7-9.1 42.3-25.6 3.3-5 4.1-5.8 4.1-3.9.1 3.4 3.3 10 6.4 12.8 3.1 2.9 11.7 4 18.3 2.2 12.1-3.3 32.4-23.3 45.1-44.5 4.8-8 5.1-9.6 1.8-9.6-1.9 0-4.2 2.3-10.9 11.2-18.3 24.3-31.5 34.2-39.6 29.8-5.1-2.7-6.6-19.1-3.5-36.3.9-4.8 1.3-9.9 1-11.3-1.2-4.5-9.4-12.2-17.4-16.1-6.9-3.5-8.1-3.7-16.1-3.6-23.3.2-43.2 16-53.2 42.3-3 7.7-3.9 9.1-13.4 18.5-10.8 10.8-26.6 22.2-35.5 25.6-6.4 2.4-9.6 1.3-12.5-4.6-1.9-3.8-2-5.6-1.7-31.2.3-22.4.1-28.3-1.3-33.4-1.8-7.4-5.5-12.6-10.1-14.5-4.4-1.8-13.6-1.8-18.1.1-10.2 4.3-22.1 17.3-33.9 37.2-8.3 13.9-8 14.5-6.5-15.6.7-13.5.7-21.9.1-24.2-2.3-8.3-10.7-10.9-21-6.7l-5.5 2.3.3 18.5.3 18.5-8.5 10.6c-9.3 11.6-18.8 20.8-24.1 23.3-14 6.7-19.5-6.4-14.5-34.9l1.9-11-2.5-4.3c-3.1-5.3-12.5-12.4-19.7-14.9-7-2.4-17.4-2.2-26.3.5-14.7 4.5-28.4 17-35.9 32.7-2.4 5-5.4 10-6.7 11.1-6.5 5.9-20.6 13.2-28.3 14.7l-3 .6v-11.2c0-9-.4-11.9-1.9-14.7-7.5-14.1-24.3-17-35.9-6.1-4.5 4.1-6 8-6.1 14.7 0 11.5 8.6 23.3 19.5 26.5 2.2.7 3.9 1.8 3.9 2.7 0 2.7-6.4 12.6-11.5 17.8-15.6 16.1-29.6 3-34.9-32.9l-1.4-9.2 4.8-6.5c18-24.5 31.8-54.3 35.1-76 1.2-8.1.6-15.8-1.6-20.1-6.7-12.9-28.6-8.8-42 7.9-11.9 15-19.3 36.9-22.5 66.7-1.1 10.8-2.5 13.8-12.7 29.5-11.6 17.7-22.8 29-28.7 29-8 0-10.1-12.4-7.2-42.3 2.6-27.4-1.1-34.7-17.4-34.7h-7.5l-.1 24-.1 24-2.6 3.7c-3.8 5.3-12.4 14-16.5 16.5-4 2.5-10.2 2.9-12.7.8-4.8-4-5.4-11.7-3.3-41.7 1-15.6 1-17.5-.6-21.7-1-2.5-2.2-4.6-2.7-4.6s-.9-.4-.9-.9 2.4-1.2 5.3-1.5c8-1.1 26.4-7.6 35-12.6 20.6-11.8 31.6-29 30.5-47.9-.6-9.9-3.8-17-10.9-24-10.6-10.4-24.9-17-63.3-29-36.3-11.4-50.4-17.9-61.4-28.5-11.3-10.8-15.5-24.3-11.7-38.1 4.1-15.3 18.2-26.7 40-32.6 11-3 36.2-3.3 48-.5 8.2 1.9 20.2 6.4 26.7 10.1 11.3 6.4 22.2 17.6 27.4 28.2l2.5 5.1-5 18.9c-4.8 17.6-5 18.9-3.3 20.1 1.7 1.4 7.8 1 9.3-.5.4-.4 7.3-22.6 15.4-49.3 16.5-54.6 20.6-68 21.2-69.6.2-.6-2.4-2.7-5.7-4.8-5.9-3.5-8-4.3-8-3zm73 216.6c6.9 7.4-4.4 43-22.4 70.8l-3.6 5.4v-8.1c0-18.1 5.3-45.7 11.3-58.7 5-10.6 10.3-14.1 14.7-9.4zm140.1 52.7c3.8 3.9 3.7 6.8-.6 19.9-9.1 27.2-25.1 47.7-33.5 43.2-4.9-2.6-6.5-14.5-3.4-26.4 3.5-13.7 13.9-31.1 22.1-36.9 5.4-3.8 11.4-3.8 15.4.2zm289.3-1.9c1.4.5 3.2 2.3 4.1 4.1 1.6 2.9 1.6 3.6 0 9.8-3.7 14.9-13.4 35.1-21.1 43.9-2.5 2.9-6.1 5.7-8.5 6.6-3.7 1.5-4.4 1.5-6.5.1-3.8-2.5-4.8-5.4-4.8-14 .2-16.3 11-38.9 23.2-48.2 4.6-3.5 8.8-4.2 13.6-2.3zm-406.3 20c4.6 2.5 6.7 12.2 4.9 22.9-.6 3.9-1.4 7.1-1.6 7.1-.3 0-1.9-.7-3.7-1.6-11.9-6-16.5-19.8-8.8-26.6 3.3-3 6-3.5 9.2-1.8z"/><path d="M580.7 373.4c-20.8 7.7-40.4 46.8-43.9 88.1l-1.2 14-7.6 8.9c-8.3 10-17.6 18-22.7 19.7-5 1.6-9.1-.4-11.4-5.5-2.4-5.3-2.5-17-.3-31.2 2-12.5 1.5-14.3-6-21.1-7.4-6.7-14.4-9.7-23.8-10.1-15.5-.8-26.9 3.9-39.4 16.3-12.9 12.7-19.4 28.1-19.4 45.7 0 14.3 4.8 23.6 15.2 29.4 4.7 2.5 6.3 2.9 13.3 2.9 7-.1 8.8-.5 14.8-3.5 8.6-4.2 19.1-13.9 23.9-21.9l3.6-6.2.7 4c.8 4.7 3.8 9.5 7.8 12.5 4.5 3.4 13.5 2.9 21.4-1.2 8.1-4.2 16.9-11.6 24.5-20.8l6.3-7.5 1.2 7.6c3.4 22 12.3 37.7 23.9 42.1 9.9 3.8 24 .4 38.3-9 13.3-8.9 34.6-31.3 42.5-44.9l2.6-4.4 8.7 8.9 8.7 8.8-2.3 1.6c-20.5 14.4-28 29.6-18.8 38.2 8.1 7.6 27.5 7.5 42.7-.3 18.9-9.7 23.9-29.4 11.5-46.1-1.5-2-1.3-2.2 7.3-6.2 9.9-4.5 24-9.7 24.7-9.1.2.2-.6 3.6-1.7 7.4-1.5 5-2.1 10.1-2.2 17.5-.1 9.6.2 11 2.7 16.2 10.4 21.3 35.2 22.1 55.4 1.9 3.8-3.8 8-9 9.4-11.5 2.6-5.1 3.9-5.8 3.9-2.4.1 3.9 3.6 10.4 7.1 12.9 5.3 3.7 13.5 3.4 22.2-.9 12.5-6.2 32.4-27.7 41.3-44.5 3-5.6 3.3-6.8 2-7.3-2.8-1.1-4.1.2-12.8 11.8-10.6 14.1-23.7 26.8-30 29.2-4 1.6-5 1.6-7.4.4-5.3-2.5-6.9-7-6.8-18.8.1-5.8.9-14.5 1.8-19.3l1.7-8.8-2.6-4.4c-1.4-2.5-5-6.3-7.9-8.5-14.8-11.2-34.3-10.8-52.1 1.1-6.7 4.5-9.5 7.3-16.2 15.7-1.2 1.5-4.2 2.9-8.8 4.1-7.4 1.9-20.3 6.8-32.2 12.2l-7.2 3.2-6.9-5.6c-7.5-6.2-11.7-11.5-13.2-16.8-1.7-5.7-.8-6.5 7.2-7.3 7.9-.7 12-2.6 15.2-6.9 1.6-2.1 1.8-3.2 1-4.5-1.8-2.9-9.1-4.4-17.7-3.7-11.1.8-18.1 3.7-24.2 9.9-5.6 5.7-7.8 11.1-7.4 18.2.3 4.1-.2 5.3-5.4 12.4-19 26.3-39.1 44.9-50.2 46.5-11.1 1.7-18.5-8.7-21.4-30l-1-6.9 6.3-11.6c9.8-17.8 19.4-37.4 24.2-49.4 12.9-31.9 11.2-50.8-4.7-52.2-2.4-.2-6.1.2-8.2 1zm8.3 9.6c3.9 3.9 2 17.2-5.5 39-4.5 13.1-19.7 44.3-20.3 41.6-.6-2.7 1.5-21.7 3.8-35 3.8-21.9 9.3-38.7 14.5-44.2 3.7-3.9 4.8-4.1 7.5-1.4zm-119.9 63.7c4.6 2.8 5.5 6.2 3.4 14.1-5.1 18.9-15.2 38.2-24.4 46.5-6.6 6-10.2 6.1-14.5.3-7.9-10.5 6.8-49.9 22.2-59.7 5.2-3.3 9.1-3.7 13.3-1.2zm320 1.2c3.9 3.9 3.8 7.7-.6 20.9-8.7 26-23.6 45.6-32.4 42.6-8.6-3-8-21.4 1.3-40.9 10.1-21.3 23.5-30.8 31.7-22.6zm-117.5 60.8c1.4 7.3-1.4 13.7-8 18.8-4.9 3.7-8.9 4.2-11.6 1.5-4.5-4.5-.4-13.3 10.4-22.3 5.5-4.6 6.1-4.8 7.3-3.1.7.9 1.6 3.3 1.9 5.1zM339.4 747.4c-.3.8.2 2.5 1 3.9l1.7 2.4-17.6 15.2c-9.6 8.3-18.1 15.4-18.8 15.7-.8.3-2-.2-2.7-1.1-1.5-1.8-3.2-1.9-4.8-.3-1.2 1.2-.7 1.8 8 11.7 3.5 4.1 4 4.3 5.5 2.9 1.4-1.5 1.4-1.9-.5-4.6l-2.2-2.9 16.3-14.1c8.9-7.7 16.3-13.9 16.5-13.8.1.2-.5 2.2-1.3 4.6-.8 2.4-4.3 15.1-7.6 28.2l-6.2 24 2.1 2 2 2.1 18.9-16.3c10.3-9 19.5-17 20.4-17.7 1.3-1.1 2-1 4.1.6 2.1 1.7 2.8 1.8 4.2.8 1.5-1.1 1-2-4.5-8.5-3.5-3.9-6.6-7.2-7-7.2-.3 0-1.2.7-1.9 1.5-.9 1.1-.8 1.9.4 3.7.9 1.2 1.6 2.5 1.6 2.9 0 1-28.1 25.2-28.6 24.6-.3-.2 0-1.5.6-2.8.6-1.3 3.7-12.6 6.9-25.2l5.9-22.7-4.5-5.5c-4.6-5.5-6.9-6.7-7.9-4.1zM623.6 751.8c-.8 1.3-18.3 9.8-26.1 12.6-30 10.8-64.8 10.4-97.7-1-5.5-1.9-13.7-5.2-18.4-7.4-4.6-2.1-8.4-3.5-8.4-3 0 1.7 15.5 15.2 23.6 20.6 37.7 25.1 84.3 22.1 115.5-7.4 7.6-7.1 13.4-14 12.6-14.8-.3-.3-.7-.1-1.1.4zM741.3 759.3c-5.3 6.1-6 7.4-4.8 8.6 1.2 1.2 1.7 1.2 3.8-.2 2.5-1.6 2.5-1.6 3.1 2.6.3 2.3.8 7.8 1.2 12.2l.7 7.9-4.9-4.1c-2.7-2.3-10.1-8.6-16.4-14.1-6.3-5.5-12-9.8-12.6-9.5-.7.2-2.8 2.8-4.8 5.8-3 4.6-3.3 5.5-2 6.6 1.2 1 1.9.8 3.7-.9l2.2-2.1 14 12.1c27.6 23.7 26.9 23.1 25.5 25.7-1 1.9-.9 2.6.4 3.9.8.9 1.7 1.4 1.9 1.1.1-.2 3.1-3.6 6.4-7.5 4.7-5.4 5.9-7.4 5.1-8.2-1.6-1.6-2.8-1.5-4.8.3-1.5 1.4-2 1.2-5.4-1.7-3.1-2.8-3.8-4.1-4.3-8.6-.4-4.1-.3-5.2.8-5.2 2.4 0 18.2 2.9 18.7 3.5.3.2-.1 1.2-.8 2-1.1 1.3-1 1.8.5 2.9 1.6 1.2 2.5.6 8.1-5.8 5.4-6.1 6.1-7.3 4.9-8.5-1.2-1.2-1.8-1.3-3.9-.1-2.1 1.1-4.5 1-14.8-.4-6.8-.9-12.6-1.6-12.9-1.6-.4 0-1-3.6-1.3-7.9-.6-6.6-.4-8.4 1-10.5 1.3-2.1 1.4-2.9.4-4.1-.7-.8-1.5-1.5-1.9-1.5-.3 0-3.4 3.3-6.8 7.3zM704.7 798.1c-5.8 3-11.4 9.2-12.7 13.9-.9 3.3-.8 4.6.5 7.5 3.4 7.1 9.7 8.4 21.9 4.6 8.4-2.6 10.1-2.6 12.6-.1 2.8 2.8 2.5 6.2-.9 9.4-4.1 3.9-7.9 4.8-11.7 2.5-3-1.8-3.1-1.8-4.9 0-1.6 1.9-1.6 2.1 1 5.5 3.2 4.2 4.1 4.3 9.8 1.5 6.5-3.4 9.7-6.1 12.3-10.5 2.9-4.9 3.1-9.9.5-13.8-4-6-9.6-7-20.3-3.6-10.5 3.3-14.8 2.4-14.8-2.9 0-5.1 9.2-10.8 11.5-7.1.9 1.5 4.1 1.2 5.5-.5 1.1-1.3.8-2.1-2-5-1.9-1.9-3.6-3.5-3.9-3.5-.4.1-2.3 1-4.4 2.1zM372 809.5c-6.5 2.1-11.4 6.6-15.1 14-2.7 5.5-3.1 7.3-2.7 12 1.2 14 17.3 21.9 30.3 14.7 6.2-3.4 11.9-11.3 13.6-18.8 1-4.6 1-6-.5-9.9-2.2-5.6-8.2-10.9-14.1-12.4-5.3-1.3-5.8-1.3-11.5.4zm13.9 6c6.3 3.2 6 10.9-.8 21.2-6.2 9.3-11.7 12.3-17.7 9.8s-7-8.5-2.9-16.7c4.6-9.2 11.4-15.8 16.3-15.8 1.3 0 3.6.7 5.1 1.5zM674 821.1c-1.7 1.7-3.6 5.1-4.2 7.5l-1.2 4.3-1.8-3c-1.9-3.1-3.4-3.5-5.9-1.6-6.9 5.4-7.1 5.6-6 7.4.6 1.1 2.1 1.8 4.2 1.8 3 0 3.5.6 11 13.5l7.9 13.5-2.7 2.2c-2.5 2-2.6 2.4-1.3 3.7 1.3 1.4 2.7.8 12.3-4.5 5.9-3.4 10.7-6.4 10.7-6.7 0-.4-.4-1.3-.9-2-.7-1.1-1.6-1-4.9.7-2.3 1.2-4.5 2.1-5 2.1-.9 0-14.2-23-14.2-24.7 0-1.5 7.3-7.9 9.9-8.8l2.1-.6-2-4c-1.1-2.1-2.7-3.9-3.4-3.9-.8 0-2.8 1.4-4.6 3.1zM624.9 825.1c-3.4 3.4-.7 9.9 4.1 9.9.9 0 2.7-1.1 3.9-2.4 5.3-5.6-2.5-13-8-7.5zM407.6 829.6c-.4.9 0 2.4.9 3.4 1.3 1.4 1.4 4.2.4 22.5-1.1 22.4-1.2 21.8 4 23.1 2 .6 4.4-1.4 17-13.9 9.6-9.6 15.5-14.7 17.1-14.9 1.4-.2 2.6-1.1 2.8-2 .2-1.3-1.4-2.5-6.4-4.8-7.8-3.5-8-3.5-8.8-1.3-.5 1.1.1 2.3 1.6 3.4l2.3 1.8-6.5 6.8c-3.6 3.7-8.7 9.3-11.3 12.3-5.5 6.4-5.4 7.1-3.2-13 .8-7.4 1.5-13.8 1.5-14.2 0-.4 1.6-.4 3.5-.1 3 .5 3.5.3 3.5-1.4 0-1.5-1.9-2.9-8.1-5.7-9.2-4.1-9.5-4.2-10.3-2zM574.7 838.5c-3.2 1.2-5.8 2.4-5.8 2.8.1.4.1 1.1.1 1.7 0 .5 1.6 1 3.5 1 2.1 0 3.5.5 3.5 1.2s2.8 13.3 6.2 28l6.2 26.8h6.1c11.7 0 20.6-4.4 24.6-12.1 7.3-14.5-1.8-35.9-15.4-35.9-4.7 0-9.9 2.1-13.1 5.3l-2.5 2.5-2.6-11.3c-1.4-6.2-3.2-11.5-3.8-11.8-.7-.2-3.8.6-7 1.8zm31.1 23c3.6 3.1 6.1 8.8 6.8 16.3.7 6.8-1.1 12.2-5 14.7-3.3 2.2-10.1 3.1-11.1 1.5-1.2-1.9-7.2-28.5-6.7-29.9.7-2.1 6.5-5.1 9.9-5.1 1.9 0 4.3 1 6.1 2.5zM551.5 842.5c-2.9 2.8-3.2 5.7-.9 7.9 1.8 1.8 4.7 2 7.5.6 2.8-1.5 2.6-7.4-.3-9.4-3-2.1-3.5-2-6.3.9zM631.2 843.1c-3.8 2.1-5.2 3.5-4.8 4.5.3.9.6 1.8.6 2 0 .2 1.5.4 3.3.4h3.2l5.5 14.2c3 7.8 5.6 14.7 5.8 15.3.1.6-.9 1.7-2.3 2.3-2.5 1.2-3.3 4.7-1 4.7s19.5-7 19.5-8c-.1-2.7-1.7-3.6-4.5-2.5-1.5.6-2.9.9-3 .8-.1-.2-3.3-8.2-7.1-17.8-6.1-15.7-7.7-19-9.4-19-.3 0-2.9 1.4-5.8 3.1zM465.5 852.2c-10.4 2.3-17.4 12.3-17.5 25.1 0 7.2 1.7 11.3 6.2 15.3 5.2 4.5 12.2 6 19 4 19-5.5 23-36.7 5.5-43-6.2-2.2-8.7-2.5-13.2-1.4zm8.4 4.9c1.8.6 3.8 2.4 4.6 4 3.2 6.2.7 21.8-4.5 28-2.3 2.8-3.4 3.4-6.8 3.4-5 0-7.8-2.4-9.3-7.7-2.5-9.4 3.3-25.6 10.1-28.1 2.2-.8 2.4-.8 5.9.4zM514.5 860c-7.1 1.6-10.5 5.3-10.5 11.5 0 6.5 2.5 9.4 13.2 15.1 7.9 4.2 10.1 7.8 7.4 11.9-1.3 2-2.5 2.5-5.9 2.5-6.1 0-9-1.9-10.1-6.3-.8-3.2-1.3-3.7-3.8-3.7s-2.8.4-3 3.5c-.1 1.9-.2 4.3-.2 5.2-.2 4.6 19.5 7.6 26.1 4 6-3.2 8.1-11.4 4.4-17.1-2.1-3.2-5.2-5.5-12.6-9.3-5.6-2.9-7.4-4.8-7.5-7.9-.1-7.1 13-7.1 14.8 0 .6 2.4 1.4 3.2 3.6 3.4 2.7.3 2.7.3 2.4-5-.3-5.1-.4-5.3-3.8-6.4-5-1.6-11-2.2-14.5-1.4zM552.2 860.3c-4.8 1-5.3 1.3-5 3.6.2 1.7 1.1 2.7 2.8 3.1 2.8.7 3.1 2.2 4.5 22.8l.7 10.2-3.2.6c-2.4.5-3 1.1-2.8 2.8.2 1.4.9 2 2.3 1.9 1.1-.1 6-.5 10.8-.8 8.2-.6 8.8-.8 8.5-2.8-.2-1.4-1.2-2.2-3.3-2.4-1.6-.3-3.1-.5-3.2-.7-.1-.1-.9-8.7-1.8-19.1-1.4-17.4-2.2-21-4.5-20.3-.3 0-2.9.6-5.8 1.1z"/></svg>