<svg id="svg" version="1.1" width="400" height="400" viewBox="0 0 400 400" xmlns="http://www.w3.org/2000/svg" xmlns:xlink="http://www.w3.org/1999/xlink" ><g id="svgg"><path id="path0" d="M223.698 77.033 C 219.871 77.288,212.251 78.286,210.697 78.735 C 210.218 78.873,210.057 79.628,209.890 82.509 C 209.776 84.490,209.575 86.457,209.445 86.879 C 209.210 87.636,209.246 87.641,211.918 87.183 C 222.702 85.336,235.224 85.669,243.806 88.033 C 244.983 88.357,246.016 88.552,246.100 88.467 C 246.513 88.055,248.509 79.845,248.255 79.607 C 246.493 77.958,232.236 76.463,223.698 77.033 M217.470 95.593 C 213.064 95.910,204.062 97.292,203.645 97.715 C 203.225 98.142,197.427 107.180,197.516 107.269 C 197.563 107.316,198.766 107.109,200.189 106.809 C 213.567 103.992,226.741 103.751,237.278 106.132 C 239.459 106.625,241.268 106.988,241.297 106.940 C 241.327 106.892,241.867 104.884,242.498 102.480 L 243.645 98.107 242.736 97.762 C 240.794 97.024,234.411 95.938,229.854 95.570 C 224.610 95.148,223.636 95.149,217.470 95.593 M211.701 114.083 C 207.205 114.486,202.541 115.221,195.759 116.594 L 190.592 117.641 187.531 122.339 C 183.887 127.931,183.291 127.616,193.666 125.572 C 209.959 122.362,222.588 122.114,233.337 124.794 C 234.863 125.174,236.161 125.437,236.222 125.378 C 236.434 125.175,238.497 117.590,238.508 116.975 C 238.541 115.077,221.325 113.219,211.701 114.083 M149.105 134.355 C 145.690 147.067,146.308 145.902,144.137 143.731 C 139.059 138.653,127.834 135.413,115.370 135.428 C 92.718 135.455,78.519 145.438,78.519 161.336 C 78.519 174.464,87.456 181.571,112.669 188.490 C 127.503 192.561,132.099 195.044,133.342 199.663 C 135.634 208.173,121.882 216.788,108.413 215.281 L 105.900 215.000 105.820 211.091 C 105.293 185.183,57.198 185.873,39.944 212.037 C 22.326 238.751,36.459 269.075,68.018 272.275 C 85.858 274.084,110.604 260.052,103.472 252.171 C 102.480 251.074,101.638 251.354,100.252 253.241 C 89.721 267.570,68.471 271.152,55.927 260.712 C 41.012 248.300,42.265 221.108,58.435 206.284 C 73.707 192.282,100.346 194.657,96.499 209.676 C 96.172 210.953,95.819 212.082,95.715 212.187 C 95.509 212.393,88.915 209.147,86.418 207.610 L 84.874 206.660 84.103 207.639 C 78.487 214.780,88.568 221.008,106.667 221.579 L 109.444 221.667 109.753 224.259 C 109.937 225.800,109.883 230.620,109.620 236.137 C 109.286 243.176,109.282 245.919,109.606 247.479 C 111.681 257.473,122.547 256.619,129.862 245.889 C 131.397 243.637,131.683 243.373,131.779 244.121 C 133.548 257.956,146.541 256.686,156.319 241.721 L 158.704 238.071 159.159 242.369 C 160.307 253.213,163.222 258.776,169.258 261.636 C 177.854 265.710,187.249 260.684,191.744 249.607 L 192.778 247.059 194.792 246.637 C 197.470 246.076,200.807 244.638,203.468 242.900 C 204.663 242.120,205.680 241.481,205.729 241.481 C 205.779 241.481,205.915 242.756,206.033 244.313 C 206.819 254.702,216.045 258.441,225.046 252.018 C 227.298 250.411,230.633 246.640,231.517 244.700 C 232.085 243.454,232.593 243.416,232.593 244.620 C 232.593 245.124,232.941 246.249,233.367 247.120 C 236.513 253.557,245.772 250.117,254.023 239.444 L 255.741 237.222 255.938 242.778 C 256.225 250.878,257.309 252.642,262.141 252.874 C 265.238 253.023,265.232 253.028,266.243 249.501 C 269.157 239.339,278.029 224.444,281.169 224.444 C 282.619 224.444,282.786 225.907,282.111 232.717 C 280.842 245.509,280.958 250.280,282.628 254.055 C 286.237 262.213,298.820 259.220,310.885 247.332 C 314.341 243.927,313.923 244.093,314.229 246.003 C 316.167 258.125,331.265 258.026,338.786 245.841 L 340.147 243.635 340.753 245.492 C 343.105 252.709,349.770 252.090,357.966 243.892 C 362.474 239.383,368.313 231.029,367.515 230.231 C 366.776 229.492,365.776 230.345,363.115 233.981 C 350.878 250.711,343.621 249.471,346.884 231.210 C 348.470 222.336,336.681 217.318,326.481 222.525 C 321.392 225.124,315.963 231.947,314.948 237.018 C 314.566 238.931,307.118 246.252,302.407 249.345 C 292.581 255.798,291.668 254.910,291.663 238.889 C 291.658 225.178,291.169 223.054,287.650 221.456 C 281.665 218.738,274.774 223.849,267.763 236.204 C 266.693 238.088,265.737 239.630,265.637 239.630 C 265.537 239.630,265.577 235.318,265.725 230.048 C 265.966 221.508,265.928 220.338,265.380 219.278 C 264.193 216.983,260.986 216.527,257.710 218.187 C 255.907 219.101,255.948 218.957,256.389 222.778 C 256.606 224.665,256.655 227.520,256.501 229.359 L 256.229 232.607 253.717 235.841 C 242.485 250.301,235.874 248.557,238.737 231.889 C 239.454 227.711,239.316 227.092,237.153 224.780 C 229.237 216.316,214.630 220.467,208.627 232.885 C 206.291 237.717,203.220 240.290,197.512 242.194 C 193.888 243.404,193.939 243.437,194.215 240.093 C 194.800 232.976,191.851 228.905,186.111 228.905 C 176.160 228.905,175.299 242.512,185.022 246.119 C 186.028 246.493,186.909 246.840,186.979 246.890 C 187.343 247.155,184.101 252.508,182.709 253.940 C 176.673 260.150,171.180 254.976,169.243 241.254 L 168.818 238.249 170.539 235.987 C 182.310 220.509,187.585 200.468,180.503 198.131 C 170.959 194.981,161.427 207.966,159.630 226.564 C 159.136 231.677,158.672 232.804,154.402 239.252 C 144.068 254.856,139.266 253.083,141.115 234.346 C 142.138 223.988,141.017 221.525,135.128 221.184 L 132.170 221.013 132.421 224.488 C 132.560 226.409,132.474 230.529,132.230 233.704 L 131.788 239.444 130.299 241.381 C 125.453 247.686,120.351 249.255,118.831 244.906 C 118.277 243.322,118.286 238.048,118.857 230.587 C 119.270 225.180,119.009 222.977,117.802 221.692 L 116.993 220.831 118.758 220.567 C 142.451 217.014,152.156 195.544,134.533 185.670 C 130.856 183.610,126.283 181.862,116.802 178.891 C 94.877 172.020,88.704 167.339,88.704 157.587 C 88.704 136.568,130.717 134.547,141.407 155.052 C 142.884 157.885,142.912 157.335,140.926 164.650 C 138.822 172.399,138.823 172.222,140.881 172.222 C 142.668 172.222,143.046 171.917,143.635 170.000 C 147.568 157.193,156.296 128.133,156.296 127.846 C 156.296 127.529,152.257 124.807,151.803 124.818 C 151.728 124.820,150.514 129.111,149.105 134.355 M216.049 138.129 C 207.782 140.124,198.898 158.003,198.890 172.661 L 198.889 175.507 196.728 178.216 C 185.875 191.823,179.847 189.345,182.835 172.504 L 183.409 169.268 182.450 167.632 C 175.608 155.957,156.567 161.814,151.257 177.226 C 144.789 196.001,164.037 203.992,174.785 186.994 L 176.218 184.727 176.488 185.974 C 178.404 194.848,187.769 192.941,197.060 181.786 L 198.812 179.684 199.248 182.670 C 202.691 206.215,219.080 204.087,238.519 177.572 C 239.057 176.838,239.174 176.914,242.289 180.049 L 245.504 183.283 243.527 184.776 C 233.877 192.062,233.790 199.361,243.346 199.922 C 255.697 200.648,264.273 189.907,257.956 181.624 C 257.450 180.962,257.037 180.316,257.037 180.189 C 257.037 179.659,269.484 174.546,269.860 174.922 C 269.932 174.994,269.667 175.972,269.272 177.096 C 262.541 196.248,282.840 204.105,293.233 186.370 L 294.233 184.663 294.529 186.086 C 296.764 196.846,309.965 191.121,319.836 175.110 C 323.572 169.051,321.244 169.511,316.643 175.741 C 304.772 191.818,296.916 189.878,300.897 171.852 C 302.261 165.671,293.721 160.118,285.481 161.829 C 280.930 162.774,274.867 166.875,272.601 170.542 C 272.029 171.467,271.509 171.812,270.425 171.985 C 268.158 172.348,263.502 174.001,258.831 176.102 L 254.513 178.044 251.808 175.777 C 245.869 170.799,244.863 166.677,249.582 166.659 C 252.847 166.646,255.926 164.762,255.926 162.777 C 255.926 162.134,253.063 161.481,250.236 161.481 C 242.425 161.481,237.735 165.103,237.599 171.240 L 237.542 173.777 234.428 177.907 C 221.453 195.117,212.450 198.082,209.497 186.118 C 208.199 180.859,208.257 180.065,210.183 176.670 C 220.227 158.969,224.580 146.170,222.305 141.026 C 221.249 138.640,218.743 137.480,216.049 138.129 M218.354 141.740 C 220.484 143.870,217.106 156.255,211.314 167.546 C 208.051 173.906,207.932 173.723,209.100 164.140 C 210.979 148.723,215.176 138.563,218.354 141.740 M174.522 165.947 C 176.896 168.321,172.996 179.748,167.484 186.569 C 161.914 193.461,157.534 187.685,160.889 177.872 C 164.297 167.906,170.796 162.221,174.522 165.947 M291.631 165.237 C 294.151 166.384,294.027 168.944,291.087 176.488 C 285.858 189.905,277.355 194.427,277.866 183.519 C 278.338 173.426,286.325 162.819,291.631 165.237 M248.324 187.019 C 250.631 191.480,244.798 199.112,241.418 196.054 C 239.695 194.494,240.868 191.677,244.706 188.160 C 247.520 185.582,247.572 185.565,248.324 187.019 M179.008 206.010 C 180.670 209.411,177.145 220.195,171.103 230.199 C 168.465 234.567,168.362 234.549,168.672 229.778 C 169.789 212.548,175.634 199.107,179.008 206.010 M230.058 224.196 C 232.916 225.981,230.521 234.961,224.933 243.418 C 217.944 253.997,212.454 246.382,218.011 233.816 C 221.481 225.970,226.491 221.969,230.058 224.196 M337.186 223.850 C 339.962 225.010,340.166 226.468,338.334 232.061 C 334.301 244.373,326.926 252.063,324.429 246.561 C 320.999 239.007,330.971 221.253,337.186 223.850 M187.908 232.224 C 189.285 233.861,189.717 239.262,188.686 241.949 C 187.736 244.425,182.222 239.051,182.222 235.650 C 182.222 231.628,185.662 229.555,187.908 232.224 M227.593 280.422 C 213.463 287.815,195.631 288.045,180.370 281.030 C 174.999 278.561,175.093 278.543,177.963 281.477 C 192.501 296.337,215.716 296.296,228.999 281.386 C 231.750 278.298,231.708 278.269,227.593 280.422 " stroke="none" fill="#085b98" fill-rule="evenodd"></path><path id="path1" d="M0.000 200.000 L 0.000 400.000 200.000 400.000 L 400.000 400.000 400.000 200.000 L 400.000 0.000 200.000 0.000 L 0.000 0.000 0.000 200.000 M188.223 64.851 C 198.994 67.080,206.028 78.044,202.968 87.831 C 202.226 90.203,201.342 91.811,189.663 112.037 C 186.134 118.148,181.824 125.622,180.085 128.645 C 178.346 131.668,176.732 134.214,176.500 134.304 C 176.135 134.444,168.529 130.216,156.481 123.177 C 154.648 122.106,148.401 118.495,142.600 115.152 C 127.040 106.186,124.291 102.825,124.922 93.533 C 126.003 77.617,142.956 70.137,159.309 78.360 L 161.766 79.596 163.427 77.113 C 169.865 67.491,179.046 62.951,188.223 64.851 M242.593 77.901 C 244.935 78.400,247.296 78.984,247.839 79.198 L 248.827 79.588 247.649 84.028 C 246.222 89.403,246.648 88.994,243.373 88.134 C 235.802 86.146,221.967 85.724,212.817 87.203 C 208.473 87.904,208.851 88.133,209.488 85.185 C 209.774 83.861,209.974 81.866,209.932 80.752 L 209.857 78.725 211.132 78.451 C 212.430 78.171,219.346 77.187,222.037 76.899 C 226.460 76.426,238.403 77.008,242.593 77.901 M163.514 92.373 C 163.365 95.142,163.184 97.407,163.110 97.407 C 162.892 97.407,154.682 99.631,154.074 99.854 C 153.762 99.969,155.498 100.818,158.027 101.788 C 160.506 102.740,162.622 103.606,162.728 103.714 C 162.834 103.821,162.805 106.113,162.664 108.806 C 162.523 111.500,162.441 113.704,162.482 113.704 C 162.540 113.704,168.438 106.425,168.718 106.008 C 168.756 105.951,170.893 106.726,173.468 107.729 C 176.042 108.733,178.148 109.492,178.148 109.416 C 178.148 109.340,177.048 107.577,175.704 105.498 C 174.359 103.420,173.185 101.525,173.094 101.289 C 173.003 101.052,174.265 99.216,175.899 97.209 C 177.533 95.203,178.806 93.498,178.729 93.421 C 178.653 93.344,176.632 93.793,174.240 94.418 C 171.848 95.044,169.746 95.556,169.569 95.556 C 169.392 95.556,168.149 93.847,166.807 91.759 C 165.464 89.671,164.235 87.823,164.075 87.651 C 163.914 87.479,163.662 89.604,163.514 92.373 M232.222 95.550 C 235.791 95.957,242.602 97.326,243.347 97.786 C 243.750 98.035,241.926 106.768,241.366 107.269 C 241.328 107.303,240.081 107.021,238.597 106.642 C 228.398 104.037,214.810 104.101,201.457 106.819 C 199.128 107.292,197.172 107.638,197.110 107.586 C 197.025 107.515,203.044 98.021,203.511 97.489 C 203.703 97.270,209.995 96.189,213.704 95.738 C 218.457 95.160,227.959 95.064,232.222 95.550 M228.889 114.246 C 233.011 114.805,237.694 115.787,238.441 116.248 C 238.779 116.457,238.602 117.637,237.721 121.040 C 236.422 126.061,236.620 125.882,233.333 125.000 C 223.464 122.351,209.791 122.599,194.025 125.710 C 190.487 126.409,186.766 127.101,185.756 127.248 L 183.918 127.515 184.500 126.628 C 184.819 126.140,186.214 123.991,187.600 121.852 C 188.985 119.713,190.219 117.844,190.341 117.699 C 190.688 117.289,203.204 114.853,207.860 114.289 C 213.466 113.610,224.043 113.588,228.889 114.246 M155.935 127.045 C 156.674 127.601,156.591 127.920,150.007 149.638 C 143.151 172.254,143.020 172.593,141.111 172.593 C 138.672 172.593,138.658 172.318,140.706 164.651 L 142.573 157.663 141.196 155.044 C 129.960 133.660,84.787 137.795,88.861 159.834 C 90.382 168.060,96.146 171.976,116.377 178.528 C 137.990 185.526,143.307 189.390,143.644 198.340 C 144.020 208.340,135.948 216.508,122.287 219.952 C 119.995 220.529,118.118 221.068,118.115 221.149 C 118.111 221.230,118.388 221.963,118.731 222.778 C 119.275 224.074,119.312 224.977,119.028 230.000 C 118.208 244.506,118.574 246.728,121.818 246.967 C 123.913 247.121,125.953 245.893,128.849 242.732 C 131.816 239.494,131.946 238.934,131.996 229.177 L 132.037 221.131 133.598 220.896 C 140.328 219.881,142.448 223.775,141.275 235.000 C 139.576 251.261,143.233 253.889,151.844 242.593 C 156.847 236.029,158.774 232.130,159.250 227.611 C 161.174 209.330,168.414 197.644,177.842 197.603 C 188.065 197.559,185.070 215.722,171.744 234.582 L 169.161 238.238 169.398 240.693 C 170.957 256.850,179.614 261.349,185.770 249.201 C 186.900 246.971,186.999 247.243,184.678 246.181 C 175.846 242.138,175.515 231.010,184.162 228.868 C 190.314 227.343,194.259 231.150,194.259 238.611 C 194.259 243.232,194.238 243.214,198.028 241.796 C 203.497 239.750,206.248 237.439,208.297 233.171 C 214.271 220.727,228.115 216.207,236.647 223.915 C 239.395 226.398,239.767 227.570,239.018 231.395 C 235.691 248.406,242.756 250.146,254.089 235.106 L 256.380 232.066 256.211 226.126 C 256.119 222.858,255.975 219.935,255.892 219.630 C 255.664 218.792,259.379 217.037,261.381 217.037 C 265.891 217.037,266.449 218.457,266.016 228.818 C 265.619 238.319,265.765 239.507,267.025 237.037 C 273.788 223.778,283.419 217.307,289.041 222.243 C 291.536 224.433,291.663 225.169,291.698 237.593 C 291.736 251.233,292.071 252.603,295.360 252.587 C 299.621 252.568,313.383 241.143,314.959 236.317 C 319.403 222.712,333.678 215.980,343.368 222.919 C 347.366 225.782,347.835 227.042,346.884 232.363 C 343.869 249.230,351.323 249.802,363.148 233.612 C 366.723 228.718,369.149 228.105,366.760 232.700 C 358.696 248.210,343.756 255.773,340.710 245.887 L 340.123 243.984 339.080 245.764 C 334.816 253.039,325.531 257.339,320.142 254.533 C 316.956 252.874,314.074 248.963,314.074 246.299 C 314.074 244.549,313.649 244.756,310.033 248.263 C 299.265 258.706,287.558 261.974,283.244 255.741 C 281.141 252.704,280.545 244.883,281.663 235.000 C 282.880 224.241,282.175 222.463,278.365 226.681 C 274.753 230.679,268.943 241.552,266.993 247.963 C 265.369 253.299,264.927 253.712,261.403 253.184 C 256.951 252.516,255.315 249.039,255.621 240.897 L 255.741 237.705 254.446 239.315 C 244.902 251.193,235.280 254.205,232.730 246.113 L 232.107 244.138 230.750 246.235 C 222.258 259.364,205.926 257.779,205.926 243.828 L 205.926 241.444 204.722 242.357 C 202.740 243.860,198.246 245.949,195.596 246.600 L 193.111 247.210 191.224 251.118 C 186.980 259.910,180.676 264.147,173.498 263.031 C 164.794 261.678,159.782 254.489,158.956 242.174 L 158.704 238.417 156.789 241.338 C 149.173 252.961,140.881 256.951,135.036 251.806 C 133.364 250.335,131.852 247.300,131.852 245.418 C 131.852 243.900,131.385 244.042,130.100 245.950 C 124.718 253.942,117.015 256.959,112.381 252.890 C 109.549 250.404,108.790 247.158,109.276 239.615 C 109.652 233.778,109.725 224.646,109.409 223.061 L 109.188 221.956 104.872 221.706 C 87.739 220.713,79.422 215.455,83.570 208.241 C 84.651 206.362,84.638 206.363,87.084 207.805 C 94.315 212.069,95.616 212.362,96.244 209.868 C 100.025 194.851,73.657 192.481,58.585 206.481 C 40.466 223.313,41.634 254.274,60.741 263.638 C 74.001 270.138,91.781 265.262,100.377 252.769 C 101.584 251.014,101.848 250.885,102.983 251.492 C 107.445 253.880,103.595 261.208,95.429 265.871 C 79.240 275.115,60.631 274.783,46.852 265.004 C 20.750 246.479,31.490 203.518,64.630 193.892 C 86.714 187.478,107.799 197.003,106.163 212.656 L 105.942 214.772 107.667 215.030 C 119.525 216.809,133.333 209.643,133.333 201.711 C 133.333 196.192,129.194 193.320,115.926 189.633 C 98.400 184.763,91.496 181.904,85.758 177.141 C 73.181 166.702,76.562 147.836,92.431 139.906 C 107.400 132.426,134.543 134.230,144.041 143.336 L 145.908 145.126 146.292 143.767 C 146.504 143.019,147.783 138.370,149.136 133.436 L 151.594 124.465 153.390 125.473 C 154.378 126.028,155.523 126.735,155.935 127.045 M220.089 138.379 C 226.033 141.453,223.304 153.154,211.724 174.237 C 208.590 179.943,208.484 180.437,209.430 184.899 C 212.270 198.299,220.467 195.901,234.398 177.593 L 237.216 173.889 237.430 171.042 C 237.980 163.689,247.790 158.539,254.907 161.865 C 257.868 163.249,254.552 166.497,249.687 166.978 C 247.248 167.220,247.221 167.235,247.108 168.399 C 246.876 170.795,250.396 175.257,254.310 177.525 C 254.541 177.660,256.158 177.100,257.904 176.282 C 261.548 174.574,267.110 172.523,269.824 171.885 C 271.422 171.509,271.903 171.166,273.228 169.454 C 280.812 159.652,294.781 158.616,300.610 167.423 L 301.588 168.901 300.926 172.876 C 298.048 190.171,304.513 191.459,316.231 175.926 C 319.829 171.156,319.861 171.125,321.019 171.117 C 322.227 171.109,322.068 171.744,320.007 175.173 C 310.273 191.369,297.497 196.807,294.260 186.132 C 294.069 185.502,293.947 185.571,293.274 186.687 C 282.914 203.888,262.693 196.534,268.818 177.794 C 269.248 176.478,269.551 175.354,269.492 175.294 C 269.292 175.094,264.242 176.933,260.655 178.513 L 257.092 180.082 258.185 181.591 C 264.839 190.777,253.638 202.835,241.111 199.971 C 233.344 198.195,234.446 191.766,243.806 184.259 L 245.191 183.148 242.087 180.147 L 238.983 177.146 236.626 180.485 C 230.912 188.582,222.730 195.747,216.468 198.139 C 207.596 201.527,200.466 195.154,199.041 182.561 C 198.748 179.967,198.664 179.937,197.222 181.904 C 189.688 192.183,178.664 194.969,176.648 187.103 L 176.175 185.258 174.816 187.351 C 166.084 200.806,149.804 199.030,149.866 184.630 C 149.942 166.725,169.755 154.454,180.879 165.421 C 183.399 167.905,183.760 168.940,183.126 171.852 C 181.242 180.510,182.350 186.667,185.792 186.667 C 189.695 186.667,198.519 177.779,198.519 173.847 C 198.519 154.887,211.317 133.843,220.089 138.379 M215.513 142.265 C 212.711 145.067,210.015 155.860,208.677 169.630 C 208.375 172.746,208.630 172.471,211.602 166.481 C 218.152 153.279,220.809 141.481,217.231 141.481 C 216.717 141.481,215.944 141.834,215.513 142.265 M169.427 165.485 C 161.213 170.646,156.244 190.730,163.522 189.351 C 167.383 188.620,176.432 171.954,175.337 167.592 C 174.767 165.321,171.527 164.166,169.427 165.485 M288.148 165.079 C 281.082 167.693,274.407 187.669,280.006 189.446 C 283.744 190.633,291.990 177.942,293.196 169.146 C 293.604 166.169,290.960 164.039,288.148 165.079 M245.556 187.549 C 239.979 191.997,239.076 197.870,244.242 196.094 C 247.912 194.833,249.788 190.703,248.231 187.314 L 247.593 185.924 245.556 187.549 M176.028 204.929 C 174.855 205.580,173.451 207.606,172.606 209.865 C 169.962 216.930,167.522 234.946,169.569 232.285 C 173.822 226.757,179.259 213.177,179.259 208.084 C 179.259 205.394,177.783 203.953,176.028 204.929 M225.741 224.133 C 216.827 229.034,211.809 252.265,220.667 247.624 C 224.816 245.450,232.222 230.512,231.279 226.218 C 230.848 224.256,227.684 223.065,225.741 224.133 M334.074 223.972 C 328.237 226.176,321.802 241.769,324.685 246.724 C 327.577 251.693,335.012 242.937,338.680 230.239 C 340.117 225.268,338.059 222.468,334.074 223.972 M183.948 231.872 C 181.545 233.762,181.846 237.421,184.633 240.208 C 187.728 243.303,188.591 242.996,188.816 238.721 C 189.149 232.366,187.059 229.425,183.948 231.872 M128.915 278.550 L 130.401 280.324 128.124 289.144 C 126.872 293.994,125.672 298.296,125.456 298.704 C 125.091 299.392,125.114 299.405,125.773 298.890 C 126.416 298.386,134.334 291.589,135.481 290.556 C 135.873 290.203,135.839 289.908,135.296 288.963 C 134.689 287.905,134.682 287.752,135.217 287.217 C 136.040 286.394,141.114 291.882,140.365 292.785 C 139.759 293.515,139.276 293.476,138.357 292.625 C 137.596 291.919,137.562 291.943,130.186 298.365 C 121.989 305.502,122.594 305.098,121.658 304.064 C 120.997 303.335,121.003 303.211,121.847 299.712 C 122.578 296.685,125.502 285.596,126.212 283.161 C 126.394 282.539,122.629 285.621,116.151 291.400 L 114.710 292.685 115.361 293.787 C 115.969 294.817,115.971 294.928,115.391 295.500 C 114.736 296.145,113.972 295.479,110.837 291.532 C 109.515 289.867,110.502 288.727,112.146 290.020 C 112.941 290.645,113.164 290.678,113.668 290.249 C 126.335 279.469,126.592 279.210,125.802 278.004 C 125.294 277.229,125.297 277.084,125.835 276.546 C 126.543 275.838,126.767 275.984,128.915 278.550 M230.716 279.661 C 217.123 296.823,193.114 297.317,176.863 280.770 C 174.375 278.236,174.483 278.065,177.620 279.577 C 194.538 287.733,211.932 288.088,226.725 280.577 C 232.257 277.768,232.206 277.779,230.716 279.661 M277.756 279.047 C 278.096 279.458,278.081 279.811,277.687 280.622 C 277.328 281.361,277.240 282.479,277.386 284.441 L 277.593 287.214 282.520 287.905 C 287.255 288.569,287.477 288.570,288.180 287.934 C 288.856 287.322,288.958 287.318,289.515 287.875 C 290.078 288.438,287.068 292.954,285.471 293.941 C 284.787 294.364,283.964 293.120,284.395 292.314 C 284.764 291.624,284.612 291.551,281.931 291.136 C 280.360 290.892,278.782 290.609,278.426 290.507 C 277.022 290.103,277.550 294.183,279.049 295.326 C 280.530 296.455,280.666 296.479,281.478 295.744 C 282.001 295.271,282.189 295.265,282.789 295.703 C 283.546 296.257,283.676 296.049,279.558 300.869 C 278.320 302.317,276.742 301.521,277.726 299.945 C 278.296 299.033,278.629 299.412,273.148 294.732 C 271.111 292.992,268.068 290.365,266.385 288.893 L 263.326 286.216 262.361 286.848 C 260.503 288.065,260.127 286.832,261.662 284.554 C 263.697 281.532,262.840 281.207,270.540 287.916 C 273.316 290.335,275.646 292.252,275.717 292.175 C 275.886 291.994,275.182 284.318,274.977 284.113 C 274.890 284.026,274.515 284.231,274.143 284.567 C 273.134 285.481,271.783 284.515,272.603 283.466 C 276.065 279.040,277.049 278.196,277.756 279.047 M264.252 296.134 C 265.670 297.994,264.798 299.222,262.751 298.246 C 260.664 297.251,258.129 299.140,258.669 301.288 C 259.009 302.644,260.354 302.815,263.451 301.897 C 273.459 298.931,276.088 307.950,266.527 312.453 L 264.630 313.346 263.426 311.982 C 261.633 309.949,262.482 307.991,264.533 309.428 C 266.915 311.096,270.967 308.012,269.445 305.689 C 268.716 304.578,267.057 304.592,262.960 305.744 C 255.420 307.863,253.355 300.558,260.211 296.019 C 262.511 294.495,263.013 294.510,264.252 296.134 M143.148 299.963 C 148.486 302.440,149.200 308.563,144.700 313.273 C 138.230 320.044,127.939 313.342,132.015 305.012 C 134.313 300.315,139.165 298.115,143.148 299.963 M139.429 302.171 C 135.551 304.536,133.098 310.264,134.997 312.521 C 137.155 315.087,140.708 313.388,143.281 308.560 C 145.781 303.871,143.324 299.796,139.429 302.171 M252.479 304.116 C 253.591 305.795,253.614 305.742,251.171 307.094 C 248.307 308.679,248.514 309.596,253.566 317.678 L 254.082 318.505 255.745 317.697 C 257.467 316.861,258.485 317.105,258.046 318.250 C 257.845 318.775,250.763 322.963,250.077 322.963 C 249.284 322.963,249.217 321.671,249.977 321.055 C 250.996 320.230,251.112 320.574,247.929 314.977 C 245.219 310.209,245.081 310.039,244.075 310.241 C 242.113 310.633,241.815 309.051,243.568 307.550 C 245.329 306.042,246.298 305.978,247.127 307.315 C 247.606 308.088,247.760 308.174,247.768 307.670 C 247.790 306.208,250.253 302.756,251.384 302.604 C 251.432 302.598,251.925 303.278,252.479 304.116 M234.803 306.019 C 235.312 306.933,235.312 307.141,234.803 308.056 C 233.672 310.087,230.741 309.247,230.741 306.891 C 230.741 304.759,233.743 304.114,234.803 306.019 M158.086 309.449 C 158.615 309.955,157.309 310.968,156.316 310.823 C 155.403 310.689,155.183 310.790,155.173 311.347 C 155.167 311.726,154.933 314.287,154.653 317.037 C 154.373 319.787,154.178 322.073,154.220 322.117 C 154.309 322.211,160.238 315.817,161.245 314.541 C 161.880 313.736,161.887 313.616,161.337 313.008 C 159.655 311.150,161.199 310.752,164.388 312.222 C 167.144 313.492,167.767 314.815,165.609 314.815 C 164.854 314.815,163.403 316.040,159.078 320.327 L 153.519 325.840 152.315 325.326 L 151.111 324.813 151.150 321.943 C 151.171 320.365,151.303 316.824,151.444 314.074 C 151.640 310.224,151.589 308.940,151.220 308.489 C 150.635 307.775,150.614 307.312,151.145 306.781 C 151.475 306.451,157.286 308.685,158.086 309.449 M215.868 310.278 C 216.054 310.634,216.575 312.555,217.025 314.547 L 217.843 318.168 219.113 317.052 C 223.695 313.030,229.855 316.841,230.309 323.979 C 230.678 329.775,226.946 333.280,220.239 333.437 C 217.596 333.499,218.055 334.467,215.519 323.461 C 214.306 318.196,213.229 313.615,213.126 313.280 C 212.997 312.864,212.561 312.688,211.747 312.725 C 209.661 312.818,210.161 311.504,212.593 310.503 C 215.082 309.478,215.437 309.454,215.868 310.278 M207.037 311.852 C 207.950 312.764,207.981 313.756,207.130 314.742 C 206.119 315.910,204.973 316.084,204.093 315.204 C 202.682 313.793,203.640 311.111,205.556 311.111 C 205.963 311.111,206.630 311.444,207.037 311.852 M239.424 317.906 L 242.005 324.517 243.196 324.323 C 244.321 324.141,244.815 324.511,244.815 325.537 C 244.815 325.954,237.807 328.580,237.387 328.321 C 236.714 327.905,237.045 326.782,237.963 326.364 L 238.889 325.942 238.261 324.360 C 234.521 314.943,234.548 314.996,233.527 315.072 C 232.658 315.137,231.347 313.646,231.884 313.204 C 235.867 309.927,236.451 310.291,239.424 317.906 M176.415 315.582 C 184.873 317.931,182.018 332.568,173.098 332.589 C 168.594 332.600,165.819 329.397,166.020 324.419 C 166.285 317.843,170.784 314.019,176.415 315.582 M171.869 318.500 C 169.258 321.295,168.880 329.207,171.313 330.140 C 174.868 331.504,177.550 328.010,177.580 321.975 C 177.601 317.602,174.481 315.704,171.869 318.500 M194.756 318.540 C 197.535 319.137,197.894 319.524,197.584 321.594 C 197.237 323.906,195.924 324.091,194.910 321.971 C 193.849 319.751,190.825 319.338,189.935 321.291 C 189.327 322.625,190.219 323.712,193.154 325.212 C 201.767 329.617,197.575 338.035,188.307 334.948 C 185.503 334.013,185.109 333.370,185.789 330.833 C 186.148 329.494,188.017 329.670,188.325 331.073 C 189.011 334.195,194.444 334.762,194.444 331.711 C 194.444 330.280,193.966 329.793,190.926 328.131 C 183.117 323.861,185.992 316.661,194.756 318.540 M207.679 318.611 C 207.968 318.980,208.915 329.649,208.894 332.291 C 208.890 332.727,209.254 332.951,210.093 333.032 C 211.002 333.120,211.324 333.345,211.411 333.955 C 211.536 334.835,211.334 334.887,205.833 335.387 L 203.333 335.615 203.333 334.650 C 203.333 333.869,203.550 333.642,204.472 333.457 C 205.585 333.235,205.606 333.191,205.408 331.522 C 205.297 330.583,205.096 328.001,204.963 325.783 C 204.721 321.771,204.714 321.750,203.656 321.350 C 201.762 320.635,202.161 319.059,204.352 318.602 C 206.832 318.085,207.268 318.087,207.679 318.611 M220.741 318.410 C 218.309 319.299,218.240 319.795,219.686 326.019 L 220.868 331.111 222.673 331.111 C 225.833 331.111,227.455 328.353,226.699 324.265 C 225.868 319.768,223.470 317.412,220.741 318.410 " stroke="none" fill="#fbfbfb" fill-rule="evenodd"></path><path id="path2" d="M181.521 64.869 C 174.927 65.656,167.318 70.946,163.333 77.513 C 161.876 79.915,162.203 79.886,157.929 77.993 C 142.240 71.046,127.269 77.684,125.145 92.529 C 123.958 100.821,127.565 106.261,138.359 112.464 C 141.604 114.329,151.502 120.036,160.353 125.147 L 176.447 134.439 177.061 133.423 C 177.398 132.864,179.973 128.407,182.784 123.519 C 185.594 118.630,190.982 109.296,194.756 102.778 C 198.530 96.259,201.916 90.146,202.279 89.192 C 207.186 76.327,195.939 63.149,181.521 64.869 M166.725 91.297 C 168.567 94.183,169.612 95.494,169.964 95.361 C 171.532 94.769,178.983 92.934,179.149 93.099 C 179.256 93.207,177.929 95.027,176.200 97.145 L 173.057 100.995 175.841 105.320 C 177.373 107.699,178.560 109.702,178.480 109.771 C 178.399 109.841,176.266 109.082,173.738 108.085 C 168.266 105.927,169.244 105.665,165.569 110.278 C 163.906 112.366,162.451 114.074,162.336 114.074 C 162.221 114.074,162.247 111.758,162.392 108.928 L 162.658 103.781 160.495 102.966 C 159.306 102.517,157.208 101.731,155.833 101.218 C 152.527 99.984,152.570 99.933,158.107 98.501 L 162.882 97.266 163.107 95.619 C 163.232 94.712,163.333 92.674,163.333 91.090 C 163.333 88.555,163.543 87.037,163.894 87.037 C 163.956 87.037,165.230 88.954,166.725 91.297 M125.996 276.767 C 125.678 277.150,125.720 277.478,126.169 278.119 C 126.898 279.159,126.995 279.052,118.889 286.058 L 113.148 291.019 112.132 290.301 C 111.113 289.581,110.360 289.660,110.383 290.485 C 110.411 291.486,114.742 295.760,115.236 295.274 C 115.622 294.895,115.591 294.605,115.071 293.725 L 114.432 292.642 120.417 287.424 C 127.089 281.606,127.043 281.627,125.978 284.884 C 123.590 292.184,121.215 303.196,121.858 303.990 C 122.481 304.760,122.570 304.697,129.932 298.310 C 138.116 291.210,137.594 291.550,138.717 292.605 C 140.133 293.935,140.745 292.592,139.436 291.026 C 136.476 287.486,135.894 286.973,135.346 287.428 C 134.885 287.810,134.911 288.031,135.534 289.039 L 136.255 290.206 130.876 294.825 C 124.503 300.298,124.667 300.210,125.555 297.683 C 127.341 292.601,130.053 280.606,129.605 279.769 C 128.708 278.092,126.453 276.217,125.996 276.767 M274.860 281.060 C 273.613 282.467,272.593 283.794,272.593 284.009 C 272.593 284.740,273.309 284.848,274.215 284.255 C 274.711 283.929,275.195 283.798,275.290 283.961 C 275.559 284.423,276.016 292.593,275.773 292.593 C 275.654 292.593,273.038 290.384,269.958 287.685 C 263.423 281.958,263.528 282.001,261.944 284.436 C 260.271 287.010,260.465 288.128,262.331 286.661 L 263.267 285.925 270.865 292.499 C 278.129 298.784,278.442 299.109,277.950 299.873 C 276.679 301.846,278.452 301.787,280.232 299.797 C 283.290 296.380,283.858 294.467,281.319 296.130 C 280.335 296.775,279.111 296.143,277.697 294.259 C 276.865 293.151,277.390 290.370,278.426 290.393 C 282.074 290.475,284.630 291.295,284.630 292.383 C 284.630 292.970,284.813 293.513,285.037 293.589 C 285.477 293.740,289.630 289.207,289.630 288.576 C 289.630 287.875,288.921 287.740,288.066 288.277 C 287.255 288.786,278.149 287.902,277.498 287.251 C 276.943 286.696,276.973 281.569,277.538 280.475 C 278.851 277.936,277.336 278.267,274.860 281.060 M261.296 295.578 C 253.052 299.985,255.577 308.172,264.259 305.185 C 266.948 304.260,268.589 304.240,269.387 305.122 C 271.477 307.431,267.490 311.329,264.619 309.783 C 262.385 308.580,261.569 309.890,263.407 311.728 L 264.757 313.078 266.810 312.074 C 271.771 309.646,273.588 305.135,270.712 302.380 C 269.295 301.022,266.886 300.974,263.056 302.229 L 260.371 303.108 259.352 302.350 C 256.683 300.365,259.994 296.559,262.994 298.165 C 264.675 299.065,265.341 297.708,263.979 296.156 L 262.778 294.787 261.296 295.578 M136.852 300.333 C 132.194 302.495,129.836 308.773,132.290 312.482 C 135.819 317.814,143.373 316.573,146.518 310.143 C 149.699 303.641,143.431 297.280,136.852 300.333 M143.732 302.564 C 145.360 304.192,145.089 306.175,142.730 309.897 C 138.397 316.733,131.427 314.089,135.031 306.976 C 137.518 302.067,141.312 300.144,143.732 302.564 M249.811 304.189 C 249.112 304.888,248.396 306.118,248.145 307.050 C 247.681 308.771,247.643 308.766,246.436 306.791 C 246.045 306.151,245.924 306.180,244.399 307.278 C 242.368 308.739,242.242 309.768,244.074 309.928 C 245.320 310.037,245.483 310.237,248.283 315.096 L 251.195 320.151 250.251 320.963 C 249.485 321.622,249.390 321.882,249.746 322.339 C 250.419 323.202,258.248 318.657,257.736 317.700 C 257.412 317.095,257.287 317.105,255.732 317.861 C 253.745 318.826,254.027 319.071,250.980 313.728 C 249.057 310.356,248.640 309.354,248.932 308.809 C 249.293 308.135,251.856 306.110,252.708 305.826 C 253.200 305.662,251.929 302.963,251.360 302.963 C 251.182 302.963,250.485 303.515,249.811 304.189 M231.934 305.391 C 229.919 306.803,231.836 310.083,233.889 308.738 C 235.413 307.739,234.723 304.815,232.963 304.815 C 232.850 304.815,232.387 305.074,231.934 305.391 M151.246 307.218 C 151.126 307.531,151.234 308.035,151.485 308.338 C 151.935 308.879,151.787 317.507,151.243 322.470 C 151.039 324.334,151.065 324.402,152.223 325.000 L 153.413 325.616 156.984 322.156 C 164.041 315.320,164.837 314.628,165.525 314.738 C 166.095 314.828,166.925 313.839,166.574 313.488 C 165.669 312.583,161.451 311.231,161.160 311.752 C 160.914 312.191,161.035 312.527,161.605 312.988 C 162.383 313.619,162.372 313.639,159.434 316.866 C 157.810 318.650,155.947 320.710,155.293 321.444 L 154.105 322.778 154.088 321.481 C 154.070 320.035,154.758 312.500,155.027 311.203 C 155.168 310.522,155.416 310.387,156.382 310.463 C 158.401 310.621,158.097 309.545,155.845 308.565 C 154.769 308.096,153.343 307.474,152.677 307.181 C 151.606 306.712,151.439 306.716,151.246 307.218 M212.593 310.716 C 210.478 311.572,210.136 312.593,211.964 312.593 L 213.242 312.593 214.070 316.204 C 214.525 318.190,215.595 322.815,216.448 326.481 L 217.997 333.148 220.873 333.102 C 228.065 332.988,231.762 327.710,229.473 320.825 C 227.769 315.700,222.887 314.109,219.090 317.443 L 217.823 318.556 217.431 317.148 C 217.216 316.374,216.761 314.449,216.420 312.870 C 215.717 309.616,215.547 309.520,212.593 310.716 M233.796 312.310 C 231.610 313.514,231.534 314.815,233.650 314.815 C 234.632 314.815,234.783 315.069,236.785 320.098 C 239.208 326.182,239.183 326.043,237.963 326.599 C 236.993 327.041,236.869 327.314,237.320 328.016 C 237.603 328.456,244.328 326.033,244.406 325.463 C 244.539 324.494,244.373 324.375,243.191 324.597 L 241.937 324.832 239.345 318.289 C 236.395 310.839,236.419 310.866,233.796 312.310 M204.148 311.926 C 203.904 312.170,203.704 312.887,203.704 313.519 C 203.704 315.498,205.513 316.294,206.794 314.878 C 208.076 313.462,207.354 311.481,205.556 311.481 C 205.026 311.481,204.393 311.681,204.148 311.926 M170.693 316.299 C 164.864 319.379,164.289 329.023,169.786 331.520 C 175.582 334.152,181.100 329.981,181.106 322.963 C 181.111 317.099,175.714 313.645,170.693 316.299 M176.480 317.870 C 179.676 320.627,177.049 330.741,173.137 330.741 C 169.799 330.741,168.507 327.489,169.829 322.414 C 171.076 317.626,173.934 315.674,176.480 317.870 M224.778 319.279 C 227.844 322.345,227.758 329.417,224.638 330.897 C 221.294 332.484,220.780 331.955,219.278 325.373 L 218.096 320.191 219.239 319.170 C 220.904 317.681,223.226 317.727,224.778 319.279 M188.962 319.115 C 184.978 321.155,186.065 325.265,191.343 328.121 C 194.101 329.613,195.064 330.807,194.695 332.277 C 194.030 334.927,188.640 334.088,188.146 331.257 C 187.767 329.080,185.926 329.545,185.926 331.818 C 185.926 334.404,186.996 334.988,191.751 334.995 C 198.684 335.005,200.094 329.545,194.062 326.049 C 189.861 323.614,189.822 323.579,189.693 322.234 C 189.543 320.661,190.312 320.000,192.293 320.000 C 193.781 320.000,195.185 320.995,195.185 322.049 C 195.185 322.623,196.617 323.384,197.130 323.083 C 197.949 322.600,197.394 319.742,196.389 319.270 C 194.699 318.475,190.387 318.385,188.962 319.115 M205.000 318.701 C 204.796 318.768,204.171 318.925,203.611 319.049 C 202.160 319.369,202.209 320.683,203.682 320.977 C 204.974 321.236,205.172 322.249,205.296 329.237 C 205.370 333.472,205.370 333.473,204.446 333.697 C 203.059 334.034,202.993 335.185,204.361 335.185 C 208.260 335.185,211.111 334.693,211.111 334.020 C 211.111 333.507,210.835 333.333,210.023 333.333 C 208.742 333.333,208.761 333.421,208.130 324.649 C 207.660 318.131,207.518 317.861,205.000 318.701 " stroke="none" fill="#df2028" fill-rule="evenodd"></path><path id="path3" d="M224.352 76.935 C 225.014 77.017,226.097 77.017,226.759 76.935 C 227.421 76.852,226.880 76.785,225.556 76.785 C 224.231 76.785,223.690 76.852,224.352 76.935 M232.315 76.932 C 232.875 77.017,233.792 77.017,234.352 76.932 C 234.912 76.847,234.454 76.778,233.333 76.778 C 232.213 76.778,231.755 76.847,232.315 76.932 M223.796 86.201 C 225.375 86.271,227.958 86.271,229.537 86.201 C 231.116 86.132,229.824 86.075,226.667 86.075 C 223.509 86.075,222.218 86.132,223.796 86.201 M217.500 86.552 C 217.856 86.645,218.440 86.645,218.796 86.552 C 219.153 86.458,218.861 86.382,218.148 86.382 C 217.435 86.382,217.144 86.458,217.500 86.552 M218.433 95.454 C 219.098 95.536,220.098 95.534,220.655 95.450 C 221.211 95.365,220.667 95.298,219.444 95.300 C 218.222 95.302,217.767 95.371,218.433 95.454 M227.875 95.451 C 228.438 95.536,229.272 95.534,229.727 95.446 C 230.183 95.358,229.722 95.288,228.704 95.291 C 227.685 95.294,227.312 95.366,227.875 95.451 M216.389 104.714 C 217.153 104.794,218.403 104.794,219.167 104.714 C 219.931 104.634,219.306 104.569,217.778 104.569 C 216.250 104.569,215.625 104.634,216.389 104.714 M223.426 104.714 C 224.190 104.794,225.440 104.794,226.204 104.714 C 226.968 104.634,226.343 104.569,224.815 104.569 C 223.287 104.569,222.662 104.634,223.426 104.714 M212.690 113.969 C 213.253 114.055,214.087 114.052,214.542 113.964 C 214.998 113.877,214.537 113.807,213.519 113.810 C 212.500 113.812,212.127 113.884,212.690 113.969 M223.431 113.969 C 223.994 114.055,224.827 114.052,225.283 113.964 C 225.738 113.877,225.278 113.807,224.259 113.810 C 223.241 113.812,222.868 113.884,223.431 113.969 M210.648 123.231 C 211.310 123.313,212.394 123.313,213.056 123.231 C 213.718 123.149,213.176 123.082,211.852 123.082 C 210.528 123.082,209.986 123.149,210.648 123.231 M220.093 123.228 C 220.653 123.313,221.569 123.313,222.130 123.228 C 222.690 123.143,222.231 123.074,221.111 123.074 C 219.991 123.074,219.532 123.143,220.093 123.228 M110.278 135.447 C 110.736 135.535,111.486 135.535,111.944 135.447 C 112.403 135.358,112.028 135.286,111.111 135.286 C 110.194 135.286,109.819 135.358,110.278 135.447 M119.167 135.447 C 119.625 135.535,120.375 135.535,120.833 135.447 C 121.292 135.358,120.917 135.286,120.000 135.286 C 119.083 135.286,118.708 135.358,119.167 135.447 M209.980 141.759 L 208.704 143.148 210.093 141.872 C 211.385 140.684,211.652 140.370,211.369 140.370 C 211.307 140.370,210.682 140.995,209.980 141.759 M116.759 140.996 C 117.116 141.089,117.699 141.089,118.056 140.996 C 118.412 140.903,118.120 140.827,117.407 140.827 C 116.694 140.827,116.403 140.903,116.759 140.996 M223.064 144.444 C 223.064 145.361,223.136 145.736,223.224 145.278 C 223.313 144.819,223.313 144.069,223.224 143.611 C 223.136 143.153,223.064 143.528,223.064 144.444 M92.390 147.870 L 90.926 149.444 92.500 147.980 C 93.964 146.619,94.244 146.296,93.964 146.296 C 93.904 146.296,93.195 147.005,92.390 147.870 M78.273 161.481 C 78.273 163.009,78.338 163.634,78.418 162.870 C 78.498 162.106,78.498 160.856,78.418 160.093 C 78.338 159.329,78.273 159.954,78.273 161.481 M170.463 161.366 C 170.819 161.460,171.403 161.460,171.759 161.366 C 172.116 161.273,171.824 161.197,171.111 161.197 C 170.398 161.197,170.106 161.273,170.463 161.366 M248.981 161.381 C 249.745 161.461,250.995 161.461,251.759 161.381 C 252.523 161.301,251.898 161.236,250.370 161.236 C 248.843 161.236,248.218 161.301,248.981 161.381 M288.056 161.372 C 288.514 161.461,289.264 161.461,289.722 161.372 C 290.181 161.284,289.806 161.212,288.889 161.212 C 287.972 161.212,287.597 161.284,288.056 161.372 M217.468 162.423 C 216.847 163.785,216.965 164.076,217.636 162.838 C 217.950 162.259,218.137 161.717,218.052 161.632 C 217.967 161.548,217.704 161.904,217.468 162.423 M298.889 165.741 C 299.580 166.454,300.229 167.037,300.330 167.037 C 300.432 167.037,299.950 166.454,299.259 165.741 C 298.568 165.028,297.920 164.444,297.818 164.444 C 297.716 164.444,298.198 165.028,298.889 165.741 M166.834 167.500 L 165.370 169.074 166.944 167.610 C 168.408 166.248,168.689 165.926,168.408 165.926 C 168.348 165.926,167.640 166.634,166.834 167.500 M274.815 167.593 C 273.915 168.509,273.262 169.259,273.364 169.259 C 273.466 169.259,274.286 168.509,275.185 167.593 C 276.085 166.676,276.738 165.926,276.636 165.926 C 276.534 165.926,275.714 166.676,274.815 167.593 M92.778 167.778 C 93.573 168.593,94.308 169.259,94.410 169.259 C 94.511 169.259,93.944 168.593,93.148 167.778 C 92.353 166.963,91.618 166.296,91.516 166.296 C 91.414 166.296,91.982 166.963,92.778 167.778 M247.111 167.111 C 246.867 167.356,246.689 168.064,246.715 168.685 C 246.764 169.806,246.766 169.805,246.993 168.519 C 247.216 167.257,247.277 167.216,249.259 167.005 L 251.296 166.787 249.426 166.727 C 248.385 166.693,247.359 166.864,247.111 167.111 M208.612 168.333 C 208.616 169.148,208.692 169.438,208.780 168.977 C 208.869 168.516,208.866 167.850,208.773 167.496 C 208.680 167.142,208.608 167.519,208.612 168.333 M213.889 169.630 C 213.573 170.241,213.398 170.741,213.499 170.741 C 213.601 170.741,213.943 170.241,214.259 169.630 C 214.575 169.019,214.751 168.519,214.649 168.519 C 214.547 168.519,214.205 169.019,213.889 169.630 M198.640 173.148 C 198.642 174.574,198.709 175.112,198.789 174.344 C 198.869 173.575,198.868 172.408,198.786 171.751 C 198.704 171.094,198.638 171.722,198.640 173.148 M98.889 172.034 C 98.889 172.287,101.157 173.411,101.326 173.242 C 101.406 173.161,100.891 172.819,100.181 172.480 C 99.470 172.141,98.889 171.940,98.889 172.034 M140.463 172.478 C 140.819 172.571,141.403 172.571,141.759 172.478 C 142.116 172.384,141.824 172.308,141.111 172.308 C 140.398 172.308,140.106 172.384,140.463 172.478 M83.704 175.370 C 84.395 176.083,85.043 176.667,85.145 176.667 C 85.247 176.667,84.765 176.083,84.074 175.370 C 83.383 174.657,82.734 174.074,82.632 174.074 C 82.531 174.074,83.013 174.657,83.704 175.370 M300.093 177.593 C 300.098 178.407,300.173 178.697,300.262 178.236 C 300.351 177.776,300.347 177.109,300.254 176.755 C 300.162 176.401,300.089 176.778,300.093 177.593 M181.963 180.000 C 181.963 181.120,182.032 181.579,182.117 181.019 C 182.202 180.458,182.202 179.542,182.117 178.981 C 182.032 178.421,181.963 178.880,181.963 180.000 M289.690 179.090 C 289.069 180.452,289.188 180.742,289.859 179.504 C 290.172 178.926,290.359 178.384,290.274 178.299 C 290.190 178.214,289.927 178.570,289.690 179.090 M240.370 178.634 C 240.370 178.698,240.912 179.240,241.574 179.838 L 242.778 180.926 241.690 179.722 C 240.676 178.600,240.370 178.348,240.370 178.634 M170.998 180.560 C 170.660 181.271,170.459 181.852,170.552 181.852 C 170.805 181.852,171.930 179.584,171.760 179.415 C 171.680 179.334,171.337 179.850,170.998 180.560 M208.612 180.556 C 208.616 181.370,208.692 181.660,208.780 181.199 C 208.869 180.739,208.866 180.072,208.773 179.718 C 208.680 179.364,208.608 179.741,208.612 180.556 M310.728 182.500 L 308.704 184.630 310.833 182.605 C 312.005 181.492,312.963 180.533,312.963 180.476 C 312.963 180.201,312.609 180.522,310.728 182.500 M92.222 181.293 C 92.222 181.546,94.490 182.671,94.659 182.501 C 94.740 182.421,94.224 182.078,93.514 181.739 C 92.803 181.400,92.222 181.199,92.222 181.293 M244.532 182.431 C 245.028 183.021,245.075 183.296,244.736 183.635 C 244.494 183.876,244.393 184.074,244.510 184.074 C 245.349 184.074,245.480 183.014,244.721 182.371 C 243.891 181.668,243.891 181.669,244.532 182.431 M267.864 182.963 C 267.864 183.676,267.940 183.968,268.033 183.611 C 268.126 183.255,268.126 182.671,268.033 182.315 C 267.940 181.958,267.864 182.250,267.864 182.963 M159.744 184.259 C 159.746 185.481,159.816 185.937,159.898 185.271 C 159.980 184.605,159.979 183.605,159.894 183.049 C 159.810 182.492,159.742 183.037,159.744 184.259 M193.879 185.278 L 191.296 187.963 193.981 185.380 C 195.458 183.960,196.667 182.752,196.667 182.695 C 196.667 182.423,196.278 182.784,193.879 185.278 M149.736 184.630 C 149.738 185.648,149.810 186.021,149.895 185.458 C 149.981 184.895,149.978 184.062,149.890 183.606 C 149.802 183.150,149.733 183.611,149.736 184.630 M228.680 184.537 L 227.593 185.741 228.796 184.653 C 229.458 184.055,230.000 183.513,230.000 183.449 C 230.000 183.163,229.694 183.415,228.680 184.537 M311.852 185.370 C 310.952 186.287,310.299 187.037,310.401 187.037 C 310.503 187.037,311.323 186.287,312.222 185.370 C 313.122 184.454,313.775 183.704,313.673 183.704 C 313.571 183.704,312.751 184.454,311.852 185.370 M231.643 186.389 L 230.556 187.593 231.759 186.505 C 232.421 185.906,232.963 185.365,232.963 185.301 C 232.963 185.015,232.657 185.267,231.643 186.389 M260.106 187.963 C 260.109 188.981,260.181 189.354,260.266 188.791 C 260.351 188.228,260.349 187.395,260.261 186.939 C 260.173 186.484,260.103 186.944,260.106 187.963 M185.278 186.922 C 185.634 187.015,186.218 187.015,186.574 186.922 C 186.931 186.829,186.639 186.753,185.926 186.753 C 185.213 186.753,184.921 186.829,185.278 186.922 M303.245 186.929 C 303.706 187.017,304.372 187.014,304.727 186.921 C 305.081 186.828,304.704 186.756,303.889 186.760 C 303.074 186.764,302.784 186.840,303.245 186.929 M139.630 189.444 C 140.321 190.157,140.969 190.741,141.071 190.741 C 141.173 190.741,140.691 190.157,140.000 189.444 C 139.309 188.731,138.660 188.148,138.558 188.148 C 138.457 188.148,138.939 188.731,139.630 189.444 M289.427 191.204 L 287.963 192.778 289.537 191.314 C 291.001 189.952,291.281 189.630,291.001 189.630 C 290.941 189.630,290.232 190.338,289.427 191.204 M226.458 191.574 L 225.370 192.778 226.574 191.690 C 227.236 191.092,227.778 190.550,227.778 190.486 C 227.778 190.200,227.472 190.452,226.458 191.574 M181.574 191.747 C 182.134 191.832,183.051 191.832,183.611 191.747 C 184.171 191.662,183.713 191.592,182.593 191.592 C 181.472 191.592,181.014 191.662,181.574 191.747 M299.727 191.747 C 300.290 191.832,301.124 191.830,301.579 191.742 C 302.035 191.654,301.574 191.585,300.556 191.587 C 299.537 191.590,299.164 191.662,299.727 191.747 M74.722 192.113 C 75.181 192.202,75.931 192.202,76.389 192.113 C 76.847 192.025,76.472 191.953,75.556 191.953 C 74.639 191.953,74.264 192.025,74.722 192.113 M82.134 192.114 C 82.595 192.202,83.261 192.199,83.615 192.106 C 83.970 192.014,83.593 191.941,82.778 191.945 C 81.963 191.949,81.673 192.025,82.134 192.114 M152.963 193.519 C 153.654 194.231,154.303 194.815,154.405 194.815 C 154.506 194.815,154.024 194.231,153.333 193.519 C 152.642 192.806,151.994 192.222,151.892 192.222 C 151.790 192.222,152.272 192.806,152.963 193.519 M236.019 194.630 C 236.023 195.444,236.099 195.734,236.188 195.273 C 236.276 194.813,236.273 194.146,236.180 193.792 C 236.088 193.438,236.015 193.815,236.019 194.630 M256.834 195.278 L 255.370 196.852 256.944 195.388 C 258.408 194.026,258.689 193.704,258.408 193.704 C 258.348 193.704,257.640 194.412,256.834 195.278 M80.278 197.310 C 81.347 197.385,83.097 197.385,84.167 197.310 C 85.236 197.235,84.361 197.174,82.222 197.174 C 80.083 197.174,79.208 197.235,80.278 197.310 M177.135 197.673 C 177.698 197.758,178.531 197.756,178.987 197.668 C 179.442 197.580,178.981 197.511,177.963 197.513 C 176.944 197.516,176.572 197.588,177.135 197.673 M100.926 199.630 C 101.722 200.444,102.456 201.111,102.558 201.111 C 102.660 201.111,102.092 200.444,101.296 199.630 C 100.501 198.815,99.766 198.148,99.664 198.148 C 99.563 198.148,100.130 198.815,100.926 199.630 M243.247 200.268 C 243.913 200.351,244.913 200.349,245.470 200.265 C 246.026 200.180,245.481 200.113,244.259 200.115 C 243.037 200.117,242.582 200.186,243.247 200.268 M133.427 201.667 C 133.431 202.481,133.507 202.771,133.595 202.310 C 133.684 201.850,133.681 201.183,133.588 200.829 C 133.495 200.475,133.423 200.852,133.427 201.667 M168.686 201.944 L 167.222 203.519 168.796 202.054 C 170.260 200.693,170.541 200.370,170.260 200.370 C 170.200 200.370,169.492 201.079,168.686 201.944 M45.185 205.370 C 43.668 206.898,42.509 208.148,42.611 208.148 C 42.713 208.148,44.038 206.898,45.556 205.370 C 47.073 203.843,48.231 202.593,48.130 202.593 C 48.028 202.593,46.703 203.843,45.185 205.370 M183.825 205.000 C 183.827 206.426,183.894 206.964,183.974 206.195 C 184.054 205.427,184.053 204.260,183.971 203.603 C 183.889 202.945,183.824 203.574,183.825 205.000 M57.211 207.500 L 55.000 209.815 57.315 207.604 C 58.588 206.388,59.630 205.347,59.630 205.289 C 59.630 205.016,59.264 205.350,57.211 207.500 M96.753 207.037 C 96.753 207.750,96.829 208.042,96.922 207.685 C 97.015 207.329,97.015 206.745,96.922 206.389 C 96.829 206.032,96.753 206.324,96.753 207.037 M164.056 208.554 C 163.630 209.389,163.345 210.135,163.423 210.213 C 163.500 210.291,163.927 209.608,164.370 208.696 C 165.379 206.618,165.106 206.495,164.056 208.554 M106.041 211.296 C 106.043 212.519,106.112 212.974,106.194 212.308 C 106.277 211.642,106.275 210.642,106.191 210.086 C 106.106 209.529,106.039 210.074,106.041 211.296 M110.463 215.450 C 111.023 215.535,111.940 215.535,112.500 215.450 C 113.060 215.366,112.602 215.296,111.481 215.296 C 110.361 215.296,109.903 215.366,110.463 215.450 M225.840 220.268 C 226.506 220.351,227.506 220.349,228.062 220.265 C 228.619 220.180,228.074 220.113,226.852 220.115 C 225.630 220.117,225.174 220.186,225.840 220.268 M333.988 220.268 C 334.654 220.351,335.654 220.349,336.210 220.265 C 336.767 220.180,336.222 220.113,335.000 220.115 C 333.778 220.117,333.322 220.186,333.988 220.268 M266.055 223.333 C 266.055 225.065,266.119 225.773,266.197 224.907 C 266.275 224.042,266.275 222.625,266.197 221.759 C 266.119 220.894,266.055 221.602,266.055 223.333 M283.796 220.626 C 284.153 220.719,284.736 220.719,285.093 220.626 C 285.449 220.533,285.157 220.456,284.444 220.456 C 283.731 220.456,283.440 220.533,283.796 220.626 M117.593 221.481 C 118.337 222.304,118.848 222.510,118.197 221.725 C 117.970 221.452,117.894 221.118,118.028 220.984 C 118.162 220.850,117.968 220.741,117.597 220.741 C 116.946 220.741,116.946 220.766,117.593 221.481 M133.981 221.002 C 134.440 221.090,135.190 221.090,135.648 221.002 C 136.106 220.914,135.731 220.842,134.815 220.842 C 133.898 220.842,133.523 220.914,133.981 221.002 M100.093 221.366 C 100.449 221.460,101.032 221.460,101.389 221.366 C 101.745 221.273,101.454 221.197,100.741 221.197 C 100.028 221.197,99.736 221.273,100.093 221.366 M106.550 221.747 C 108.836 221.864,109.235 221.987,109.377 222.614 C 109.509 223.194,109.533 223.172,109.494 222.506 C 109.447 221.716,109.283 221.665,106.667 221.639 L 103.889 221.611 106.550 221.747 M236.852 224.444 C 237.647 225.259,238.382 225.926,238.484 225.926 C 238.586 225.926,238.018 225.259,237.222 224.444 C 236.427 223.630,235.692 222.963,235.590 222.963 C 235.489 222.963,236.056 223.630,236.852 224.444 M256.428 226.481 C 256.427 228.315,256.489 229.112,256.567 228.252 C 256.645 227.392,256.646 225.892,256.569 224.919 C 256.492 223.945,256.429 224.648,256.428 226.481 M275.356 225.278 L 273.519 227.222 275.463 225.384 C 276.532 224.373,277.407 223.498,277.407 223.440 C 277.407 223.163,277.064 223.471,275.356 225.278 M132.357 227.593 C 132.358 229.630,132.421 230.416,132.496 229.339 C 132.571 228.263,132.570 226.596,132.494 225.636 C 132.418 224.675,132.357 225.556,132.357 227.593 M223.131 226.019 L 221.667 227.593 223.241 226.129 C 224.705 224.767,224.985 224.444,224.705 224.444 C 224.644 224.444,223.936 225.153,223.131 226.019 M278.680 226.019 L 277.593 227.222 278.796 226.134 C 279.458 225.536,280.000 224.994,280.000 224.931 C 280.000 224.645,279.694 224.896,278.680 226.019 M320.908 226.389 L 319.444 227.963 321.019 226.499 C 321.884 225.694,322.593 224.985,322.593 224.925 C 322.593 224.645,322.270 224.925,320.908 226.389 M109.768 229.074 C 109.769 231.315,109.830 232.184,109.904 231.005 C 109.977 229.826,109.977 227.993,109.902 226.931 C 109.828 225.869,109.767 226.833,109.768 229.074 M282.341 227.778 C 282.341 229.102,282.408 229.644,282.490 228.981 C 282.572 228.319,282.572 227.236,282.490 226.574 C 282.408 225.912,282.341 226.454,282.341 227.778 M141.592 229.259 C 141.592 230.380,141.662 230.838,141.747 230.278 C 141.832 229.718,141.832 228.801,141.747 228.241 C 141.662 227.681,141.592 228.139,141.592 229.259 M118.990 229.259 C 118.990 230.176,119.062 230.551,119.150 230.093 C 119.239 229.634,119.239 228.884,119.150 228.426 C 119.062 227.968,118.990 228.343,118.990 229.259 M185.463 228.780 C 185.921 228.868,186.671 228.868,187.130 228.780 C 187.588 228.692,187.213 228.619,186.296 228.619 C 185.380 228.619,185.005 228.692,185.463 228.780 M158.975 230.370 C 158.975 231.083,159.051 231.375,159.144 231.019 C 159.237 230.662,159.237 230.079,159.144 229.722 C 159.051 229.366,158.975 229.657,158.975 230.370 M168.587 231.389 C 168.512 233.911,168.553 234.006,169.307 233.077 C 169.610 232.704,169.636 232.558,169.372 232.716 C 169.056 232.906,168.889 232.421,168.792 231.028 L 168.656 229.074 168.587 231.389 M265.687 232.407 C 265.686 234.241,265.749 235.037,265.826 234.178 C 265.904 233.318,265.905 231.818,265.828 230.845 C 265.752 229.871,265.688 230.574,265.687 232.407 M32.308 232.963 C 32.308 233.676,32.384 233.968,32.478 233.611 C 32.571 233.255,32.571 232.671,32.478 232.315 C 32.384 231.958,32.308 232.250,32.308 232.963 M141.197 233.704 C 141.197 234.417,141.273 234.708,141.366 234.352 C 141.460 233.995,141.460 233.412,141.366 233.056 C 141.273 232.699,141.197 232.991,141.197 233.704 M118.619 234.444 C 118.619 235.361,118.692 235.736,118.780 235.278 C 118.868 234.819,118.868 234.069,118.780 233.611 C 118.692 233.153,118.619 233.528,118.619 234.444 M131.953 234.815 C 131.953 235.731,132.025 236.106,132.113 235.648 C 132.202 235.190,132.202 234.440,132.113 233.981 C 132.025 233.523,131.953 233.898,131.953 234.815 M189.013 237.407 C 189.013 238.935,189.079 239.560,189.159 238.796 C 189.239 238.032,189.239 236.782,189.159 236.019 C 189.079 235.255,189.013 235.880,189.013 237.407 M281.567 235.926 C 281.567 236.639,281.644 236.931,281.737 236.574 C 281.830 236.218,281.830 235.634,281.737 235.278 C 281.644 234.921,281.567 235.213,281.567 235.926 M177.879 236.667 C 177.879 237.583,177.951 237.958,178.039 237.500 C 178.127 237.042,178.127 236.292,178.039 235.833 C 177.951 235.375,177.879 235.750,177.879 236.667 M109.370 238.148 C 109.370 239.269,109.440 239.727,109.525 239.167 C 109.609 238.606,109.609 237.690,109.525 237.130 C 109.440 236.569,109.370 237.028,109.370 238.148 M140.827 237.407 C 140.827 238.120,140.903 238.412,140.996 238.056 C 141.089 237.699,141.089 237.116,140.996 236.759 C 140.903 236.403,140.827 236.694,140.827 237.407 M346.044 238.519 C 346.044 239.843,346.112 240.384,346.194 239.722 C 346.276 239.060,346.276 237.977,346.194 237.315 C 346.112 236.653,346.044 237.194,346.044 238.519 M270.722 238.184 C 270.297 239.019,270.012 239.765,270.089 239.843 C 270.167 239.920,270.593 239.237,271.036 238.325 C 272.046 236.248,271.773 236.125,270.722 238.184 M169.333 237.481 C 169.089 237.726,168.914 238.434,168.944 239.056 L 169.000 240.185 169.162 239.074 C 169.252 238.463,169.497 237.755,169.708 237.500 C 170.196 236.909,169.919 236.895,169.333 237.481 M265.606 238.241 C 265.549 239.823,265.719 239.967,266.320 238.844 C 266.575 238.368,266.591 238.151,266.360 238.294 C 266.150 238.424,265.906 238.152,265.818 237.691 C 265.717 237.165,265.638 237.370,265.606 238.241 M291.611 240.000 C 291.611 241.731,291.675 242.440,291.753 241.574 C 291.831 240.708,291.831 239.292,291.753 238.426 C 291.675 237.560,291.611 238.269,291.611 240.000 M254.965 238.234 C 254.421 238.872,254.405 238.949,254.894 238.570 C 255.482 238.116,255.538 238.348,255.656 241.725 L 255.784 245.370 255.812 241.389 C 255.827 239.199,255.802 237.407,255.755 237.407 C 255.709 237.407,255.353 237.780,254.965 238.234 M32.316 239.815 C 32.320 240.630,32.396 240.919,32.484 240.459 C 32.573 239.998,32.569 239.331,32.477 238.977 C 32.384 238.623,32.312 239.000,32.316 239.815 M281.212 240.000 C 281.212 240.917,281.284 241.292,281.372 240.833 C 281.461 240.375,281.461 239.625,281.372 239.167 C 281.284 238.708,281.212 239.083,281.212 240.000 M356.656 241.389 L 354.259 243.889 356.759 241.492 C 358.134 240.174,359.259 239.049,359.259 238.992 C 359.259 238.720,358.882 239.067,356.656 241.389 M118.249 240.741 C 118.249 241.657,118.321 242.032,118.410 241.574 C 118.498 241.116,118.498 240.366,118.410 239.907 C 118.321 239.449,118.249 239.824,118.249 240.741 M194.160 240.741 C 194.160 241.454,194.236 241.745,194.329 241.389 C 194.423 241.032,194.423 240.449,194.329 240.093 C 194.236 239.736,194.160 240.028,194.160 240.741 M309.806 243.056 L 306.852 246.111 309.907 243.157 C 312.745 240.413,313.132 240.000,312.862 240.000 C 312.806 240.000,311.431 241.375,309.806 243.056 M251.462 242.500 L 250.185 243.889 251.574 242.613 C 252.867 241.425,253.133 241.111,252.850 241.111 C 252.789 241.111,252.164 241.736,251.462 242.500 M158.982 242.778 C 158.986 243.593,159.062 243.882,159.151 243.422 C 159.239 242.961,159.236 242.294,159.143 241.940 C 159.051 241.586,158.978 241.963,158.982 242.778 M215.649 243.148 C 215.653 243.963,215.729 244.253,215.818 243.792 C 215.906 243.331,215.903 242.665,215.810 242.310 C 215.717 241.956,215.645 242.333,215.649 243.148 M127.778 243.889 C 126.878 244.806,126.225 245.556,126.327 245.556 C 126.429 245.556,127.249 244.806,128.148 243.889 C 129.048 242.972,129.701 242.222,129.599 242.222 C 129.497 242.222,128.677 242.972,127.778 243.889 M180.741 243.519 C 181.432 244.231,182.080 244.815,182.182 244.815 C 182.284 244.815,181.802 244.231,181.111 243.519 C 180.420 242.806,179.771 242.222,179.670 242.222 C 179.568 242.222,180.050 242.806,180.741 243.519 M357.778 244.259 C 356.878 245.176,356.225 245.926,356.327 245.926 C 356.429 245.926,357.249 245.176,358.148 244.259 C 359.048 243.343,359.701 242.593,359.599 242.593 C 359.497 242.593,358.677 243.343,357.778 244.259 M108.975 244.074 C 108.975 244.787,109.051 245.079,109.144 244.722 C 109.237 244.366,109.237 243.782,109.144 243.426 C 109.051 243.069,108.975 243.361,108.975 244.074 M248.499 245.463 L 247.222 246.852 248.611 245.575 C 249.904 244.387,250.170 244.074,249.887 244.074 C 249.826 244.074,249.201 244.699,248.499 245.463 M148.135 246.944 L 146.111 249.074 148.241 247.050 C 150.219 245.169,150.540 244.815,150.265 244.815 C 150.207 244.815,149.249 245.773,148.135 246.944 M222.384 246.389 L 221.296 247.593 222.500 246.505 C 223.162 245.906,223.704 245.365,223.704 245.301 C 223.704 245.015,223.398 245.267,222.384 246.389 M291.567 247.778 C 291.567 248.491,291.644 248.782,291.737 248.426 C 291.830 248.069,291.830 247.486,291.737 247.130 C 291.644 246.773,291.567 247.065,291.567 247.778 M121.393 247.299 C 121.854 247.388,122.521 247.384,122.875 247.292 C 123.229 247.199,122.852 247.126,122.037 247.130 C 121.222 247.135,120.932 247.210,121.393 247.299 M281.197 248.519 C 281.197 249.231,281.273 249.523,281.366 249.167 C 281.460 248.810,281.460 248.227,281.366 247.870 C 281.273 247.514,281.197 247.806,281.197 248.519 M335.353 250.093 L 333.889 251.667 335.463 250.203 C 336.927 248.841,337.207 248.519,336.927 248.519 C 336.867 248.519,336.158 249.227,335.353 250.093 M126.094 250.463 L 124.630 252.037 126.204 250.573 C 127.668 249.211,127.948 248.889,127.668 248.889 C 127.607 248.889,126.899 249.597,126.094 250.463 M237.870 250.626 C 238.227 250.719,238.810 250.719,239.167 250.626 C 239.523 250.533,239.231 250.456,238.519 250.456 C 237.806 250.456,237.514 250.533,237.870 250.626 M346.019 250.626 C 346.375 250.719,346.958 250.719,347.315 250.626 C 347.671 250.533,347.380 250.456,346.667 250.456 C 345.954 250.456,345.662 250.533,346.019 250.626 M293.450 252.315 C 293.838 252.671,294.596 252.946,295.134 252.925 C 296.030 252.890,296.011 252.863,294.910 252.602 C 294.249 252.445,293.491 252.170,293.226 251.992 C 292.960 251.813,293.061 251.958,293.450 252.315 M261.759 253.224 C 262.218 253.313,262.968 253.313,263.426 253.224 C 263.884 253.136,263.509 253.064,262.593 253.064 C 261.676 253.064,261.301 253.136,261.759 253.224 M140.098 253.969 C 140.661 254.055,141.494 254.052,141.950 253.964 C 142.405 253.877,141.944 253.807,140.926 253.810 C 139.907 253.812,139.535 253.884,140.098 253.969 M116.574 254.706 C 117.032 254.794,117.782 254.794,118.241 254.706 C 118.699 254.618,118.324 254.545,117.407 254.545 C 116.491 254.545,116.116 254.618,116.574 254.706 M215.648 255.450 C 216.208 255.535,217.125 255.535,217.685 255.450 C 218.245 255.366,217.787 255.296,216.667 255.296 C 215.546 255.296,215.088 255.366,215.648 255.450 M323.801 255.451 C 324.364 255.536,325.198 255.534,325.653 255.446 C 326.109 255.358,325.648 255.288,324.630 255.291 C 323.611 255.294,323.238 255.366,323.801 255.451 M176.949 256.558 C 177.409 256.647,178.076 256.643,178.430 256.551 C 178.784 256.458,178.407 256.386,177.593 256.390 C 176.778 256.394,176.488 256.470,176.949 256.558 M53.889 258.889 C 54.892 259.907,55.796 260.741,55.898 260.741 C 56.000 260.741,55.262 259.907,54.259 258.889 C 53.256 257.870,52.352 257.037,52.250 257.037 C 52.148 257.037,52.886 257.870,53.889 258.889 M288.418 258.786 C 289.075 258.868,290.242 258.869,291.010 258.789 C 291.779 258.709,291.241 258.642,289.815 258.640 C 288.389 258.638,287.760 258.704,288.418 258.786 M174.907 263.228 C 175.468 263.313,176.384 263.313,176.944 263.228 C 177.505 263.143,177.046 263.074,175.926 263.074 C 174.806 263.074,174.347 263.143,174.907 263.228 M67.319 272.484 C 67.780 272.573,68.447 272.569,68.801 272.477 C 69.155 272.384,68.778 272.312,67.963 272.316 C 67.148 272.320,66.858 272.396,67.319 272.484 M177.212 281.078 C 178.633 282.522,179.878 283.704,179.978 283.704 C 180.079 283.704,179.167 282.698,177.951 281.470 C 176.736 280.241,175.791 279.116,175.853 278.970 C 175.915 278.823,175.665 278.647,175.297 278.578 C 174.917 278.506,175.740 279.581,177.212 281.078 M202.328 286.200 C 203.507 286.274,205.340 286.273,206.402 286.199 C 207.464 286.124,206.500 286.064,204.259 286.064 C 202.019 286.065,201.150 286.126,202.328 286.200 M202.315 292.865 C 203.282 292.941,204.866 292.941,205.833 292.865 C 206.801 292.789,206.009 292.726,204.074 292.726 C 202.139 292.726,201.347 292.789,202.315 292.865 " stroke="none" fill="#99c0de" fill-rule="evenodd"></path><path id="path4" d="M181.389 64.706 C 181.847 64.794,182.597 64.794,183.056 64.706 C 183.514 64.618,183.139 64.545,182.222 64.545 C 181.306 64.545,180.931 64.618,181.389 64.706 M185.097 64.706 C 185.558 64.795,186.224 64.792,186.578 64.699 C 186.932 64.606,186.556 64.534,185.741 64.538 C 184.926 64.542,184.636 64.618,185.097 64.706 M197.963 70.370 C 198.966 71.389,199.870 72.222,199.972 72.222 C 200.074 72.222,199.337 71.389,198.333 70.370 C 197.330 69.352,196.426 68.519,196.324 68.519 C 196.222 68.519,196.960 69.352,197.963 70.370 M167.579 71.944 L 165.741 73.889 167.685 72.051 C 168.755 71.040,169.630 70.165,169.630 70.107 C 169.630 69.830,169.287 70.138,167.579 71.944 M143.796 75.087 C 144.764 75.163,146.347 75.163,147.315 75.087 C 148.282 75.011,147.491 74.948,145.556 74.948 C 143.620 74.948,142.829 75.011,143.796 75.087 M203.419 84.815 C 203.419 85.528,203.495 85.819,203.589 85.463 C 203.682 85.106,203.682 84.523,203.589 84.167 C 203.495 83.810,203.419 84.102,203.419 84.815 M163.452 90.000 C 163.452 91.324,163.519 91.866,163.601 91.204 C 163.683 90.542,163.683 89.458,163.601 88.796 C 163.519 88.134,163.452 88.676,163.452 90.000 M178.441 93.213 C 178.832 93.370,178.832 93.517,178.441 94.017 C 178.014 94.564,178.032 94.575,178.611 94.121 C 178.968 93.842,179.259 93.467,179.259 93.288 C 179.259 93.109,178.968 92.976,178.611 92.992 C 178.199 93.011,178.137 93.091,178.441 93.213 M163.049 96.296 C 163.049 97.009,163.125 97.301,163.218 96.944 C 163.311 96.588,163.311 96.005,163.218 95.648 C 163.125 95.292,163.049 95.583,163.049 96.296 M197.593 97.778 C 197.277 98.389,197.101 98.889,197.203 98.889 C 197.305 98.889,197.647 98.389,197.963 97.778 C 198.279 97.167,198.454 96.667,198.352 96.667 C 198.251 96.667,197.909 97.167,197.593 97.778 M162.099 103.586 C 162.338 103.756,162.609 104.477,162.702 105.188 C 162.865 106.427,162.870 106.420,162.825 105.029 C 162.794 104.080,162.585 103.524,162.222 103.426 C 161.843 103.324,161.804 103.375,162.099 103.586 M129.630 106.852 C 130.321 107.565,130.969 108.148,131.071 108.148 C 131.173 108.148,130.691 107.565,130.000 106.852 C 129.309 106.139,128.660 105.556,128.558 105.556 C 128.457 105.556,128.939 106.139,129.630 106.852 M162.343 111.397 C 162.331 113.996,162.355 114.069,163.017 113.469 C 163.825 112.739,163.951 112.297,163.166 112.948 C 162.707 113.329,162.608 113.050,162.491 111.049 L 162.355 108.704 162.343 111.397 M189.444 111.852 C 189.128 112.463,188.953 112.963,189.055 112.963 C 189.157 112.963,189.499 112.463,189.815 111.852 C 190.131 111.241,190.306 110.741,190.204 110.741 C 190.102 110.741,189.760 111.241,189.444 111.852 M157.778 123.870 C 157.778 123.972,158.278 124.314,158.889 124.630 C 159.500 124.946,160.000 125.121,160.000 125.019 C 160.000 124.917,159.500 124.575,158.889 124.259 C 158.278 123.943,157.778 123.768,157.778 123.870 M178.333 131.111 C 178.017 131.722,177.842 132.222,177.944 132.222 C 178.046 132.222,178.388 131.722,178.704 131.111 C 179.020 130.500,179.195 130.000,179.093 130.000 C 178.991 130.000,178.649 130.500,178.333 131.111 M125.774 276.630 C 125.267 277.191,125.236 277.391,125.624 277.615 C 125.892 277.770,125.988 277.760,125.837 277.593 C 124.817 276.468,126.529 276.370,127.744 277.484 L 129.074 278.704 127.798 277.315 C 126.295 275.679,126.555 275.767,125.774 276.630 M124.236 281.204 L 123.148 282.407 124.352 281.320 C 125.474 280.306,125.726 280.000,125.440 280.000 C 125.376 280.000,124.834 280.542,124.236 281.204 M121.643 283.426 L 120.556 284.630 121.759 283.542 C 122.881 282.528,123.133 282.222,122.847 282.222 C 122.783 282.222,122.242 282.764,121.643 283.426 M277.148 284.074 C 277.148 285.194,277.217 285.653,277.302 285.093 C 277.387 284.532,277.387 283.616,277.302 283.056 C 277.217 282.495,277.148 282.954,277.148 284.074 M275.167 285.287 C 275.347 286.813,275.355 286.821,275.481 285.601 C 275.552 284.913,275.468 284.209,275.296 284.037 C 275.123 283.864,275.065 284.427,275.167 285.287 M121.643 286.389 L 120.556 287.593 121.759 286.505 C 122.881 285.491,123.133 285.185,122.847 285.185 C 122.783 285.185,122.242 285.727,121.643 286.389 M116.088 288.241 L 115.000 289.444 116.204 288.357 C 117.326 287.343,117.578 287.037,117.292 287.037 C 117.228 287.037,116.686 287.579,116.088 288.241 M288.101 288.056 C 287.634 288.651,287.648 288.660,288.281 288.162 C 288.895 287.679,289.025 287.697,289.485 288.326 C 289.768 288.713,290.000 288.865,290.000 288.663 C 290.000 287.548,288.800 287.164,288.101 288.056 M275.641 290.000 C 275.641 290.713,275.718 291.005,275.811 290.648 C 275.904 290.292,275.904 289.708,275.811 289.352 C 275.718 288.995,275.641 289.287,275.641 290.000 M139.602 291.193 C 140.361 292.064,140.412 292.290,139.982 292.860 C 139.507 293.489,139.517 293.489,140.195 292.868 C 140.890 292.230,140.882 292.197,139.814 291.201 L 138.725 290.185 139.602 291.193 M274.340 291.489 C 274.995 292.177,275.595 292.665,275.671 292.574 C 275.748 292.482,275.212 291.920,274.479 291.323 L 273.148 290.239 274.340 291.489 M277.518 292.222 C 277.518 293.343,277.588 293.801,277.673 293.241 C 277.758 292.681,277.758 291.764,277.673 291.204 C 277.588 290.644,277.518 291.102,277.518 292.222 M133.495 292.315 L 132.407 293.519 133.611 292.431 C 134.733 291.417,134.985 291.111,134.699 291.111 C 134.635 291.111,134.094 291.653,133.495 292.315 M270.370 292.407 C 271.061 293.120,271.710 293.704,271.812 293.704 C 271.914 293.704,271.432 293.120,270.741 292.407 C 270.050 291.694,269.401 291.111,269.299 291.111 C 269.197 291.111,269.679 291.694,270.370 292.407 M285.987 293.056 C 285.157 293.875,285.133 293.877,284.608 293.170 C 284.314 292.775,284.074 292.629,284.074 292.847 C 284.074 294.001,285.230 294.198,286.217 293.211 C 286.760 292.667,287.121 292.222,287.018 292.222 C 286.915 292.222,286.451 292.597,285.987 293.056 M133.495 295.278 L 132.407 296.481 133.611 295.394 C 134.733 294.380,134.985 294.074,134.699 294.074 C 134.635 294.074,134.094 294.616,133.495 295.278 M113.961 295.168 C 114.780 296.056,115.926 295.783,115.926 294.699 C 115.926 294.481,115.691 294.624,115.404 295.017 C 114.889 295.722,114.870 295.722,114.015 295.009 L 113.148 294.287 113.961 295.168 M127.940 297.130 L 126.852 298.333 128.056 297.246 C 129.178 296.232,129.430 295.926,129.143 295.926 C 129.080 295.926,128.538 296.468,127.940 297.130 M258.128 297.685 L 256.852 299.074 258.241 297.798 C 259.533 296.610,259.800 296.296,259.517 296.296 C 259.455 296.296,258.830 296.921,258.128 297.685 M125.500 297.778 C 125.469 297.981,125.428 298.356,125.407 298.611 C 125.387 298.866,125.204 299.197,125.000 299.346 C 124.763 299.520,124.780 299.620,125.047 299.624 C 125.277 299.627,125.694 299.348,125.973 299.003 C 126.394 298.484,126.395 298.428,125.979 298.679 C 125.595 298.910,125.535 298.796,125.726 298.195 C 125.863 297.762,125.881 297.407,125.766 297.407 C 125.650 297.407,125.531 297.574,125.500 297.778 M280.903 298.981 L 279.815 300.185 281.019 299.097 C 281.681 298.499,282.222 297.957,282.222 297.894 C 282.222 297.608,281.917 297.859,280.903 298.981 M258.916 299.124 C 258.111 300.147,257.915 301.293,258.484 301.645 C 258.669 301.759,258.729 301.507,258.619 301.085 C 258.497 300.620,258.734 299.891,259.220 299.233 C 260.218 297.884,259.963 297.792,258.916 299.124 M127.940 300.093 L 126.852 301.296 128.056 300.208 C 129.178 299.194,129.430 298.889,129.143 298.889 C 129.080 298.889,128.538 299.431,127.940 300.093 M139.357 299.525 C 139.920 299.610,140.753 299.608,141.209 299.520 C 141.664 299.432,141.204 299.362,140.185 299.365 C 139.167 299.368,138.794 299.440,139.357 299.525 M134.054 302.130 L 132.778 303.519 134.167 302.242 C 135.459 301.054,135.726 300.741,135.443 300.741 C 135.381 300.741,134.756 301.366,134.054 302.130 M256.012 301.852 C 256.012 302.565,256.088 302.856,256.181 302.500 C 256.274 302.144,256.274 301.560,256.181 301.204 C 256.088 300.847,256.012 301.139,256.012 301.852 M277.870 301.303 C 278.508 301.999,278.529 301.999,279.167 301.303 C 279.784 300.630,279.784 300.619,279.167 301.084 C 278.630 301.488,278.407 301.488,277.870 301.084 C 277.253 300.619,277.253 300.630,277.870 301.303 M124.977 302.685 L 123.889 303.889 125.093 302.801 C 126.215 301.787,126.467 301.481,126.180 301.481 C 126.117 301.481,125.575 302.023,124.977 302.685 M137.569 303.426 L 136.481 304.630 137.685 303.542 C 138.807 302.528,139.059 302.222,138.773 302.222 C 138.709 302.222,138.168 302.764,137.569 303.426 M256.296 303.577 C 256.296 303.780,256.755 304.349,257.315 304.843 L 258.333 305.741 257.407 304.630 C 256.898 304.019,256.440 303.449,256.389 303.364 C 256.338 303.279,256.296 303.375,256.296 303.577 M144.530 304.815 C 144.530 305.528,144.607 305.819,144.700 305.463 C 144.793 305.106,144.793 304.523,144.700 304.167 C 144.607 303.810,144.530 304.102,144.530 304.815 M267.309 304.715 C 268.389 304.813,269.051 305.106,269.438 305.659 C 269.747 306.100,270.000 306.283,270.000 306.066 C 270.000 305.208,268.624 304.445,267.193 304.509 L 265.741 304.574 267.309 304.715 M147.513 306.481 C 147.516 307.500,147.588 307.873,147.673 307.310 C 147.758 306.747,147.756 305.913,147.668 305.458 C 147.580 305.002,147.511 305.463,147.513 306.481 M231.324 305.525 C 230.952 305.936,230.750 306.599,230.846 307.099 C 230.997 307.893,231.014 307.882,231.061 306.965 C 231.089 306.397,231.465 305.720,231.934 305.391 C 232.387 305.074,232.579 304.815,232.362 304.815 C 232.145 304.815,231.677 305.134,231.324 305.525 M252.778 305.589 C 252.574 305.791,252.074 306.207,251.667 306.515 C 251.050 306.979,251.128 306.975,252.130 306.490 C 252.792 306.169,253.333 305.745,253.333 305.546 C 253.333 305.109,253.256 305.115,252.778 305.589 M259.912 306.188 C 260.372 306.276,261.039 306.273,261.393 306.180 C 261.747 306.088,261.370 306.015,260.556 306.019 C 259.741 306.023,259.451 306.099,259.912 306.188 M151.156 306.770 C 150.562 307.364,150.642 307.980,151.389 308.566 C 151.975 309.026,151.989 309.013,151.533 308.431 C 150.909 307.636,151.241 306.598,152.023 306.898 C 152.336 307.018,152.593 307.033,152.593 306.931 C 152.593 306.505,151.539 306.386,151.156 306.770 M249.749 307.870 C 249.337 308.329,248.867 308.954,248.704 309.259 C 248.392 309.849,248.477 309.768,249.978 308.056 C 250.468 307.495,250.787 307.037,250.685 307.037 C 250.583 307.037,250.162 307.412,249.749 307.870 M270.395 309.359 C 269.340 310.659,269.298 310.768,270.151 310.000 C 271.037 309.202,272.089 307.764,271.772 307.784 C 271.714 307.788,271.094 308.496,270.395 309.359 M151.606 312.222 C 151.606 313.750,151.671 314.375,151.751 313.611 C 151.831 312.847,151.831 311.597,151.751 310.833 C 151.671 310.069,151.606 310.694,151.606 312.222 M140.903 311.944 L 139.815 313.148 141.019 312.060 C 142.141 311.046,142.392 310.741,142.106 310.741 C 142.043 310.741,141.501 311.282,140.903 311.944 M144.467 313.072 C 142.911 314.897,142.897 314.931,144.220 313.704 C 145.391 312.616,146.591 311.069,146.217 311.128 C 146.159 311.137,145.371 312.012,144.467 313.072 M154.901 312.222 C 154.901 312.935,154.977 313.227,155.070 312.870 C 155.163 312.514,155.163 311.931,155.070 311.574 C 154.977 311.218,154.901 311.509,154.901 312.222 M210.495 311.692 C 210.202 312.456,210.856 313.078,211.720 312.855 C 212.261 312.716,212.220 312.669,211.531 312.636 C 210.845 312.602,210.696 312.432,210.848 311.852 C 211.077 310.976,210.815 310.857,210.495 311.692 M234.352 311.693 C 232.967 312.444,233.052 312.757,234.444 312.037 C 235.056 311.721,235.556 311.383,235.556 311.287 C 235.556 311.048,235.516 311.062,234.352 311.693 M161.460 313.063 C 161.881 313.620,161.852 313.840,161.269 314.544 L 160.583 315.370 161.483 314.539 C 162.367 313.722,162.371 313.695,161.675 313.057 C 160.999 312.437,160.989 312.437,161.460 313.063 M136.759 313.959 C 137.116 314.052,137.699 314.052,138.056 313.959 C 138.412 313.866,138.120 313.790,137.407 313.790 C 136.694 313.790,136.403 313.866,136.759 313.959 M154.530 315.926 C 154.530 316.639,154.607 316.931,154.700 316.574 C 154.793 316.218,154.793 315.634,154.700 315.278 C 154.607 314.921,154.530 315.213,154.530 315.926 M173.241 315.447 C 173.699 315.535,174.449 315.535,174.907 315.447 C 175.366 315.358,174.991 315.286,174.074 315.286 C 173.157 315.286,172.782 315.358,173.241 315.447 M252.407 316.296 C 252.723 316.907,253.065 317.407,253.167 317.407 C 253.269 317.407,253.094 316.907,252.778 316.296 C 252.462 315.685,252.120 315.185,252.018 315.185 C 251.916 315.185,252.091 315.685,252.407 316.296 M220.185 316.245 C 219.574 316.622,218.743 317.330,218.339 317.817 C 217.715 318.571,217.770 318.554,218.709 317.706 C 219.317 317.157,220.398 316.455,221.111 316.146 C 221.824 315.837,222.157 315.579,221.852 315.571 C 221.546 315.564,220.796 315.867,220.185 316.245 M157.778 318.333 C 156.878 319.250,156.225 320.000,156.327 320.000 C 156.429 320.000,157.249 319.250,158.148 318.333 C 159.048 317.417,159.701 316.667,159.599 316.667 C 159.497 316.667,158.677 317.417,157.778 318.333 M173.796 317.292 C 174.153 317.386,174.736 317.386,175.093 317.292 C 175.449 317.199,175.157 317.123,174.444 317.123 C 173.731 317.123,173.440 317.199,173.796 317.292 M151.230 320.000 C 151.230 321.324,151.297 321.866,151.379 321.204 C 151.461 320.542,151.461 319.458,151.379 318.796 C 151.297 318.134,151.230 318.676,151.230 320.000 M180.236 318.704 C 181.093 320.166,181.111 320.188,181.111 319.732 C 181.111 319.517,180.768 318.948,180.348 318.467 L 179.586 317.593 180.236 318.704 M191.389 318.410 C 191.847 318.498,192.597 318.498,193.056 318.410 C 193.514 318.321,193.139 318.249,192.222 318.249 C 191.306 318.249,190.931 318.321,191.389 318.410 M206.667 318.478 C 207.427 318.688,207.632 319.029,207.815 320.385 L 208.037 322.037 208.093 320.537 C 208.154 318.876,207.649 318.129,206.500 318.185 C 205.865 318.216,205.892 318.264,206.667 318.478 M154.167 319.815 C 154.172 320.630,154.247 320.919,154.336 320.459 C 154.425 319.998,154.421 319.331,154.329 318.977 C 154.236 318.623,154.163 319.000,154.167 319.815 M218.914 319.418 C 218.449 319.913,218.157 320.538,218.264 320.807 C 218.416 321.187,218.467 321.177,218.489 320.765 C 218.505 320.472,218.881 319.847,219.324 319.376 C 219.767 318.904,220.046 318.519,219.944 318.519 C 219.842 318.519,219.379 318.923,218.914 319.418 M156.659 322.500 L 153.148 326.111 156.759 322.600 C 160.113 319.339,160.539 318.889,160.270 318.889 C 160.216 318.889,158.591 320.514,156.659 322.500 M196.574 319.341 C 197.093 319.591,197.426 320.105,197.458 320.705 L 197.508 321.667 197.678 320.761 C 197.846 319.867,197.003 318.858,196.133 318.914 C 195.917 318.928,196.116 319.120,196.574 319.341 M181.230 322.963 C 181.230 324.287,181.297 324.829,181.379 324.167 C 181.461 323.505,181.461 322.421,181.379 321.759 C 181.297 321.097,181.230 321.639,181.230 322.963 M204.916 324.444 C 204.916 325.361,204.988 325.736,205.076 325.278 C 205.164 324.819,205.164 324.069,205.076 323.611 C 204.988 323.153,204.916 323.528,204.916 324.444 M208.254 325.370 C 208.257 326.389,208.329 326.762,208.414 326.199 C 208.499 325.636,208.497 324.802,208.409 324.347 C 208.321 323.891,208.251 324.352,208.254 325.370 M169.370 325.926 C 169.370 327.046,169.440 327.505,169.525 326.944 C 169.609 326.384,169.609 325.468,169.525 324.907 C 169.440 324.347,169.370 324.806,169.370 325.926 M195.321 326.709 C 195.905 327.162,196.696 328.046,197.079 328.674 C 197.462 329.301,197.776 329.619,197.776 329.380 C 197.778 328.761,195.993 326.721,195.053 326.268 C 194.557 326.029,194.658 326.194,195.321 326.709 M229.005 328.919 C 228.565 329.722,228.360 330.283,228.550 330.166 C 228.960 329.912,230.109 327.763,229.930 327.584 C 229.861 327.515,229.445 328.116,229.005 328.919 M205.291 329.815 C 205.294 330.833,205.366 331.206,205.451 330.643 C 205.536 330.080,205.534 329.247,205.446 328.791 C 205.358 328.336,205.288 328.796,205.291 329.815 M208.619 330.370 C 208.619 331.287,208.692 331.662,208.780 331.204 C 208.868 330.745,208.868 329.995,208.780 329.537 C 208.692 329.079,208.619 329.454,208.619 330.370 M172.315 330.626 C 172.671 330.719,173.255 330.719,173.611 330.626 C 173.968 330.533,173.676 330.456,172.963 330.456 C 172.250 330.456,171.958 330.533,172.315 330.626 M185.615 332.241 C 185.557 333.517,186.061 334.444,186.812 334.444 C 187.013 334.444,186.906 334.236,186.573 333.981 C 186.240 333.727,185.901 332.935,185.821 332.222 L 185.674 330.926 185.615 332.241 M188.177 331.517 C 188.161 331.842,188.523 332.425,188.981 332.813 C 189.808 333.513,189.810 333.512,189.215 332.778 C 188.885 332.370,188.523 331.787,188.411 331.481 C 188.238 331.010,188.202 331.015,188.177 331.517 M221.764 331.373 C 222.224 331.462,222.891 331.458,223.245 331.366 C 223.599 331.273,223.222 331.200,222.407 331.205 C 221.593 331.209,221.303 331.284,221.764 331.373 M172.320 332.488 C 172.883 332.573,173.716 332.571,174.172 332.483 C 174.627 332.395,174.167 332.325,173.148 332.328 C 172.130 332.331,171.757 332.403,172.320 332.488 M209.977 333.170 C 210.650 333.298,211.128 333.653,211.230 334.102 C 211.359 334.667,211.384 334.641,211.346 333.987 C 211.306 333.319,211.052 333.129,210.093 333.056 C 208.948 332.968,208.942 332.973,209.977 333.170 M208.060 335.077 C 208.521 335.165,209.187 335.162,209.541 335.069 C 209.895 334.977,209.519 334.904,208.704 334.908 C 207.889 334.912,207.599 334.988,208.060 335.077 M190.648 335.453 C 191.310 335.535,192.394 335.535,193.056 335.453 C 193.718 335.371,193.176 335.304,191.852 335.304 C 190.528 335.304,189.986 335.371,190.648 335.453 M203.796 335.440 C 204.153 335.534,204.736 335.534,205.093 335.440 C 205.449 335.347,205.157 335.271,204.444 335.271 C 203.731 335.271,203.440 335.347,203.796 335.440 " stroke="none" fill="#f49c9f" fill-rule="evenodd"></path></g></svg>