<?xml version="1.0" encoding="UTF-8"?>
<svg width="89px" height="93px" viewBox="0 0 89 93" version="1.1" xmlns="http://www.w3.org/2000/svg" xmlns:xlink="http://www.w3.org/1999/xlink">
    <!-- Generator: Sketch 50.2 (55047) - http://www.bohemiancoding.com/sketch -->
    <title>logo</title>
    <desc>Created with Sketch.</desc>
    <defs></defs>
    <g id="Page-1" stroke="none" stroke-width="1" fill="none" fill-rule="evenodd">
        <g id="Logo" transform="translate(-20.000000, -18.000000)">
            <g id="logo" transform="translate(20.000000, 18.000000)">
                <g id="noun_972515_cc">
                    <g id="Page-1" transform="translate(0.000000, 20.000000)" fill="#04D6A8" fill-rule="nonzero">
                        <g id="Logo">
                            <g id="noun_972515_cc">
                                <g id="Group">
                                    <path d="M76.4,0.1 L56.8,0.1 C56.8,1.1 56.8,2.1 56.8,3.1 L76.4,3.1 C81.2,3.1 85.1,6.3 85.1,10.2 L85.1,62.1 C85.1,66 81.3,69.1 76.6,69.1 L14.1,69.1 C8.8,69.1 4.4,65.6 4.4,61.2 L4.4,11 C4.4,6.6 8.7,3.1 14.1,3.1 L20.8,3.1 C20.8,2.1 20.8,1.1 20.8,0.1 L14.1,0.1 C6.7,0.1 0.8,5 0.8,11 L0.8,61.2 C0.8,67.2 6.8,72.1 14.1,72.1 L76.6,72.1 C83.3,72.1 88.8,67.6 88.8,62.1 L88.8,10.2 C88.8,4.7 83.2,0.1 76.4,0.1 Z" id="Shape"></path>
                                    <path d="M82.7,54.1 L66.2,54.1 C60.4,54.1 55.7,49.4 55.7,43.6 C55.7,37.8 60.4,33.1 66.2,33.1 L82.7,33.1 C84.4,33.1 85.7,31.8 85.7,30.1 L85.7,24.8 L88.7,24.8 L88.7,30.1 C88.7,33.4 86,36.1 82.7,36.1 L66.2,36.1 C62.1,36.1 58.7,39.5 58.7,43.6 C58.7,47.7 62.1,51.1 66.2,51.1 L82.7,51.1 C84.4,51.1 85.7,49.8 85.7,48.1 L85.7,43.4 L88.7,43.4 L88.7,48.1 C88.8,51.4 86.1,54.1 82.7,54.1 Z" id="Shape_1_"></path>
                                    <path d="M88.8,21.6 L85.1,21.6 C85.1,17.7 81.2,14.6 76.5,14.6 L18.6,14.6 C2.1,14.6 2.1,0.1 18.6,0.1 L18.6,3.1 C8.8,3.1 8.8,11.6 18.6,11.6 L76.5,11.6 C83.2,11.6 88.8,16.1 88.8,21.6 Z" id="Shape_2_"></path>
                                    <circle id="Oval" cx="66.2" cy="43.6" r="3"></circle>
                                </g>
                            </g>
                        </g>
                    </g>
                    <g id="Group" transform="translate(18.000000, 0.000000)">
                        <path d="M20.2,4.5 C11.2,4.5 3.8,11.9 3.8,20.9 C3.8,25 5.3,28.8 7.8,31.7 L32.5,31.7 C35,28.8 36.5,25.1 36.5,20.9 C36.7,11.8 29.3,4.5 20.2,4.5 Z" id="Shape"></path>
                        <path d="M3.8,20.9 C3.8,11.9 11.2,4.5 20.2,4.5 C29.2,4.5 36.6,11.9 36.6,20.9 C36.6,25 35.1,28.8 32.6,31.7 L37.1,31.7 C39.1,28.6 40.3,24.9 40.3,20.9 C40.3,9.9 31.3,0.9 20.3,0.9 C9.3,0.9 0.3,9.9 0.3,20.9 C0.3,24.9 1.5,28.5 3.5,31.7 L8,31.7 C5.4,28.7 3.8,25 3.8,20.9 Z" id="Shape" fill="#FCD628" fill-rule="nonzero"></path>
                    </g>
                    <path d="M51.1,20.9 C51.1,20 51,19.1 50.8,18.3 L38.4,18.2 L38.4,21.1 L47.9,21.1 C47.9,21.3 47.9,21.5 47.8,21.8 C47.4,26.9 43.3,30.6 38.3,30.6 C32.8,30.6 28.7,26.1 28.7,20.9 C28.7,15.4 33,11.2 38.3,11.2 C40.4,11.2 42.2,11.8 43.9,13 L45.8,10.6 C43.6,9.1 41,8.3 38.3,8.3 C31.1,8.3 25.5,14 25.5,21 C25.5,25.6 28,29.5 31.5,31.8 L45,31.8 C48.7,29.4 51.1,25.4 51.1,20.9 Z" id="Shape" fill="#FCD628" fill-rule="nonzero"></path>
                </g>
            </g>
        </g>
    </g>
</svg>