<svg xmlns="http://www.w3.org/2000/svg" xmlns:xlink="http://www.w3.org/1999/xlink" width="24" height="24" viewBox="0 0 24 24">
    <defs>
        <path id="a" d="M1.833 1.5c-.366 0-.502.492-.198.692l8.678 5.835c.44.296 1.005.3 1.445 0l8.6-5.828c.423-.265-.008-.915-.404-.625l-8.6 5.827c-.24.163-.397.162-.639 0L2.041 1.564a.373.373 0 0 0-.208-.064zM1.1 0C.497 0 0 .508 0 1.125v12.75C0 14.492.497 15 1.1 15h19.8c.603 0 1.1-.508 1.1-1.125V1.125C22 .508 21.503 0 20.9 0H1.1zm0 .75h19.8c.21 0 .367.16.367.375v12.75a.362.362 0 0 1-.367.375H1.1a.362.362 0 0 1-.367-.375V1.125C.733.91.89.75 1.1.75z"/>
    </defs>
    <g fill="none" fill-rule="evenodd" transform="translate(1 4.5)">
        <mask id="b" fill="#fff">
            <use xlink:href="#a"/>
        </mask>
        <use fill="#000" fill-rule="nonzero" xlink:href="#a"/>
        <g fill="#fff" fill-opacity="1" mask="url(#b)">
            <path d="M-1-4.5h24v24H-1z"/>
        </g>
    </g>
</svg>
