<svg xmlns="http://www.w3.org/2000/svg" width="28" height="28" viewBox="0 0 28 28">
    <defs>
        <linearGradient id="a" x1="66.67%" x2="41.67%" y1="16.67%" y2="75%">
            <stop offset="0%" stop-color="#37AEE2"/>
            <stop offset="100%" stop-color="#1E96C8"/>
        </linearGradient>
        <linearGradient id="b" x1="61.235%" x2="74.706%" y1="43.69%" y2="80.24%">
            <stop offset="0%" stop-color="#EFF7FC"/>
            <stop offset="100%" stop-color="#FFF"/>
        </linearGradient>
    </defs>
    <g fill="none" fill-rule="evenodd">
        <circle cx="14" cy="14" r="14" fill="url(#a)"/>
        <path fill="#C8DAEA" d="M11.433 20.417c-.453 0-.376-.172-.533-.603l-1.333-4.39 10.266-6.09"/>
        <path fill="#A9C9DD" d="M11.433 20.417c.35 0 .505-.16.7-.35L14 18.252l-2.328-1.405"/>
        <path fill="url(#b)" d="M11.671 16.848l5.642 4.168c.644.355 1.109.172 1.27-.598l2.296-10.822c.235-.943-.36-1.37-.975-1.09l-13.486 5.2c-.92.369-.915.882-.168 1.111l3.46 1.08 8.013-5.054c.378-.23.725-.106.44.146"/>
    </g>
</svg>
