<svg xmlns="http://www.w3.org/2000/svg" width="28" height="28" viewBox="0 0 28 28">
    <g fill="none" fill-rule="evenodd">
        <path fill="#55ACEE" d="M0 14C0 6.268 6.268 0 14 0s14 6.268 14 14-6.268 14-14 14S0 21.732 0 14z"/>
        <path fill="#FFF" d="M13.58 11.38l.03.484-.49-.06c-1.782-.227-3.339-.998-4.66-2.293l-.647-.643-.167.475c-.352 1.058-.127 2.175.607 2.926.392.415.304.475-.372.228-.235-.08-.44-.139-.46-.11-.068.07.167.97.353 1.326.254.494.773.978 1.341 1.265l.48.227-.568.01c-.548 0-.568.01-.51.218.197.642.97 1.325 1.832 1.621l.607.208-.529.316a5.513 5.513 0 0 1-2.624.732c-.44.01-.803.05-.803.079 0 .099 1.195.652 1.89.87 2.086.642 4.563.366 6.424-.732 1.322-.78 2.644-2.333 3.261-3.836.333-.8.666-2.264.666-2.966 0-.454.03-.514.578-1.057.323-.317.626-.663.685-.762.098-.188.088-.188-.411-.02-.833.297-.95.258-.539-.187.304-.317.666-.89.666-1.058 0-.03-.147.02-.313.109-.176.098-.568.247-.862.336l-.529.168-.48-.326c-.264-.178-.636-.376-.832-.435-.5-.139-1.263-.12-1.714.04-1.224.444-1.997 1.59-1.91 2.846z"/>
    </g>
</svg>
