<?xml version="1.0" standalone="no"?>
<!DOCTYPE svg PUBLIC "-//W3C//DTD SVG 1.1//EN" "http://www.w3.org/Graphics/SVG/1.1/DTD/svg11.dtd" >
<svg>
<metadata>
Created by FontForge 20090914 at Sat Jun  9 08:42:24 2018
 By www-data
Copyright 2010, 2012, 2014 Adobe Systems Incorporated (http://www.adobe.com/), with Reserved Font Name 'Source'.
</metadata>
<defs>
<font id="SourceSansPro-Bold" horiz-adv-x="528" >
  <font-face 
    font-family="Source Sans Pro"
    font-weight="700"
    font-stretch="normal"
    units-per-em="1000"
    panose-1="2 11 7 3 3 4 3 2 2 4"
    ascent="750"
    descent="-250"
    x-height="496"
    cap-height="652"
    bbox="-51 -250 987.001 902"
    underline-thickness="50"
    underline-position="-50"
    unicode-range="U+0020-U+04F3"
  />
<missing-glyph horiz-adv-x="690" 
d="M80 0v660h530v-660h-530zM263 91h164l-39 77l-41 98h-4l-41 -98zM343 414h4l42 95l32 59h-152l31 -59zM178 155l95 185l-95 186v-371zM511 155v371l-94 -186z" />
    <glyph glyph-name="f_f" unicode="ff" horiz-adv-x="657" 
d="M688 695l-26.999 -108c-18.667 6.66699 -35.667 10 -51 10c-38 0 -57 -23.667 -57 -71v-30h89v-115h-89v-381h-147v381h-169v-381h-147v381h-66v109l66 5v23c0 55.333 15.333 100 46 134s78 51 142 51c38 0 72.333 -6 103 -18l-27 -109c-16.667 7.33301 -36 11 -58 11
c-18 0 -32.333 -5.66699 -43 -17s-16 -28.333 -16 -51v-23h169v26c0 57.333 14.667 103.5 44 138.5s75.666 52.5 138.999 52.5c32.667 0 65.667 -6 99 -18z" />
    <glyph glyph-name="f_t" unicode="ft" horiz-adv-x="688" 
d="M648 113l23.001 -107c-39.333 -12 -76 -18 -110 -18c-114 0 -171 64 -171 192v201h-153v-381h-147v381h-66v109l66 5v27c0 57.333 14.667 103.5 44 138.5s75.666 52.5 138.999 52.5c32.667 0 65.667 -6 99 -18l-27 -108c-18.667 6.66699 -35.667 10 -51 10
c-38 0 -57 -23.667 -57 -71v-30h161l17 132h122v-132h119v-115h-119v-199c0 -52.667 21.333 -79 64 -79c14 0 29.667 3.33301 47 10z" />
    <glyph glyph-name="f_f_t" unicode="fft" horiz-adv-x="1004" 
d="M964 113l23.001 -107c-39.333 -12 -76 -18 -110 -18c-114 0 -171 64 -171 192v201h-153v-381h-147v381h-169v-381h-147v381h-66v109l66 5v23c0 55.333 15.333 100 46 134s78 51 142 51c38 0 72.333 -6 103 -18l-27 -109c-16.667 7.33301 -36 11 -58 11
c-18 0 -32.333 -5.66699 -43 -17s-16 -28.333 -16 -51v-23h169v26c0 57.333 14.667 103.5 44 138.5s75.666 52.5 138.999 52.5c32.667 0 65.667 -6 99 -18l-27 -108c-18.667 6.66699 -35.667 10 -51 10c-38 0 -57 -23.667 -57 -71v-30h161l17 132h122v-132h119v-115h-119
v-199c0 -52.667 21.333 -79 64 -79c14 0 29.667 3.33301 47 10z" />
    <glyph glyph-name=".notdef" horiz-adv-x="690" 
d="M80 0v660h530v-660h-530zM263 91h164l-39 77l-41 98h-4l-41 -98zM343 414h4l42 95l32 59h-152l31 -59zM178 155l95 185l-95 186v-371zM511 155v371l-94 -186z" />
    <glyph glyph-name="space" unicode=" " horiz-adv-x="200" 
 />
    <glyph glyph-name="exclam" unicode="!" horiz-adv-x="340" 
d="M122 231l-21 306l-5 133h148l-5 -133l-21 -306h-96zM170 -12c-25.333 0 -46.5 8.83301 -63.5 26.5s-25.5 39.5 -25.5 65.5c0 26.667 8.5 48.834 25.5 66.501s38.167 26.5 63.5 26.5s46.5 -8.83301 63.5 -26.5s25.5 -39.834 25.5 -66.501c0 -26 -8.5 -47.833 -25.5 -65.5
s-38.167 -26.5 -63.5 -26.5z" />
    <glyph glyph-name="quotedbl" unicode="&#x22;" horiz-adv-x="537" 
d="M110 354l-29 199l-5 133h148l-5 -133l-29 -199h-80zM347 354l-29 199l-5 133h148l-5 -133l-29 -199h-80z" />
    <glyph glyph-name="numbersign" unicode="#" 
d="M86 0l22 187h-74v94h85l14 110h-79v94h91l21 165h84l-20 -165h104l21 165h84l-20 -165h79v-94h-91l-13 -110h84v-94h-95l-23 -187h-85l22 187h-103l-23 -187h-85zM205 281h103l14 110h-104z" />
    <glyph glyph-name="dollar" unicode="$" 
d="M461 562l-74 -84.002c-36.667 33.333 -73 50 -109 50c-49.333 0 -74 -21.333 -74 -64c0 -14.667 6.5 -28.167 19.5 -40.5s29.333 -22.833 49 -31.5s40.834 -19.167 63.501 -31.5s43.834 -25.166 63.501 -38.499s36 -31.833 49 -55.5s19.5 -50.5 19.5 -80.5
c0 -49.333 -13.333 -91 -40 -125s-65.334 -56.333 -116.001 -67v-104h-97v100c-71.333 8.66699 -130 34 -176 76l64 99c52 -38.667 99.667 -58 143 -58c54 0 81 23 81 69c0 16 -6.5 30.833 -19.5 44.5s-29.333 25.167 -49 34.5s-40.834 20.333 -63.501 33
s-43.834 25.667 -63.501 39s-36 31.333 -49 54s-19.5 48 -19.5 76c0 48.667 13.5 89.334 40.5 122.001s64.167 53.667 111.5 63v103h97v-101c54.667 -8 104.334 -35.333 149.001 -82z" />
    <glyph glyph-name="percent" unicode="%" horiz-adv-x="857" 
d="M188 250c-48 0 -87 18.667 -117 56s-45 88 -45 152s15 114.333 45 151s69 55 117 55s87.167 -18.333 117.5 -55s45.5 -87 45.5 -151s-15.167 -114.667 -45.5 -152s-69.5 -56 -117.5 -56zM188 332c40 0 60 42 60 126c0 82.667 -20 124 -60 124s-60 -41.333 -60 -124
c0 -84 20 -126 60 -126zM669 -12c-48 0 -87 18.667 -117 56s-45 88 -45 152s15 114.333 45 151s69 55 117 55s87.167 -18.333 117.5 -55s45.5 -87 45.5 -151s-15.167 -114.667 -45.5 -152s-69.5 -56 -117.5 -56zM669 70c40 0 60 42 60 126c0 82.667 -20 124 -60 124
s-60 -41.333 -60 -124c0 -84 20 -126 60 -126zM210 -12l352 676h85l-352 -676h-85z" />
    <glyph glyph-name="ampersand" unicode="&#x26;" horiz-adv-x="667" 
d="M164 183c0 -24.667 8.99805 -44.667 26.998 -60s41.333 -23 70 -23c26.667 0 54.334 8.66699 83.001 26c-53.333 42.667 -98.666 87.667 -135.999 135c-29.333 -26 -44 -52 -44 -78zM224.998 494c0 -22.667 7 -48.667 21 -78c27.333 16 48 31.667 62 47s21 33 21 53
c0 34 -15 51 -45 51c-16.667 0 -30.667 -6.66699 -42 -20s-17 -31 -17 -53zM648.998 107l-35 -119.001c-53.333 10.667 -109 32.667 -167 66c-59.333 -44 -127.666 -66 -204.999 -66c-68 0 -121.167 17.833 -159.5 53.5s-57.5 79.834 -57.5 132.501
c0 42 10.5 77.167 31.5 105.5s50.167 54.5 87.5 78.5c-26.667 50 -40 95 -40 135c0 48 16.167 88.5 48.5 121.5s75.166 49.5 128.499 49.5c48.667 0 87.5 -13.333 116.5 -40s43.5 -62.667 43.5 -108c0 -38 -12 -71.167 -36 -99.5s-57.333 -56.833 -100 -85.5
c36 -42 79.667 -81.667 131 -119c34.667 44.667 59.667 96.667 75 156h134c-24.667 -81.333 -61 -154.666 -109 -219.999c44 -22.667 81.667 -36.334 113 -41.001z" />
    <glyph glyph-name="quotesingle" unicode="'" horiz-adv-x="300" 
d="M110 354l-29 199l-5 133h148l-5 -133l-29 -199h-80z" />
    <glyph glyph-name="parenleft" unicode="(" horiz-adv-x="344" 
d="M204 -179c-88 143.333 -132 295.67 -132 457.003s44 313.666 132 456.999l92 -38c-70 -124.667 -105 -264.334 -105 -419.001s35 -294.334 105 -419.001z" />
    <glyph glyph-name="parenright" unicode=")" horiz-adv-x="344" 
d="M140 -179l-92 37.998c70.667 124 106 263.667 106 419s-35.333 295 -106 419l92 38c88 -143.333 132 -295.666 132 -456.999s-44 -313.666 -132 -456.999z" />
    <glyph glyph-name="asterisk" unicode="*" horiz-adv-x="457" 
d="M148 349l-61 44l59 104l-108 49l23 72l116 -24l13 118h77l13 -119l115 25l24 -72l-108 -49l59 -104l-61 -44l-80 89z" />
    <glyph glyph-name="plus" unicode="+" 
d="M210 94v184h-176v104h176v184h108v-184h176v-104h-176v-184h-108z" />
    <glyph glyph-name="comma" unicode="," horiz-adv-x="300" 
d="M159 6l-8.00098 -0.000976562c-24.667 0 -45.667 7.5 -63 22.5s-26 35.167 -26 60.5c0 24.667 8.83301 44.834 26.5 60.501s39.5 23.5 65.5 23.5c32.667 0 57.834 -12.167 75.501 -36.5s26.5 -58.5 26.5 -102.5c0 -55.333 -15.5 -102.833 -46.5 -142.5
s-75.5 -68.167 -133.5 -85.5l-30 78c36 12.667 63.833 29.667 83.5 51s29.5 45 29.5 71z" />
    <glyph glyph-name="hyphen" unicode="-" horiz-adv-x="332" 
d="M43 201v104h246v-104h-246z" />
    <glyph glyph-name="period" unicode="." horiz-adv-x="300" 
d="M150 -12c-25.333 0 -46.5 8.83301 -63.5 26.5s-25.5 39.5 -25.5 65.5c0 26.667 8.5 48.834 25.5 66.501s38.167 26.5 63.5 26.5s46.5 -8.83301 63.5 -26.5s25.5 -39.834 25.5 -66.501c0 -26 -8.5 -47.833 -25.5 -65.5s-38.167 -26.5 -63.5 -26.5z" />
    <glyph glyph-name="slash" unicode="/" horiz-adv-x="339" 
d="M13 -160l201 870h96l-201 -870h-96z" />
    <glyph glyph-name="zero" unicode="0" 
d="M264 -12c-69.333 0 -124.5 28.833 -165.5 86.5s-61.5 139.5 -61.5 245.5c0 105.333 20.333 186.166 61 242.499s96 84.5 166 84.5s125.333 -28.167 166 -84.5s61 -137.166 61 -242.499c0 -106 -20.5 -187.833 -61.5 -245.5s-96.167 -86.5 -165.5 -86.5zM264 102
c28 0 49.667 16.167 65 48.5s23 88.833 23 169.5s-7.66699 136.334 -23 167.001s-37 46 -65 46s-49.667 -15.333 -65 -46s-23 -86.334 -23 -167.001c0 -145.333 29.333 -218 88 -218z" />
    <glyph glyph-name="one" unicode="1" 
d="M70 0v119.001h138v367h-119v91c59.333 11.333 112 30.666 158 57.999h108v-516h119v-119h-404z" />
    <glyph glyph-name="two" unicode="2" 
d="M37 0v83.999l114 109.5c25.333 25 52.666 54.167 81.999 87.5s50 62 62 86s18 47 18 69c0 30.667 -8 54.334 -24 71.001s-38 25 -66 25c-34.667 0 -72.334 -21.667 -113.001 -65l-80 79c32.667 34.667 65.334 60.167 98.001 76.5s71 24.5 115 24.5
c62.667 0 113.334 -18.5 152.001 -55.5s58 -85.833 58 -146.5c0 -48 -17.667 -98 -53 -150s-85.333 -111.667 -150 -179c42.667 5.33301 78 8 106 8h128v-124h-447z" />
    <glyph glyph-name="three" unicode="3" 
d="M243 -12c-96 0 -169.668 30 -221.001 90l68 93c44 -42.667 90.333 -64 139 -64c31.333 0 56.333 6.66699 75 20s28 31.666 28 54.999c0 30.667 -12.167 53.5 -36.5 68.5s-69.166 22.5 -134.499 22.5v104c100 0 150 28.333 150 85c0 22 -6.83301 39.167 -20.5 51.5
s-32.834 18.5 -57.501 18.5c-36.667 0 -76.334 -18.667 -119.001 -56l-74 90c62.667 54 129.334 81 200.001 81c66.667 0 119.834 -15.333 159.501 -46s59.5 -73.334 59.5 -128.001c0 -64 -35.333 -111 -106 -141v-4c38 -11.333 68.5 -30.166 91.5 -56.499
s34.5 -59.166 34.5 -98.499c0 -56.667 -22.667 -101.667 -68 -135s-101.333 -50 -168 -50z" />
    <glyph glyph-name="four" unicode="4" 
d="M160 264h134v103c0 14.667 2 62 6 142h-4c-10.667 -23.333 -28 -59 -52 -107zM504 264v-112h-73v-152h-137v152h-275v101l232 382h180v-371h73z" />
    <glyph glyph-name="five" unicode="5" 
d="M247 -12c-90 0 -164.667 29.667 -224 89l66 93c45.333 -42 91 -63 137 -63c33.333 0 59.5 8.5 78.5 25.5s28.5 41.5 28.5 73.5c0 31.333 -9.16699 55.5 -27.5 72.5s-42.5 25.5 -72.5 25.5c-18 0 -33.167 -2.16699 -45.5 -6.5s-28.5 -12.833 -48.5 -25.5l-66 42l18 321
h360v-124h-233l-11 -119c22 10 45.667 15 71 15c58 0 106.167 -16.833 144.5 -50.5s57.5 -82.5 57.5 -146.5c0 -68 -22.667 -122 -68 -162s-100.333 -60 -165 -60z" />
    <glyph glyph-name="six" unicode="6" 
d="M278 98c23.333 0 42.5 8.66699 57.5 26s22.5 43 22.5 77c0 61.333 -27.667 92 -83 92c-37.333 0 -69.333 -21 -96 -63c11.333 -88 44.333 -132 99 -132zM483 571l-77 -88.002c-11.333 12.667 -26.166 23.334 -44.499 32.001s-36.5 13 -54.5 13
c-82.667 0 -126.334 -66 -131.001 -198c16 20 36 36.167 60 48.5s46.333 18.5 67 18.5c57.333 0 103.166 -16.5 137.499 -49.5s51.5 -81.833 51.5 -146.5c0 -64 -20.333 -115.5 -61 -154.5s-90.667 -58.5 -150 -58.5c-67.333 0 -124.166 26.333 -170.499 79
s-69.5 131.334 -69.5 236.001c0 112 24.667 197.333 74 256s110.333 88 183 88c74 0 135.667 -25.333 185 -76z" />
    <glyph glyph-name="seven" unicode="7" 
d="M159 0c6 108.667 21.166 200.832 45.499 276.499s65.833 153.834 124.5 234.501h-285v124h442v-90c-36.667 -44 -66.167 -85.167 -88.5 -123.5s-39.666 -79.833 -51.999 -124.5s-21 -88.167 -26 -130.5s-9.16699 -97.833 -12.5 -166.5h-148z" />
    <glyph glyph-name="eight" unicode="8" 
d="M263 -12c-64 0 -116.832 16.1689 -158.499 48.502s-62.5 74.166 -62.5 125.499c0 65.333 36 117.333 108 156v4c-56.667 42.667 -85 92.667 -85 150c0 53.333 18.833 95.833 56.5 127.5s86.5 47.5 146.5 47.5c58 0 104.667 -15.833 140 -47.5s53 -73.834 53 -126.501
c0 -56 -27.667 -102.333 -83 -139v-4c73.333 -40 110 -95.333 110 -166c0 -50.667 -20.833 -92.667 -62.5 -126s-95.834 -50 -162.501 -50zM303.001 370.002c26 30 39 61 39 93c0 24.667 -6.83301 44.5 -20.5 59.5s-32.5 22.5 -56.5 22.5
c-20.667 0 -37.667 -6.33301 -51 -19s-20 -30.667 -20 -54c0 -24 9 -43.5 27 -58.5s45.333 -29.5 82 -43.5zM266.001 90.002c25.333 0 45.8311 6.83203 61.498 20.499s23.5 33.167 23.5 58.5c0 13.333 -2.66699 25 -8 35s-15.666 19.833 -30.999 29.5
s-28.166 16.834 -38.499 21.501l-56.5 25c-32.667 -30 -49 -63.667 -49 -101c0 -27.333 9.5 -49 28.5 -65s42.167 -24 69.5 -24z" />
    <glyph glyph-name="nine" unicode="9" 
d="M252 342c38 0 69.667 21 95 63c-11.333 88 -44.333 132 -99 132c-23.333 0 -42.5 -8.66699 -57.5 -26s-22.5 -43 -22.5 -77c0 -61.333 28 -92 84 -92zM43 64l78 88.002c10.667 -12.667 25.167 -23.334 43.5 -32.001s36.5 -13 54.5 -13c82.667 0 126.334 66 131.001 198
c-16 -20 -36 -36.167 -60 -48.5s-46.333 -18.5 -67 -18.5c-56.667 0 -102.334 16.5 -137.001 49.5s-52 81.833 -52 146.5c0 64 20.333 115.5 61 154.5s90.667 58.5 150 58.5c67.333 0 124.333 -26.333 171 -79s70 -131.334 70 -236.001c0 -112 -24.833 -197.333 -74.5 -256
s-110.5 -88 -182.5 -88c-73.333 0 -135.333 25.333 -186 76z" />
    <glyph glyph-name="colon" unicode=":" horiz-adv-x="300" 
d="M150 312c-25.333 0 -46.5 8.83301 -63.5 26.5s-25.5 39.5 -25.5 65.5c0 26.667 8.5 48.834 25.5 66.501s38.167 26.5 63.5 26.5s46.5 -8.83301 63.5 -26.5s25.5 -39.834 25.5 -66.501c0 -26 -8.5 -47.833 -25.5 -65.5s-38.167 -26.5 -63.5 -26.5zM150 -12
c-25.333 0 -46.5 8.83301 -63.5 26.5s-25.5 39.5 -25.5 65.5c0 26.667 8.5 48.834 25.5 66.501s38.167 26.5 63.5 26.5s46.5 -8.83301 63.5 -26.5s25.5 -39.834 25.5 -66.501c0 -26 -8.5 -47.833 -25.5 -65.5s-38.167 -26.5 -63.5 -26.5z" />
    <glyph glyph-name="semicolon" unicode=";" horiz-adv-x="300" 
d="M150 312c-25.333 0 -46.5 8.83301 -63.5 26.5s-25.5 39.5 -25.5 65.5c0 26.667 8.5 48.834 25.5 66.501s38.167 26.5 63.5 26.5s46.5 -8.83301 63.5 -26.5s25.5 -39.834 25.5 -66.501c0 -26 -8.5 -47.833 -25.5 -65.5s-38.167 -26.5 -63.5 -26.5zM159 6
l-8.00098 -0.000976562c-24.667 0 -45.667 7.5 -63 22.5s-26 35.167 -26 60.5c0 24.667 8.83301 44.834 26.5 60.501s39.5 23.5 65.5 23.5c32.667 0 57.834 -12.167 75.501 -36.5s26.5 -58.5 26.5 -102.5c0 -55.333 -15.5 -102.833 -46.5 -142.5s-75.5 -68.167 -133.5 -85.5
l-30 78c36 12.667 63.833 29.667 83.5 51s29.5 45 29.5 71z" />
    <glyph glyph-name="less" unicode="&#x3c;" 
d="M494 104l-460 177v102l460 177v-121l-176 -58l-135 -47v-4l135 -47l176 -58v-121z" />
    <glyph glyph-name="equal" unicode="=" 
d="M34 394v104h460v-104h-460zM34 162v104h460v-104h-460z" />
    <glyph glyph-name="greater" unicode="&#x3e;" 
d="M34 104v121l176 58l135 47v4l-135 47l-176 58v121l460 -177v-102z" />
    <glyph glyph-name="question" unicode="?" horiz-adv-x="463" 
d="M154 231c-4.66699 31.333 -0.834961 61.1699 11.498 89.5029s27 51.166 44 68.499s33 36.166 48 56.499s22.5 38.5 22.5 54.5c0 20 -6 35.5 -18 46.5s-28.333 16.5 -49 16.5c-30 0 -60.333 -15.333 -91 -46l-81 74c52.667 60.667 116.334 91 191.001 91
c56.667 0 102.334 -14.333 137.001 -43s52 -71.334 52 -128.001c0 -22.667 -5.16699 -44.167 -15.5 -64.5s-22.666 -38.333 -36.999 -54l-42 -46.5c-13.667 -15.333 -24.834 -32.833 -33.501 -52.5s-12 -40.5 -10 -62.5h-129zM217.999 -11.9961
c-25.333 0 -46.333 8.83301 -63 26.5s-25 39.5 -25 65.5c0 26.667 8.33301 48.834 25 66.501s37.667 26.5 63 26.5s46.5 -8.83301 63.5 -26.5s25.5 -39.834 25.5 -66.501c0 -26 -8.5 -47.833 -25.5 -65.5s-38.167 -26.5 -63.5 -26.5z" />
    <glyph glyph-name="at" unicode="@" horiz-adv-x="903" 
d="M428 -172c-50.667 0 -98.498 7.83105 -143.498 23.498s-85.167 38.667 -120.5 69s-63.333 69.833 -84 118.5s-31 104 -31 166c0 136.667 43.667 248.167 131 334.5s194 129.5 320 129.5c107.333 0 193.166 -33 257.499 -99s96.5 -151.667 96.5 -257
c0 -85.333 -23.333 -152.5 -70 -201.5s-99.334 -73.5 -158.001 -73.5c-29.333 0 -54.5 6.83301 -75.5 20.5s-34.167 32.167 -39.5 55.5h-2c-14 -19.333 -32.333 -35.166 -55 -47.499s-44.334 -18.5 -65.001 -18.5c-40 0 -72 13.5 -96 40.5s-36 63.5 -36 109.5
c0 63.333 19.667 120 59 170s87 75 143 75c34.667 0 60 -16.667 76 -50h2l14 42h91l-46 -220c-14 -57.333 1.33301 -86 46 -86c31.333 0 59 16.833 83 50.5s36 76.834 36 129.501c0 78 -22.5 142.667 -67.5 194s-113.5 77 -205.5 77c-90 0 -169.167 -34.833 -237.5 -104.5
s-102.5 -158.5 -102.5 -266.5c0 -94 27.833 -166.167 83.5 -216.5s125.167 -75.5 208.5 -75.5c52 0 102.667 13 152 39l32 -80c-59.333 -32 -124.666 -48 -195.999 -48zM420.002 139.998c21.333 0 43.333 15 66 45l24 135c-10 19.333 -25.333 29 -46 29
c-28 0 -51 -15.333 -69 -46s-27 -62.667 -27 -96c0 -44.667 17.333 -67 52 -67z" />
    <glyph glyph-name="A" unicode="A" horiz-adv-x="573" 
d="M214 270h139l-15 60l-53 210h-4c-24.667 -106 -41.667 -176 -51 -210zM423 0l-40 155h-199l-40 -155h-150l204 652h177l204 -652h-156z" />
    <glyph glyph-name="B" unicode="B" horiz-adv-x="605" 
d="M77 0l0.000976562 651.999h223c160 0 240 -54 240 -162c0 -30 -7.83301 -58.5 -23.5 -85.5s-36.167 -45.5 -61.5 -55.5v-4c35.333 -9.33301 63.666 -26.833 84.999 -52.5s32 -59.167 32 -100.5c0 -63.333 -23.5 -111.166 -70.5 -143.499s-107.833 -48.5 -182.5 -48.5
h-242zM224.001 390.999h68.999c68.667 0 103 25.667 103 77c0 25.333 -8.16699 43.333 -24.5 54s-42.166 16 -77.499 16h-70v-147zM224 113.999h83c80.667 0 121 29.333 121 88c0 28 -9.83301 48.333 -29.5 61s-50.167 19 -91.5 19h-83v-168z" />
    <glyph glyph-name="C" unicode="C" horiz-adv-x="582" 
d="M349 -12c-86.667 0 -158.832 29.333 -216.499 88s-86.5 140.667 -86.5 246c0 104 29.833 187 89.5 249s132.5 93 218.5 93c75.333 0 140.666 -28.333 195.999 -85l-78 -94c-38 34.667 -76.333 52 -115 52c-46 0 -84.167 -19 -114.5 -57s-45.5 -89 -45.5 -153
c0 -66.667 14.167 -118.667 42.5 -156s66.833 -56 115.5 -56c46.667 0 89 20.333 127 61l78 -92c-54.667 -64 -125 -96 -211 -96z" />
    <glyph glyph-name="D" unicode="D" horiz-adv-x="635" 
d="M77 0l0.000976562 652h184c103.333 0 183.666 -26.667 240.999 -80s86 -134.333 86 -243s-28.5 -190.667 -85.5 -246s-134.833 -83 -233.5 -83h-192zM224.001 119h28c123.333 0 185 70 185 210c0 74 -16 126.5 -48 157.5s-77.667 46.5 -137 46.5h-28v-414z" />
    <glyph glyph-name="E" unicode="E" horiz-adv-x="548" 
d="M77 0v652h408v-124h-261v-131h222v-123h-222v-150h271v-124h-418z" />
    <glyph glyph-name="F" unicode="F" horiz-adv-x="524" 
d="M77 0v652h411v-124h-264v-151h226v-124h-226v-253h-147z" />
    <glyph glyph-name="G" unicode="G" horiz-adv-x="638" 
d="M365 -12c-93.333 0 -169.832 29.167 -229.499 87.5s-89.5 140.5 -89.5 246.5c0 104.667 30.5 187.834 91.5 249.501s136.5 92.5 226.5 92.5c81.333 0 149.666 -28.333 204.999 -85l-77 -94c-39.333 34.667 -80.333 52 -123 52c-51.333 0 -92.833 -18.833 -124.5 -56.5
s-47.5 -88.834 -47.5 -153.501c0 -68 15.5 -120.333 46.5 -157s76.5 -55 136.5 -55c30 0 53.333 6.66699 70 20v112h-108v120h238v-300c-24 -23.333 -55 -42.333 -93 -57s-78.667 -22 -122 -22z" />
    <glyph glyph-name="H" unicode="H" horiz-adv-x="674" 
d="M77 0v652h147v-251h225v251h148v-652h-148v272h-225v-272h-147z" />
    <glyph glyph-name="I" unicode="I" horiz-adv-x="301" 
d="M77 0v652h147v-652h-147z" />
    <glyph glyph-name="J" unicode="J" horiz-adv-x="509" 
d="M226 -12c-95.333 0 -165.332 39.333 -209.999 118l100 74c23.333 -43.333 53.666 -65 90.999 -65c28 0 48.5 8.5 61.5 25.5s19.5 46.5 19.5 88.5v423h147v-435c0 -67.333 -17.667 -122.333 -53 -165s-87.333 -64 -156 -64z" />
    <glyph glyph-name="K" unicode="K" horiz-adv-x="614" 
d="M77 0v652h147v-267h4l194 267h162l-197 -260l233 -392h-161l-159 275l-76 -100v-175h-147z" />
    <glyph glyph-name="L" unicode="L" horiz-adv-x="518" 
d="M77 0v652h147v-528h258v-124h-405z" />
    <glyph glyph-name="M" unicode="M" horiz-adv-x="762" 
d="M77 0v652.001h161l105 -290l20 -63c8.66699 -28 14.667 -47 18 -57h4c4 11.333 10 30.666 18 57.999s14.333 48 19 62l103 290h160v-652h-134v239c0 34 6.33301 108 19 222h-4l-53 -155l-93 -249h-81l-93 249l-52 155h-4c12.667 -114 19 -188 19 -222v-239h-132z" />
    <glyph glyph-name="N" unicode="N" horiz-adv-x="665" 
d="M77 0l0.000976562 652.002h151l170 -324l64 -144h4c-0.666992 9.33301 -2.83398 32.333 -6.50098 69s-6.5 68.167 -8.5 94.5s-3 51.166 -3 74.499v230h140v-652h-151l-170 325l-64 142h-4l7 -71c3.33301 -34 6 -64.333 8 -91s3 -51.334 3 -74.001v-231h-140z" />
    <glyph glyph-name="O" unicode="O" horiz-adv-x="684" 
d="M342 -12c-89.333 0 -161 30.5 -215 91.5s-81 144.167 -81 249.5c0 104.667 27 186.667 81 246s125.667 89 215 89s161 -29.667 215 -89s81 -141.333 81 -246c0 -105.333 -27 -188.5 -81 -249.5s-125.667 -91.5 -215 -91.5zM342 115c44.667 0 80 19.333 106 58
s39 90.667 39 156c0 64.667 -13 115.5 -39 152.5s-61.333 55.5 -106 55.5s-80 -18.5 -106 -55.5s-39 -87.833 -39 -152.5c0 -65.333 13 -117.333 39 -156s61.333 -58 106 -58z" />
    <glyph glyph-name="P" unicode="P" horiz-adv-x="596" 
d="M77 0v652h224c78.667 0 141.5 -16.5 188.5 -49.5s70.5 -86.5 70.5 -160.5c0 -72.667 -24 -127.667 -72 -165s-109 -56 -183 -56h-81v-221h-147zM224 338l72 0.000976562c80 0 120 34.667 120 104c0 33.333 -10.333 57.166 -31 71.499s-51.667 21.5 -93 21.5h-68v-197z
" />
    <glyph glyph-name="Q" unicode="Q" horiz-adv-x="684" 
d="M197 329c0 -69.333 13 -123.5 39 -162.5s61.333 -58.5 106 -58.5s80 19.5 106 58.5s39 93.167 39 162.5c0 64.667 -13 115.5 -39 152.5s-61.333 55.5 -106 55.5s-80 -18.5 -106 -55.5s-39 -87.833 -39 -152.5zM646 -53l26 -107.001
c-29.333 -14.667 -67.666 -22 -114.999 -22c-66.667 0 -124.334 16.167 -173.001 48.5s-85 75.166 -109 128.499c-70.667 14.667 -126.5 51.334 -167.5 110.001s-61.5 133.334 -61.5 224.001c0 104.667 27 186.667 81 246s125.667 89 215 89s161 -29.667 215 -89
s81 -141.333 81 -246c0 -86 -18.5 -157.833 -55.5 -215.5s-87.5 -95.5 -151.5 -113.5c28 -42.667 75.667 -64 143 -64c24.667 0 48.667 3.66699 72 11z" />
    <glyph glyph-name="R" unicode="R" horiz-adv-x="613" 
d="M224 535v-183h76c79.333 0 119 32.333 119 97c0 30.667 -9.83301 52.667 -29.5 66s-49.5 20 -89.5 20h-76zM595 0h-165l-125 235h-81v-235h-147v652h235c167.333 0 251 -67.667 251 -203c0 -91.333 -38.667 -154 -116 -188z" />
    <glyph glyph-name="S" unicode="S" horiz-adv-x="556" 
d="M276 -12c-94 0 -174.333 31.333 -241 94l84 101c53.333 -45.333 107 -68 161 -68c60.667 0 91 21 91 63c0 17.333 -6.33301 30.833 -19 40.5s-34.334 20.834 -65.001 33.501c-4.66699 2 -8 3.33301 -10 4l-85 36c-38 15.333 -69.333 37.833 -94 67.5s-37 66.5 -37 110.5
c0 54.667 21.833 100.667 65.5 138s99.167 56 166.5 56c82.667 0 152.667 -28.667 210 -86l-75 -93c-45.333 34.667 -90.333 52 -135 52c-25.333 0 -45.5 -5.16699 -60.5 -15.5s-22.5 -24.833 -22.5 -43.5c0 -16.667 6.83301 -29.834 20.5 -39.501s35.5 -20.5 65.5 -32.5
c6 -2 10.333 -3.66699 13 -5l84 -34c86 -34.667 129 -93.667 129 -177c0 -56.667 -22.167 -104.5 -66.5 -143.5s-104.166 -58.5 -179.499 -58.5z" />
    <glyph glyph-name="T" unicode="T" horiz-adv-x="556" 
d="M204 0v528h-179v124h506v-124h-179v-528h-148z" />
    <glyph glyph-name="U" unicode="U" horiz-adv-x="665" 
d="M334 -12c-174 0 -261 104.667 -261 314v350h148v-365c0 -62 9.33301 -106.167 28 -132.5s47 -39.5 85 -39.5s66.667 13.167 86 39.5s29 70.5 29 132.5v365h142v-350c0 -108 -21.5 -187.333 -64.5 -238s-107.167 -76 -192.5 -76z" />
    <glyph glyph-name="V" unicode="V" horiz-adv-x="556" 
d="M190 0l-197 651.999h156l78 -304c6.66699 -24 15.5 -59 26.5 -105s19.833 -80.667 26.5 -104h4l25.5 103.5c11 45.667 19.833 80.834 26.5 105.501l77 304h150l-196 -652h-177z" />
    <glyph glyph-name="W" unicode="W" horiz-adv-x="813" 
d="M135 0l-121 652h151l45 -305c2.66699 -22 7 -55.833 13 -101.5s10.333 -80.5 13 -104.5h4l39 206l70 305h125l70 -305l39 -206h4l27 206l45 305h141l-116 -652h-185l-64 296c-8 36 -16.667 86.333 -26 151h-4c-12.667 -78 -21.667 -128.333 -27 -151l-61 -296h-182z" />
    <glyph glyph-name="X" unicode="X" horiz-adv-x="567" 
d="M11 0l181.001 335l-170 317h164l57 -123l47 -105h4c12.667 34.667 26.667 69.667 42 105l52 123h157l-169 -324l180 -328h-164l-65 133l-49 107h-4c-0.666992 -1.33301 -15.334 -37 -44.001 -107l-61 -133h-158z" />
    <glyph glyph-name="Y" unicode="Y" horiz-adv-x="525" 
d="M189 0v232l-197 420h158l58 -150c2 -6 9.5 -26.667 22.5 -62l30.5 -82h4l25 64c13.333 34 23.333 60.667 30 80l59 150h154l-197 -420v-232h-147z" />
    <glyph glyph-name="Z" unicode="Z" horiz-adv-x="541" 
d="M36 0v89l288 439h-261v124h442v-89l-288 -439h291v-124h-472z" />
    <glyph glyph-name="bracketleft" unicode="[" horiz-adv-x="344" 
d="M87 -152v860h211v-78h-101v-704h101v-78h-211z" />
    <glyph glyph-name="backslash" unicode="\" horiz-adv-x="339" 
d="M230 -160l-202 870h96l202 -870h-96z" />
    <glyph glyph-name="bracketright" unicode="]" horiz-adv-x="344" 
d="M46 -152v78h102v704h-102v78h211v-860h-211z" />
    <glyph glyph-name="asciicircum" unicode="^" 
d="M50 274l155 396h118l155 -396h-121l-46 128l-45 135h-4l-45 -135l-46 -128h-121z" />
    <glyph glyph-name="underscore" unicode="_" horiz-adv-x="500" 
d="M12 -140v83h476v-83h-476z" />
    <glyph glyph-name="grave" unicode="`" horiz-adv-x="555" 
d="M268 572l-181 157l99 97l154 -182z" />
    <glyph glyph-name="a" unicode="a" horiz-adv-x="527" 
d="M190 -12c-44.667 0 -80.499 14.332 -107.499 42.999s-40.5 64.334 -40.5 107.001c0 52.667 22.167 93.5 66.5 122.5s115.166 48.5 212.499 58.5c-3.33301 48 -29.333 72 -78 72c-36 0 -79.667 -15 -131 -45l-53 97c72 43.333 142.667 65 212 65
c131.333 0 197 -74.667 197 -224v-284h-120l-10 51h-4c-48 -42 -96 -63 -144 -63zM240.001 101.999c26 0 53 14 81 42v87c-92 -12.667 -138 -40 -138 -82c0 -31.333 19 -47 57 -47z" />
    <glyph glyph-name="b" unicode="b" horiz-adv-x="573" 
d="M325 -12c-46.667 0 -89.668 21.667 -129.001 65h-4l-12 -53h-115v701h147v-172l-4 -76c40.667 36.667 84.334 55 131.001 55c60 0 107.5 -22.833 142.5 -68.5s52.5 -106.5 52.5 -182.5c0 -82 -20.667 -147.333 -62 -196s-90.333 -73 -147 -73zM290.999 108
c27.333 0 49.5 12.167 66.5 36.5s25.5 60.833 25.5 109.5c0 89.333 -28.667 134 -86 134c-29.333 0 -57.666 -15 -84.999 -45v-203c23.333 -21.333 49.666 -32 78.999 -32z" />
    <glyph glyph-name="c" unicode="c" horiz-adv-x="467" 
d="M281 -12c-71.333 0 -130.001 23.167 -176.001 69.5s-69 109.833 -69 190.5c0 79.333 25 142.5 75 189.5s111 70.5 183 70.5c54.667 0 103 -17.667 145 -53l-69 -95c-23.333 19.333 -45.666 29 -66.999 29c-35.333 0 -63.5 -12.667 -84.5 -38
s-31.5 -59.666 -31.5 -102.999c0 -42.667 10.333 -76.834 31 -102.501s47.334 -38.5 80.001 -38.5c28 0 57.667 12 89 36l58 -96c-44.667 -39.333 -99.334 -59 -164.001 -59z" />
    <glyph glyph-name="d" unicode="d" horiz-adv-x="573" 
d="M242 -12c-62 0 -111.334 23.167 -148.001 69.5s-55 109.833 -55 190.5c0 78 20.5 140.833 61.5 188.5s89.167 71.5 144.5 71.5c44.667 0 85.334 -17.333 122.001 -52l-6 76v169h147v-701h-120l-10 49h-4c-40.667 -40.667 -84.667 -61 -132 -61zM279.999 108
c32 0 58.999 15.001 80.999 45.001v203c-23.333 21.333 -50.666 32 -81.999 32c-25.333 0 -46.5 -11.833 -63.5 -35.5s-25.5 -57.834 -25.5 -102.501c0 -94.667 30 -142 90 -142z" />
    <glyph glyph-name="e" unicode="e" horiz-adv-x="518" 
d="M287 -12c-72.667 0 -132.667 23.334 -180 70.001s-71 110 -71 190c0 77.333 23.333 140 70 188s101.334 72 164.001 72c68 0 120.167 -22 156.5 -66s54.5 -101.333 54.5 -172c0 -27.333 -2 -49 -6 -65h-297c6 -34.667 20.5 -60.834 43.5 -78.501s51.5 -26.5 85.5 -26.5
c35.333 0 71 11 107 33l49 -89c-54.667 -37.333 -113.334 -56 -176.001 -56zM177 302.001h179.001c0 62.667 -27.667 94 -83 94c-24 0 -44.833 -8 -62.5 -24s-28.834 -39.333 -33.501 -70z" />
    <glyph glyph-name="f" unicode="f" horiz-adv-x="341" 
d="M372 695l-26.999 -108c-18.667 6.66699 -35.667 10 -51 10c-38 0 -57 -23.667 -57 -71v-30h89v-115h-89v-381h-147v381h-66v109l66 5v27c0 57.333 14.667 103.5 44 138.5s75.666 52.5 138.999 52.5c32.667 0 65.667 -6 99 -18z" />
    <glyph glyph-name="g" unicode="g" horiz-adv-x="534" 
d="M242 -211c-62 0 -112.168 10.5 -150.501 31.5s-57.5 52.5 -57.5 94.5c0 40 23.667 73.333 71 100v4c-30.667 20 -46 48 -46 84c0 36.667 18.667 67.667 56 93v4c-19.333 13.333 -35.333 31.333 -48 54s-19 47.667 -19 75c0 56.667 19.833 100.667 59.5 132
s88.167 47 145.5 47c29.333 0 55 -4 77 -12h181v-107h-79c10.667 -18 16 -39.667 16 -65c0 -54.667 -18.167 -96.167 -54.5 -124.5s-83.166 -42.5 -140.499 -42.5c-19.333 0 -39.333 3.33301 -60 10c-12 -10 -18 -22.333 -18 -37c0 -24.667 25 -37 75 -37h80
c126 0 189 -42 189 -126c0 -52 -25.167 -94.667 -75.5 -128s-117.5 -50 -201.5 -50zM252.999 246c20 0 36.333 7.16699 49 21.5s19 34.833 19 61.5c0 25.333 -6.33301 45 -19 59s-29 21 -49 21s-36.333 -6.83301 -49 -20.5s-19 -33.5 -19 -59.5
c0 -26.667 6.33301 -47.167 19 -61.5s29 -21.5 49 -21.5zM264.999 -119c32.667 0 59.833 5.83203 81.5 17.499s32.5 26.167 32.5 43.5c0 14.667 -6.16699 24.834 -18.5 30.501s-31.5 8.5 -57.5 8.5h-51c-30.667 0 -54 2 -70 6c-18 -16 -27 -32.333 -27 -49
c0 -18 9.83301 -32 29.5 -42s46.5 -15 80.5 -15z" />
    <glyph glyph-name="h" unicode="h" horiz-adv-x="571" 
d="M65 0l-0.00195312 700.999h147v-172l-7 -89c50.667 45.333 101.667 68 153 68c102.667 0 154 -66.667 154 -200v-308h-147v289c0 35.333 -4.83301 59.833 -14.5 73.5s-25.167 20.5 -46.5 20.5c-17.333 0 -32.666 -3.66699 -45.999 -11s-28.666 -19.666 -45.999 -36.999
v-335h-147z" />
    <glyph glyph-name="i" unicode="i" horiz-adv-x="276" 
d="M65 0v496h147v-496h-147zM138 569c-24.667 0 -45 7.16699 -61 21.5s-24 32.833 -24 55.5s8 41 24 55s36.333 21 61 21c25.333 0 45.833 -7 61.5 -21s23.5 -32.333 23.5 -55s-8 -41.167 -24 -55.5s-36.333 -21.5 -61 -21.5z" />
    <glyph glyph-name="j" unicode="j" horiz-adv-x="278" 
d="M36 -196c-34.667 0 -63.667 4.66699 -87 14l26 108c15.333 -4.66699 28.333 -7 39 -7c19.333 0 32.833 6.33301 40.5 19s11.5 33 11.5 61v497h147v-493c0 -132.667 -59 -199 -177 -199zM140 569c-24.667 0 -45 7.16699 -61 21.5s-24 32.833 -24 55.5s8 41 24 55
s36.333 21 61 21s45 -7 61 -21s24 -32.333 24 -55s-8 -41.167 -24 -55.5s-36.333 -21.5 -61 -21.5z" />
    <glyph glyph-name="k" unicode="k" horiz-adv-x="548" 
d="M65 0v701h143v-402h4l157 197h160l-174 -204l187 -292h-159l-112 193l-63 -71v-122h-143z" />
    <glyph glyph-name="l" unicode="l" horiz-adv-x="286" 
d="M200 -12c-90 0 -135 55.333 -135 166v547h147v-553c0 -27.333 8.66699 -41 26 -41c6.66699 0 12.667 0.666992 18 2l18 -109c-18 -8 -42.667 -12 -74 -12z" />
    <glyph glyph-name="m" unicode="m" horiz-adv-x="857" 
d="M65 0v496h120l10 -64h4c50.667 50.667 100.667 76 150 76c65.333 0 111 -27.667 137 -83c26 26.667 51 47.167 75 61.5s51 21.5 81 21.5c103.333 0 155 -66.667 155 -200v-308h-147v289c0 35.333 -4.83301 59.833 -14.5 73.5s-25.167 20.5 -46.5 20.5
c-24.667 0 -53 -16 -85 -48v-335h-147v289c0 35.333 -4.83301 59.833 -14.5 73.5s-25.167 20.5 -46.5 20.5c-25.333 0 -53.333 -16 -84 -48v-335h-147z" />
    <glyph glyph-name="n" unicode="n" horiz-adv-x="572" 
d="M65 0l-0.00195312 495.999h120l10 -63h4c52.667 50 105.667 75 159 75c102.667 0 154 -66.667 154 -200v-308h-147v289c0 35.333 -4.83301 59.833 -14.5 73.5s-25.167 20.5 -46.5 20.5c-17.333 0 -32.666 -3.66699 -45.999 -11s-28.666 -19.666 -45.999 -36.999v-335
h-147z" />
    <glyph glyph-name="o" unicode="o" horiz-adv-x="555" 
d="M278 -12c-66.667 0 -123.667 23.5 -171 70.5s-71 110.167 -71 189.5s23.667 142.5 71 189.5s104.333 70.5 171 70.5c66 0 122.667 -23.5 170 -70.5s71 -110.167 71 -189.5s-23.667 -142.5 -71 -189.5s-104 -70.5 -170 -70.5zM278 107c29.333 0 51.833 12.5 67.5 37.5
s23.5 59.5 23.5 103.5s-7.83301 78.5 -23.5 103.5s-38.167 37.5 -67.5 37.5c-30 0 -52.667 -12.5 -68 -37.5s-23 -59.5 -23 -103.5s7.66699 -78.5 23 -103.5s38 -37.5 68 -37.5z" />
    <glyph glyph-name="p" unicode="p" horiz-adv-x="573" 
d="M65 -184v680.001h120l10 -49h4c45.333 40.667 92.333 61 141 61c60 0 107.333 -22.833 142 -68.5s52 -106.834 52 -183.501c0 -81.333 -20.667 -146.333 -62 -195s-90.333 -73 -147 -73c-42 0 -81.333 17.333 -118 52l5 -79v-145h-147zM291 108.001
c27.333 0 49.501 12.167 66.501 36.5s25.5 60.833 25.5 109.5c0 89.333 -28.667 134 -86 134c-28.667 0 -57 -15 -85 -45v-203c23.333 -21.333 49.666 -32 78.999 -32z" />
    <glyph glyph-name="q" unicode="q" horiz-adv-x="573" 
d="M361 -184v151l6 76c-38 -36.667 -79.667 -55 -125 -55c-62 0 -111.333 23.167 -148 69.5s-55 109.833 -55 190.5c0 78 20.5 140.833 61.5 188.5s89.167 71.5 144.5 71.5c50 0 94 -20.333 132 -61h4l12 49h115v-680h-147zM280 108c32 0 58.999 15.001 80.999 45.001v203
c-23.333 21.333 -50.666 32 -81.999 32c-25.333 0 -46.5 -11.833 -63.5 -35.5s-25.5 -57.834 -25.5 -102.501c0 -94.667 30 -142 90 -142z" />
    <glyph glyph-name="r" unicode="r" horiz-adv-x="398" 
d="M65 0v495.999h120l10 -87h4c17.333 32.667 38.5 57.334 63.5 74.001s50.833 25 77.5 25c24 0 43.667 -3.33301 59 -10l-24 -127c-19.333 5.33301 -37.333 8 -54 8c-20.667 0 -41 -7.33301 -61 -22s-36 -37.667 -48 -69v-288h-147z" />
    <glyph glyph-name="s" unicode="s" horiz-adv-x="443" 
d="M211 -12c-32 0 -65.332 6.33594 -99.999 19.0029s-64.667 29.334 -90 50.001l66 92c46 -34.667 88.667 -52 128 -52c42 0 63 14 63 42c0 3.33301 -0.5 6.66602 -1.5 9.99902s-2.83301 6.5 -5.5 9.5s-5.16699 5.66699 -7.5 8s-6 4.83301 -11 7.5s-9.16699 5 -12.5 7
s-8.16602 4.33301 -14.499 7s-11.333 4.66699 -15 6s-9.16699 3.5 -16.5 6.5s-13 5.16699 -17 6.5c-87.333 33.333 -131 82 -131 146c0 46 17.333 83.333 52 112s80.667 43 138 43c60 0 118.333 -21 175 -63l-66 -88c-38.667 28 -73.667 42 -105 42
c-37.333 0 -56 -13 -56 -39c0 -4.66699 0.833008 -8.83398 2.5 -12.501s4.5 -7.33398 8.5 -11.001s7.66699 -6.66699 11 -9s8.66602 -5 15.999 -8l17 -7c4 -1.66699 11 -4.33398 21 -8.00098s17 -6.16699 21 -7.5c40.667 -14.667 73.167 -33 97.5 -55s36.5 -53.333 36.5 -94
c0 -46.667 -17.833 -85 -53.5 -115s-85.834 -45 -150.501 -45z" />
    <glyph glyph-name="t" unicode="t" horiz-adv-x="383" 
d="M256 -12c-114 0 -170.999 64 -170.999 192v201h-68v109l76 6l17 132h122v-132h119v-115h-119v-199c0 -52.667 21.333 -79 64 -79c14 0 29.667 3.33301 47 10l23 -107c-38.667 -12 -75.334 -18 -110.001 -18z" />
    <glyph glyph-name="u" unicode="u" horiz-adv-x="568" 
d="M214 -12c-102.667 0 -154 66.667 -154 200v308h147v-289c0 -34.667 4.83301 -59 14.5 -73s25.5 -21 47.5 -21c18 0 33.5 4.16699 46.5 12.5s26.833 22.5 41.5 42.5v328h147v-496h-120l-11 69h-3c-45.333 -54 -97.333 -81 -156 -81z" />
    <glyph glyph-name="v" unicode="v" horiz-adv-x="523" 
d="M179 0l-167 496h148l64 -234l39 -153h4c11.333 50 24 101 38 153l65 234h141l-162 -496h-170z" />
    <glyph glyph-name="w" unicode="w" horiz-adv-x="776" 
d="M148 0l-124.003 496.002h146l48 -230c2.66699 -16.667 6.33398 -41.334 11.001 -74.001s8.33398 -57 11.001 -73h4c13.333 75.333 23 124.333 29 147l55 230h127l56 -230c6 -24 16.333 -73 31 -147h4c2.66699 16.667 6.33398 41.167 11.001 73.5s8.66699 56.833 12 73.5
l47 230h136l-119 -496h-172l-45 198c-7.33301 33.333 -16.333 81.666 -27 144.999h-4c-14.667 -86.667 -23 -135 -25 -145l-44 -198h-168z" />
    <glyph glyph-name="x" unicode="x" horiz-adv-x="514" 
d="M14 0l152 258.001l-143 238h158l44 -80l42 -85h4c4 10.667 10.167 26.167 18.5 46.5s13.5 33.166 15.5 38.499l34 80h152l-144 -255l153 -241h-158l-48 82l-23.5 43l-23.5 43h-4c-3.33301 -8 -9.33301 -21.667 -18 -41l-20 -45l-39 -82h-152z" />
    <glyph glyph-name="y" unicode="y" horiz-adv-x="521" 
d="M120 -194c-24.667 0 -48 3.33301 -70 10l26 112c18 -4 29 -6 33 -6c43.333 0 72.333 21.667 87 65l7 26l-191 483h148l71 -213c7.33301 -23.333 20.333 -70.333 39 -141h4c14.667 62.667 26 109.667 34 141l60 213h141l-172 -501c-24.667 -66 -53 -114 -85 -144
s-76 -45 -132 -45z" />
    <glyph glyph-name="z" unicode="z" horiz-adv-x="460" 
d="M38 0v79l208 302h-185v115h368v-78l-208 -303h215v-115h-398z" />
    <glyph glyph-name="braceleft" unicode="{" horiz-adv-x="344" 
d="M235 -152c-45.333 0 -78 10.499 -98 31.499s-30 57.833 -30 110.5c0 24.667 1.66699 54.167 5 88.5s5 61.833 5 82.5c0 20 -6.83301 37.167 -20.5 51.5s-35.5 21.833 -65.5 22.5v86c30 0.666992 51.833 8.16699 65.5 22.5s20.5 31.5 20.5 51.5
c0 20.667 -1.66699 48.334 -5 83.001s-5 64 -5 88c0 52.667 10 89.5 30 110.5s52.667 31.5 98 31.5h63v-78h-19c-20.667 0 -34.667 -4.83301 -42 -14.5s-11 -28.167 -11 -55.5c0 -17.333 0.666992 -43.666 2 -78.999s2 -63.333 2 -84
c0 -36.667 -5.83301 -63.834 -17.5 -81.501s-30.5 -29.5 -56.5 -35.5v-4c26 -6 44.833 -17.833 56.5 -35.5s17.5 -44.834 17.5 -81.501c0 -20.667 -0.666992 -48.667 -2 -84s-2 -61.666 -2 -78.999c0 -27.333 3.66699 -45.833 11 -55.5s21.333 -14.5 42 -14.5h19v-78h-63z
" />
    <glyph glyph-name="bar" unicode="|" horiz-adv-x="268" 
d="M86 -250v1000h96v-1000h-96z" />
    <glyph glyph-name="braceright" unicode="}" horiz-adv-x="344" 
d="M46 -152v78.001h19c20.667 0 34.667 4.83301 42 14.5s11 28.167 11 55.5c0 17.333 -0.666992 43.666 -2 78.999s-2 63.333 -2 84c0 36.667 5.83301 63.834 17.5 81.501s30.5 29.5 56.5 35.5v4c-26 6 -44.833 17.833 -56.5 35.5s-17.5 44.834 -17.5 81.501
c0 20.667 0.666992 48.667 2 84s2 61.666 2 78.999c0 27.333 -3.66699 45.833 -11 55.5s-21.333 14.5 -42 14.5h-19v78h63c45.333 0 78 -10.5 98 -31.5s30 -57.833 30 -110.5c0 -24 -1.66699 -53.333 -5 -88s-5 -62.334 -5 -83.001c0 -20 6.83301 -37.167 20.5 -51.5
s35.5 -21.833 65.5 -22.5v-86c-30 -0.666992 -51.833 -8.16699 -65.5 -22.5s-20.5 -31.5 -20.5 -51.5c0 -20.667 1.66699 -48.167 5 -82.5s5 -63.833 5 -88.5c0 -52.667 -10 -89.5 -30 -110.5s-52.667 -31.5 -98 -31.5h-63z" />
    <glyph glyph-name="asciitilde" unicode="~" 
d="M349 240c-23.333 0 -45.5 6.33301 -66.5 19s-40.167 25.334 -57.5 38.001s-33.333 19 -48 19c-26 0 -50 -19.333 -72 -58l-76 59c44.667 68.667 94.667 103 150 103c23.333 0 45.5 -6.33301 66.5 -19s40.167 -25.334 57.5 -38.001s33.333 -19 48 -19
c26 0 50 19.333 72 58l76 -59c-44.667 -68.667 -94.667 -103 -150 -103z" />
    <glyph glyph-name="uni0400" unicode="&#x400;" horiz-adv-x="548" 
d="M77 0v652h408v-124h-261v-131h222v-123h-222v-150h271v-124h-418zM298 680l-183 119l78 95l171 -140z" />
    <glyph glyph-name="uni0401" unicode="&#x401;" horiz-adv-x="548" 
d="M177 700c-20.667 0 -37.5 6.66699 -50.5 20s-19.5 30 -19.5 50s6.5 36.667 19.5 50s29.833 20 50.5 20s37.5 -6.66699 50.5 -20s19.5 -30 19.5 -50s-6.5 -36.667 -19.5 -50s-29.833 -20 -50.5 -20zM399 700c-20.667 0 -37.5 6.66699 -50.5 20s-19.5 30 -19.5 50
s6.5 36.667 19.5 50s29.833 20 50.5 20s37.5 -6.66699 50.5 -20s19.5 -30 19.5 -50s-6.5 -36.667 -19.5 -50s-29.833 -20 -50.5 -20zM77 0v652h408v-124h-261v-131h222v-123h-222v-150h271v-124h-418z" />
    <glyph glyph-name="uni0402" unicode="&#x402;" horiz-adv-x="701" 
d="M472 -12c-27.333 0 -49.999 3.33301 -67.999 10l23 112c8 -3.33301 17 -5 27 -5c16.667 0 31.5 7.16699 44.5 21.5s19.5 35.5 19.5 63.5c0 66.667 -37 100 -111 100c-24.667 0 -49.667 -2.33301 -75 -7v-283h-148v528h-159v124h514v-124h-207v-128
c33.333 5.33301 65.666 8 96.999 8c66.667 0 122.167 -17.833 166.5 -53.5s66.5 -89.834 66.5 -162.501c0 -69.333 -17.167 -120.666 -51.5 -153.999s-80.5 -50 -138.5 -50z" />
    <glyph glyph-name="uni0403" unicode="&#x403;" horiz-adv-x="521" 
d="M77 0v652h411v-124h-264v-528h-147zM286 680l-66 74l171 140l78 -95z" />
    <glyph glyph-name="uni0404" unicode="&#x404;" horiz-adv-x="582" 
d="M482 176l78 -92.001c-54.667 -64 -125 -96 -211 -96c-90 0 -163 28 -219 84s-84 139.333 -84 250s29 195.334 87 254.001s131.333 88 220 88c76 0 141.667 -28.333 197 -85l-78 -94c-38 34.667 -76.333 52 -115 52c-41.333 0 -75.833 -11.5 -103.5 -34.5
s-46.167 -58.167 -55.5 -105.5h224v-123h-227c12 -106 65.333 -159 160 -159c46.667 0 89 20.333 127 61z" />
    <glyph glyph-name="uni0405" unicode="&#x405;" horiz-adv-x="556" 
d="M276 -12c-94 0 -174.333 31.333 -241 94l84 101c53.333 -45.333 107 -68 161 -68c60.667 0 91 21 91 63c0 17.333 -6.33301 30.833 -19 40.5s-34.334 20.834 -65.001 33.501c-4.66699 2 -8 3.33301 -10 4l-85 36c-38 15.333 -69.333 37.833 -94 67.5s-37 66.5 -37 110.5
c0 54.667 21.833 100.667 65.5 138s99.167 56 166.5 56c82.667 0 152.667 -28.667 210 -86l-75 -93c-45.333 34.667 -90.333 52 -135 52c-25.333 0 -45.5 -5.16699 -60.5 -15.5s-22.5 -24.833 -22.5 -43.5c0 -16.667 6.83301 -29.834 20.5 -39.501s35.5 -20.5 65.5 -32.5
c6 -2 10.333 -3.66699 13 -5l84 -34c86 -34.667 129 -93.667 129 -177c0 -56.667 -22.167 -104.5 -66.5 -143.5s-104.166 -58.5 -179.499 -58.5z" />
    <glyph glyph-name="uni0406" unicode="&#x406;" horiz-adv-x="301" 
d="M77 0v652h147v-652h-147z" />
    <glyph glyph-name="uni0407" unicode="&#x407;" horiz-adv-x="301" 
d="M77 0v652h147v-652h-147zM40 700c-20.667 0 -37.5 6.66699 -50.5 20s-19.5 30 -19.5 50s6.5 36.667 19.5 50s29.833 20 50.5 20s37.5 -6.66699 50.5 -20s19.5 -30 19.5 -50s-6.5 -36.667 -19.5 -50s-29.833 -20 -50.5 -20zM262 700c-20.667 0 -37.5 6.66699 -50.5 20
s-19.5 30 -19.5 50s6.5 36.667 19.5 50s29.833 20 50.5 20s37.5 -6.66699 50.5 -20s19.5 -30 19.5 -50s-6.5 -36.667 -19.5 -50s-29.833 -20 -50.5 -20z" />
    <glyph glyph-name="uni0408" unicode="&#x408;" horiz-adv-x="509" 
d="M226 -12c-95.333 0 -165.332 39.333 -209.999 118l100 74c23.333 -43.333 53.666 -65 90.999 -65c28 0 48.5 8.5 61.5 25.5s19.5 46.5 19.5 88.5v423h147v-435c0 -67.333 -17.667 -122.333 -53 -165s-87.333 -64 -156 -64z" />
    <glyph glyph-name="uni0409" unicode="&#x409;" horiz-adv-x="920" 
d="M574 117h42c82 0 123 31.333 123 94c0 57.333 -41 86 -123 86h-42v-180zM574 414h54c78 0 140 -16.333 186 -49s69 -83.334 69 -152.001c0 -74 -23.333 -128 -70 -162s-109.334 -51 -188.001 -51h-199v528h-99c-26.667 -154.667 -42 -242 -46 -262
c-20.667 -106.667 -46 -179.667 -76 -219s-72 -59 -126 -59c-33.333 0 -58.666 3.33301 -75.999 10l27 132c10.667 -2.66699 20 -4 28 -4c12 0 22 3 30 9s16.833 20.833 26.5 44.5s19.5 57.834 29.5 102.501c10.667 50.667 34 174 70 370h360v-238z" />
    <glyph glyph-name="uni040A" unicode="&#x40a;" horiz-adv-x="933" 
d="M587 117h42c82 0 123 31.333 123 94c0 57.333 -41 86 -123 86h-42v-180zM587 414l54.001 0.000976562c78 0 140 -16.333 186 -49s69 -83.334 69 -152.001c0 -74 -23.333 -128 -70 -162s-109.334 -51 -188.001 -51h-199v272h-215v-272h-147v652h147v-251h215v251h148v-238
z" />
    <glyph glyph-name="uni040B" unicode="&#x40b;" horiz-adv-x="718" 
d="M332 528l0.00195312 -128c33.333 5.33301 62.666 8 87.999 8c75.333 0 133.666 -18 174.999 -54s62 -92 62 -168v-186h-144v186c0 36 -8.5 62.333 -25.5 79s-44.833 25 -83.5 25c-22.667 0 -46.667 -2.33301 -72 -7v-283h-148v528h-159v124h514v-124h-207z" />
    <glyph glyph-name="uni040C" unicode="&#x40c;" horiz-adv-x="622" 
d="M516 807l-183 -119l-66 74l171 140zM412 347l212 -347h-155l-173 277h-72v-277h-147v652h147v-256h72l85 150c24.667 43.333 50.167 73.833 76.5 91.5s58.166 26.5 95.499 26.5c24 0 42 -3 54 -9l-24 -133c-7.33301 2.66699 -17 4 -29 4
c-14.667 0 -27.167 -4.16699 -37.5 -12.5s-22.166 -23.833 -35.499 -46.5z" />
    <glyph glyph-name="uni040D" unicode="&#x40d;" horiz-adv-x="676" 
d="M77 0v651.999h146v-230c0 -34 -6.33301 -113.333 -19 -238h4l64 143l171 325h156v-652h-145v231c0 22.667 1 47.334 3 74.001s4.66699 57 8 91l7 71h-4l-64 -142l-171 -325h-156zM352 687.999l-183 119l78 95l171 -140z" />
    <glyph glyph-name="uni040E" unicode="&#x40e;" horiz-adv-x="555" 
d="M158 -12c-34.667 0 -62.333 4.33301 -83 13l26 128c16 -5.33301 32.333 -8 49 -8c30.667 0 51.667 10 63 30l9 19l-221 482h156l76 -190l55 -156h4l51 156l69 190h148l-201 -504c-43.333 -106.667 -110.333 -160 -201 -160zM287.001 697c-114 0 -173.333 46 -178 138h124
c2 -42.667 20 -64 54 -64s52 21.333 54 64h124c-4.66699 -92 -64 -138 -178 -138z" />
    <glyph glyph-name="uni040F" unicode="&#x40f;" horiz-adv-x="663" 
d="M586 652v-652h-176l-11 -188h-132v188h-190v652h147v-528h215v528h147z" />
    <glyph glyph-name="uni0410" unicode="&#x410;" horiz-adv-x="573" 
d="M214 270h139l-15 60l-53 210h-4c-24.667 -106 -41.667 -176 -51 -210zM423 0l-40 155h-199l-40 -155h-150l204 652h177l204 -652h-156z" />
    <glyph glyph-name="uni0411" unicode="&#x411;" horiz-adv-x="600" 
d="M77 0v652.001h445v-124h-298v-131h90c36 0 68.5 -3.33301 97.5 -10s55.167 -17 78.5 -31s41.5 -33.667 54.5 -59s19.5 -55.333 19.5 -90c0 -70.667 -22.5 -122.834 -67.5 -156.501s-104.5 -50.5 -178.5 -50.5h-241zM224 114.001h79c78 0 117 30.333 117 91
c0 30 -9.83301 51.5 -29.5 64.5s-49.167 19.5 -88.5 19.5h-78v-175z" />
    <glyph glyph-name="uni0412" unicode="&#x412;" horiz-adv-x="605" 
d="M77 0l0.000976562 651.999h223c160 0 240 -54 240 -162c0 -30 -7.83301 -58.5 -23.5 -85.5s-36.167 -45.5 -61.5 -55.5v-4c35.333 -9.33301 63.666 -26.833 84.999 -52.5s32 -59.167 32 -100.5c0 -63.333 -23.5 -111.166 -70.5 -143.499s-107.833 -48.5 -182.5 -48.5
h-242zM224.001 390.999h68.999c68.667 0 103 25.667 103 77c0 25.333 -8.16699 43.333 -24.5 54s-42.166 16 -77.499 16h-70v-147zM224 113.999h83c80.667 0 121 29.333 121 88c0 28 -9.83301 48.333 -29.5 61s-50.167 19 -91.5 19h-83v-168z" />
    <glyph glyph-name="uni0413" unicode="&#x413;" horiz-adv-x="521" 
d="M77 0v652h411v-124h-264v-528h-147z" />
    <glyph glyph-name="uni0414" unicode="&#x414;" horiz-adv-x="670" 
d="M430 528h-126c-20.667 -116.667 -32.667 -182.667 -36 -198c-18 -91.333 -40.667 -160 -68 -206h230v404zM577 124h80v-92l-13 -220h-131v188h-356v-188h-131l-13 220v92h30c36 12.667 67 87.667 93 225c16.667 88.667 34.667 189.667 54 303h387v-528z" />
    <glyph glyph-name="uni0415" unicode="&#x415;" horiz-adv-x="548" 
d="M77 0v652h408v-124h-261v-131h222v-123h-222v-150h271v-124h-418z" />
    <glyph glyph-name="uni0416" unicode="&#x416;" horiz-adv-x="868" 
d="M677 343l189 -343h-158l-137 277h-67v-277h-140v277h-67l-137 -277h-158l188 344l-55 123c-11.333 22.667 -22.5 38.167 -33.5 46.5s-24.167 12.5 -39.5 12.5c-12 0 -21.333 -1.33301 -28 -4l-25 133c12.667 6 30.667 9 54 9c38.667 0 71.667 -8.66699 99 -26
s51.666 -48 72.999 -92l71 -150h58v256h140v-256h58l70 150c22 44 46.667 74.667 74 92s60.333 26 99 26c23.333 0 41 -3 53 -9l-24 -133c-7.33301 2.66699 -16.666 4 -27.999 4c-16 0 -29.5 -4.16699 -40.5 -12.5s-21.833 -23.833 -32.5 -46.5z" />
    <glyph glyph-name="uni0417" unicode="&#x417;" horiz-adv-x="564" 
d="M275 -12c-96 0 -175.999 30.001 -239.999 90.001l78 101c46.667 -42.667 100 -64 160 -64c34 0 61.5 7.83301 82.5 23.5s31.5 37.167 31.5 64.5c0 52.667 -39.333 79 -118 79h-87v109h67c71.333 0 107 24.667 107 74c0 48 -30.667 72 -92 72c-43.333 0 -88 -17 -134 -51
l-74 98c59.333 53.333 130.333 80 213 80c74 0 131 -15.5 171 -46.5s60 -73.833 60 -128.5c0 -68.667 -27.667 -115.667 -83 -141v-4c33.333 -9.33301 60.666 -27.5 81.999 -54.5s32 -59.5 32 -97.5c0 -64.667 -23.833 -114.834 -71.5 -150.501s-109.167 -53.5 -184.5 -53.5
z" />
    <glyph glyph-name="uni0418" unicode="&#x418;" horiz-adv-x="676" 
d="M77 0v651.999h146v-230c0 -34 -6.33301 -113.333 -19 -238h4l64 143l171 325h156v-652h-145v231c0 22.667 1 47.334 3 74.001s4.66699 57 8 91l7 71h-4l-64 -142l-171 -325h-156z" />
    <glyph glyph-name="uni0419" unicode="&#x419;" horiz-adv-x="676" 
d="M77 0v651.999h146v-230c0 -34 -6.33301 -113.333 -19 -238h4l64 143l171 325h156v-652h-145v231c0 22.667 1 47.334 3 74.001s4.66699 57 8 91l7 71h-4l-64 -142l-171 -325h-156zM342 704.999c-114 0 -173.333 46 -178 138h124c2 -42.667 20 -64 54 -64s52 21.333 54 64
h124c-4.66699 -92 -64 -138 -178 -138z" />
    <glyph glyph-name="uni041A" unicode="&#x41a;" horiz-adv-x="622" 
d="M412 347l212 -347h-155l-173 277h-72v-277h-147v652h147v-256h72l85 150c24.667 43.333 50.167 73.833 76.5 91.5s58.166 26.5 95.499 26.5c24 0 42 -3 54 -9l-24 -133c-7.33301 2.66699 -17 4 -29 4c-14.667 0 -27.167 -4.16699 -37.5 -12.5
s-22.166 -23.833 -35.499 -46.5z" />
    <glyph glyph-name="uni041B" unicode="&#x41b;" horiz-adv-x="657" 
d="M66 -12c-33.333 0 -58.667 3.33203 -76 9.99902l26 132c12 -2.66699 21.333 -4 28 -4c18.667 0 34.167 9.83301 46.5 29.5s25.5 61.834 39.5 126.501c12.667 56.667 36.334 180 71.001 370h380v-652h-148v528h-119l-48 -262
c-20.667 -106.667 -45.834 -179.667 -75.501 -219s-71.167 -59 -124.5 -59z" />
    <glyph glyph-name="uni041C" unicode="&#x41c;" horiz-adv-x="762" 
d="M77 0v652.001h161l105 -290l20 -63c8.66699 -28 14.667 -47 18 -57h4c4 11.333 10 30.666 18 57.999s14.333 48 19 62l103 290h160v-652h-134v239c0 34 6.33301 108 19 222h-4l-53 -155l-93 -249h-81l-93 249l-52 155h-4c12.667 -114 19 -188 19 -222v-239h-132z" />
    <glyph glyph-name="uni041D" unicode="&#x41d;" horiz-adv-x="674" 
d="M77 0v652h147v-251h225v251h148v-652h-148v272h-225v-272h-147z" />
    <glyph glyph-name="uni041E" unicode="&#x41e;" horiz-adv-x="684" 
d="M342 -12c-89.333 0 -161 30.5 -215 91.5s-81 144.167 -81 249.5c0 104.667 27 186.667 81 246s125.667 89 215 89s161 -29.667 215 -89s81 -141.333 81 -246c0 -105.333 -27 -188.5 -81 -249.5s-125.667 -91.5 -215 -91.5zM342 115c44.667 0 80 19.333 106 58
s39 90.667 39 156c0 64.667 -13 115.5 -39 152.5s-61.333 55.5 -106 55.5s-80 -18.5 -106 -55.5s-39 -87.833 -39 -152.5c0 -65.333 13 -117.333 39 -156s61.333 -58 106 -58z" />
    <glyph glyph-name="uni041F" unicode="&#x41f;" horiz-adv-x="663" 
d="M77 0v652h509v-652h-147v528h-215v-528h-147z" />
    <glyph glyph-name="uni0420" unicode="&#x420;" horiz-adv-x="596" 
d="M77 0v652h224c78.667 0 141.5 -16.5 188.5 -49.5s70.5 -86.5 70.5 -160.5c0 -72.667 -24 -127.667 -72 -165s-109 -56 -183 -56h-81v-221h-147zM224 338l72 0.000976562c80 0 120 34.667 120 104c0 33.333 -10.333 57.166 -31 71.499s-51.667 21.5 -93 21.5h-68v-197z
" />
    <glyph glyph-name="uni0421" unicode="&#x421;" horiz-adv-x="582" 
d="M349 -12c-86.667 0 -158.832 29.333 -216.499 88s-86.5 140.667 -86.5 246c0 104 29.833 187 89.5 249s132.5 93 218.5 93c75.333 0 140.666 -28.333 195.999 -85l-78 -94c-38 34.667 -76.333 52 -115 52c-46 0 -84.167 -19 -114.5 -57s-45.5 -89 -45.5 -153
c0 -66.667 14.167 -118.667 42.5 -156s66.833 -56 115.5 -56c46.667 0 89 20.333 127 61l78 -92c-54.667 -64 -125 -96 -211 -96z" />
    <glyph glyph-name="uni0422" unicode="&#x422;" horiz-adv-x="556" 
d="M204 0v528h-179v124h506v-124h-179v-528h-148z" />
    <glyph glyph-name="uni0423" unicode="&#x423;" horiz-adv-x="555" 
d="M158 -12c-34.667 0 -62.333 4.33301 -83 13l26 128c16 -5.33301 32.333 -8 49 -8c30.667 0 51.667 10 63 30l9 19l-221 482h156l76 -190l55 -156h4l51 156l69 190h148l-201 -504c-43.333 -106.667 -110.333 -160 -201 -160z" />
    <glyph glyph-name="uni0424" unicode="&#x424;" horiz-adv-x="764" 
d="M445 469v-284.001c43.333 3.33301 76.833 17 100.5 41s35.5 58.333 35.5 103c0 86.667 -45.333 133.334 -136 140.001zM318 184.999v284c-90 -7.33301 -135 -54 -135 -140c0 -88.667 45 -136.667 135 -144zM445 663.999l-0.000976562 -86
c86.667 -5.33301 154 -28.833 202 -70.5s72 -101.167 72 -178.5c0 -78 -24 -138.333 -72 -181s-115.333 -66.667 -202 -72v-88h-127v88c-86 5.33301 -153 29.333 -201 72s-72 103 -72 181c0 77.333 23.833 136.833 71.5 178.5s114.834 65.167 201.501 70.5v86h127z" />
    <glyph glyph-name="uni0425" unicode="&#x425;" horiz-adv-x="567" 
d="M11 0l181.001 335l-170 317h164l57 -123l47 -105h4c12.667 34.667 26.667 69.667 42 105l52 123h157l-169 -324l180 -328h-164l-65 133l-49 107h-4c-0.666992 -1.33301 -15.334 -37 -44.001 -107l-61 -133h-158z" />
    <glyph glyph-name="uni0426" unicode="&#x426;" horiz-adv-x="669" 
d="M577 124h80v-92l-13 -220h-132v188h-435v652h147v-528h206v528h147v-528z" />
    <glyph glyph-name="uni0427" unicode="&#x427;" horiz-adv-x="630" 
d="M405 0l0.000976562 264c-27.333 -4.66699 -60 -7 -98 -7c-80.667 0 -142 18.667 -184 56s-63 98 -63 182v157h145v-157c0 -44 9.16699 -75.167 27.5 -93.5s48.166 -27.5 89.499 -27.5c32 0 59.667 2.33301 83 7v271h148v-652h-148z" />
    <glyph glyph-name="uni0428" unicode="&#x428;" horiz-adv-x="910" 
d="M77 0v652h144v-528h164v528h141v-528h163v528h144v-652h-756z" />
    <glyph glyph-name="uni0429" unicode="&#x429;" horiz-adv-x="926" 
d="M833 124h80v-92l-13 -220h-131v188h-692v652h144v-528h164v528h141v-528h163v528h144v-528z" />
    <glyph glyph-name="uni042A" unicode="&#x42a;" horiz-adv-x="730" 
d="M216 0v528.001h-191v124h339v-238h70c74.667 0 136.5 -16.833 185.5 -50.5s73.5 -83.834 73.5 -150.501c0 -74 -23.167 -128 -69.5 -162s-107.833 -51 -184.5 -51h-223zM364 117.001h66c79.333 0 119 31.333 119 94c0 57.333 -41 86 -123 86h-62v-180z" />
    <glyph glyph-name="uni042B" unicode="&#x42b;" horiz-adv-x="853" 
d="M77 0l0.000976562 652.001h147v-238h65c78 0 140 -16.333 186 -49s69 -83.334 69 -152.001c0 -74 -23.333 -128 -70 -162s-109.334 -51 -188.001 -51h-209zM224.001 117.001h53c82 0 123 31.333 123 94c0 57.333 -41 86 -123 86h-53v-180zM629.001 0.000976562v652h147
v-652h-147z" />
    <glyph glyph-name="uni042C" unicode="&#x42c;" horiz-adv-x="600" 
d="M77 0v652.001h147v-238h84c78 0 140 -16.333 186 -49s69 -83.334 69 -152.001c0 -74 -23.333 -128 -70 -162s-109 -51 -187 -51h-229zM224 117.001h73c81.333 0 122 31.333 122 94c0 57.333 -41 86 -123 86h-72v-180z" />
    <glyph glyph-name="uni042D" unicode="&#x42d;" horiz-adv-x="582" 
d="M110 485l-77.999 93.999c60.667 56.667 130.667 85 210 85c87.333 0 158.166 -29.167 212.499 -87.5s81.5 -143.166 81.5 -254.499c0 -110 -27.833 -193.167 -83.5 -249.5s-126.834 -84.5 -213.501 -84.5c-86 0 -158.333 32 -217 96l78 92c42 -40.667 87.667 -61 137 -61
c88 0 138 53 150 159h-227v123h225c-15.333 93.333 -65.666 140 -150.999 140c-42.667 0 -84 -17.333 -124 -52z" />
    <glyph glyph-name="uni042E" unicode="&#x42e;" horiz-adv-x="950" 
d="M616 115c43.333 0 77 19.167 101 57.5s36 90.5 36 156.5c0 65.333 -11.833 116.333 -35.5 153s-57.5 55 -101.5 55c-43.333 0 -76.833 -18.333 -100.5 -55s-35.5 -87.667 -35.5 -153c0 -66 11.833 -118.167 35.5 -156.5s57.167 -57.5 100.5 -57.5zM224 401h113.998
c10.667 83.333 40.5 148 89.5 194s111.833 69 188.5 69c88.667 0 158.834 -29.667 210.501 -89s77.5 -141.333 77.5 -246c0 -106 -26 -189.333 -78 -250s-122 -91 -210 -91c-79.333 0 -143.666 25 -192.999 75s-78.333 119.667 -87 209h-112v-272h-147v652h147v-251z" />
    <glyph glyph-name="uni042F" unicode="&#x42f;" horiz-adv-x="617" 
d="M392 352v183h-75c-40.667 0 -70.667 -6.5 -90 -19.5s-29 -35.167 -29 -66.5c0 -64.667 39.667 -97 119 -97h75zM305 652h235v-652h-148v235h-73l-139 -235h-168l167 257c-84 32.667 -126 96.667 -126 192c0 135.333 84 203 252 203z" />
    <glyph glyph-name="uni0430" unicode="&#x430;" horiz-adv-x="527" 
d="M190 -12c-44.667 0 -80.499 14.332 -107.499 42.999s-40.5 64.334 -40.5 107.001c0 52.667 22.167 93.5 66.5 122.5s115.166 48.5 212.499 58.5c-3.33301 48 -29.333 72 -78 72c-36 0 -79.667 -15 -131 -45l-53 97c72 43.333 142.667 65 212 65
c131.333 0 197 -74.667 197 -224v-284h-120l-10 51h-4c-48 -42 -96 -63 -144 -63zM240.001 101.999c26 0 53 14 81 42v87c-92 -12.667 -138 -40 -138 -82c0 -31.333 19 -47 57 -47z" />
    <glyph glyph-name="uni0431" unicode="&#x431;" horiz-adv-x="561" 
d="M183 303l-0.000976562 -28c0 -112 34.333 -168 103 -168c26.667 0 47.334 12 62.001 36s22 57 22 99c0 80.667 -28.333 121 -85 121c-40 0 -74 -20 -102 -60zM473.999 730l27.998 -128.005c-22 -17.333 -60.667 -29.666 -116 -36.999l-48.5 -7
c-9.66699 -1.33301 -22.5 -3.66602 -38.5 -6.99902s-27.333 -6.5 -34 -9.5s-15 -7.16699 -25 -12.5s-17 -11.333 -21 -18s-8.5 -14.834 -13.5 -24.501s-8.83301 -20.667 -11.5 -33s-4.66699 -26.833 -6 -43.5c34.667 40.667 81.667 61 141 61
c54.667 0 100.167 -20 136.5 -60s54.5 -96.333 54.5 -169c0 -76 -21.667 -137.333 -65 -184s-99 -70 -167 -70c-78.667 0 -139.334 28.167 -182.001 84.5s-64 135.5 -64 237.5c0 72 7.33301 132.833 22 182.5s36.834 88.334 66.501 116.001s61.834 48.334 96.501 62.001
s77.334 23.834 128.001 30.501c52 6.66699 91.667 16.334 119 29.001z" />
    <glyph glyph-name="uni0432" unicode="&#x432;" 
d="M65 0v496.001h211c132.667 0 199 -43.667 199 -131c0 -22.667 -6.83301 -43.5 -20.5 -62.5s-34.5 -32.167 -62.5 -39.5v-4c68 -16.667 102 -55.334 102 -116.001c0 -48 -19.167 -83.833 -57.5 -107.5s-87.833 -35.5 -148.5 -35.5h-223zM208 302.001h58c46 0 69 16 69 48
c0 32.667 -22.667 49 -68 49h-59v-97zM208 97.001h71c48.667 0 73 18.667 73 56c0 15.333 -6.16699 27.833 -18.5 37.5s-30.833 14.5 -55.5 14.5h-70v-108z" />
    <glyph glyph-name="uni0433" unicode="&#x433;" horiz-adv-x="432" 
d="M65 0v496h341v-115h-194v-381h-147z" />
    <glyph glyph-name="uni0434" unicode="&#x434;" horiz-adv-x="584" 
d="M240 381l-12.999 -115c-6.66699 -60 -20.334 -110.333 -41.001 -151h160v266h-106zM493.001 115h79v-96l-14 -191h-126v172h-280v-172h-127l-14 191v96h31c13.333 7.33301 24.333 23.5 33 48.5s17 70.167 25 135.5l23 197h370v-381z" />
    <glyph glyph-name="uni0435" unicode="&#x435;" horiz-adv-x="518" 
d="M287 -12c-72.667 0 -132.667 23.334 -180 70.001s-71 110 -71 190c0 77.333 23.333 140 70 188s101.334 72 164.001 72c68 0 120.167 -22 156.5 -66s54.5 -101.333 54.5 -172c0 -27.333 -2 -49 -6 -65h-297c6 -34.667 20.5 -60.834 43.5 -78.501s51.5 -26.5 85.5 -26.5
c35.333 0 71 11 107 33l49 -89c-54.667 -37.333 -113.334 -56 -176.001 -56zM177 302.001h179.001c0 62.667 -27.667 94 -83 94c-24 0 -44.833 -8 -62.5 -24s-28.834 -39.333 -33.501 -70z" />
    <glyph glyph-name="uni0436" unicode="&#x436;" horiz-adv-x="761" 
d="M597 257l158.004 -257h-158l-105 198h-46v-198h-131v198h-46l-105 -198h-158l158 257l-28 62c-14 33.333 -34.667 50 -62 50c-4.66699 0 -11 -1.33301 -19 -4l-23 136c11.333 4.66699 24.666 7 39.999 7c37.333 0 68.166 -7.66699 92.499 -23s45.5 -42.333 63.5 -81
l43 -91h44v183h131v-183h44l43 91c18 38.667 39.167 65.667 63.5 81s55.166 23 92.499 23c15.333 0 28.666 -2.33301 39.999 -7l-23 -136c-8 2.66699 -14.333 4 -19 4c-27.333 0 -48 -16.667 -62 -50z" />
    <glyph glyph-name="uni0437" unicode="&#x437;" horiz-adv-x="476" 
d="M220 -12c-74.667 0 -138.667 19.665 -192 58.998l57 93c39.333 -26.667 79.666 -40 120.999 -40c26.667 0 48.667 5 66 15s26 23.667 26 41c0 32.667 -25.333 49 -76 49h-79v97h70c46.667 0 70 16 70 48c0 30.667 -25 46 -75 46c-44.667 0 -83.667 -11 -117 -33l-54 94
c52.667 34 113 51 181 51c58 0 106.667 -12 146 -36s59 -59.333 59 -106c0 -22 -6.66699 -42.667 -20 -62s-32.666 -33 -57.999 -41v-4c64.667 -17.333 97 -56.666 97 -117.999c0 -47.333 -22 -84.666 -66 -111.999s-96 -41 -156 -41z" />
    <glyph glyph-name="uni0438" unicode="&#x438;" horiz-adv-x="583" 
d="M65 0v496h142v-138c0 -20 -4 -78.667 -12 -176h3l28 50.5c14 25 23.667 42.833 29 53.5l129 210h134v-496h-142v138c0 29.333 4.33301 88 13 176h-4l-57 -104l-129 -210h-134z" />
    <glyph glyph-name="uni0439" unicode="&#x439;" horiz-adv-x="583" 
d="M297 572c-56 0 -98.3311 14.5 -126.998 43.5s-43.667 69.167 -45 120.5h114c1.33301 -29.333 6.16602 -51 14.499 -65s22.833 -21 43.5 -21s35.167 7 43.5 21s13.166 35.667 14.499 65h114c-1.33301 -51.333 -16.333 -91.5 -45 -120.5s-71 -43.5 -127 -43.5zM65.002 0
v496h142v-138c0 -20 -4 -78.667 -12 -176h3l28 50.5c14 25 23.667 42.833 29 53.5l129 210h134v-496h-142v138c0 29.333 4.33301 88 13 176h-4l-57 -104l-129 -210h-134z" />
    <glyph glyph-name="uni043A" unicode="&#x43a;" horiz-adv-x="546" 
d="M372 260l167.001 -260h-161l-114 198h-52v-198h-147v496h147v-183h51l43 91c18.667 40 40 67.333 64 82s55 22 93 22c14.667 0 28 -2.33301 40 -7l-23 -136c-8 2.66699 -14.333 4 -19 4c-14 0 -25.833 -3.33301 -35.5 -10s-18.834 -20 -27.501 -40z" />
    <glyph glyph-name="uni043B" unicode="&#x43b;" horiz-adv-x="573" 
d="M65 -12c-20.667 0 -40.332 3.66895 -58.999 11.002l24 132c10.667 -2.66699 19 -4 25 -4c29.333 0 47.333 24.667 54 74c4.66699 36.667 10.667 88.667 18 156s12.666 113.666 15.999 138.999h366v-496h-147v381h-103c-16 -128.667 -25.333 -202.334 -28 -221.001
c-16.667 -114.667 -72 -172 -166 -172z" />
    <glyph glyph-name="uni043C" unicode="&#x43c;" horiz-adv-x="660" 
d="M65 0l0.00195312 495.999h168l62 -170c2 -7.33301 13.667 -44.333 35 -111h4c14.667 42 26.667 79 36 111l58 170h167v-496h-130v127c0 30.667 5 102 15 214h-4l-25 -73l-23 -66l-58 -159h-80l-59 159c-4.66699 14 -12.834 37.167 -24.501 69.5
s-19.834 55.5 -24.501 69.5h-4c10.667 -119.333 16 -190.666 16 -213.999v-127h-129z" />
    <glyph glyph-name="uni043D" unicode="&#x43d;" horiz-adv-x="582" 
d="M65 0v496h147v-179h159v179h147v-496h-147v189h-159v-189h-147z" />
    <glyph glyph-name="uni043E" unicode="&#x43e;" horiz-adv-x="555" 
d="M278 -12c-66.667 0 -123.667 23.5 -171 70.5s-71 110.167 -71 189.5s23.667 142.5 71 189.5s104.333 70.5 171 70.5c66 0 122.667 -23.5 170 -70.5s71 -110.167 71 -189.5s-23.667 -142.5 -71 -189.5s-104 -70.5 -170 -70.5zM278 107c29.333 0 51.833 12.5 67.5 37.5
s23.5 59.5 23.5 103.5s-7.83301 78.5 -23.5 103.5s-38.167 37.5 -67.5 37.5c-30 0 -52.667 -12.5 -68 -37.5s-23 -59.5 -23 -103.5s7.66699 -78.5 23 -103.5s38 -37.5 68 -37.5z" />
    <glyph glyph-name="uni043F" unicode="&#x43f;" horiz-adv-x="574" 
d="M65 0v496h444v-496h-147v381h-150v-381h-147z" />
    <glyph glyph-name="uni0440" unicode="&#x440;" horiz-adv-x="573" 
d="M65 -184v680.001h120l10 -49h4c45.333 40.667 92.333 61 141 61c60 0 107.333 -22.833 142 -68.5s52 -106.834 52 -183.501c0 -81.333 -20.667 -146.333 -62 -195s-90.333 -73 -147 -73c-42 0 -81.333 17.333 -118 52l5 -79v-145h-147zM291 108.001
c27.333 0 49.501 12.167 66.501 36.5s25.5 60.833 25.5 109.5c0 89.333 -28.667 134 -86 134c-28.667 0 -57 -15 -85 -45v-203c23.333 -21.333 49.666 -32 78.999 -32z" />
    <glyph glyph-name="uni0441" unicode="&#x441;" horiz-adv-x="467" 
d="M281 -12c-71.333 0 -130.001 23.167 -176.001 69.5s-69 109.833 -69 190.5c0 79.333 25 142.5 75 189.5s111 70.5 183 70.5c54.667 0 103 -17.667 145 -53l-69 -95c-23.333 19.333 -45.666 29 -66.999 29c-35.333 0 -63.5 -12.667 -84.5 -38
s-31.5 -59.666 -31.5 -102.999c0 -42.667 10.333 -76.834 31 -102.501s47.334 -38.5 80.001 -38.5c28 0 57.667 12 89 36l58 -96c-44.667 -39.333 -99.334 -59 -164.001 -59z" />
    <glyph glyph-name="uni0442" unicode="&#x442;" horiz-adv-x="492" 
d="M172 0v381h-146v115h440v-115h-147v-381h-147z" />
    <glyph glyph-name="uni0443" unicode="&#x443;" horiz-adv-x="521" 
d="M120 -194c-24.667 0 -48 3.33301 -70 10l26 112c18 -4 29 -6 33 -6c43.333 0 72.333 21.667 87 65l7 26l-191 483h148l71 -213c7.33301 -23.333 20.333 -70.333 39 -141h4c14.667 62.667 26 109.667 34 141l60 213h141l-172 -501c-24.667 -66 -53 -114 -85 -144
s-76 -45 -132 -45z" />
    <glyph glyph-name="uni0444" unicode="&#x444;" horiz-adv-x="779" 
d="M318 -184v127.001l4 75c-32.667 -20 -63.334 -30 -92.001 -30c-58.667 0 -105.167 23.167 -139.5 69.5s-51.5 109.833 -51.5 190.5c0 77.333 19.167 140 57.5 188s82.833 72 133.5 72c34.667 0 65.334 -9 92.001 -27l-4 72v148h143v-148l-5 -76
c35.333 20.667 69.333 31 102 31c55.333 0 99.5 -22.833 132.5 -68.5s49.5 -106.834 49.5 -183.501c0 -81.333 -19.167 -146.333 -57.5 -195s-84.166 -73 -137.499 -73c-32.667 0 -62.334 9 -89.001 27l5 -72v-127h-143zM269 108.001c20.667 0 38.333 7.33398 53 22.001v239
c-15.333 12.667 -34.333 19 -57 19c-22 0 -40 -11.833 -54 -35.5s-21 -57.834 -21 -102.501c0 -94.667 26.333 -142 79 -142zM510.999 108.002c24 0 42.999 12.167 56.999 36.5s21 60.833 21 109.5c0 89.333 -25 134 -75 134c-21.333 0 -40.666 -7 -57.999 -21v-239
c16 -13.333 34.333 -20 55 -20z" />
    <glyph glyph-name="uni0445" unicode="&#x445;" horiz-adv-x="514" 
d="M14 0l152 258.001l-143 238h158l44 -80l42 -85h4c4 10.667 10.167 26.167 18.5 46.5s13.5 33.166 15.5 38.499l34 80h152l-144 -255l153 -241h-158l-48 82l-23.5 43l-23.5 43h-4c-3.33301 -8 -9.33301 -21.667 -18 -41l-20 -45l-39 -82h-152z" />
    <glyph glyph-name="uni0446" unicode="&#x446;" horiz-adv-x="595" 
d="M505 115h78v-96l-14 -191h-126v172h-378v496h147v-381h146v381h147v-381z" />
    <glyph glyph-name="uni0447" unicode="&#x447;" horiz-adv-x="550" 
d="M338 0v169c-24 -5.33301 -53 -8 -87 -8c-62.667 0 -112.167 15.5 -148.5 46.5s-54.5 79.5 -54.5 145.5v143h147v-143c0 -51.333 29.333 -77 88 -77c18.667 0 37 2 55 6v214h147v-496h-147z" />
    <glyph glyph-name="uni0448" unicode="&#x448;" horiz-adv-x="803" 
d="M65 0v496h145v-381h121v381h141v-381h121v381h146v-496h-674z" />
    <glyph glyph-name="uni0449" unicode="&#x449;" horiz-adv-x="829" 
d="M739 115h78v-96l-14 -191h-126v172h-612v496h145v-381h121v381h141v-381h121v381h146v-381z" />
    <glyph glyph-name="uni044A" unicode="&#x44a;" horiz-adv-x="623" 
d="M175 0v381h-149v115h296v-158h53c141.333 0 212 -55.667 212 -167c0 -114 -70.667 -171 -212 -171h-200zM322 112h46c52.667 0 79 20 79 60c0 38 -26.333 57 -79 57h-46v-117z" />
    <glyph glyph-name="uni044B" unicode="&#x44b;" horiz-adv-x="739" 
d="M65 0v496h147v-158h36c142 0 213 -55.667 213 -167c0 -114 -71 -171 -213 -171h-183zM212 112h29c52.667 0 79 20 79 60c0 38 -26.333 57 -79 57h-29v-117zM527 0v496h147v-496h-147z" />
    <glyph glyph-name="uni044C" unicode="&#x44c;" horiz-adv-x="516" 
d="M65 0v496h147v-158h55c142 0 213 -55.667 213 -167c0 -114 -71 -171 -213 -171h-202zM212 112h49c52 0 78 20 78 60c0 38 -26 57 -78 57h-49v-117z" />
    <glyph glyph-name="uni044D" unicode="&#x44d;" horiz-adv-x="467" 
d="M91 367l-62.999 84c39.333 38 91.666 57 156.999 57c72.667 0 132 -22.333 178 -67s69 -109 69 -193c0 -83.333 -22.667 -147.5 -68 -192.5s-104.333 -67.5 -177 -67.5c-69.333 0 -124.666 19.667 -165.999 59l54 86c28 -22 59.667 -33 95 -33
c69.333 0 109.666 35 120.999 105h-172v97h170c-12 62.667 -49.667 94 -113 94c-30 0 -58.333 -9.66699 -85 -29z" />
    <glyph glyph-name="uni044E" unicode="&#x44e;" horiz-adv-x="776" 
d="M505 107c28 0 49 12.498 63 37.498s21 59.5 21 103.5s-7 78.5 -21 103.5s-35 37.5 -63 37.5c-26.667 0 -47.667 -12.667 -63 -38s-23 -59.666 -23 -102.999s7.66699 -77.666 23 -102.999s36.333 -38 63 -38zM212 315.998h76c12 60 38.333 107 79 141s89.667 51 147 51
c64.667 0 118.5 -23.333 161.5 -70s64.5 -110 64.5 -190s-21.5 -143.333 -64.5 -190s-96.833 -70 -161.5 -70c-58.667 0 -108.5 17.833 -149.5 53.5s-66.833 84.5 -77.5 146.5h-75v-188h-147v496h147v-180z" />
    <glyph glyph-name="uni044F" unicode="&#x44f;" horiz-adv-x="544" 
d="M333 261v127h-47c-53.333 0 -80 -20 -80 -60c0 -20.667 6.83301 -37 20.5 -49s33.5 -18 59.5 -18h47zM268 496l212 -0.000976562v-496h-147v162h-55l-100 -162h-163l132 192c-57.333 30.667 -86 77.334 -86 140.001c0 109.333 69 164 207 164z" />
    <glyph glyph-name="uni0450" unicode="&#x450;" horiz-adv-x="518" 
d="M260 572l-181 157l99 97l154 -182zM287 -12c-72.667 0 -132.667 23.334 -180 70.001s-71 110 -71 190c0 77.333 23.333 140 70 188s101.334 72 164.001 72c68 0 120.167 -22 156.5 -66s54.5 -101.333 54.5 -172c0 -27.333 -2 -49 -6 -65h-297
c6 -34.667 20.5 -60.834 43.5 -78.501s51.5 -26.5 85.5 -26.5c35.333 0 71 11 107 33l49 -89c-54.667 -37.333 -113.334 -56 -176.001 -56zM177 302.001h179.001c0 62.667 -27.667 94 -83 94c-24 0 -44.833 -8 -62.5 -24s-28.834 -39.333 -33.501 -70z" />
    <glyph glyph-name="uni0451" unicode="&#x451;" horiz-adv-x="518" 
d="M287 -12c-72.667 0 -132.667 23.334 -180 70.001s-71 110 -71 190c0 77.333 23.333 140 70 188s101.334 72 164.001 72c68 0 120.167 -22 156.5 -66s54.5 -101.333 54.5 -172c0 -27.333 -2 -49 -6 -65h-297c6 -34.667 20.5 -60.834 43.5 -78.501s51.5 -26.5 85.5 -26.5
c35.333 0 71 11 107 33l49 -89c-54.667 -37.333 -113.334 -56 -176.001 -56zM177 302.001h179.001c0 62.667 -27.667 94 -83 94c-24 0 -44.833 -8 -62.5 -24s-28.834 -39.333 -33.501 -70zM161.001 569.001c-20.667 0 -37.834 6.83301 -51.501 20.5
s-20.5 30.834 -20.5 51.501c0 20 6.83301 36.833 20.5 50.5s30.834 20.5 51.501 20.5s37.667 -6.83301 51 -20.5s20 -30.5 20 -50.5c0 -20.667 -6.66699 -37.834 -20 -51.501s-30.333 -20.5 -51 -20.5zM379.001 569.001c-20.667 0 -37.667 6.83301 -51 20.5
s-20 30.834 -20 51.501c0 20 6.66699 36.833 20 50.5s30.333 20.5 51 20.5s37.834 -6.83301 51.501 -20.5s20.5 -30.5 20.5 -50.5c0 -20.667 -6.83301 -37.834 -20.5 -51.501s-30.834 -20.5 -51.501 -20.5z" />
    <glyph glyph-name="uni0452" unicode="&#x452;" horiz-adv-x="572" 
d="M212 481l-6.99902 -89.001c46.667 45.333 94.667 68 144 68c60.667 0 106.667 -23.833 138 -71.5s47 -117.167 47 -208.5c0 -136.667 -19.667 -233.5 -59 -290.5s-97 -85.5 -173 -85.5c-30.667 0 -56.667 4.66699 -78 14l26 108c15.333 -4.66699 27.666 -7 36.999 -7
c64.667 0 97 81 97 243c0 46.667 -3.66699 82.834 -11 108.501s-17 42.667 -29 51s-28.667 12.5 -50 12.5c-24.667 0 -52 -15.667 -82 -47v-287h-147v556h-68v65l68 5v75h147v-74h169v-71h-169v-75z" />
    <glyph glyph-name="uni0453" unicode="&#x453;" horiz-adv-x="432" 
d="M65 0v496h341v-115h-194v-381h-147zM253 572l-72 72l154 182l99 -97z" />
    <glyph glyph-name="uni0454" unicode="&#x454;" horiz-adv-x="467" 
d="M392 137l53.001 -90c-44.667 -39.333 -99.334 -59 -164.001 -59c-72.667 0 -131.667 22.5 -177 67.5s-68 109.167 -68 192.5c0 82.667 24.5 146.667 73.5 192s110.167 68 183.5 68c55.333 0 104 -17.667 146 -53l-63 -90c-26 20.667 -53.667 31 -83 31
c-63.333 0 -101.666 -31.333 -114.999 -94h169v-97h-171c11.333 -70 52 -105 122 -105c31.333 0 62.666 12.333 93.999 37z" />
    <glyph glyph-name="uni0455" unicode="&#x455;" horiz-adv-x="443" 
d="M211 -12c-32 0 -65.332 6.33594 -99.999 19.0029s-64.667 29.334 -90 50.001l66 92c46 -34.667 88.667 -52 128 -52c42 0 63 14 63 42c0 3.33301 -0.5 6.66602 -1.5 9.99902s-2.83301 6.5 -5.5 9.5s-5.16699 5.66699 -7.5 8s-6 4.83301 -11 7.5s-9.16699 5 -12.5 7
s-8.16602 4.33301 -14.499 7s-11.333 4.66699 -15 6s-9.16699 3.5 -16.5 6.5s-13 5.16699 -17 6.5c-87.333 33.333 -131 82 -131 146c0 46 17.333 83.333 52 112s80.667 43 138 43c60 0 118.333 -21 175 -63l-66 -88c-38.667 28 -73.667 42 -105 42
c-37.333 0 -56 -13 -56 -39c0 -4.66699 0.833008 -8.83398 2.5 -12.501s4.5 -7.33398 8.5 -11.001s7.66699 -6.66699 11 -9s8.66602 -5 15.999 -8l17 -7c4 -1.66699 11 -4.33398 21 -8.00098s17 -6.16699 21 -7.5c40.667 -14.667 73.167 -33 97.5 -55s36.5 -53.333 36.5 -94
c0 -46.667 -17.833 -85 -53.5 -115s-85.834 -45 -150.501 -45z" />
    <glyph glyph-name="uni0456" unicode="&#x456;" horiz-adv-x="276" 
d="M65 0v496h147v-496h-147zM138 569c-24.667 0 -45 7.16699 -61 21.5s-24 32.833 -24 55.5s8 41 24 55s36.333 21 61 21c25.333 0 45.833 -7 61.5 -21s23.5 -32.333 23.5 -55s-8 -41.167 -24 -55.5s-36.333 -21.5 -61 -21.5z" />
    <glyph glyph-name="uni0457" unicode="&#x457;" horiz-adv-x="276" 
d="M65 0v496h147v-496h-147zM29 569c-20.667 0 -37.834 6.83301 -51.501 20.5s-20.5 30.834 -20.5 51.501c0 20 6.83301 36.833 20.5 50.5s30.834 20.5 51.501 20.5s37.667 -6.83301 51 -20.5s20 -30.5 20 -50.5c0 -20.667 -6.66699 -37.834 -20 -51.501
s-30.333 -20.5 -51 -20.5zM247 569c-20.667 0 -37.667 6.83301 -51 20.5s-20 30.834 -20 51.501c0 20 6.66699 36.833 20 50.5s30.333 20.5 51 20.5s37.834 -6.83301 51.501 -20.5s20.5 -30.5 20.5 -50.5c0 -20.667 -6.83301 -37.834 -20.5 -51.501
s-30.834 -20.5 -51.501 -20.5z" />
    <glyph glyph-name="uni0458" unicode="&#x458;" horiz-adv-x="278" 
d="M36 -196c-34.667 0 -63.667 4.66699 -87 14l26 108c15.333 -4.66699 28.333 -7 39 -7c19.333 0 32.833 6.33301 40.5 19s11.5 33 11.5 61v497h147v-493c0 -132.667 -59 -199 -177 -199zM140 569c-24.667 0 -45 7.16699 -61 21.5s-24 32.833 -24 55.5s8 41 24 55
s36.333 21 61 21s45 -7 61 -21s24 -32.333 24 -55s-8 -41.167 -24 -55.5s-36.333 -21.5 -61 -21.5z" />
    <glyph glyph-name="uni0459" unicode="&#x459;" horiz-adv-x="780" 
d="M492 112h33c52.667 0 79 20 79 60c0 38 -26.333 57 -79 57h-33v-117zM492 338l40.002 0.000976562c141.333 0 212 -55.667 212 -167c0 -114 -70.667 -171 -212 -171h-187v381h-83c-8.66699 -118.667 -18.334 -201.667 -29.001 -249c-20.667 -96 -76.667 -144 -168 -144
c-20.667 0 -40.334 3.66699 -59.001 11l25 132c9.33301 -2.66699 17.666 -4 24.999 -4c26.667 0 44.667 24.667 54 74c10.667 57.333 19.334 155.666 26.001 294.999h356v-158z" />
    <glyph glyph-name="uni045A" unicode="&#x45a;" horiz-adv-x="788" 
d="M500 112h33c52.667 0 79 20 79 60c0 38 -26.333 57 -79 57h-33v-117zM500 338h40c141.333 0 212 -55.667 212 -167c0 -114 -70.667 -171 -212 -171h-187v189h-141v-189h-147v496h147v-179h141v179h147v-158z" />
    <glyph glyph-name="uni045B" unicode="&#x45b;" horiz-adv-x="571" 
d="M212 481l-7.00195 -90.002c50 46 101 69 153 69c102.667 0 154 -66.667 154 -200v-260h-147v241c0 34.667 -4.83301 58.834 -14.5 72.501s-25.167 20.5 -46.5 20.5c-17.333 0 -32.666 -3.66699 -45.999 -11s-28.666 -19.666 -45.999 -36.999v-286h-147v556h-68v65l68 5
v75h147v-74h169v-71h-169v-75z" />
    <glyph glyph-name="uni045C" unicode="&#x45c;" horiz-adv-x="546" 
d="M486 729l-181 -157l-72 72l154 182zM372 260l167.001 -260h-161l-114 198h-52v-198h-147v496h147v-183h51l43 91c18.667 40 40 67.333 64 82s55 22 93 22c14.667 0 28 -2.33301 40 -7l-23 -136c-8 2.66699 -14.333 4 -19 4c-14 0 -25.833 -3.33301 -35.5 -10
s-18.834 -20 -27.501 -40z" />
    <glyph glyph-name="uni045D" unicode="&#x45d;" horiz-adv-x="583" 
d="M287 572l-181 157l99 97l154 -182zM65 0v496h142v-138c0 -20 -4 -78.667 -12 -176h3l28 50.5c14 25 23.667 42.833 29 53.5l129 210h134v-496h-142v138c0 29.333 4.33301 88 13 176h-4l-57 -104l-129 -210h-134z" />
    <glyph glyph-name="uni045E" unicode="&#x45e;" horiz-adv-x="521" 
d="M120 -194c-24.667 0 -48 3.33301 -70 10l26 112c18 -4 29 -6 33 -6c43.333 0 72.333 21.667 87 65l7 26l-191 483h148l71 -213c7.33301 -23.333 20.333 -70.333 39 -141h4c14.667 62.667 26 109.667 34 141l60 213h141l-172 -501c-24.667 -66 -53 -114 -85 -144
s-76 -45 -132 -45zM267 572c-56 0 -98.3311 14.5 -126.998 43.5s-43.667 69.167 -45 120.5h114c1.33301 -29.333 6.16602 -51 14.499 -65s22.833 -21 43.5 -21s35.167 7 43.5 21s13.166 35.667 14.499 65h114c-1.33301 -51.333 -16.333 -91.5 -45 -120.5
s-71 -43.5 -127 -43.5z" />
    <glyph glyph-name="uni045F" unicode="&#x45f;" horiz-adv-x="578" 
d="M514 496v-496h-150l-16 -172h-126l-5 172h-152v496h147v-381h155v381h147z" />
    <glyph glyph-name="uni0462" unicode="&#x462;" horiz-adv-x="624" 
d="M292 114l36 -0.000976562c39.333 0 68.333 6.83301 87 20.5s28 36.834 28 69.501c0 28.667 -9.33301 49.167 -28 61.5s-49 18.5 -91 18.5h-32v-170zM292 387.999h39.999c76.667 0 138.334 -14.333 185.001 -43s70 -74 70 -136c0 -139.333 -83.333 -209 -250 -209h-193
v483h-119v117h119v96h148v-96h215v-117h-215v-95z" />
    <glyph glyph-name="uni0463" unicode="&#x463;" horiz-adv-x="600" 
d="M155 0v425h-129v116h129v87h147v-87h168v-116h-168v-87h50c141.333 0 212 -55.667 212 -167c0 -114 -70.667 -171 -212 -171h-197zM302 112h43c52.667 0 79 20 79 60c0 38 -26.333 57 -79 57h-43v-117z" />
    <glyph glyph-name="uni0472" unicode="&#x472;" horiz-adv-x="684" 
d="M489 277h-294c6.66699 -54.667 22.667 -96.334 48 -125.001s58.333 -43 99 -43s73.667 14.333 99 43s41.333 70.334 48 125.001zM197 394h289.999c-7.33301 48.667 -23.5 85.667 -48.5 111s-57.167 38 -96.5 38c-38.667 0 -70.667 -12.667 -96 -38
s-41.666 -62.333 -48.999 -111zM341.999 664c90 0 161.833 -29 215.5 -87s80.5 -140.667 80.5 -248c0 -108 -27 -191.833 -81 -251.5s-125.667 -89.5 -215 -89.5s-161 29.833 -215 89.5s-81 143.5 -81 251.5c0 107.333 27 190 81 248s125.667 87 215 87z" />
    <glyph glyph-name="uni0473" unicode="&#x473;" horiz-adv-x="555" 
d="M379 205h-203.001c10 -71.333 44 -107 102 -107c27.333 0 49.833 9.16699 67.5 27.5s28.834 44.833 33.501 79.5zM177.999 302h199c-12 64.667 -45 97 -99 97c-54.667 0 -88 -32.333 -100 -97zM277.999 508c67.333 0 124.333 -23 171 -69s70 -109.667 70 -191
s-23.333 -145 -70 -191s-103.667 -69 -171 -69c-68 0 -125.333 22.833 -172 68.5s-70 109.5 -70 191.5s23.333 145.833 70 191.5s104 68.5 172 68.5z" />
    <glyph glyph-name="uni0474" unicode="&#x474;" horiz-adv-x="574" 
d="M190 0l-196.996 652h156l78 -304c5.33301 -20 13.666 -53.167 24.999 -99.5s20.666 -82.833 27.999 -109.5h4c4.66699 20 11.667 53.167 21 99.5s17 82.833 23 109.5l37 141c15.333 62 36.166 106.667 62.499 134s63.166 41 110.499 41c27.333 0 51 -4 71 -12l-26 -132
c-16 4 -26 6 -30 6c-26.667 0 -45.667 -21.333 -57 -64l-122 -462h-184z" />
    <glyph glyph-name="uni0475" unicode="&#x475;" horiz-adv-x="533" 
d="M179 0l-167.001 495.999h148l64 -234l39 -153h4c12 69.333 22.333 120.333 31 153l20 72c15.333 60.667 35.5 104.834 60.5 132.501s59.5 41.5 103.5 41.5c26.667 0 50.334 -3.66699 71.001 -11l-25 -124c-16 4 -25.667 6 -29 6c-25.333 0 -44.333 -21.333 -57 -64
l-86 -315h-177z" />
    <glyph glyph-name="uni0490" unicode="&#x490;" horiz-adv-x="521" 
d="M372 824h126l-10 -296h-264v-528h-147v652h275z" />
    <glyph glyph-name="uni0491" unicode="&#x491;" horiz-adv-x="433" 
d="M297 668h120l-10 -287h-195v-381h-147v496h211z" />
    <glyph glyph-name="uni0492" unicode="&#x492;" horiz-adv-x="546" 
d="M513 528h-264v-174h125v-71h-125v-283h-147v283h-76v66l76 5v298h411v-124z" />
    <glyph glyph-name="uni0493" unicode="&#x493;" horiz-adv-x="457" 
d="M431 381h-194v-117h119v-71h-119v-193h-147v193h-66v66l66 4v233h341v-115z" />
    <glyph glyph-name="uni0496" unicode="&#x496;" horiz-adv-x="905" 
d="M798 124h95v-92l-13 -220h-132v188h-40l-137 277h-67v-277h-140v277h-67l-137 -277h-158l188 344l-55 123c-11.333 22.667 -22.5 38.167 -33.5 46.5s-24.167 12.5 -39.5 12.5c-12 0 -21.333 -1.33301 -28 -4l-25 133c12.667 6 30.667 9 54 9
c38.667 0 71.667 -8.66699 99 -26s51.666 -48 72.999 -92l71 -150h58v256h140v-256h58l70 150c22 44 46.667 74.667 74 92s60.333 26 99 26c23.333 0 41 -3 53 -9l-24 -133c-7.33301 2.66699 -16.666 4 -27.999 4c-16 0 -29.5 -4.16699 -40.5 -12.5
s-21.833 -23.833 -32.5 -46.5l-56 -124z" />
    <glyph glyph-name="uni0497" unicode="&#x497;" horiz-adv-x="803" 
d="M684 115h108.004v-96l-14 -191h-125v172h-56l-105 198h-46v-198h-131v198h-46l-105 -198h-158l158 257l-28 62c-14 33.333 -34.667 50 -62 50c-4.66699 0 -11 -1.33301 -19 -4l-23 136c11.333 4.66699 24.666 7 39.999 7c37.333 0 68.166 -7.66699 92.499 -23
s45.5 -42.333 63.5 -81l43 -91h44v183h131v-183h44l43 91c18 38.667 39.167 65.667 63.5 81s55.166 23 92.499 23c15.333 0 28.666 -2.33301 39.999 -7l-23 -136c-8 2.66699 -14.333 4 -19 4c-27.333 0 -48 -16.667 -62 -50l-28 -62z" />
    <glyph glyph-name="uni0498" unicode="&#x498;" horiz-adv-x="564" 
d="M417 348v-4.00098c33.333 -9.33301 60.666 -27.5 81.999 -54.5s32 -59.5 32 -97.5c0 -52 -15.667 -94.667 -47 -128s-73.333 -55.666 -126 -66.999l-11 -185h-131v180c-71.333 11.333 -131.666 40 -180.999 86l78 101c46.667 -42.667 100 -64 160 -64
c34 0 61.5 7.83301 82.5 23.5s31.5 37.167 31.5 64.5c0 52.667 -39.333 79 -118 79h-87v109h67c71.333 0 107 24.667 107 74c0 48 -30.667 72 -92 72c-43.333 0 -88 -17 -134 -51l-74 98c59.333 53.333 130.333 80 213 80c74 0 131 -15.5 171 -46.5s60 -73.833 60 -128.5
c0 -68.667 -27.667 -115.667 -83 -141z" />
    <glyph glyph-name="uni0499" unicode="&#x499;" horiz-adv-x="476" 
d="M345 263l0.000976562 -3.99902c64.667 -17.333 97 -56.666 97 -117.999c0 -35.333 -12.833 -65.333 -38.5 -90s-58.834 -42.334 -99.501 -53.001l-17 -170h-124l-5 164c-46.667 7.33301 -90 25.666 -130 54.999l57 93c39.333 -26.667 79.666 -40 120.999 -40
c26.667 0 48.667 5 66 15s26 23.667 26 41c0 32.667 -25.333 49 -76 49h-79v97h70c46.667 0 70 16 70 48c0 30.667 -25 46 -75 46c-44.667 0 -83.667 -11 -117 -33l-54 94c52.667 34 113 51 181 51c58 0 106.667 -12 146 -36s59 -59.333 59 -106
c0 -22 -6.66699 -42.667 -20 -62s-32.666 -33 -57.999 -41z" />
    <glyph glyph-name="uni049A" unicode="&#x49a;" horiz-adv-x="667" 
d="M548 124h106v-92l-13 -220h-131v188h-41l-173 277h-72v-277h-147v652h147v-256h72l85 150c24.667 43.333 50.167 73.833 76.5 91.5s58.166 26.5 95.499 26.5c24 0 42 -3 54 -9l-24 -133c-7.33301 2.66699 -17 4 -29 4c-14.667 0 -27.167 -4.16699 -37.5 -12.5
s-22.166 -23.833 -35.499 -46.5l-69 -120z" />
    <glyph glyph-name="uni049B" unicode="&#x49b;" horiz-adv-x="588" 
d="M465 115h112.001v-96l-14 -191h-125v172h-60l-114 198h-52v-198h-147v496h147v-183h51l43 91c18.667 40 40 67.333 64 82s55 22 93 22c14.667 0 28 -2.33301 40 -7l-23 -136c-8 2.66699 -14.333 4 -19 4c-14 0 -25.833 -3.33301 -35.5 -10s-18.834 -20 -27.501 -40
l-26 -59z" />
    <glyph glyph-name="uni04A0" unicode="&#x4a0;" horiz-adv-x="749" 
d="M539 346l212.998 -346h-155l-174 277h-71v-277h-148v528h-179v124h327v-256h72l84 150c24.667 43.333 50.167 73.833 76.5 91.5s58.5 26.5 96.5 26.5c23.333 0 41 -3 53 -9l-24 -133c-7.33301 2.66699 -16.666 4 -27.999 4c-15.333 0 -28.166 -4.16699 -38.499 -12.5
s-21.833 -23.833 -34.5 -46.5z" />
    <glyph glyph-name="uni04A1" unicode="&#x4a1;" horiz-adv-x="656" 
d="M482 260l167.001 -260h-161l-114 198h-52v-198h-147v381h-149v115h296v-183h51l43 91c18.667 40 40 67.333 64 82s55 22 93 22c14.667 0 28 -2.33301 40 -7l-23 -136c-8 2.66699 -14.333 4 -19 4c-14 0 -25.833 -3.33301 -35.5 -10s-18.834 -20 -27.501 -40z" />
    <glyph glyph-name="uni04A2" unicode="&#x4a2;" horiz-adv-x="689" 
d="M597 124h79v-92l-12 -220h-132v188h-83v272h-225v-272h-147v652h147v-251h225v251h148v-528z" />
    <glyph glyph-name="uni04A3" unicode="&#x4a3;" horiz-adv-x="608" 
d="M520 115h76v-96l-13 -191h-127v172h-83v189h-159v-189h-147v496h147v-179h159v179h147v-381z" />
    <glyph glyph-name="uni04AA" unicode="&#x4aa;" horiz-adv-x="582" 
d="M482 176l78.001 -91.999c-38.667 -44.667 -84.667 -73.667 -138 -87l-11 -185h-132v183c-69.333 15.333 -125.5 51.166 -168.5 107.499s-64.5 129.5 -64.5 219.5c0 104 29.833 187 89.5 249s132.5 93 218.5 93c75.333 0 140.666 -28.333 195.999 -85l-78 -94
c-38 34.667 -76.333 52 -115 52c-46 0 -84.167 -19 -114.5 -57s-45.5 -89 -45.5 -153c0 -66.667 14.167 -118.667 42.5 -156s66.833 -56 115.5 -56c46.667 0 89 20.333 127 61z" />
    <glyph glyph-name="uni04AB" unicode="&#x4ab;" horiz-adv-x="467" 
d="M387 143l57.998 -95.999c-26 -23.333 -57 -40 -93 -50l-17 -169h-124l-5 170c-52 14.667 -93.333 43.667 -124 87s-46 97.666 -46 162.999c0 79.333 25 142.5 75 189.5s111 70.5 183 70.5c54.667 0 103 -17.667 145 -53l-69 -95c-23.333 19.333 -45.666 29 -66.999 29
c-35.333 0 -63.5 -12.667 -84.5 -38s-31.5 -59.666 -31.5 -102.999c0 -42.667 10.333 -76.834 31 -102.501s47.334 -38.5 80.001 -38.5c28 0 57.667 12 89 36z" />
    <glyph glyph-name="uni04AE" unicode="&#x4ae;" horiz-adv-x="525" 
d="M189 0v232l-197 420h158l58 -150c2 -6 9.5 -26.667 22.5 -62l30.5 -82h4l25 64c13.333 34 23.333 60.667 30 80l59 150h154l-197 -420v-232h-147z" />
    <glyph glyph-name="uni04AF" unicode="&#x4af;" horiz-adv-x="523" 
d="M191 -184v184l-179 496h148l63 -219c4.66699 -19.333 11.667 -45.833 21 -79.5l19 -68.5h4l20.5 76.5l19.5 71.5l63 219h141l-173 -496v-184h-147z" />
    <glyph glyph-name="uni04B0" unicode="&#x4b0;" horiz-adv-x="525" 
d="M533 652l-172 -366h116v-71h-141v-215h-147v215h-141v65l93 6h23l-172 366h158l58 -150c2 -6 9.5 -26.667 22.5 -62l30.5 -82h4l25 64c13.333 34 23.333 60.667 30 80l59 150h154z" />
    <glyph glyph-name="uni04B1" unicode="&#x4b1;" horiz-adv-x="523" 
d="M511 496l-148 -425h110v-71h-135v-184h-147v184h-142v65l77 6h39l-153 425h148l63 -219c4.66699 -19.333 11.667 -45.833 21 -79.5l19 -68.5h4l20.5 76.5l19.5 71.5l63 219h141z" />
    <glyph glyph-name="uni04B2" unicode="&#x4b2;" horiz-adv-x="605" 
d="M488 124h104.001v-92l-12 -220h-128v188h-60l-65 133l-49 107h-4c-0.666992 -1.33301 -15.334 -37 -44.001 -107l-61 -133h-158l181 335l-170 317h164l57 -123l47 -105h4c12.667 34.667 26.667 69.667 42 105l52 123h157l-169 -324z" />
    <glyph glyph-name="uni04B3" unicode="&#x4b3;" horiz-adv-x="548" 
d="M427 115l110 0.000976562v-96l-14 -191h-125v172h-56l-48 82l-23.5 43l-23.5 43h-4c-3.33301 -8 -9.33301 -21.667 -18 -41l-20 -45l-39 -82h-152l152 258l-143 238h158l44 -80l42 -85h4c4 10.667 10.167 26.167 18.5 46.5s13.5 33.166 15.5 38.499l34 80h152l-144 -255z
" />
    <glyph glyph-name="uni04B6" unicode="&#x4b6;" horiz-adv-x="645" 
d="M553 124h79.001v-92l-12 -220h-128v188h-87v264c-27.333 -4.66699 -60 -7 -98 -7c-80.667 0 -142 18.667 -184 56s-63 98 -63 182v157h145v-157c0 -44 9.16699 -75.167 27.5 -93.5s48.166 -27.5 89.499 -27.5c32 0 59.667 2.33301 83 7v271h148v-528z" />
    <glyph glyph-name="uni04B7" unicode="&#x4b7;" horiz-adv-x="575" 
d="M485 115h79v-96l-14 -191h-125v172h-87v169c-24 -5.33301 -53 -8 -87 -8c-62.667 0 -112.167 15.5 -148.5 46.5s-54.5 79.5 -54.5 145.5v143h147v-143c0 -51.333 29.333 -77 88 -77c18.667 0 37 2 55 6v214h147v-381z" />
    <glyph glyph-name="uni04BA" unicode="&#x4ba;" horiz-adv-x="630" 
d="M77 0l0.000976562 652h147v-237c27.333 4.66699 60 7 98 7c80.667 0 142 -18.667 184 -56s63 -98 63 -182v-184h-144v184c0 44 -9.16699 75.167 -27.5 93.5s-48.5 27.5 -90.5 27.5c-30.667 0 -58.334 -2.33301 -83.001 -7v-298h-147z" />
    <glyph glyph-name="uni04BB" unicode="&#x4bb;" horiz-adv-x="571" 
d="M65 0l-0.00195312 700.999h147v-172l-7 -89c50.667 45.333 101.667 68 153 68c102.667 0 154 -66.667 154 -200v-308h-147v289c0 35.333 -4.83301 59.833 -14.5 73.5s-25.167 20.5 -46.5 20.5c-17.333 0 -32.666 -3.66699 -45.999 -11s-28.666 -19.666 -45.999 -36.999
v-335h-147z" />
    <glyph glyph-name="uni04C0" unicode="&#x4c0;" horiz-adv-x="301" 
d="M77 0v652h147v-652h-147z" />
    <glyph glyph-name="uni04C1" unicode="&#x4c1;" horiz-adv-x="868" 
d="M488 835h124c-4.66699 -92 -64 -138 -178 -138s-173.333 46 -178 138h124c2 -42.667 20 -64 54 -64s52 21.333 54 64zM677 343l189 -343h-158l-137 277h-67v-277h-140v277h-67l-137 -277h-158l188 344l-55 123c-11.333 22.667 -22.5 38.167 -33.5 46.5
s-24.167 12.5 -39.5 12.5c-12 0 -21.333 -1.33301 -28 -4l-25 133c12.667 6 30.667 9 54 9c38.667 0 71.667 -8.66699 99 -26s51.666 -48 72.999 -92l71 -150h58v256h140v-256h58l70 150c22 44 46.667 74.667 74 92s60.333 26 99 26c23.333 0 41 -3 53 -9l-24 -133
c-7.33301 2.66699 -16.666 4 -27.999 4c-16 0 -29.5 -4.16699 -40.5 -12.5s-21.833 -23.833 -32.5 -46.5z" />
    <glyph glyph-name="uni04C2" unicode="&#x4c2;" horiz-adv-x="761" 
d="M439 736h114.002c-1.33301 -51.333 -16.333 -91.5 -45 -120.5s-71 -43.5 -127 -43.5s-98.333 14.5 -127 43.5s-43.667 69.167 -45 120.5h114c1.33301 -29.333 6.16602 -51 14.499 -65s22.833 -21 43.5 -21s35.167 7 43.5 21s13.166 35.667 14.499 65zM597.002 257
l158.004 -257h-158l-105 198h-46v-198h-131v198h-46l-105 -198h-158l158 257l-28 62c-14 33.333 -34.667 50 -62 50c-4.66699 0 -11 -1.33301 -19 -4l-23 136c11.333 4.66699 24.666 7 39.999 7c37.333 0 68.166 -7.66699 92.499 -23s45.5 -42.333 63.5 -81l43 -91h44v183
h131v-183h44l43 91c18 38.667 39.167 65.667 63.5 81s55.166 23 92.499 23c15.333 0 28.666 -2.33301 39.999 -7l-23 -136c-8 2.66699 -14.333 4 -19 4c-27.333 0 -48 -16.667 -62 -50z" />
    <glyph glyph-name="uni04CF" unicode="&#x4cf;" horiz-adv-x="286" 
d="M200 -12c-90 0 -135 55.333 -135 166v547h147v-553c0 -27.333 8.66699 -41 26 -41c6.66699 0 12.667 0.666992 18 2l18 -109c-18 -8 -42.667 -12 -74 -12z" />
    <glyph glyph-name="uni04D0" unicode="&#x4d0;" horiz-adv-x="573" 
d="M340 835h124c-4.66699 -92 -64 -138 -178 -138s-173.333 46 -178 138h124c2 -42.667 20 -64 54 -64s52 21.333 54 64zM214 270h139l-15 60l-53 210h-4c-24.667 -106 -41.667 -176 -51 -210zM423 0l-40 155h-199l-40 -155h-150l204 652h177l204 -652h-156z" />
    <glyph glyph-name="uni04D1" unicode="&#x4d1;" horiz-adv-x="527" 
d="M276 572c-56 0 -98.3311 14.5 -126.998 43.5s-43.667 69.167 -45 120.5h114c1.33301 -29.333 6.16602 -51 14.499 -65s22.833 -21 43.5 -21s35.167 7 43.5 21s13.166 35.667 14.499 65h114c-1.33301 -51.333 -16.333 -91.5 -45 -120.5s-71 -43.5 -127 -43.5zM190.002 -12
c-44.667 0 -80.499 14.332 -107.499 42.999s-40.5 64.334 -40.5 107.001c0 52.667 22.167 93.5 66.5 122.5s115.166 48.5 212.499 58.5c-3.33301 48 -29.333 72 -78 72c-36 0 -79.667 -15 -131 -45l-53 97c72 43.333 142.667 65 212 65c131.333 0 197 -74.667 197 -224v-284
h-120l-10 51h-4c-48 -42 -96 -63 -144 -63zM240.003 101.999c26 0 53 14 81 42v87c-92 -12.667 -138 -40 -138 -82c0 -31.333 19 -47 57 -47z" />
    <glyph glyph-name="uni04D4" unicode="&#x4d4;" horiz-adv-x="845" 
d="M261 263l125 0.000976562v278h-4c-44 -104.667 -70.333 -166.334 -79 -185.001zM533 124.001h260v-124h-407v149h-177l-68 -149h-155l310 652h487v-124h-250v-131h211v-123h-211v-150z" />
    <glyph glyph-name="uni04D5" unicode="&#x4d5;" horiz-adv-x="786" 
d="M194 -12c-44 0 -79.5 14.167 -106.5 42.5s-40.5 63.833 -40.5 106.5c0 53.333 21.833 94.666 65.5 123.999s113.834 49 210.501 59c-3.33301 47.333 -29 71 -77 71c-35.333 0 -78.666 -15 -129.999 -45l-52 97c72 43.333 139.667 65 203 65c61.333 0 107.333 -25 138 -75
c44 50 93 75 147 75c63.333 0 112 -22.5 146 -67.5s51 -102.833 51 -173.5c0 -25.333 -2 -46 -6 -62h-286c5.33301 -33.333 18.666 -58.666 39.999 -75.999s47.666 -26 78.999 -26c28.667 0 63.667 12 105 36l50 -95c-54.667 -37.333 -113 -56 -175 -56
c-67.333 0 -124.333 25.667 -171 77c-64 -51.333 -127.667 -77 -191 -77zM244 102c32.667 0 63.667 14 93 42c-7.33301 20.667 -12 42.667 -14 66l-1 21c-90 -12.667 -135 -40 -135 -82c0 -31.333 19 -47 57 -47zM457 295h167c0 67.333 -25.667 101 -77 101
c-24 0 -44 -8.5 -60 -25.5s-26 -42.167 -30 -75.5z" />
    <glyph glyph-name="uni04D6" unicode="&#x4d6;" horiz-adv-x="548" 
d="M77 0v652h408v-124h-261v-131h222v-123h-222v-150h271v-124h-418zM288 697c-114 0 -173.333 46 -178 138h124c2 -42.667 20 -64 54 -64s52 21.333 54 64h124c-4.66699 -92 -64 -138 -178 -138z" />
    <glyph glyph-name="uni04D7" unicode="&#x4d7;" horiz-adv-x="518" 
d="M287 -12c-72.667 0 -132.667 23.334 -180 70.001s-71 110 -71 190c0 77.333 23.333 140 70 188s101.334 72 164.001 72c68 0 120.167 -22 156.5 -66s54.5 -101.333 54.5 -172c0 -27.333 -2 -49 -6 -65h-297c6 -34.667 20.5 -60.834 43.5 -78.501s51.5 -26.5 85.5 -26.5
c35.333 0 71 11 107 33l49 -89c-54.667 -37.333 -113.334 -56 -176.001 -56zM177 302.001h179.001c0 62.667 -27.667 94 -83 94c-24 0 -44.833 -8 -62.5 -24s-28.834 -39.333 -33.501 -70zM270.001 572.001c-56 0 -98.3311 14.5 -126.998 43.5s-43.667 69.167 -45 120.5h114
c1.33301 -29.333 6.16602 -51 14.499 -65s22.833 -21 43.5 -21s35.167 7 43.5 21s13.166 35.667 14.499 65h114c-1.33301 -51.333 -16.333 -91.5 -45 -120.5s-71 -43.5 -127 -43.5z" />
    <glyph glyph-name="uni04D8" unicode="&#x4d8;" horiz-adv-x="675" 
d="M479 264h-278c7.33301 -104 52.333 -156 135 -156c82 0 129.667 52 143 156zM180 482l-66.999 101.002c58.667 54 134.334 81 227.001 81c88 0 158.167 -29.167 210.5 -87.5s78.5 -141.5 78.5 -249.5c0 -108.667 -26.333 -192.334 -79 -251.001s-124 -88 -214 -88
c-88.667 0 -158.334 29 -209.001 87s-76 140.667 -76 248c0 15.333 1 31.666 3 48.999h427c-10 114 -62.667 171 -158 171c-50.667 0 -98.334 -20.333 -143.001 -61z" />
    <glyph glyph-name="uni04D9" unicode="&#x4d9;" horiz-adv-x="518" 
d="M249 -12c-68 0 -120.5 22.168 -157.5 66.501s-55.5 102.166 -55.5 173.499c0 19.333 2 41 6 65h297c-10.667 68.667 -48.667 103 -114 103c-36.667 0 -72.667 -11 -108 -33l-49 95c50 33.333 110.667 50 182 50c67.333 0 122.833 -23.5 166.5 -70.5
s65.5 -110.167 65.5 -189.5c0 -78 -22.667 -140.833 -68 -188.5s-100.333 -71.5 -165 -71.5zM246 100.001c25.333 0 46.332 8 62.999 24s27.334 40 32.001 72h-179c0 -64 28 -96 84 -96z" />
    <glyph glyph-name="uni04E2" unicode="&#x4e2;" horiz-adv-x="676" 
d="M77 0v651.999h146v-230c0 -34 -6.33301 -113.333 -19 -238h4l64 143l171 325h156v-652h-145v231c0 22.667 1 47.334 3 74.001s4.66699 57 8 91l7 71h-4l-64 -142l-171 -325h-156zM191 728.999v94h302v-94h-302z" />
    <glyph glyph-name="uni04E3" unicode="&#x4e3;" horiz-adv-x="583" 
d="M65 0v496h142v-138c0 -20 -4 -78.667 -12 -176h3l28 50.5c14 25 23.667 42.833 29 53.5l129 210h134v-496h-142v138c0 29.333 4.33301 88 13 176h-4l-57 -104l-129 -210h-134zM148 592v93h296v-93h-296z" />
    <glyph glyph-name="uni04E6" unicode="&#x4e6;" horiz-adv-x="684" 
d="M231 700c-20.667 0 -37.5 6.66699 -50.5 20s-19.5 30 -19.5 50s6.5 36.667 19.5 50s29.833 20 50.5 20s37.5 -6.66699 50.5 -20s19.5 -30 19.5 -50s-6.5 -36.667 -19.5 -50s-29.833 -20 -50.5 -20zM453 700c-20.667 0 -37.5 6.66699 -50.5 20s-19.5 30 -19.5 50
s6.5 36.667 19.5 50s29.833 20 50.5 20s37.5 -6.66699 50.5 -20s19.5 -30 19.5 -50s-6.5 -36.667 -19.5 -50s-29.833 -20 -50.5 -20zM342 -12c-89.333 0 -161 30.5 -215 91.5s-81 144.167 -81 249.5c0 104.667 27 186.667 81 246s125.667 89 215 89s161 -29.667 215 -89
s81 -141.333 81 -246c0 -105.333 -27 -188.5 -81 -249.5s-125.667 -91.5 -215 -91.5zM342 115c44.667 0 80 19.333 106 58s39 90.667 39 156c0 64.667 -13 115.5 -39 152.5s-61.333 55.5 -106 55.5s-80 -18.5 -106 -55.5s-39 -87.833 -39 -152.5
c0 -65.333 13 -117.333 39 -156s61.333 -58 106 -58z" />
    <glyph glyph-name="uni04E7" unicode="&#x4e7;" horiz-adv-x="555" 
d="M169 569c-20.667 0 -37.834 6.83301 -51.501 20.5s-20.5 30.834 -20.5 51.501c0 20 6.83301 36.833 20.5 50.5s30.834 20.5 51.501 20.5s37.667 -6.83301 51 -20.5s20 -30.5 20 -50.5c0 -20.667 -6.66699 -37.834 -20 -51.501s-30.333 -20.5 -51 -20.5zM387 569
c-20.667 0 -37.667 6.83301 -51 20.5s-20 30.834 -20 51.501c0 20 6.66699 36.833 20 50.5s30.333 20.5 51 20.5s37.834 -6.83301 51.501 -20.5s20.5 -30.5 20.5 -50.5c0 -20.667 -6.83301 -37.834 -20.5 -51.501s-30.834 -20.5 -51.501 -20.5zM278 -12
c-66.667 0 -123.667 23.5 -171 70.5s-71 110.167 -71 189.5s23.667 142.5 71 189.5s104.333 70.5 171 70.5c66 0 122.667 -23.5 170 -70.5s71 -110.167 71 -189.5s-23.667 -142.5 -71 -189.5s-104 -70.5 -170 -70.5zM278 107c29.333 0 51.833 12.5 67.5 37.5
s23.5 59.5 23.5 103.5s-7.83301 78.5 -23.5 103.5s-38.167 37.5 -67.5 37.5c-30 0 -52.667 -12.5 -68 -37.5s-23 -59.5 -23 -103.5s7.66699 -78.5 23 -103.5s38 -37.5 68 -37.5z" />
    <glyph glyph-name="uni04E8" unicode="&#x4e8;" horiz-adv-x="684" 
d="M489 277h-294c6.66699 -54.667 22.667 -96.334 48 -125.001s58.333 -43 99 -43s73.667 14.333 99 43s41.333 70.334 48 125.001zM197 394h289.999c-7.33301 48.667 -23.5 85.667 -48.5 111s-57.167 38 -96.5 38c-38.667 0 -70.667 -12.667 -96 -38
s-41.666 -62.333 -48.999 -111zM341.999 664c90 0 161.833 -29 215.5 -87s80.5 -140.667 80.5 -248c0 -108 -27 -191.833 -81 -251.5s-125.667 -89.5 -215 -89.5s-161 29.833 -215 89.5s-81 143.5 -81 251.5c0 107.333 27 190 81 248s125.667 87 215 87z" />
    <glyph glyph-name="uni04E9" unicode="&#x4e9;" horiz-adv-x="555" 
d="M379 205h-203.001c10 -71.333 44 -107 102 -107c27.333 0 49.833 9.16699 67.5 27.5s28.834 44.833 33.501 79.5zM177.999 302h199c-12 64.667 -45 97 -99 97c-54.667 0 -88 -32.333 -100 -97zM277.999 508c67.333 0 124.333 -23 171 -69s70 -109.667 70 -191
s-23.333 -145 -70 -191s-103.667 -69 -171 -69c-68 0 -125.333 22.833 -172 68.5s-70 109.5 -70 191.5s23.333 145.833 70 191.5s104 68.5 172 68.5z" />
    <glyph glyph-name="uni04EE" unicode="&#x4ee;" horiz-adv-x="555" 
d="M158 -12c-34.667 0 -62.333 4.33301 -83 13l26 128c16 -5.33301 32.333 -8 49 -8c30.667 0 51.667 10 63 30l9 19l-221 482h156l76 -190l55 -156h4l51 156l69 190h148l-201 -504c-43.333 -106.667 -110.333 -160 -201 -160zM134.001 721v94h302v-94h-302z" />
    <glyph glyph-name="uni04EF" unicode="&#x4ef;" horiz-adv-x="521" 
d="M120 -194c-24.667 0 -48 3.33301 -70 10l26 112c18 -4 29 -6 33 -6c43.333 0 72.333 21.667 87 65l7 26l-191 483h148l71 -213c7.33301 -23.333 20.333 -70.333 39 -141h4c14.667 62.667 26 109.667 34 141l60 213h141l-172 -501c-24.667 -66 -53 -114 -85 -144
s-76 -45 -132 -45zM119 592v93h296v-93h-296z" />
    <glyph glyph-name="uni04F2" unicode="&#x4f2;" horiz-adv-x="555" 
d="M150 728l101 161l93 -52l-122 -143zM337 728l101 161l94 -52l-122 -143zM158 -12c-34.667 0 -62.333 4.33301 -83 13l26 128c16 -5.33301 32.333 -8 49 -8c30.667 0 51.667 10 63 30l9 19l-221 482h156l76 -190l55 -156h4l51 156l69 190h148l-201 -504
c-43.333 -106.667 -110.333 -160 -201 -160z" />
    <glyph glyph-name="uni04F3" unicode="&#x4f3;" horiz-adv-x="521" 
d="M120 -194c-24.667 0 -48 3.33301 -70 10l26 112c18 -4 29 -6 33 -6c43.333 0 72.333 21.667 87 65l7 26l-191 483h148l71 -213c7.33301 -23.333 20.333 -70.333 39 -141h4c14.667 62.667 26 109.667 34 141l60 213h141l-172 -501c-24.667 -66 -53 -114 -85 -144
s-76 -45 -132 -45zM215 565l-77 35l87 181l99 -44zM394 565l-77 35l87 181l99 -44z" />
    <glyph glyph-name=".null" horiz-adv-x="0" 
 />
    <glyph glyph-name="nonmarkingreturn" horiz-adv-x="333" 
 />
    <glyph glyph-name="uni0407.a" horiz-adv-x="301" 
d="M74 700c-18 0 -32.833 6.66699 -44.5 20s-17.5 30 -17.5 50s5.83301 36.667 17.5 50s26.5 20 44.5 20s32.667 -6.66699 44 -20s17 -30 17 -50s-5.66699 -36.667 -17 -50s-26 -20 -44 -20zM227 700c-18 0 -32.667 6.66699 -44 20s-17 30 -17 50s5.66699 36.667 17 50
s26 20 44 20s32.833 -6.66699 44.5 -20s17.5 -30 17.5 -50s-5.83301 -36.667 -17.5 -50s-26.5 -20 -44.5 -20zM77 0v652h147v-652h-147z" />
    <glyph glyph-name="uni0457.a" horiz-adv-x="299" 
d="M72 571c-18 0 -33 6.66699 -45 20s-18 30 -18 50c0 19.333 6 35.666 18 48.999s27 20 45 20s33.167 -6.66699 45.5 -20s18.5 -29.666 18.5 -48.999c0 -20 -6.16699 -36.667 -18.5 -50s-27.5 -20 -45.5 -20zM227 571c-18 0 -33 6.66699 -45 20s-18 30 -18 50
c0 19.333 6 35.666 18 48.999s27 20 45 20s33 -6.66699 45 -20s18 -29.666 18 -48.999c0 -20 -6 -36.667 -18 -50s-27 -20 -45 -20zM77 0v496h147v-496h-147z" />
    <glyph glyph-name="uni0431.srb" horiz-adv-x="546" 
d="M270 107c28.667 0 52.501 10.333 71.501 31s28.5 50.667 28.5 90c0 26.667 -6.83301 49.5 -20.5 68.5s-33.834 38.5 -60.501 58.5c-35.333 -9.33301 -63.5 -25.833 -84.5 -49.5s-31.5 -53.5 -31.5 -89.5c0 -33.333 9.5 -59.833 28.5 -79.5s41.833 -29.5 68.5 -29.5z
M483.001 730l28 -128c-30 -17.333 -71.333 -27.666 -124 -30.999c-70 -4.66699 -112.833 -8.5 -128.5 -11.5s-23.5 -9.16699 -23.5 -18.5c0 -6.66699 4.66699 -13.334 14 -20.001s26 -16.334 50 -29.001s45.333 -25.334 64 -38.001c48 -31.333 84 -64.833 108 -100.5
s36 -79.167 36 -130.5c0 -70 -22 -126.667 -66 -170s-102.667 -65 -176 -65c-64.667 0 -118.5 20.333 -161.5 61s-64.5 94.334 -64.5 161.001c0 53.333 14.833 97.166 44.5 131.499s69.5 59.166 119.5 74.499c-74 53.333 -111 103 -111 149
c0 48.667 17.833 82.834 53.5 102.501s90.167 31.834 163.5 36.501c55.333 2.66699 94 5.83398 116 9.50098s41.333 9.16699 58 16.5z" />
    <glyph glyph-name="i.trk" horiz-adv-x="276" 
d="M65 0v496h147v-496h-147zM138 569c-24.667 0 -45 7.16699 -61 21.5s-24 32.833 -24 55.5s8 41 24 55s36.333 21 61 21c25.333 0 45.833 -7 61.5 -21s23.5 -32.333 23.5 -55s-8 -41.167 -24 -55.5s-36.333 -21.5 -61 -21.5z" />
    </font>
</defs>
</svg>
